<?xml version="1.0" encoding="utf-8"?>
<!-- Generator: Adobe Illustrator 16.0.0, SVG Export Plug-In . SVG Version: 6.00 Build 0)  -->
<!DOCTYPE svg PUBLIC "-//W3C//DTD SVG 1.1//EN" "http://www.w3.org/Graphics/SVG/1.1/DTD/svg11.dtd">
<svg version="1.1" id="Capa_1" xmlns="http://www.w3.org/2000/svg" xmlns:xlink="http://www.w3.org/1999/xlink" x="0px" y="0px"
	 width="234px" height="177px" viewBox="67.692 52.833 234 177" enable-background="new 67.692 52.833 234 177"
	 xml:space="preserve">
<g>
	<g>
		<g>
			
				<image overflow="visible" opacity="0.25" enable-background="new    " width="683" height="388" xlink:href="893E605C9544A881.png"  transform="matrix(0.1483 0 0 0.1483 137.6855 60.4419)">
			</image>
			<g>
				<g enable-background="new    ">
					<path fill="#1C75BC" d="M159.103,92.389l-3.066,0.399l-0.837-6.445l2.991-0.389c1.316-0.171,2.212,0.377,2.343,1.39
						l0.004,0.019c0.094,0.728-0.24,1.182-0.667,1.5c0.783,0.188,1.3,0.56,1.412,1.426l0.003,0.018
						C161.438,91.487,160.557,92.201,159.103,92.389z M159.156,87.767c-0.055-0.423-0.417-0.62-1.016-0.542l-1.399,0.182
						l0.177,1.362l1.308-0.17c0.627-0.081,0.995-0.335,0.934-0.814L159.156,87.767z M159.851,90.298
						c-0.056-0.432-0.413-0.658-1.14-0.562l-1.64,0.213l0.185,1.417l1.685-0.219c0.627-0.081,0.975-0.351,0.913-0.83L159.851,90.298
						z"/>
					<path fill="#1C75BC" d="M162.684,91.924l-0.838-6.445l4.861-0.632l0.164,1.261l-3.452,0.449l0.17,1.308l3.037-0.395
						l0.165,1.261l-3.039,0.395l0.177,1.354l3.499-0.455l0.164,1.261L162.684,91.924z"/>
					<path fill="#1C75BC" d="M171.156,90.916c-0.975,0.127-2.005-0.085-2.867-0.675l0.708-1.112
						c0.642,0.403,1.289,0.628,2.025,0.533c0.58-0.076,0.899-0.351,0.851-0.729l-0.002-0.018c-0.047-0.359-0.292-0.515-1.405-0.65
						c-1.341-0.163-2.226-0.413-2.392-1.693l-0.002-0.018c-0.151-1.169,0.687-2.065,2.002-2.236c0.94-0.122,1.779,0.068,2.501,0.509
						l-0.598,1.163c-0.623-0.322-1.215-0.487-1.759-0.417c-0.542,0.071-0.797,0.356-0.755,0.669l0.003,0.019
						c0.055,0.423,0.349,0.525,1.5,0.666c1.352,0.171,2.149,0.544,2.295,1.667l0.002,0.019
						C173.43,89.891,172.547,90.735,171.156,90.916z"/>
					<path fill="#1C75BC" d="M176.859,84.857l0.667,5.138l-1.418,0.184l-0.669-5.137l-1.961,0.254l-0.17-1.308l5.341-0.693
						l0.17,1.308L176.859,84.857z"/>
					<path fill="#1C75BC" d="M186.479,88.943c-1.987,0.258-3.607-1.038-3.846-2.87l-0.002-0.018c-0.238-1.832,1.013-3.521,3-3.779
						c1.988-0.258,3.607,1.038,3.847,2.871l0.002,0.018C189.719,86.996,188.47,88.684,186.479,88.943z M188,85.357
						c-0.144-1.105-1.074-1.92-2.216-1.772c-1.142,0.148-1.815,1.154-1.672,2.258l0.002,0.018c0.143,1.104,1.074,1.92,2.215,1.771
						s1.816-1.154,1.672-2.259L188,85.357z"/>
					<path fill="#1C75BC" d="M191.909,82.882l0.178,1.372l3.075-0.4l0.168,1.289l-3.074,0.399l0.324,2.496l-1.418,0.184
						l-0.837-6.445l4.906-0.638l0.168,1.289L191.909,82.882z"/>
					<path fill="#1C75BC" d="M197.95,82.097l0.178,1.372l3.075-0.399l0.168,1.288l-3.075,0.4l0.324,2.495l-1.418,0.185l-0.838-6.445
						l4.907-0.638l0.169,1.289L197.95,82.097z"/>
					<path fill="#1C75BC" d="M203.242,86.652l-0.838-6.445l4.862-0.631l0.163,1.261l-3.453,0.448l0.171,1.308l3.037-0.395
						l0.165,1.261l-3.039,0.395l0.176,1.354l3.498-0.455l0.165,1.261L203.242,86.652z"/>
					<path fill="#1C75BC" d="M213.324,85.342l-1.649-1.883l-1.114,0.145l0.269,2.062l-1.416,0.184l-0.839-6.445l2.945-0.383
						c1.52-0.197,2.534,0.485,2.708,1.811l0.003,0.018c0.135,1.041-0.342,1.767-1.122,2.178l1.873,2.097L213.324,85.342z
						 M212.801,81.094c-0.079-0.608-0.544-0.866-1.233-0.777l-1.41,0.184l0.241,1.851l1.437-0.187
						c0.69-0.09,1.039-0.509,0.969-1.053L212.801,81.094z"/>
				</g>
			</g>
		</g>
		<g>
			
				<image overflow="visible" opacity="0.25" enable-background="new    " width="1433" height="750" xlink:href="893E605C9544A883.png"  transform="matrix(0.1489 0 0 0.1489 80.0181 89.5581)">
			</image>
			<g>
				<path fill="#3D81C3" d="M245.487,161.607l-117.315,15.371c-15.045,1.971-28.969-8.727-30.939-23.771l0,0
					c-1.971-15.047,8.727-28.969,23.771-30.94l117.315-15.371c15.046-1.972,28.969,8.726,30.94,23.771l0,0
					C271.229,145.712,260.533,159.636,245.487,161.607z"/>
			</g>
		</g>
		<g>
			
				<image overflow="visible" opacity="0.25" enable-background="new    " width="1400" height="721" xlink:href="893E605C9544A886.png"  transform="matrix(0.149 0 0 0.149 82.4014 91.6685)">
			</image>
			<g>
				<path fill="#3D81C3" d="M124.593,174.919c-12.658,0-23.443-9.463-25.087-22.012c-1.812-13.83,7.966-26.556,21.796-28.368
					l117.314-15.371c1.087-0.143,2.191-0.215,3.281-0.215c12.658,0,23.444,9.463,25.088,22.011
					c1.812,13.832-7.966,26.556-21.796,28.369l-117.315,15.369C126.786,174.847,125.683,174.919,124.593,174.919z"/>
			</g>
		</g>
		<g>
			
				<image overflow="visible" opacity="0.15" enable-background="new    " width="1029" height="583" xlink:href="893E605C9544A887.png"  transform="matrix(0.149 0 0 0.149 106.0698 104.5918)">
			</image>
			<g>
				<g enable-background="new    ">
					<path fill="#FFFFFF" d="M134.229,165.916c-4.812,0.631-9.889-0.414-14.148-3.318l3.483-5.488
						c3.169,1.984,6.361,3.092,9.993,2.615c2.859-0.375,4.437-1.736,4.191-3.598l-0.012-0.09c-0.232-1.771-1.44-2.537-6.931-3.203
						c-6.614-0.795-10.978-2.023-11.804-8.334l-0.013-0.09c-0.755-5.766,3.376-10.187,9.867-11.037
						c4.631-0.606,8.771,0.329,12.332,2.494l-2.941,5.742c-3.07-1.583-5.993-2.402-8.673-2.051c-2.678,0.351-3.925,1.76-3.723,3.305
						l0.012,0.091c0.273,2.089,1.726,2.591,7.402,3.278c6.666,0.834,10.601,2.674,11.327,8.213l0.012,0.09
						C145.433,160.845,141.084,165.017,134.229,165.916z"/>
					<path fill="#FFFFFF" d="M174.888,160.126l-3.838-6.746l-13.438,1.76l-1.972,7.508l-7.127,0.936l9.426-33.789l6.446-0.844
						l17.812,30.219L174.888,160.126z M162.172,137.783L159.3,148.64l8.444-1.107L162.172,137.783z"/>
					<path fill="#FFFFFF" d="M187.099,158.527l-4.164-31.776l6.99-0.916l3.33,25.42l15.844-2.076l0.833,6.355L187.099,158.527z"/>
					<path fill="#FFFFFF" d="M215.194,154.845l-4.162-31.775L235,119.93l0.814,6.219l-17.022,2.23l0.844,6.447l14.98-1.963
						l0.815,6.218l-14.98,1.963l0.874,6.672l17.249-2.26l0.815,6.219L215.194,154.845z"/>
				</g>
			</g>
		</g>
		<g>
			
				<image overflow="visible" opacity="0.25" enable-background="new    " width="1438" height="758" xlink:href="893E605C9544A882.png"  transform="matrix(0.1488 0 0 0.1488 78.6562 89.292)">
			</image>
			<g>
				<path fill="#72CEF5" d="M244.914,161.72c0,0-5.671,0.805-15.595,2.211c-9.928,1.375-24.11,3.342-41.129,5.703
					c-8.512,1.158-17.734,2.416-27.487,3.742c-9.755,1.318-20.042,2.705-30.684,4.141c-0.666,0.088-1.332,0.178-2,0.266l-0.25,0.033
					l-0.164,0.018l-0.125,0.012l-0.505,0.041l-1.011,0.08l-1.012,0.084c-0.344,0.014-0.703-0.008-1.055-0.01
					c-0.706-0.021-1.42-0.008-2.121-0.062c-2.795-0.234-5.56-0.904-8.21-1.92c-5.256-2.127-9.986-5.824-13.176-10.678
					c-0.849-1.182-1.482-2.492-2.162-3.781c-0.543-1.35-1.143-2.684-1.495-4.107l-0.307-1.051c-0.101-0.352-0.144-0.717-0.217-1.074
					l-0.2-1.08l-0.099-0.541l-0.05-0.27c-0.009-0.035-0.021-0.168-0.021-0.176l-0.011-0.133l-0.173-2.127
					c-0.042-0.35-0.039-0.721-0.026-1.096l0.021-1.117c0.125-5.922,2.3-11.678,5.838-16.398c1.825-2.322,3.989-4.365,6.401-6.056
					c2.397-1.724,5.125-2.943,7.924-3.806l1.058-0.305c0.352-0.107,0.705-0.207,1.068-0.259l2.164-0.393
					c1.421-0.206,2.824-0.371,4.233-0.558c2.814-0.364,5.622-0.727,8.417-1.089c11.183-1.445,22.187-2.868,32.836-4.245
					c10.653-1.354,20.95-2.664,30.717-3.906c9.766-1.229,19-2.39,27.522-3.463c4.262-0.534,8.346-1.046,12.232-1.533
					c0.484-0.06,0.968-0.118,1.446-0.178c0.52-0.057,0.972-0.075,1.455-0.113c0.476-0.034,0.947-0.067,1.417-0.101
					c0.473-0.014,0.954,0.02,1.425,0.027c0.474,0.014,0.941,0.029,1.407,0.043c0.463,0.036,0.915,0.113,1.367,0.167
					c0.452,0.06,0.899,0.119,1.344,0.178c0.443,0.073,0.872,0.195,1.304,0.289c3.444,0.782,6.488,2.17,9.047,3.816
					c2.568,1.65,4.581,3.632,6.22,5.537c3.224,3.902,4.671,7.692,5.364,10.267c0.408,1.284,0.521,2.314,0.648,2.995
					c0.117,0.684,0.179,1.036,0.179,1.036s-0.069-0.351-0.201-1.033c-0.143-0.678-0.279-1.702-0.714-2.973
					c-0.742-2.556-2.29-6.272-5.527-10.079c-1.651-1.855-3.67-3.774-6.223-5.355c-2.542-1.576-5.551-2.885-8.929-3.593
					c-0.424-0.085-0.844-0.198-1.276-0.262c-0.434-0.05-0.873-0.101-1.314-0.151c-0.441-0.045-0.887-0.115-1.335-0.142
					c-0.448-0.006-0.898-0.012-1.354-0.018c-0.454,0-0.908-0.028-1.374-0.007c-0.468,0.041-0.938,0.083-1.413,0.125
					c-0.467,0.045-0.974,0.077-1.415,0.133c-0.478,0.066-0.96,0.133-1.444,0.202c-3.879,0.531-7.956,1.087-12.213,1.669
					c-8.512,1.16-17.733,2.416-27.486,3.745c-9.756,1.315-20.043,2.703-30.685,4.139c-10.646,1.413-21.645,2.873-32.822,4.356
					c-2.794,0.372-5.601,0.744-8.413,1.117c-1.403,0.191-2.824,0.364-4.219,0.571l-2.037,0.377
					c-0.344,0.049-0.676,0.144-1.006,0.247l-0.995,0.291c-2.632,0.822-5.195,1.973-7.445,3.606
					c-2.265,1.598-4.291,3.532-6.008,5.717c-1.672,2.219-3.016,4.678-3.977,7.278c-0.999,2.586-1.45,5.385-1.566,8.105l-0.026,1.021
					c-0.015,0.338-0.022,0.68,0.02,1.039l0.165,2.131l0.011,0.133c0.007,0.08,0,0.039,0.011,0.09l0.047,0.254l0.093,0.51
					l0.184,1.018c0.069,0.338,0.106,0.682,0.2,1.014l0.287,0.992c0.324,1.344,0.891,2.6,1.396,3.879
					c0.64,1.213,1.229,2.455,2.029,3.57c2.994,4.596,7.46,8.109,12.425,10.139c2.504,0.969,5.116,1.611,7.762,1.842
					c0.655,0.055,1.306,0.039,1.958,0.066c0.327,0.004,0.646,0.027,0.979,0.016l1.013-0.08l1.011-0.078l0.505-0.039l0.126-0.01
					c0.051-0.004,0.013,0,0.088-0.01l0.251-0.033c0.668-0.086,1.335-0.172,2.001-0.258c10.652-1.354,20.949-2.662,30.715-3.904
					c9.766-1.229,18.999-2.391,27.523-3.463c17.053-2.105,31.262-3.857,41.209-5.086C239.229,162.404,244.914,161.72,244.914,161.72
					z"/>
			</g>
		</g>
		<g>
			
				<image overflow="visible" opacity="0.25" enable-background="new    " width="1033" height="492" xlink:href="893E605C9544A88D.png"  transform="matrix(0.149 0 0 0.149 119.7515 149.2729)">
			</image>
			<g>
				<g enable-background="new    ">
					<path fill="#1C75BC" d="M139.637,195.728l-1.619-11.943l2.628-0.357l1.296,9.557l5.955-0.807l0.323,2.389L139.637,195.728z"/>
					<path fill="#1C75BC" d="M155.283,193.607l-0.135-0.988c-0.536,0.785-1.344,1.363-2.606,1.535
						c-1.724,0.234-3.273-0.564-3.52-2.373l-0.004-0.035c-0.271-1.996,1.123-3.123,3.29-3.416c0.921-0.125,1.607-0.061,2.286,0.072
						l-0.021-0.154c-0.146-1.074-0.892-1.582-2.188-1.404c-0.99,0.133-1.664,0.416-2.458,0.836l-0.917-1.891
						c0.946-0.582,1.896-1.006,3.449-1.215c2.832-0.385,4.277,0.914,4.612,3.387l0.72,5.307L155.283,193.607z M154.834,189.916
						c-0.472-0.145-1.07-0.203-1.702-0.117c-1.108,0.15-1.73,0.688-1.62,1.506l0.004,0.033c0.096,0.699,0.731,1.031,1.566,0.918
						c1.212-0.164,1.941-0.941,1.814-1.879L154.834,189.916z"/>
					<path fill="#1C75BC" d="M165.809,192.181l-0.691-5.102c-0.166-1.229-0.832-1.781-1.821-1.646
						c-0.989,0.133-1.535,0.85-1.369,2.08l0.691,5.1l-2.594,0.352l-1.239-9.145l2.594-0.354l0.176,1.297
						c0.492-0.848,1.166-1.65,2.479-1.828c1.962-0.268,3.281,0.875,3.565,2.973l0.803,5.922L165.809,192.181z"/>
					<path fill="#1C75BC" d="M170.346,191.566l-0.247-1.826l4.019-5.861l-4.572,0.619l-0.285-2.098l7.798-1.059l0.247,1.826
						l-4.035,5.865l4.743-0.643l0.285,2.098L170.346,191.566z"/>
					<path fill="#1C75BC" d="M185.616,189.498l-0.135-0.992c-0.535,0.787-1.344,1.365-2.606,1.537
						c-1.724,0.234-3.272-0.564-3.519-2.373l-0.004-0.035c-0.271-1.996,1.122-3.123,3.289-3.416
						c0.922-0.127,1.608-0.062,2.286,0.072l-0.021-0.152c-0.146-1.076-0.893-1.584-2.189-1.408
						c-0.989,0.135-1.663,0.418-2.457,0.838l-0.917-1.893c0.945-0.58,1.896-1.004,3.448-1.215c2.834-0.383,4.279,0.916,4.612,3.391
						l0.72,5.307L185.616,189.498z M185.168,185.804c-0.472-0.145-1.07-0.203-1.701-0.117c-1.109,0.15-1.731,0.686-1.62,1.506
						l0.004,0.033c0.095,0.699,0.73,1.031,1.566,0.918c1.212-0.164,1.941-0.939,1.813-1.879L185.168,185.804z"/>
					<path fill="#1C75BC" d="M201.722,187.314l-0.69-5.102c-0.167-1.229-0.798-1.787-1.771-1.654
						c-0.974,0.131-1.485,0.844-1.318,2.072l0.692,5.102l-2.595,0.352l-0.691-5.102c-0.166-1.229-0.799-1.785-1.771-1.654
						s-1.485,0.846-1.318,2.074l0.692,5.102l-2.594,0.35l-1.238-9.146l2.592-0.35l0.176,1.297c0.493-0.85,1.184-1.654,2.497-1.832
						c1.195-0.162,2.171,0.244,2.773,1.102c0.676-1.049,1.561-1.689,2.807-1.857c1.927-0.264,3.247,0.74,3.544,2.941l0.807,5.955
						L201.722,187.314z"/>
					<path fill="#1C75BC" d="M205.241,176.498l-0.312-2.303l2.73-0.369l0.312,2.303L205.241,176.498z M206.685,186.64l-1.238-9.145
						l2.594-0.352l1.239,9.146L206.685,186.64z"/>
					<path fill="#1C75BC" d="M219.718,181.14l-6.365,0.861c0.416,1.143,1.318,1.645,2.479,1.488c0.87-0.117,1.465-0.477,2.092-1.238
						l1.661,1.111c-0.709,1.176-1.85,1.99-3.505,2.213c-2.747,0.373-5.039-1.281-5.418-4.078l-0.006-0.035
						c-0.354-2.609,1.215-5.012,3.877-5.373c3.055-0.414,4.775,1.77,5.127,4.361l0.004,0.035
						C219.7,180.742,219.703,180.896,219.718,181.14z M214.815,178.173c-1.075,0.145-1.671,1.008-1.716,2.211l3.907-0.529
						C216.696,178.716,215.907,178.025,214.815,178.173z"/>
					<path fill="#1C75BC" d="M227.961,183.757l-0.692-5.102c-0.166-1.229-0.832-1.781-1.82-1.646
						c-0.99,0.133-1.536,0.852-1.369,2.078l0.69,5.102l-2.594,0.352l-1.239-9.145l2.595-0.352l0.175,1.295
						c0.492-0.848,1.166-1.65,2.48-1.828c1.962-0.266,3.28,0.875,3.565,2.975l0.802,5.92L227.961,183.757z"/>
					<path fill="#1C75BC" d="M235.915,182.835c-1.588,0.217-2.748-0.271-3.035-2.387l-0.588-4.334l-1.092,0.148l-0.3-2.219
						l1.092-0.146l-0.316-2.338l2.594-0.352l0.316,2.338l2.149-0.291l0.301,2.217l-2.15,0.291l0.53,3.908
						c0.082,0.598,0.376,0.854,0.956,0.775c0.479-0.064,0.889-0.242,1.235-0.5l0.283,2.082
						C237.389,182.427,236.785,182.718,235.915,182.835z"/>
					<path fill="#1C75BC" d="M244.145,181.773c-2.833,0.383-5.216-1.432-5.571-4.059l-0.006-0.035
						c-0.354-2.627,1.471-5.047,4.321-5.434c2.832-0.383,5.216,1.432,5.571,4.059l0.005,0.035
						C248.821,178.966,246.994,181.386,244.145,181.773z M245.904,176.687c-0.183-1.35-1.313-2.395-2.747-2.199
						c-1.484,0.199-2.217,1.465-2.034,2.812l0.005,0.035c0.182,1.346,1.314,2.393,2.748,2.197c1.484-0.201,2.217-1.463,2.034-2.812
						L245.904,176.687z"/>
				</g>
			</g>
		</g>
		<g>
			
				<image overflow="visible" opacity="0.15" enable-background="new    " width="829" height="396" xlink:href="893E605C9544A88E.png"  transform="matrix(0.1485 0 0 0.1485 129.3247 79.6279)">
			</image>
			<g>
				<g>
					
						<linearGradient id="SVGID_1_" gradientUnits="userSpaceOnUse" x1="-4.9893" y1="225.4702" x2="97.679" y2="226.3316" gradientTransform="matrix(1 0 0 1 141.0771 -120.3066)">
						<stop  offset="0" style="stop-color:#4682C3"/>
						<stop  offset="0.2634" style="stop-color:#4471B8"/>
						<stop  offset="0.6242" style="stop-color:#425EAB"/>
						<stop  offset="0.7048" style="stop-color:#3A56A6"/>
						<stop  offset="0.8858" style="stop-color:#2C499F"/>
						<stop  offset="1" style="stop-color:#26459C"/>
					</linearGradient>
					<path fill="url(#SVGID_1_)" d="M238.681,98.878c-1.007-7.681-8.114-13.141-15.795-12.134l-74.588,9.772
						c-7.681,1.006-13.141,8.114-12.135,15.793c1.006,7.681,8.113,13.141,15.794,12.135l74.589-9.773
						C234.227,113.666,239.687,106.559,238.681,98.878z"/>
				</g>
			</g>
		</g>
		<g>
			
				<image overflow="visible" opacity="0.15" enable-background="new    " width="642" height="317" xlink:href="893E605C9544A88F.png"  transform="matrix(0.1483 0 0 0.1483 139.8071 84.6377)">
			</image>
			<g>
				<g enable-background="new    ">
					<path fill="#FFFFFF" d="M154.078,118.4c-2.456,0.322-5.047-0.21-7.222-1.694l1.777-2.802c1.618,1.014,3.247,1.578,5.1,1.335
						c1.461-0.191,2.265-0.886,2.141-1.836l-0.006-0.046c-0.118-0.903-0.736-1.294-3.537-1.634
						c-3.376-0.407-5.604-1.033-6.024-4.254l-0.007-0.046c-0.386-2.943,1.723-5.199,5.036-5.632c2.362-0.31,4.476,0.168,6.293,1.273
						l-1.501,2.93c-1.567-0.808-3.06-1.226-4.426-1.046c-1.366,0.179-2.004,0.898-1.9,1.687l0.007,0.046
						c0.14,1.066,0.879,1.323,3.776,1.673c3.403,0.427,5.411,1.364,5.781,4.191l0.007,0.046
						C159.796,115.812,157.576,117.942,154.078,118.4z"/>
					<path fill="#FFFFFF" d="M169.907,116.351c-4.355,0.571-7.339-1.513-7.964-6.286l-1.215-9.268l3.568-0.467l1.202,9.174
						c0.346,2.642,1.845,3.836,4.022,3.551c2.179-0.285,3.327-1.779,2.989-4.351l-1.217-9.291l3.567-0.467l1.199,9.151
						C176.704,113.008,174.262,115.78,169.907,116.351z"/>
					<path fill="#FFFFFF" d="M186.267,108.998l-2.71,0.355l0.637,4.865l-3.568,0.467l-2.124-16.218l6.625-0.868
						c3.869-0.507,6.511,1.479,6.944,4.793l0.006,0.046C192.568,106.193,189.904,108.521,186.267,108.998z M188.466,102.937
						c-0.209-1.598-1.434-2.31-3.219-2.076l-2.756,0.361l0.65,4.958l2.825-0.37c1.784-0.234,2.687-1.436,2.505-2.827
						L188.466,102.937z"/>
					<path fill="#FFFFFF" d="M196.105,112.659l-2.126-16.218l12.233-1.603l0.416,3.173l-8.688,1.139l0.431,3.29l7.646-1.001
						l0.415,3.175l-7.646,1.001l0.447,3.406l8.804-1.153l0.416,3.174L196.105,112.659z"/>
					<path fill="#FFFFFF" d="M221.476,109.335l-4.155-4.734l-2.803,0.368l0.68,5.189l-3.568,0.467l-2.124-16.218l7.413-0.972
						c3.822-0.501,6.381,1.213,6.817,4.55l0.007,0.046c0.343,2.618-0.856,4.449-2.817,5.484l4.722,5.272L221.476,109.335z
						 M220.146,98.645c-0.2-1.529-1.369-2.177-3.106-1.949l-3.545,0.465l0.61,4.657l3.613-0.474
						c1.738-0.228,2.613-1.284,2.435-2.651L220.146,98.645z"/>
				</g>
			</g>
		</g>
		<g>
			<path fill="#86ACDB" d="M238.681,98.878c0,0-0.034-0.166-0.099-0.486c-0.079-0.316-0.125-0.807-0.337-1.403
				c-0.337-1.206-1.036-2.97-2.51-4.797c-1.449-1.814-3.735-3.718-6.854-4.648c-1.544-0.468-3.274-0.692-5.073-0.545
				c-0.89,0.064-1.837,0.224-2.796,0.352c-0.959,0.134-1.942,0.271-2.944,0.411c-4.014,0.561-8.362,1.169-12.96,1.812
				c-4.6,0.641-9.447,1.332-14.469,1.992c-10.04,1.345-20.75,2.779-31.461,4.213c-2.68,0.344-5.358,0.687-8.027,1.03l-2,0.257
				c-0.317,0.045-0.7,0.078-0.964,0.135l-0.988,0.177c-0.335,0.055-0.607,0.167-0.914,0.246c-0.299,0.084-0.599,0.163-0.894,0.295
				l-0.885,0.354l-0.845,0.44c-1.103,0.623-2.149,1.359-3.023,2.269c-0.89,0.889-1.672,1.887-2.264,2.985
				c-0.333,0.53-0.549,1.116-0.812,1.677c-0.185,0.59-0.432,1.162-0.541,1.77c-0.318,1.191-0.384,2.425-0.365,3.634
				c0.177,4.896,3.116,9.285,7.082,11.393c1.952,1.11,4.145,1.617,6.252,1.67c1.055,0.034,2.089-0.104,3.146-0.232
				c1.047-0.128,2.072-0.254,3.078-0.376c8.044-0.993,14.758-1.736,19.452-2.295c4.698-0.531,7.383-0.834,7.383-0.834
				s-2.672,0.398-7.349,1.096c-4.68,0.669-11.358,1.68-19.387,2.792c-1.003,0.14-2.027,0.283-3.071,0.43
				c-1.029,0.142-2.134,0.311-3.263,0.294c-2.245-0.016-4.598-0.519-6.713-1.67l-0.792-0.437c-0.258-0.156-0.503-0.337-0.756-0.507
				c-0.519-0.324-0.968-0.745-1.447-1.134c-0.896-0.846-1.762-1.766-2.436-2.842c-0.375-0.513-0.646-1.093-0.954-1.655
				c-0.146-0.285-0.25-0.591-0.377-0.887c-0.119-0.299-0.253-0.591-0.335-0.915l-0.277-0.954c-0.091-0.319-0.124-0.618-0.188-0.929
				l-0.087-0.464l-0.021-0.116l-0.015-0.088l-0.006-0.061l-0.021-0.245l-0.08-0.984c-0.03-1.315,0.038-2.66,0.375-3.96
				c0.118-0.662,0.378-1.288,0.58-1.932c0.279-0.614,0.516-1.254,0.872-1.834c0.64-1.2,1.485-2.294,2.451-3.27
				c0.95-0.997,2.089-1.812,3.292-2.499l0.923-0.486l0.969-0.395c0.316-0.143,0.661-0.24,1.006-0.338
				c0.339-0.091,0.695-0.221,1.021-0.276l0.988-0.184c0.394-0.078,0.682-0.098,1.028-0.15l1.997-0.268
				c2.667-0.357,5.346-0.715,8.022-1.073c10.719-1.373,21.437-2.747,31.485-4.034c5.021-0.656,9.884-1.237,14.491-1.803
				c4.609-0.564,8.967-1.096,12.989-1.588c1.006-0.123,1.991-0.244,2.953-0.361c0.966-0.111,1.89-0.256,2.845-0.296
				c1.887-0.1,3.684,0.185,5.27,0.716c3.202,1.056,5.483,3.078,6.907,4.966c1.457,1.902,2.075,3.717,2.374,4.943
				c0.19,0.607,0.217,1.097,0.283,1.417C238.652,98.712,238.681,98.878,238.681,98.878z"/>
		</g>
	</g>
	
		<linearGradient id="SVGID_2_" gradientUnits="userSpaceOnUse" x1="92.9204" y1="347.8413" x2="106.0176" y2="347.8413" gradientTransform="matrix(1 0 0 1 168 -145.3066)">
		<stop  offset="0" style="stop-color:#4682C3"/>
		<stop  offset="0.2017" style="stop-color:#4471B8"/>
		<stop  offset="0.478" style="stop-color:#425EAB"/>
		<stop  offset="0.59" style="stop-color:#3A56A6"/>
		<stop  offset="0.8415" style="stop-color:#2C499F"/>
		<stop  offset="1" style="stop-color:#26459C"/>
	</linearGradient>
	<polygon fill="none" stroke="url(#SVGID_2_)" stroke-width="1.0692" stroke-miterlimit="10" points="272.948,202.535 
		261.455,195.9 261.455,209.169 	"/>
	
		<linearGradient id="SVGID_3_" gradientUnits="userSpaceOnUse" x1="-65.9487" y1="242.9351" x2="-52.853" y2="242.9351" gradientTransform="matrix(1 0 0 1 168 -145.3066)">
		<stop  offset="0" style="stop-color:#4682C3"/>
		<stop  offset="0.2017" style="stop-color:#4471B8"/>
		<stop  offset="0.478" style="stop-color:#425EAB"/>
		<stop  offset="0.59" style="stop-color:#3A56A6"/>
		<stop  offset="0.8415" style="stop-color:#2C499F"/>
		<stop  offset="1" style="stop-color:#26459C"/>
	</linearGradient>
	<polygon fill="none" stroke="url(#SVGID_3_)" stroke-width="1.0692" stroke-miterlimit="10" points="103.12,97.629 
		114.612,104.264 114.612,90.994 	"/>
	
		<linearGradient id="SVGID_4_" gradientUnits="userSpaceOnUse" x1="106.3945" y1="231.6636" x2="121.5166" y2="231.6636" gradientTransform="matrix(1 0 0 1 168 -145.3066)">
		<stop  offset="0" style="stop-color:#4682C3"/>
		<stop  offset="0.2017" style="stop-color:#4471B8"/>
		<stop  offset="0.478" style="stop-color:#425EAB"/>
		<stop  offset="0.59" style="stop-color:#3A56A6"/>
		<stop  offset="0.8415" style="stop-color:#2C499F"/>
		<stop  offset="1" style="stop-color:#26459C"/>
	</linearGradient>
	<polygon fill="none" stroke="url(#SVGID_4_)" stroke-width="1.0692" stroke-miterlimit="10" points="281.955,80.879 275.32,92.371 
		288.591,92.371 	"/>
	
		<linearGradient id="SVGID_5_" gradientUnits="userSpaceOnUse" x1="-88.9385" y1="336.5669" x2="-73.8164" y2="336.5669" gradientTransform="matrix(1 0 0 1 168 -145.3066)">
		<stop  offset="0" style="stop-color:#4682C3"/>
		<stop  offset="0.2017" style="stop-color:#4471B8"/>
		<stop  offset="0.478" style="stop-color:#425EAB"/>
		<stop  offset="0.59" style="stop-color:#3A56A6"/>
		<stop  offset="0.8415" style="stop-color:#2C499F"/>
		<stop  offset="1" style="stop-color:#26459C"/>
	</linearGradient>
	<polygon fill="none" stroke="url(#SVGID_5_)" stroke-width="1.0692" stroke-miterlimit="10" points="86.623,196.74 93.258,185.246 
		79.987,185.246 	"/>
	<g>
		
			<linearGradient id="SVGID_6_" gradientUnits="userSpaceOnUse" x1="-12.2969" y1="206.6353" x2="-5.5713" y2="206.6353" gradientTransform="matrix(1 0 0 1 168 -145.3066)">
			<stop  offset="0" style="stop-color:#4682C3"/>
			<stop  offset="0.2017" style="stop-color:#4471B8"/>
			<stop  offset="0.478" style="stop-color:#425EAB"/>
			<stop  offset="0.59" style="stop-color:#3A56A6"/>
			<stop  offset="0.8415" style="stop-color:#2C499F"/>
			<stop  offset="1" style="stop-color:#26459C"/>
		</linearGradient>
		
			<line fill="none" stroke="url(#SVGID_6_)" stroke-width="1.2398" stroke-miterlimit="10" x1="155.703" y1="61.329" x2="162.429" y2="61.329"/>
		
			<linearGradient id="SVGID_7_" gradientUnits="userSpaceOnUse" x1="-9.5537" y1="206.6343" x2="-8.3135" y2="206.6343" gradientTransform="matrix(1 0 0 1 168 -145.3066)">
			<stop  offset="0" style="stop-color:#4682C3"/>
			<stop  offset="0.2017" style="stop-color:#4471B8"/>
			<stop  offset="0.478" style="stop-color:#425EAB"/>
			<stop  offset="0.59" style="stop-color:#3A56A6"/>
			<stop  offset="0.8415" style="stop-color:#2C499F"/>
			<stop  offset="1" style="stop-color:#26459C"/>
		</linearGradient>
		
			<line fill="none" stroke="url(#SVGID_7_)" stroke-width="1.2398" stroke-miterlimit="10" x1="159.066" y1="64.691" x2="159.066" y2="57.965"/>
	</g>
	<g>
		
			<linearGradient id="SVGID_8_" gradientUnits="userSpaceOnUse" x1="112.4619" y1="269.8706" x2="119.1865" y2="269.8706" gradientTransform="matrix(1 0 0 1 168 -145.3066)">
			<stop  offset="0" style="stop-color:#4682C3"/>
			<stop  offset="0.2017" style="stop-color:#4471B8"/>
			<stop  offset="0.478" style="stop-color:#425EAB"/>
			<stop  offset="0.59" style="stop-color:#3A56A6"/>
			<stop  offset="0.8415" style="stop-color:#2C499F"/>
			<stop  offset="1" style="stop-color:#26459C"/>
		</linearGradient>
		
			<line fill="none" stroke="url(#SVGID_8_)" stroke-width="1.2398" stroke-miterlimit="10" x1="280.462" y1="124.564" x2="287.187" y2="124.564"/>
		
			<linearGradient id="SVGID_9_" gradientUnits="userSpaceOnUse" x1="115.2041" y1="269.8706" x2="116.4443" y2="269.8706" gradientTransform="matrix(1 0 0 1 168 -145.3066)">
			<stop  offset="0" style="stop-color:#4682C3"/>
			<stop  offset="0.2017" style="stop-color:#4471B8"/>
			<stop  offset="0.478" style="stop-color:#425EAB"/>
			<stop  offset="0.59" style="stop-color:#3A56A6"/>
			<stop  offset="0.8415" style="stop-color:#2C499F"/>
			<stop  offset="1" style="stop-color:#26459C"/>
		</linearGradient>
		
			<line fill="none" stroke="url(#SVGID_9_)" stroke-width="1.2398" stroke-miterlimit="10" x1="283.824" y1="127.928" x2="283.824" y2="121.202"/>
	</g>
	<g>
		
			<linearGradient id="SVGID_10_" gradientUnits="userSpaceOnUse" x1="37.8203" y1="366.6479" x2="44.5459" y2="366.6479" gradientTransform="matrix(1 0 0 1 168 -145.3066)">
			<stop  offset="0" style="stop-color:#4682C3"/>
			<stop  offset="0.2017" style="stop-color:#4471B8"/>
			<stop  offset="0.478" style="stop-color:#425EAB"/>
			<stop  offset="0.59" style="stop-color:#3A56A6"/>
			<stop  offset="0.8415" style="stop-color:#2C499F"/>
			<stop  offset="1" style="stop-color:#26459C"/>
		</linearGradient>
		
			<line fill="none" stroke="url(#SVGID_10_)" stroke-width="1.2398" stroke-miterlimit="10" x1="205.82" y1="221.341" x2="212.546" y2="221.341"/>
		
			<linearGradient id="SVGID_11_" gradientUnits="userSpaceOnUse" x1="40.5625" y1="366.646" x2="41.8027" y2="366.646" gradientTransform="matrix(1 0 0 1 168 -145.3066)">
			<stop  offset="0" style="stop-color:#4682C3"/>
			<stop  offset="0.2017" style="stop-color:#4471B8"/>
			<stop  offset="0.478" style="stop-color:#425EAB"/>
			<stop  offset="0.59" style="stop-color:#3A56A6"/>
			<stop  offset="0.8415" style="stop-color:#2C499F"/>
			<stop  offset="1" style="stop-color:#26459C"/>
		</linearGradient>
		
			<line fill="none" stroke="url(#SVGID_11_)" stroke-width="1.2398" stroke-miterlimit="10" x1="209.183" y1="224.703" x2="209.183" y2="217.976"/>
	</g>
	
		<linearGradient id="SVGID_12_" gradientUnits="userSpaceOnUse" x1="-94.979" y1="278.5132" x2="-88.2261" y2="278.5132" gradientTransform="matrix(1 0 0 1 168 -145.3066)">
		<stop  offset="0" style="stop-color:#4682C3"/>
		<stop  offset="0.2017" style="stop-color:#4471B8"/>
		<stop  offset="0.478" style="stop-color:#425EAB"/>
		<stop  offset="0.59" style="stop-color:#3A56A6"/>
		<stop  offset="0.8415" style="stop-color:#2C499F"/>
		<stop  offset="1" style="stop-color:#26459C"/>
	</linearGradient>
	<circle fill="none" stroke="url(#SVGID_12_)" stroke-width="1.0692" stroke-miterlimit="10" cx="76.396" cy="133.206" r="2.842"/>
	
		<linearGradient id="SVGID_13_" gradientUnits="userSpaceOnUse" x1="121.6128" y1="315.5571" x2="128.3638" y2="315.5571" gradientTransform="matrix(1 0 0 1 168 -145.3066)">
		<stop  offset="0" style="stop-color:#4682C3"/>
		<stop  offset="0.2017" style="stop-color:#4471B8"/>
		<stop  offset="0.478" style="stop-color:#425EAB"/>
		<stop  offset="0.59" style="stop-color:#3A56A6"/>
		<stop  offset="0.8415" style="stop-color:#2C499F"/>
		<stop  offset="1" style="stop-color:#26459C"/>
	</linearGradient>
	<circle fill="none" stroke="url(#SVGID_13_)" stroke-width="1.0692" stroke-miterlimit="10" cx="292.988" cy="170.25" r="2.841"/>
	
		<linearGradient id="SVGID_14_" gradientUnits="userSpaceOnUse" x1="58.5259" y1="216.0073" x2="65.2788" y2="216.0073" gradientTransform="matrix(1 0 0 1 168 -145.3066)">
		<stop  offset="0" style="stop-color:#4682C3"/>
		<stop  offset="0.2017" style="stop-color:#4471B8"/>
		<stop  offset="0.478" style="stop-color:#425EAB"/>
		<stop  offset="0.59" style="stop-color:#3A56A6"/>
		<stop  offset="0.8415" style="stop-color:#2C499F"/>
		<stop  offset="1" style="stop-color:#26459C"/>
	</linearGradient>
	<circle fill="none" stroke="url(#SVGID_14_)" stroke-width="1.0692" stroke-miterlimit="10" cx="229.902" cy="70.701" r="2.841"/>
	
		<linearGradient id="SVGID_15_" gradientUnits="userSpaceOnUse" x1="-14.9448" y1="359.5161" x2="-8.1929" y2="359.5161" gradientTransform="matrix(1 0 0 1 168 -145.3066)">
		<stop  offset="0" style="stop-color:#4682C3"/>
		<stop  offset="0.2017" style="stop-color:#4471B8"/>
		<stop  offset="0.478" style="stop-color:#425EAB"/>
		<stop  offset="0.59" style="stop-color:#3A56A6"/>
		<stop  offset="0.8415" style="stop-color:#2C499F"/>
		<stop  offset="1" style="stop-color:#26459C"/>
	</linearGradient>
	<circle fill="none" stroke="url(#SVGID_15_)" stroke-width="1.0692" stroke-miterlimit="10" cx="156.431" cy="214.209" r="2.841"/>
</g>
</svg>
