<?xml version="1.0" encoding="utf-8"?>
<!-- Generator: Adobe Illustrator 16.0.0, SVG Export Plug-In . SVG Version: 6.00 Build 0)  -->
<!DOCTYPE svg PUBLIC "-//W3C//DTD SVG 1.1//EN" "http://www.w3.org/Graphics/SVG/1.1/DTD/svg11.dtd">
<svg version="1.1" id="Capa_1" xmlns="http://www.w3.org/2000/svg" xmlns:xlink="http://www.w3.org/1999/xlink" x="0px" y="0px"
	 width="369.385px" height="464.336px" viewBox="0 0 369.385 464.336" enable-background="new 0 0 369.385 464.336"
	 xml:space="preserve">
<g>
	<g>
		<g>
			
				<image overflow="visible" opacity="0.25" enable-background="new    " width="683" height="388" xlink:href="9A44B342219C771C.png"  transform="matrix(0.2382 0 0 0.2382 108.2974 -3.0479)">
			</image>
			<g>
				<g enable-background="new    ">
					<path fill="#1C75BC" d="M142.687,48.25l-4.923,0.64l-1.345-10.349l4.804-0.625c2.114-0.275,3.552,0.606,3.763,2.232l0.004,0.03
						c0.152,1.168-0.384,1.898-1.069,2.409c1.257,0.302,2.086,0.9,2.267,2.29l0.004,0.029
						C146.437,46.801,145.022,47.947,142.687,48.25z M142.774,40.828c-0.088-0.68-0.67-0.996-1.631-0.871l-2.247,0.292l0.284,2.188
						l2.1-0.273c1.005-0.13,1.598-0.538,1.499-1.307L142.774,40.828z M143.889,44.892c-0.09-0.694-0.664-1.056-1.831-0.904
						l-2.632,0.342l0.296,2.276l2.705-0.352c1.006-0.13,1.565-0.564,1.466-1.333L143.889,44.892z"/>
					<path fill="#1C75BC" d="M148.438,47.503l-1.345-10.349l7.806-1.015l0.263,2.025l-5.544,0.721l0.273,2.1l4.878-0.634
						l0.263,2.025l-4.878,0.634l0.283,2.173l5.618-0.73l0.263,2.025L148.438,47.503z"/>
					<path fill="#1C75BC" d="M162.044,45.885c-1.567,0.204-3.22-0.138-4.605-1.085l1.136-1.786c1.031,0.647,2.07,1.009,3.252,0.855
						c0.932-0.121,1.446-0.564,1.367-1.171l-0.004-0.029c-0.075-0.576-0.468-0.826-2.255-1.044
						c-2.154-0.261-3.574-0.663-3.841-2.718l-0.004-0.029c-0.244-1.877,1.103-3.316,3.216-3.591c1.508-0.196,2.856,0.11,4.015,0.817
						l-0.96,1.868c-0.999-0.517-1.951-0.783-2.823-0.669c-0.872,0.114-1.279,0.572-1.213,1.074l0.004,0.029
						c0.088,0.68,0.561,0.844,2.409,1.07c2.17,0.275,3.451,0.874,3.685,2.678l0.004,0.029
						C165.693,44.238,164.276,45.595,162.044,45.885z"/>
					<path fill="#1C75BC" d="M171.199,36.156l1.072,8.249l-2.277,0.296l-1.072-8.249l-3.149,0.409l-0.273-2.1l8.574-1.114l0.273,2.1
						L171.199,36.156z"/>
					<path fill="#1C75BC" d="M186.649,42.716c-3.192,0.415-5.793-1.667-6.176-4.608l-0.004-0.029
						c-0.382-2.942,1.626-5.653,4.818-6.068c3.192-0.415,5.794,1.667,6.177,4.609l0.004,0.029
						C191.851,39.59,189.843,42.301,186.649,42.716z M189.089,36.958c-0.23-1.774-1.724-3.083-3.557-2.845
						c-1.833,0.238-2.916,1.852-2.686,3.626l0.004,0.029c0.23,1.773,1.723,3.083,3.557,2.844c1.832-0.238,2.916-1.853,2.686-3.626
						L189.089,36.958z"/>
					<path fill="#1C75BC" d="M195.368,32.984l0.285,2.203l4.938-0.642l0.27,2.069l-4.938,0.642l0.521,4.007l-2.275,0.296
						l-1.346-10.349l7.88-1.024l0.271,2.069L195.368,32.984z"/>
					<path fill="#1C75BC" d="M205.067,31.723l0.285,2.203l4.938-0.642l0.27,2.069l-4.938,0.642l0.521,4.007l-2.276,0.296
						l-1.347-10.349l7.881-1.024l0.271,2.069L205.067,31.723z"/>
					<path fill="#1C75BC" d="M213.565,39.038l-1.349-10.349l7.81-1.014l0.263,2.025l-5.544,0.72l0.273,2.1l4.877-0.634l0.264,2.025
						l-4.878,0.634l0.282,2.173l5.617-0.73l0.264,2.025L213.565,39.038z"/>
					<path fill="#1C75BC" d="M229.754,36.934l-2.647-3.023l-1.789,0.232l0.433,3.312l-2.272,0.296l-1.349-10.349l4.729-0.615
						c2.438-0.317,4.07,0.779,4.35,2.908l0.004,0.029c0.217,1.671-0.549,2.838-1.801,3.497l3.008,3.367L229.754,36.934z
						 M228.913,30.113c-0.127-0.977-0.873-1.391-1.98-1.247l-2.264,0.294l0.387,2.972l2.307-0.3c1.109-0.144,1.671-0.817,1.558-1.69
						L228.913,30.113z"/>
				</g>
			</g>
		</g>
		<g>
			
				<image overflow="visible" opacity="0.25" enable-background="new    " width="1433" height="750" xlink:href="9A44B342219C771D.png"  transform="matrix(0.2391 0 0 0.2391 15.6973 43.7031)">
			</image>
			<g>
				<path fill="#3D81C3" d="M281.399,159.396L93.021,184.077c-24.159,3.165-46.516-14.012-49.681-38.171l0,0
					c-3.165-24.16,14.012-46.516,38.171-49.681L269.89,71.544c24.159-3.166,46.52,14.011,49.685,38.171l0,0
					C322.735,133.874,305.56,156.23,281.399,159.396z"/>
			</g>
		</g>
		<g>
			
				<image overflow="visible" opacity="0.25" enable-background="new    " width="1400" height="721" xlink:href="9A44B342219C771B.png"  transform="matrix(0.2392 0 0 0.2392 19.5259 47.0947)">
			</image>
			<g>
				<path fill="#3D81C3" d="M87.273,180.771c-20.325,0-37.643-15.194-40.283-35.343c-2.91-22.208,12.791-42.643,34.999-45.553
					l188.378-24.681c1.745-0.229,3.519-0.345,5.269-0.345c20.326,0,37.646,15.195,40.284,35.344
					c2.91,22.208-12.791,42.643-34.999,45.552L92.542,180.426C90.796,180.655,89.023,180.771,87.273,180.771z"/>
			</g>
		</g>
		<g>
			
				<image overflow="visible" opacity="0.15" enable-background="new    " width="1029" height="583" xlink:href="9A44B342219C7724.png"  transform="matrix(0.2393 0 0 0.2393 57.5308 67.8438)">
			</image>
			<g>
				<g enable-background="new    ">
					<path fill="#FFFFFF" d="M102.748,166.313c-7.727,1.012-15.879-0.663-22.718-5.328l5.592-8.813
						c5.089,3.188,10.215,4.964,16.047,4.2c4.592-0.602,7.123-2.787,6.731-5.776l-0.02-0.146c-0.372-2.843-2.313-4.071-11.128-5.141
						c-10.621-1.278-17.627-3.251-18.954-13.383l-0.02-0.146c-1.213-9.258,5.42-16.355,15.844-17.721
						c7.435-0.974,14.082,0.528,19.802,4.004l-4.724,9.22c-4.93-2.542-9.624-3.855-13.925-3.292
						c-4.301,0.563-6.303,2.827-5.979,5.306l0.02,0.146c0.439,3.353,2.77,4.16,11.886,5.264
						c10.704,1.341,17.022,4.295,18.188,13.188l0.019,0.146C120.737,158.173,113.755,164.871,102.748,166.313z"/>
					<path fill="#FFFFFF" d="M168.035,157.019l-6.164-10.833l-21.576,2.827l-3.166,12.055l-11.444,1.5l15.135-54.254l10.352-1.356
						l28.6,48.524L168.035,157.019z M147.616,121.14l-4.611,17.434l13.558-1.776L147.616,121.14z"/>
					<path fill="#FFFFFF" d="M187.642,154.45l-6.686-51.024l11.225-1.471l5.348,40.819l25.439-3.333l1.338,10.205L187.642,154.45z"
						/>
					<path fill="#FFFFFF" d="M232.758,148.539l-6.685-51.024l38.486-5.042l1.309,9.986l-27.334,3.581l1.355,10.351l24.055-3.151
						l1.309,9.986l-24.055,3.151l1.404,10.715l27.695-3.629l1.311,9.986L232.758,148.539z"/>
				</g>
			</g>
		</g>
		<g>
			
				<image overflow="visible" opacity="0.25" enable-background="new    " width="1438" height="758" xlink:href="9A44B342219C7727.png"  transform="matrix(0.2389 0 0 0.2389 13.5127 43.2754)">
			</image>
			<g>
				<path fill="#72CEF5" d="M280.479,159.578c0,0-9.106,1.29-25.041,3.548c-15.941,2.21-38.715,5.368-66.043,9.159
					c-13.667,1.861-28.479,3.878-44.14,6.011c-15.664,2.113-32.183,4.343-49.271,6.647c-1.068,0.143-2.139,0.285-3.211,0.427
					l-0.402,0.054l-0.262,0.029l-0.202,0.016l-0.81,0.066l-1.623,0.131l-1.625,0.133c-0.552,0.022-1.129-0.011-1.694-0.014
					c-1.132-0.035-2.279-0.015-3.405-0.103c-4.489-0.375-8.928-1.45-13.183-3.082c-8.439-3.414-16.036-9.351-21.158-17.146
					c-1.362-1.896-2.38-4.002-3.471-6.07c-0.872-2.168-1.835-4.311-2.4-6.595l-0.493-1.69c-0.161-0.564-0.23-1.15-0.349-1.725
					l-0.32-1.733l-0.159-0.867l-0.08-0.434c-0.015-0.058-0.034-0.269-0.033-0.281l-0.017-0.214l-0.278-3.418
					c-0.067-0.56-0.062-1.155-0.043-1.757l0.034-1.794c0.201-9.51,3.692-18.753,9.374-26.332c2.93-3.729,6.406-7.01,10.279-9.725
					c3.849-2.768,8.229-4.726,12.723-6.111l1.699-0.49c0.564-0.172,1.132-0.331,1.716-0.415l3.475-0.63
					c2.281-0.331,4.534-0.596,6.797-0.897c4.52-0.584,9.027-1.167,13.516-1.748c17.956-2.321,35.626-4.606,52.727-6.817
					c17.105-2.175,33.64-4.278,49.324-6.271c15.682-1.973,30.51-3.839,44.192-5.561c6.844-0.857,13.399-1.68,19.644-2.461
					c0.776-0.095,1.555-0.19,2.321-0.285c0.835-0.092,1.562-0.12,2.336-0.183c0.767-0.054,1.521-0.108,2.275-0.162
					c0.76-0.023,1.53,0.032,2.288,0.044c0.76,0.023,1.513,0.046,2.26,0.069c0.743,0.057,1.47,0.182,2.193,0.269
					c0.728,0.096,1.445,0.191,2.158,0.285c0.711,0.117,1.4,0.314,2.094,0.465c5.529,1.255,10.42,3.484,14.525,6.127
					c4.125,2.65,7.357,5.832,9.987,8.891c5.177,6.266,7.501,12.352,8.614,16.486c0.655,2.062,0.837,3.715,1.041,4.809
					c0.188,1.098,0.286,1.664,0.286,1.664s-0.109-0.564-0.322-1.658c-0.229-1.089-0.447-2.733-1.146-4.774
					c-1.192-4.103-3.679-10.071-8.878-16.183c-2.648-2.979-5.892-6.062-9.988-8.599c-4.082-2.53-8.914-4.633-14.338-5.769
					c-0.682-0.136-1.354-0.318-2.052-0.421c-0.694-0.08-1.399-0.161-2.108-0.242c-0.709-0.073-1.424-0.184-2.146-0.227
					c-0.719-0.01-1.44-0.02-2.173-0.029c-0.729,0-1.459-0.045-2.206-0.01c-0.752,0.066-1.509,0.133-2.271,0.2
					c-0.748,0.072-1.562,0.123-2.271,0.214c-0.77,0.107-1.542,0.215-2.319,0.324c-6.229,0.852-12.774,1.747-19.608,2.681
					c-13.67,1.862-28.478,3.879-44.139,6.013c-15.664,2.113-32.185,4.341-49.271,6.646c-17.093,2.269-34.756,4.613-52.704,6.996
					c-4.487,0.596-8.992,1.194-13.51,1.793c-2.253,0.307-4.534,0.584-6.773,0.917l-3.272,0.605
					c-0.551,0.079-1.084,0.231-1.615,0.396l-1.598,0.468c-4.226,1.32-8.343,3.168-11.954,5.79c-3.638,2.567-6.892,5.671-9.648,9.179
					c-2.685,3.564-4.842,7.511-6.386,11.687c-1.603,4.153-2.329,8.646-2.515,13.017l-0.042,1.639
					c-0.024,0.543-0.036,1.091,0.031,1.67l0.266,3.419l0.017,0.214c0.011,0.13,0,0.062,0.017,0.144l0.075,0.409l0.149,0.817
					l0.296,1.635c0.111,0.542,0.17,1.096,0.321,1.628l0.461,1.593c0.521,2.157,1.43,4.176,2.24,6.227
					c1.028,1.95,1.975,3.943,3.258,5.736c4.808,7.378,11.979,13.019,19.952,16.277c4.021,1.555,8.216,2.589,12.463,2.959
					c1.053,0.086,2.097,0.064,3.144,0.106c0.525,0.007,1.039,0.045,1.573,0.026l1.626-0.127l1.623-0.127l0.811-0.062l0.202-0.016
					c0.081-0.006,0.021-0.001,0.142-0.016l0.402-0.052c1.073-0.14,2.145-0.277,3.213-0.415c17.105-2.175,33.64-4.277,49.32-6.27
					c15.682-1.975,30.509-3.84,44.194-5.562c27.383-3.379,50.199-6.193,66.172-8.164
					C271.349,160.677,280.479,159.578,280.479,159.578z"/>
			</g>
		</g>
		<g>
			
				<image overflow="visible" opacity="0.25" enable-background="new    " width="1033" height="492" xlink:href="9A44B342219C7725.png"  transform="matrix(0.2393 0 0 0.2393 79.5005 139.5928)">
			</image>
			<g>
				<g enable-background="new    ">
					<path fill="#1C75BC" d="M111.431,214.186l-2.6-19.179l4.22-0.572l2.08,15.343l9.562-1.296l0.52,3.836L111.431,214.186z"/>
					<path fill="#1C75BC" d="M136.554,210.781l-0.215-1.589c-0.861,1.261-2.159,2.19-4.186,2.465
						c-2.768,0.375-5.257-0.906-5.651-3.81l-0.007-0.056c-0.435-3.205,1.804-5.015,5.283-5.486c1.479-0.201,2.582-0.099,3.671,0.117
						l-0.034-0.247c-0.234-1.727-1.432-2.541-3.514-2.258c-1.59,0.215-2.672,0.669-3.948,1.344l-1.472-3.038
						c1.52-0.931,3.046-1.612,5.539-1.95c4.548-0.617,6.868,1.469,7.406,5.441l1.155,8.521L136.554,210.781z M135.833,204.852
						c-0.757-0.231-1.718-0.325-2.732-0.188c-1.781,0.241-2.78,1.102-2.602,2.417l0.007,0.055c0.152,1.124,1.173,1.655,2.515,1.473
						c1.946-0.264,3.116-1.51,2.912-3.017L135.833,204.852z"/>
					<path fill="#1C75BC" d="M153.456,208.49l-1.11-8.191c-0.268-1.973-1.336-2.861-2.925-2.646
						c-1.589,0.215-2.465,1.367-2.198,3.34l1.11,8.191l-4.165,0.564l-1.99-14.686l4.165-0.564l0.282,2.082
						c0.791-1.362,1.872-2.652,3.982-2.938c3.15-0.427,5.268,1.406,5.725,4.776l1.289,9.507L153.456,208.49z"/>
					<path fill="#1C75BC" d="M160.742,207.502l-0.397-2.931l6.453-9.414l-7.343,0.995l-0.457-3.37l12.521-1.697l0.397,2.932
						l-6.48,9.417l7.617-1.032l0.457,3.369L160.742,207.502z"/>
					<path fill="#1C75BC" d="M185.263,204.179l-0.216-1.589c-0.861,1.261-2.159,2.19-4.187,2.465
						c-2.767,0.375-5.256-0.906-5.65-3.81l-0.007-0.056c-0.435-3.205,1.803-5.015,5.282-5.486c1.48-0.201,2.582-0.099,3.671,0.117
						l-0.033-0.247c-0.234-1.727-1.433-2.541-3.515-2.258c-1.589,0.215-2.671,0.669-3.947,1.344l-1.472-3.038
						c1.52-0.931,3.046-1.612,5.539-1.95c4.548-0.616,6.869,1.469,7.406,5.442l1.155,8.521L185.263,204.179z M184.542,198.25
						c-0.757-0.231-1.718-0.325-2.732-0.188c-1.781,0.241-2.78,1.102-2.602,2.417l0.007,0.055c0.152,1.124,1.173,1.655,2.515,1.473
						c1.946-0.264,3.116-1.51,2.912-3.017L184.542,198.25z"/>
					<path fill="#1C75BC" d="M211.124,200.674l-1.109-8.191c-0.269-1.973-1.281-2.868-2.844-2.657s-2.384,1.356-2.115,3.329
						l1.109,8.191l-4.164,0.564l-1.111-8.191c-0.267-1.973-1.281-2.868-2.843-2.656c-1.562,0.211-2.384,1.356-2.116,3.329
						l1.11,8.191l-4.164,0.564l-1.989-14.686l4.163-0.564l0.282,2.082c0.791-1.362,1.9-2.656,4.01-2.942
						c1.918-0.26,3.484,0.393,4.453,1.768c1.084-1.681,2.506-2.711,4.506-2.982c3.096-0.42,5.213,1.191,5.691,4.725l1.295,9.562
						L211.124,200.674z"/>
					<path fill="#1C75BC" d="M216.774,183.307l-0.502-3.698l4.385-0.594l0.501,3.698L216.774,183.307z M219.094,199.594
						l-1.989-14.686l4.164-0.564l1.99,14.687L219.094,199.594z"/>
					<path fill="#1C75BC" d="M240.021,190.759l-10.22,1.385c0.667,1.834,2.116,2.643,3.979,2.391
						c1.396-0.189,2.351-0.765,3.357-1.991l2.668,1.787c-1.141,1.885-2.973,3.193-5.631,3.553c-4.408,0.598-8.091-2.057-8.697-6.55
						l-0.01-0.054c-0.566-4.192,1.95-8.049,6.227-8.628c4.904-0.665,7.668,2.839,8.229,7.003l0.009,0.055
						C239.991,190.121,239.997,190.371,240.021,190.759z M232.149,185.995c-1.729,0.234-2.685,1.62-2.756,3.554l6.272-0.85
						C235.169,186.868,233.901,185.757,232.149,185.995z"/>
					<path fill="#1C75BC" d="M253.257,194.964l-1.111-8.191c-0.267-1.973-1.336-2.861-2.924-2.646
						c-1.59,0.215-2.467,1.368-2.199,3.34l1.11,8.191l-4.165,0.564l-1.99-14.686l4.166-0.564l0.281,2.082
						c0.791-1.363,1.872-2.653,3.982-2.938c3.15-0.427,5.269,1.406,5.725,4.776l1.289,9.507L253.257,194.964z"/>
					<path fill="#1C75BC" d="M266.028,193.484c-2.549,0.345-4.412-0.435-4.873-3.833l-0.943-6.958l-1.753,0.238l-0.481-3.562
						l1.752-0.238l-0.508-3.753l4.164-0.564l0.51,3.753l3.451-0.468l0.482,3.562l-3.452,0.468l0.851,6.274
						c0.131,0.959,0.604,1.369,1.535,1.243c0.771-0.104,1.428-0.389,1.984-0.8l0.453,3.343
						C268.396,192.828,267.426,193.295,266.028,193.484z"/>
					<path fill="#1C75BC" d="M279.243,191.776c-4.549,0.617-8.375-2.297-8.946-6.517l-0.008-0.054
						c-0.571-4.221,2.36-8.105,6.938-8.725c4.547-0.616,8.375,2.297,8.943,6.516l0.01,0.056
						C286.753,187.271,283.819,191.156,279.243,191.776z M282.069,183.609c-0.293-2.165-2.109-3.844-4.411-3.532
						c-2.384,0.323-3.56,2.353-3.267,4.517l0.008,0.056c0.293,2.164,2.108,3.843,4.412,3.531c2.385-0.323,3.56-2.352,3.267-4.517
						L282.069,183.609z"/>
				</g>
			</g>
		</g>
		<g>
			
				<image overflow="visible" opacity="0.15" enable-background="new    " width="829" height="396" xlink:href="9A44B342219C772B.png"  transform="matrix(0.2385 0 0 0.2385 94.8716 27.7578)">
			</image>
			<g>
				<g>
					
						<linearGradient id="SVGID_1_" gradientUnits="userSpaceOnUse" x1="-213.3442" y1="560.3965" x2="-48.4868" y2="561.7797" gradientTransform="matrix(1 0 0 1 319.0771 -491.6338)">
						<stop  offset="0" style="stop-color:#4682C3"/>
						<stop  offset="0.2634" style="stop-color:#4471B8"/>
						<stop  offset="0.6242" style="stop-color:#425EAB"/>
						<stop  offset="0.7048" style="stop-color:#3A56A6"/>
						<stop  offset="0.8858" style="stop-color:#2C499F"/>
						<stop  offset="1" style="stop-color:#26459C"/>
					</linearGradient>
					<path fill="url(#SVGID_1_)" d="M270.469,58.67c-1.616-12.333-13.028-21.101-25.36-19.485L125.338,54.877
						c-12.333,1.616-21.101,13.028-19.485,25.36c1.616,12.333,13.028,21.101,25.36,19.485L250.983,84.03
						C263.317,82.415,272.085,71.003,270.469,58.67z"/>
				</g>
			</g>
		</g>
		<g>
			
				<image overflow="visible" opacity="0.15" enable-background="new    " width="642" height="317" xlink:href="9A44B342219C772C.png"  transform="matrix(0.2382 0 0 0.2382 111.7046 35.8047)">
			</image>
			<g>
				<g enable-background="new    ">
					<path fill="#FFFFFF" d="M134.619,90.017c-3.942,0.517-8.104-0.338-11.595-2.72l2.854-4.498
						c2.597,1.627,5.214,2.533,8.189,2.144c2.344-0.307,3.636-1.423,3.436-2.948l-0.01-0.075c-0.189-1.45-1.181-2.077-5.679-2.623
						c-5.421-0.653-8.997-1.659-9.674-6.831l-0.01-0.074c-0.619-4.725,2.766-8.347,8.086-9.044c3.794-0.497,7.188,0.27,10.106,2.044
						l-2.411,4.705c-2.516-1.297-4.912-1.968-7.107-1.68c-2.194,0.288-3.217,1.443-3.051,2.708l0.01,0.074
						c0.225,1.712,1.413,2.124,6.065,2.687c5.464,0.685,8.688,2.191,9.283,6.73l0.01,0.074
						C143.801,85.862,140.237,89.281,134.619,90.017z"/>
					<path fill="#FFFFFF" d="M160.036,86.725c-6.993,0.917-11.783-2.429-12.787-10.093l-1.95-14.881L151.028,61l1.93,14.732
						c0.556,4.241,2.964,6.159,6.461,5.701s5.34-2.857,4.799-6.986l-1.955-14.919l5.729-0.75l1.926,14.694
						C170.951,81.359,167.03,85.809,160.036,86.725z"/>
					<path fill="#FFFFFF" d="M186.308,74.919l-4.354,0.57l1.023,7.812l-5.729,0.75l-3.412-26.042l10.64-1.394
						c6.212-0.814,10.453,2.376,11.15,7.697l0.01,0.075C196.426,70.416,192.147,74.154,186.308,74.919z M189.838,65.186
						c-0.336-2.566-2.303-3.709-5.167-3.334l-4.428,0.58l1.044,7.962l4.539-0.595c2.864-0.375,4.313-2.306,4.021-4.538
						L189.838,65.186z"/>
					<path fill="#FFFFFF" d="M202.104,80.797l-3.412-26.042l19.643-2.574l0.668,5.097l-13.949,1.828l0.69,5.282l12.276-1.608
						l0.668,5.098l-12.276,1.608l0.717,5.469l14.138-1.852l0.668,5.097L202.104,80.797z"/>
					<path fill="#FFFFFF" d="M242.843,75.46l-6.672-7.602l-4.501,0.59l1.091,8.333l-5.729,0.75l-3.412-26.042l11.904-1.56
						c6.139-0.804,10.246,1.949,10.947,7.307l0.01,0.074c0.552,4.204-1.373,7.143-4.522,8.806l7.581,8.466L242.843,75.46z
						 M240.708,58.295c-0.322-2.455-2.199-3.497-4.989-3.131l-5.692,0.746l0.98,7.478l5.803-0.76
						c2.791-0.366,4.195-2.062,3.908-4.258L240.708,58.295z"/>
				</g>
			</g>
		</g>
		<g>
			<path fill="#86ACDB" d="M270.469,58.67c0,0-0.054-0.266-0.157-0.781c-0.127-0.508-0.201-1.295-0.541-2.253
				c-0.541-1.936-1.664-4.769-4.028-7.704c-2.327-2.913-5.998-5.97-11.009-7.464c-2.479-0.752-5.258-1.111-8.146-0.875
				c-1.429,0.103-2.95,0.359-4.489,0.564c-1.541,0.215-3.119,0.436-4.729,0.661c-6.444,0.901-13.428,1.877-20.811,2.909
				c-7.387,1.029-15.17,2.138-23.232,3.198c-16.123,2.159-33.32,4.462-50.518,6.765c-4.303,0.552-8.605,1.104-12.891,1.654
				l-3.211,0.412c-0.51,0.073-1.125,0.126-1.547,0.216l-1.588,0.286c-0.538,0.087-0.975,0.268-1.468,0.394
				c-0.48,0.135-0.961,0.262-1.434,0.475l-1.422,0.569l-1.356,0.707c-1.769,1-3.451,2.182-4.854,3.643
				c-1.428,1.427-2.685,3.03-3.635,4.793c-0.535,0.851-0.881,1.792-1.303,2.693c-0.297,0.948-0.693,1.866-0.869,2.841
				c-0.511,1.914-0.616,3.894-0.587,5.835c0.285,7.862,5.004,14.909,11.372,18.295c3.135,1.782,6.655,2.596,10.039,2.681
				c1.695,0.055,3.354-0.168,5.053-0.373c1.68-0.205,3.328-0.407,4.943-0.604c12.916-1.594,23.697-2.788,31.235-3.686
				c7.544-0.852,11.855-1.339,11.855-1.339s-4.291,0.64-11.8,1.761c-7.515,1.073-18.24,2.697-31.13,4.484
				c-1.611,0.225-3.256,0.455-4.932,0.689c-1.653,0.228-3.427,0.5-5.239,0.473c-3.605-0.026-7.383-0.833-10.779-2.682l-1.271-0.702
				c-0.415-0.251-0.808-0.542-1.215-0.813c-0.833-0.52-1.554-1.197-2.324-1.821c-1.438-1.358-2.828-2.836-3.91-4.564
				c-0.602-0.824-1.037-1.755-1.532-2.658c-0.235-0.458-0.401-0.949-0.605-1.424c-0.192-0.481-0.407-0.95-0.538-1.47l-0.446-1.532
				c-0.146-0.512-0.199-0.993-0.303-1.492l-0.139-0.744l-0.035-0.186l-0.024-0.141l-0.008-0.098l-0.033-0.394l-0.13-1.58
				c-0.048-2.112,0.062-4.271,0.603-6.36c0.19-1.063,0.607-2.068,0.931-3.102c0.449-0.986,0.828-2.013,1.401-2.945
				c1.027-1.927,2.385-3.684,3.936-5.251c1.525-1.601,3.353-2.909,5.285-4.013l1.483-0.781l1.555-0.634
				c0.508-0.229,1.062-0.385,1.615-0.543c0.544-0.146,1.117-0.355,1.641-0.442l1.586-0.295c0.632-0.125,1.095-0.158,1.651-0.242
				l3.208-0.43c4.283-0.573,8.583-1.147,12.882-1.723c17.21-2.205,34.421-4.41,50.556-6.477c8.064-1.053,15.872-1.987,23.271-2.895
				c7.398-0.905,14.396-1.76,20.854-2.55c1.614-0.198,3.194-0.391,4.739-0.58c1.553-0.179,3.035-0.412,4.568-0.475
				c3.03-0.161,5.914,0.297,8.461,1.149c5.145,1.696,8.809,4.943,11.092,7.975c2.343,3.054,3.332,5.969,3.812,7.937
				c0.307,0.976,0.35,1.761,0.456,2.275C270.425,58.403,270.469,58.67,270.469,58.67z"/>
		</g>
	</g>
	
		<linearGradient id="SVGID_2_" gradientUnits="userSpaceOnUse" x1="-39.4946" y1="741.748" x2="-19.437" y2="741.748" gradientTransform="matrix(1 0 0 1 346 -516.6338)">
		<stop  offset="0" style="stop-color:#4682C3"/>
		<stop  offset="0.2017" style="stop-color:#4471B8"/>
		<stop  offset="0.478" style="stop-color:#425EAB"/>
		<stop  offset="0.59" style="stop-color:#3A56A6"/>
		<stop  offset="0.8415" style="stop-color:#2C499F"/>
		<stop  offset="1" style="stop-color:#26459C"/>
	</linearGradient>
	<polygon fill="none" stroke="url(#SVGID_2_)" stroke-width="1.0692" stroke-miterlimit="10" points="325.494,225.114 
		307.04,214.46 307.04,235.77 	"/>
	
		<linearGradient id="SVGID_3_" gradientUnits="userSpaceOnUse" x1="-294.2749" y1="573.2969" x2="-274.2173" y2="573.2969" gradientTransform="matrix(1 0 0 1 346 -516.6338)">
		<stop  offset="0" style="stop-color:#4682C3"/>
		<stop  offset="0.2017" style="stop-color:#4471B8"/>
		<stop  offset="0.478" style="stop-color:#425EAB"/>
		<stop  offset="0.59" style="stop-color:#3A56A6"/>
		<stop  offset="0.8415" style="stop-color:#2C499F"/>
		<stop  offset="1" style="stop-color:#26459C"/>
	</linearGradient>
	<polygon fill="none" stroke="url(#SVGID_3_)" stroke-width="1.0692" stroke-miterlimit="10" points="52.794,56.664 71.248,67.317 
		71.248,46.009 	"/>
	
		<linearGradient id="SVGID_4_" gradientUnits="userSpaceOnUse" x1="-17.6221" y1="555.3594" x2="5.5381" y2="555.3594" gradientTransform="matrix(1 0 0 1 346 -516.6338)">
		<stop  offset="0" style="stop-color:#4682C3"/>
		<stop  offset="0.2017" style="stop-color:#4471B8"/>
		<stop  offset="0.478" style="stop-color:#425EAB"/>
		<stop  offset="0.59" style="stop-color:#3A56A6"/>
		<stop  offset="0.8415" style="stop-color:#2C499F"/>
		<stop  offset="1" style="stop-color:#26459C"/>
	</linearGradient>
	<polygon fill="none" stroke="url(#SVGID_4_)" stroke-width="1.0692" stroke-miterlimit="10" points="339.958,29.767 329.304,48.22 
		350.612,48.22 	"/>
	
		<linearGradient id="SVGID_5_" gradientUnits="userSpaceOnUse" x1="-331.2769" y1="723.4834" x2="-308.1162" y2="723.4834" gradientTransform="matrix(1 0 0 1 346 -516.6338)">
		<stop  offset="0" style="stop-color:#4682C3"/>
		<stop  offset="0.2017" style="stop-color:#4471B8"/>
		<stop  offset="0.478" style="stop-color:#425EAB"/>
		<stop  offset="0.59" style="stop-color:#3A56A6"/>
		<stop  offset="0.8415" style="stop-color:#2C499F"/>
		<stop  offset="1" style="stop-color:#26459C"/>
	</linearGradient>
	<polygon fill="none" stroke="url(#SVGID_5_)" stroke-width="1.0692" stroke-miterlimit="10" points="26.304,215.809 
		36.958,197.355 15.649,197.355 	"/>
	<g>
		
			<linearGradient id="SVGID_6_" gradientUnits="userSpaceOnUse" x1="-208.771" y1="515.0078" x2="-197.9712" y2="515.0078" gradientTransform="matrix(1 0 0 1 346 -516.6338)">
			<stop  offset="0" style="stop-color:#4682C3"/>
			<stop  offset="0.2017" style="stop-color:#4471B8"/>
			<stop  offset="0.478" style="stop-color:#425EAB"/>
			<stop  offset="0.59" style="stop-color:#3A56A6"/>
			<stop  offset="0.8415" style="stop-color:#2C499F"/>
			<stop  offset="1" style="stop-color:#26459C"/>
		</linearGradient>
		
			<line fill="none" stroke="url(#SVGID_6_)" stroke-width="1.2398" stroke-miterlimit="10" x1="137.229" y1="-1.626" x2="148.029" y2="-1.626"/>
		
			<linearGradient id="SVGID_7_" gradientUnits="userSpaceOnUse" x1="-203.9912" y1="515.0078" x2="-202.751" y2="515.0078" gradientTransform="matrix(1 0 0 1 346 -516.6338)">
			<stop  offset="0" style="stop-color:#4682C3"/>
			<stop  offset="0.2017" style="stop-color:#4471B8"/>
			<stop  offset="0.478" style="stop-color:#425EAB"/>
			<stop  offset="0.59" style="stop-color:#3A56A6"/>
			<stop  offset="0.8415" style="stop-color:#2C499F"/>
			<stop  offset="1" style="stop-color:#26459C"/>
		</linearGradient>
		
			<line fill="none" stroke="url(#SVGID_7_)" stroke-width="1.2398" stroke-miterlimit="10" x1="142.629" y1="3.774" x2="142.629" y2="-7.027"/>
	</g>
	<g>
		
			<linearGradient id="SVGID_8_" gradientUnits="userSpaceOnUse" x1="-8.4404" y1="616.5488" x2="2.3584" y2="616.5488" gradientTransform="matrix(1 0 0 1 346 -516.6338)">
			<stop  offset="0" style="stop-color:#4682C3"/>
			<stop  offset="0.2017" style="stop-color:#4471B8"/>
			<stop  offset="0.478" style="stop-color:#425EAB"/>
			<stop  offset="0.59" style="stop-color:#3A56A6"/>
			<stop  offset="0.8415" style="stop-color:#2C499F"/>
			<stop  offset="1" style="stop-color:#26459C"/>
		</linearGradient>
		
			<line fill="none" stroke="url(#SVGID_8_)" stroke-width="1.2398" stroke-miterlimit="10" x1="337.56" y1="99.915" x2="348.358" y2="99.915"/>
		
			<linearGradient id="SVGID_9_" gradientUnits="userSpaceOnUse" x1="-3.6611" y1="616.5488" x2="-2.4209" y2="616.5488" gradientTransform="matrix(1 0 0 1 346 -516.6338)">
			<stop  offset="0" style="stop-color:#4682C3"/>
			<stop  offset="0.2017" style="stop-color:#4471B8"/>
			<stop  offset="0.478" style="stop-color:#425EAB"/>
			<stop  offset="0.59" style="stop-color:#3A56A6"/>
			<stop  offset="0.8415" style="stop-color:#2C499F"/>
			<stop  offset="1" style="stop-color:#26459C"/>
		</linearGradient>
		
			<line fill="none" stroke="url(#SVGID_9_)" stroke-width="1.2398" stroke-miterlimit="10" x1="342.959" y1="105.315" x2="342.959" y2="94.515"/>
	</g>
	<g>
		
			<linearGradient id="SVGID_10_" gradientUnits="userSpaceOnUse" x1="-128.2959" y1="771.9463" x2="-117.4951" y2="771.9463" gradientTransform="matrix(1 0 0 1 346 -516.6338)">
			<stop  offset="0" style="stop-color:#4682C3"/>
			<stop  offset="0.2017" style="stop-color:#4471B8"/>
			<stop  offset="0.478" style="stop-color:#425EAB"/>
			<stop  offset="0.59" style="stop-color:#3A56A6"/>
			<stop  offset="0.8415" style="stop-color:#2C499F"/>
			<stop  offset="1" style="stop-color:#26459C"/>
		</linearGradient>
		
			<line fill="none" stroke="url(#SVGID_10_)" stroke-width="1.2398" stroke-miterlimit="10" x1="217.704" y1="255.312" x2="228.505" y2="255.312"/>
		
			<linearGradient id="SVGID_11_" gradientUnits="userSpaceOnUse" x1="-123.5156" y1="771.9434" x2="-122.2754" y2="771.9434" gradientTransform="matrix(1 0 0 1 346 -516.6338)">
			<stop  offset="0" style="stop-color:#4682C3"/>
			<stop  offset="0.2017" style="stop-color:#4471B8"/>
			<stop  offset="0.478" style="stop-color:#425EAB"/>
			<stop  offset="0.59" style="stop-color:#3A56A6"/>
			<stop  offset="0.8415" style="stop-color:#2C499F"/>
			<stop  offset="1" style="stop-color:#26459C"/>
		</linearGradient>
		
			<line fill="none" stroke="url(#SVGID_11_)" stroke-width="1.2398" stroke-miterlimit="10" x1="223.104" y1="260.709" x2="223.104" y2="249.911"/>
	</g>
	
		<linearGradient id="SVGID_12_" gradientUnits="userSpaceOnUse" x1="-341.2139" y1="630.4258" x2="-331.0186" y2="630.4258" gradientTransform="matrix(1 0 0 1 346 -516.6338)">
		<stop  offset="0" style="stop-color:#4682C3"/>
		<stop  offset="0.2017" style="stop-color:#4471B8"/>
		<stop  offset="0.478" style="stop-color:#425EAB"/>
		<stop  offset="0.59" style="stop-color:#3A56A6"/>
		<stop  offset="0.8415" style="stop-color:#2C499F"/>
		<stop  offset="1" style="stop-color:#26459C"/>
	</linearGradient>
	<circle fill="none" stroke="url(#SVGID_12_)" stroke-width="1.0692" stroke-miterlimit="10" cx="9.884" cy="113.792" r="4.563"/>
	
		<linearGradient id="SVGID_13_" gradientUnits="userSpaceOnUse" x1="6.5776" y1="689.9082" x2="16.771" y2="689.9082" gradientTransform="matrix(1 0 0 1 346 -516.6338)">
		<stop  offset="0" style="stop-color:#4682C3"/>
		<stop  offset="0.2017" style="stop-color:#4471B8"/>
		<stop  offset="0.478" style="stop-color:#425EAB"/>
		<stop  offset="0.59" style="stop-color:#3A56A6"/>
		<stop  offset="0.8415" style="stop-color:#2C499F"/>
		<stop  offset="1" style="stop-color:#26459C"/>
	</linearGradient>
	<circle fill="none" stroke="url(#SVGID_13_)" stroke-width="1.0692" stroke-miterlimit="10" cx="357.674" cy="173.275" r="4.562"/>
	
		<linearGradient id="SVGID_14_" gradientUnits="userSpaceOnUse" x1="-94.7231" y1="530.0576" x2="-84.5288" y2="530.0576" gradientTransform="matrix(1 0 0 1 346 -516.6338)">
		<stop  offset="0" style="stop-color:#4682C3"/>
		<stop  offset="0.2017" style="stop-color:#4471B8"/>
		<stop  offset="0.478" style="stop-color:#425EAB"/>
		<stop  offset="0.59" style="stop-color:#3A56A6"/>
		<stop  offset="0.8415" style="stop-color:#2C499F"/>
		<stop  offset="1" style="stop-color:#26459C"/>
	</linearGradient>
	<circle fill="none" stroke="url(#SVGID_14_)" stroke-width="1.0692" stroke-miterlimit="10" cx="256.374" cy="13.424" r="4.562"/>
	
		<linearGradient id="SVGID_15_" gradientUnits="userSpaceOnUse" x1="-212.6987" y1="760.4961" x2="-202.5054" y2="760.4961" gradientTransform="matrix(1 0 0 1 346 -516.6338)">
		<stop  offset="0" style="stop-color:#4682C3"/>
		<stop  offset="0.2017" style="stop-color:#4471B8"/>
		<stop  offset="0.478" style="stop-color:#425EAB"/>
		<stop  offset="0.59" style="stop-color:#3A56A6"/>
		<stop  offset="0.8415" style="stop-color:#2C499F"/>
		<stop  offset="1" style="stop-color:#26459C"/>
	</linearGradient>
	<circle fill="none" stroke="url(#SVGID_15_)" stroke-width="1.0692" stroke-miterlimit="10" cx="138.398" cy="243.862" r="4.562"/>
</g>
<g>
	<g enable-background="new    ">
		<path fill="#010101" d="M274.271,422.235v2.34h-2.457v-2.394c-2.03-0.26-4.019-1.061-5.578-2.239l1.847-2.693
			c1.272,0.969,2.459,1.631,3.854,1.914v-3.76c-3.403-0.922-5.082-2.244-5.082-5.033c0-2.623,1.984-4.354,4.965-4.656v-1.371h2.457
			v1.418c1.68,0.236,3.121,0.854,4.396,1.75l-1.584,2.769c-0.942-0.642-1.938-1.138-2.935-1.396v3.568
			c3.596,0.969,5.132,2.459,5.132,5.104C279.282,420.176,277.272,421.903,274.271,422.235z M271.931,408.667
			c-1.136,0.166-1.632,0.732-1.632,1.49c0,0.729,0.332,1.229,1.632,1.701V408.667z M274.153,415.969v3.312
			c1.111-0.164,1.678-0.689,1.678-1.535C275.831,416.938,275.429,416.444,274.153,415.969z"/>
	</g>
	<g enable-background="new    ">
		<path fill="#010101" d="M291.7,410.635c-1.035-0.789-1.869-1.262-3.221-1.262c-1.959,0-2.951,1.576-3.176,3.646
			c0.785-0.52,1.711-1.014,3.266-1.014c3.131,0,5.541,1.732,5.541,5.045c0,3.242-2.59,5.476-6.014,5.476
			c-2.053,0-3.445-0.586-4.553-1.689c-1.146-1.145-1.869-2.838-1.869-5.99c0-4.887,2.207-8.625,6.914-8.625
			c2.145,0,3.537,0.629,4.936,1.732L291.7,410.635z M287.917,414.891c-1.711,0-2.703,0.945-2.703,2.302
			c0,1.375,1.035,2.36,2.748,2.36c1.711,0,2.703-0.969,2.703-2.342C290.665,415.862,289.627,414.891,287.917,414.891z"/>
		<path fill="#010101" d="M298.168,422.256h-1.396v-3.604h3.646v3.039c0,2.975-1.483,4.168-4.168,4.213l-0.293-1.42
			C297.515,424.331,298.28,423.542,298.168,422.256z"/>
		<path fill="#010101" d="M302.899,406.493h11.352v2.606l-7.072,13.152h-3.918l7.049-12.77h-7.41V406.493L302.899,406.493z"/>
		<path fill="#010101" d="M317.226,406.493h9.688v3.041H320.2l-0.183,2.725c0.632-0.158,1.193-0.27,2.07-0.27
			c3.108,0,5.521,1.479,5.521,5.062c0,3.355-2.363,5.478-5.989,5.478c-2.521,0-4.369-0.9-5.899-2.365l2.097-2.5
			c1.191,1.082,2.362,1.713,3.762,1.713c1.622,0,2.635-0.789,2.635-2.207c0-1.375-1.104-2.162-2.791-2.162
			c-0.99,0-1.895,0.271-2.636,0.586l-2.004-1.33L317.226,406.493z"/>
		<path fill="#010101" d="M337.14,422.528c-4.214,0-6.979-3.535-6.979-8.131c0-4.599,2.812-8.179,7.024-8.179
			c4.212,0,6.979,3.535,6.979,8.129C344.165,418.948,341.351,422.528,337.14,422.528z M337.14,409.35c-2.097,0-3.425,2.101-3.425,5
			c0,2.906,1.373,5.05,3.47,5.05c2.095,0,3.423-2.115,3.423-5C340.606,411.512,339.233,409.35,337.14,409.35z"/>
	</g>
	<g enable-background="new    ">
		<path fill="#010101" d="M294.006,438.831l-0.877-2.152h-4.058l-0.877,2.152h-2.149l4.108-9.66h1.947l4.106,9.66H294.006z
			 M291.103,431.706l-1.271,3.109h2.547L291.103,431.706z"/>
		<path fill="#010101" d="M302.122,438.831v-4.098c0-0.986-0.466-1.494-1.26-1.494c-0.795,0-1.303,0.508-1.303,1.494v4.098h-2.082
			v-7.346h2.082v1.041c0.479-0.615,1.096-1.183,2.148-1.183c1.575,0,2.494,1.041,2.494,2.73v4.756L302.122,438.831L302.122,438.831z
			"/>
		<path fill="#010101" d="M310.606,438.831v-1.041c-0.479,0.615-1.1,1.178-2.15,1.178c-1.576,0-2.494-1.041-2.494-2.727v-4.756
			h2.082v4.098c0,0.986,0.467,1.494,1.262,1.494s1.304-0.508,1.304-1.494v-4.098h2.082v7.346H310.606L310.606,438.831z"/>
		<path fill="#010101" d="M318.858,438.831v-0.795c-0.509,0.561-1.207,0.932-2.222,0.932c-1.386,0-2.521-0.795-2.521-2.248v-0.024
			c0-1.604,1.22-2.345,2.96-2.345c0.739,0,1.273,0.123,1.795,0.304v-0.123c0-0.863-0.533-1.347-1.576-1.347
			c-0.795,0-1.354,0.15-2.026,0.398l-0.521-1.59c0.81-0.355,1.604-0.59,2.851-0.59c2.274,0,3.274,1.18,3.274,3.164v4.264H318.858
			L318.858,438.831z M318.899,435.87c-0.355-0.164-0.822-0.273-1.33-0.273c-0.895,0-1.438,0.355-1.438,1.017v0.024
			c0,0.562,0.466,0.894,1.141,0.894c0.974,0,1.629-0.533,1.629-1.287L318.899,435.87L318.899,435.87z"/>
		<path fill="#010101" d="M322.767,438.831v-10.004h2.082v10.004H322.767z"/>
	</g>
</g>
<g enable-background="new    ">
	<path fill="#2075BC" d="M155.434,399.129c-8.151,0-14-6.074-14-13.584v-0.076c0-7.51,5.924-13.66,14.075-13.66
		c8.15,0,14,6.076,14,13.586v0.074C169.508,392.977,163.583,399.129,155.434,399.129z M163.434,385.469c0-4.523-3.321-8.301-8-8.301
		c-4.68,0-7.924,3.697-7.924,8.225v0.076c0,4.529,3.32,8.307,8,8.307c4.679,0,7.924-3.696,7.924-8.229V385.469z"/>
	<path fill="#2075BC" d="M180.482,377.545v5.623h12.604v5.281h-12.604v10.227h-5.812v-26.414h20.113v5.283H180.482L180.482,377.545z
		"/>
	<path fill="#2075BC" d="M205.23,377.545v5.623h12.604v5.281H205.23v10.227h-5.812v-26.414h20.113v5.283H205.23L205.23,377.545z"/>
</g>
<g>
	<g enable-background="new    ">
		<path fill="#010101" d="M293.114,293.157v1.954h-2.055v-1.993c-1.699-0.218-3.359-0.894-4.664-1.877l1.541-2.255
			c1.064,0.812,2.056,1.361,3.222,1.603v-3.144c-2.847-0.771-4.249-1.879-4.249-4.211c0-2.19,1.66-3.637,4.148-3.895v-1.146h2.055
			v1.188c1.404,0.197,2.609,0.711,3.676,1.463l-1.324,2.312c-0.791-0.531-1.621-0.947-2.449-1.166v2.981
			c3.004,0.812,4.287,2.058,4.287,4.271C297.304,291.438,295.624,292.877,293.114,293.157z M291.158,281.812
			c-0.948,0.142-1.364,0.609-1.364,1.244c0,0.611,0.277,1.025,1.364,1.424V281.812z M293.015,287.918v2.768
			c0.93-0.139,1.403-0.567,1.403-1.281C294.418,288.729,294.083,288.316,293.015,287.918z"/>
		<path fill="#010101" d="M308.155,282.979c-0.908-0.688-1.642-1.104-2.826-1.104c-1.719,0-2.589,1.383-2.785,3.201
			c0.689-0.455,1.5-0.893,2.864-0.893c2.747,0,4.859,1.521,4.859,4.428c0,2.848-2.271,4.803-5.274,4.803
			c-1.799,0-3.023-0.516-3.992-1.482c-1.008-1.008-1.641-2.486-1.641-5.256c0-4.287,1.938-7.566,6.062-7.566
			c1.88,0,3.104,0.556,4.328,1.521L308.155,282.979z M304.834,286.713c-1.5,0-2.371,0.83-2.371,2.02c0,1.203,0.91,2.072,2.412,2.072
			s2.371-0.852,2.371-2.057C307.247,287.562,306.336,286.713,304.834,286.713z"/>
		<path fill="#010101" d="M312.742,281.954v-2.609h9.347v2.294l-3.498,3.34c1.896,0.313,3.715,1.307,3.715,3.895
			c0,2.629-1.896,4.545-4.979,4.545c-2.49,0-4.209-0.986-5.396-2.391l2.095-1.996c0.948,1.064,1.938,1.658,3.34,1.658
			c1.146,0,1.955-0.65,1.955-1.697c0-1.146-0.968-1.779-2.706-1.779h-1.266l-0.478-1.938l3.301-3.318L312.742,281.954
			L312.742,281.954z"/>
		<path fill="#010101" d="M329.681,293.374c-3.062,0-5.337-1.58-5.337-4.011c0-1.698,0.771-2.688,2.234-3.358
			c-1.068-0.651-1.761-1.541-1.761-3.043c0-2.135,1.938-3.812,4.86-3.812c2.922,0,4.859,1.682,4.859,3.812
			c0,1.502-0.689,2.392-1.762,3.043c1.401,0.729,2.231,1.619,2.231,3.279C335.015,291.874,332.743,293.374,329.681,293.374z
			 M329.681,287.407c-1.384,0-2.392,0.633-2.392,1.719c0,0.987,0.89,1.74,2.392,1.74c1.5,0,2.392-0.753,2.392-1.74
			C332.071,288.04,331.062,287.407,329.681,287.407z M329.681,281.655c-1.246,0-1.978,0.75-1.978,1.62
			c0,0.986,0.771,1.722,1.978,1.722c1.205,0,1.979-0.711,1.979-1.699C331.656,282.424,330.924,281.655,329.681,281.655z"/>
	</g>
	<g enable-background="new    ">
		<path fill="#010101" d="M305.272,304.572v-6.024l-2.602,3.943h-0.053l-2.57-3.902v5.983h-1.988v-9.229h2.188l2.426,3.902
			l2.428-3.902h2.188v9.229H305.272L305.272,304.572z"/>
		<path fill="#010101" d="M315.853,301.738h-4.918c0.198,0.908,0.832,1.386,1.729,1.386c0.672,0,1.157-0.211,1.713-0.729l1.146,1.02
			c-0.656,0.814-1.605,1.314-2.889,1.314c-2.122,0-3.689-1.486-3.689-3.648v-0.025c0-2.018,1.438-3.678,3.494-3.678
			c2.359,0,3.439,1.832,3.439,3.836v0.023C315.879,301.436,315.865,301.551,315.853,301.738z M312.438,298.982
			c-0.831,0-1.37,0.597-1.528,1.504h3.02C313.81,299.588,313.281,298.982,312.438,298.982z"/>
		<path fill="#010101" d="M321.834,304.572v-3.94c0-0.948-0.449-1.438-1.213-1.438c-0.768,0-1.253,0.486-1.253,1.438v3.94h-2.004
			v-7.065h2.004v1.002c0.462-0.594,1.056-1.133,2.07-1.133c1.517,0,2.396,1.002,2.396,2.623v4.573H321.834z"/>
	</g>
</g>
<g>
	<g enable-background="new    ">
		<path fill="#010101" d="M31.429,422.235v2.34h-2.458v-2.394c-2.033-0.26-4.018-1.061-5.578-2.239l1.844-2.693
			c1.276,0.969,2.458,1.631,3.853,1.914v-3.76c-3.404-0.922-5.082-2.244-5.082-5.033c0-2.623,1.986-4.354,4.964-4.656v-1.371h2.458
			v1.418c1.678,0.236,3.12,0.854,4.396,1.75l-1.584,2.769c-0.945-0.642-1.938-1.138-2.931-1.396v3.568
			c3.593,0.969,5.129,2.459,5.129,5.104C36.44,420.176,34.431,421.903,31.429,422.235z M29.089,408.667
			c-1.135,0.166-1.631,0.732-1.631,1.49c0,0.729,0.331,1.229,1.631,1.701V408.667z M31.311,415.969v3.312
			c1.111-0.164,1.678-0.689,1.678-1.535C32.989,416.938,32.588,416.444,31.311,415.969z"/>
	</g>
	<g enable-background="new    ">
		<path fill="#010101" d="M39.151,406.493h11.352v2.606l-7.072,13.152h-3.919l7.05-12.77h-7.41L39.151,406.493L39.151,406.493z"/>
		<path fill="#010101" d="M52.104,422.256h-1.396v-3.604h3.648v3.039c0,2.975-1.486,4.168-4.167,4.213l-0.293-1.42
			C51.451,424.331,52.217,423.542,52.104,422.256z"/>
		<path fill="#010101" d="M66.993,410.635c-1.036-0.789-1.869-1.262-3.221-1.262c-1.959,0-2.95,1.576-3.175,3.646
			c0.788-0.52,1.711-1.014,3.266-1.014c3.13,0,5.541,1.732,5.541,5.045c0,3.242-2.59,5.476-6.014,5.476
			c-2.049,0-3.446-0.586-4.549-1.689c-1.148-1.145-1.869-2.838-1.869-5.99c0-4.887,2.207-8.625,6.914-8.625
			c2.14,0,3.536,0.629,4.932,1.732L66.993,410.635z M63.209,414.891c-1.711,0-2.703,0.945-2.703,2.302
			c0,1.375,1.036,2.36,2.748,2.36c1.711,0,2.703-0.969,2.703-2.342C65.957,415.862,64.921,414.891,63.209,414.891z"/>
		<path fill="#010101" d="M73.145,406.493h9.685v3.041h-6.712l-0.18,2.725c0.631-0.158,1.194-0.27,2.072-0.27
			c3.108,0,5.518,1.479,5.518,5.062c0,3.355-2.365,5.478-5.991,5.478c-2.522,0-4.369-0.9-5.901-2.365l2.095-2.5
			c1.194,1.082,2.365,1.713,3.761,1.713c1.622,0,2.635-0.789,2.635-2.207c0-1.375-1.104-2.162-2.792-2.162
			c-0.991,0-1.892,0.271-2.635,0.586l-2.004-1.33L73.145,406.493z"/>
		<path fill="#010101" d="M93.058,422.528c-4.212,0-6.982-3.535-6.982-8.131c0-4.599,2.815-8.179,7.027-8.179
			c4.211,0,6.981,3.535,6.981,8.129C100.084,418.948,97.27,422.528,93.058,422.528z M93.058,409.35c-2.095,0-3.424,2.101-3.424,5
			c0,2.906,1.374,5.05,3.469,5.05c2.094,0,3.423-2.115,3.423-5C96.526,411.512,95.152,409.35,93.058,409.35z"/>
	</g>
	<g enable-background="new    ">
		<path fill="#010101" d="M51.166,438.831l-0.877-2.152h-4.056l-0.877,2.152h-2.151l4.11-9.66h1.946l4.111,9.66H51.166z
			 M48.261,431.706l-1.274,3.109h2.548L48.261,431.706z"/>
		<path fill="#010101" d="M59.281,438.831v-4.098c0-0.986-0.466-1.494-1.26-1.494c-0.795,0-1.302,0.508-1.302,1.494v4.098h-2.083
			v-7.346h2.083v1.041c0.479-0.615,1.096-1.183,2.151-1.183c1.576,0,2.494,1.041,2.494,2.73v4.756L59.281,438.831L59.281,438.831z"
			/>
		<path fill="#010101" d="M67.765,438.831v-1.041c-0.479,0.615-1.096,1.178-2.151,1.178c-1.576,0-2.494-1.041-2.494-2.727v-4.756
			h2.083v4.098c0,0.986,0.466,1.494,1.261,1.494s1.302-0.508,1.302-1.494v-4.098h2.083v7.346H67.765L67.765,438.831z"/>
		<path fill="#010101" d="M76.017,438.831v-0.795c-0.507,0.561-1.206,0.932-2.22,0.932c-1.384,0-2.521-0.795-2.521-2.248v-0.024
			c0-1.604,1.22-2.345,2.96-2.345c0.74,0,1.274,0.123,1.795,0.304v-0.123c0-0.863-0.534-1.347-1.576-1.347
			c-0.795,0-1.356,0.15-2.028,0.398l-0.521-1.59c0.809-0.355,1.603-0.59,2.85-0.59c2.274,0,3.275,1.18,3.275,3.164v4.264H76.017
			L76.017,438.831z M76.058,435.87c-0.356-0.164-0.822-0.273-1.329-0.273c-0.891,0-1.439,0.355-1.439,1.017v0.024
			c0,0.562,0.466,0.894,1.138,0.894c0.973,0,1.63-0.533,1.63-1.287V435.87L76.058,435.87z"/>
		<path fill="#010101" d="M79.925,438.831v-10.004h2.083v10.004H79.925z"/>
	</g>
	<line fill="none" stroke="#2075BC" stroke-width="3" stroke-miterlimit="10" x1="24.156" y1="415.083" x2="101.754" y2="415.083"/>
</g>
<g>
	<g enable-background="new    ">
		<path fill="#010101" d="M42.525,292.68v1.9h-1.998v-1.939c-1.652-0.211-3.266-0.861-4.534-1.822l1.499-2.188
			c1.037,0.787,1.998,1.326,3.131,1.558v-3.056c-2.767-0.75-4.13-1.825-4.13-4.092c0-2.136,1.614-3.535,4.034-3.785v-1.112h1.998
			v1.151c1.364,0.188,2.536,0.688,3.573,1.422l-1.287,2.246c-0.769-0.521-1.575-0.922-2.382-1.133v2.897
			c2.92,0.789,4.169,1.998,4.169,4.146C46.598,291.006,44.965,292.411,42.525,292.68z M40.623,281.652
			c-0.922,0.136-1.326,0.597-1.326,1.21c0,0.598,0.269,1,1.326,1.385V281.652z M42.429,287.586v2.689
			c0.903-0.137,1.364-0.56,1.364-1.248C43.793,288.375,43.466,287.973,42.429,287.586z"/>
		<path fill="#010101" d="M48.669,279.25h9.683v2.229l-6.032,11.223h-3.343l6.013-10.896h-6.32L48.669,279.25L48.669,279.25z"/>
		<path fill="#010101" d="M60.883,279.25h8.261v2.592h-5.725l-0.154,2.326c0.538-0.135,1.019-0.229,1.768-0.229
			c2.651,0,4.707,1.271,4.707,4.32c0,2.861-2.017,4.67-5.11,4.67c-2.152,0-3.727-0.771-5.033-2.02l1.787-2.133
			c1.018,0.922,2.017,1.461,3.208,1.461c1.383,0,2.248-0.674,2.248-1.883c0-1.176-0.941-1.849-2.382-1.849
			c-0.845,0-1.614,0.229-2.248,0.5l-1.71-1.135L60.883,279.25z"/>
		<path fill="#010101" d="M77.861,292.93c-3.592,0-5.955-3.018-5.955-6.938c0-3.922,2.401-6.975,5.994-6.975
			c3.593,0,5.955,3.018,5.955,6.936C83.855,289.875,81.453,292.93,77.861,292.93z M77.861,281.689c-1.787,0-2.92,1.787-2.92,4.269
			c0,2.479,1.172,4.304,2.958,4.304s2.92-1.806,2.92-4.265S79.648,281.689,77.861,281.689z"/>
	</g>
	<g enable-background="new    ">
		<path fill="#010101" d="M54.963,303.771v-5.854l-2.522,3.828H52.39l-2.497-3.791v5.812H47.96v-8.963h2.125l2.355,3.791
			l2.355-3.791h2.125v8.963L54.963,303.771L54.963,303.771z"/>
		<path fill="#010101" d="M65.244,301.02h-4.775c0.192,0.885,0.807,1.349,1.677,1.349c0.653,0,1.126-0.205,1.664-0.705l1.114,0.981
			c-0.64,0.797-1.562,1.279-2.804,1.279c-2.061,0-3.584-1.445-3.584-3.547v-0.021c0-1.961,1.396-3.569,3.393-3.569
			c2.292,0,3.341,1.774,3.341,3.726v0.024C65.27,300.725,65.257,300.838,65.244,301.02z M61.928,298.342
			c-0.807,0-1.332,0.576-1.485,1.459h2.932C63.26,298.934,62.748,298.342,61.928,298.342z"/>
		<path fill="#010101" d="M71.057,303.771v-3.828c0-0.922-0.435-1.396-1.178-1.396s-1.216,0.477-1.216,1.396v3.828h-1.946v-6.86
			h1.946v0.976c0.448-0.576,1.024-1.103,2.01-1.103c1.473,0,2.33,0.973,2.33,2.547v4.44H71.057L71.057,303.771z"/>
	</g>
	<line fill="none" stroke="#2075BC" stroke-width="3" stroke-miterlimit="10" x1="34.975" y1="286.986" x2="85.731" y2="286.986"/>
</g>
<g>
	<path fill="#2075BC" d="M103.721,337.54v-10.073h21.252v10.073H103.721z"/>
	<path fill="#2075BC" d="M143.947,305.248h7.245v48.646h-10.488v-37.881l-8.417,2.069l-2.208-8.693L143.947,305.248z"/>
	<path fill="#2075BC" d="M165.129,305.594h29.669v9.314h-20.56l-0.553,8.35c1.932-0.483,3.656-0.828,6.348-0.828
		c9.521,0,16.906,4.554,16.906,15.524c0,10.281-7.246,16.768-18.355,16.768c-7.727,0-13.385-2.76-18.078-7.245l6.418-7.659
		c3.656,3.312,7.244,5.244,11.523,5.244c4.966,0,8.072-2.415,8.072-6.762c0-4.209-3.381-6.624-8.556-6.624
		c-3.035,0-5.795,0.828-8.072,1.794l-6.141-4.071L165.129,305.594z"/>
	<path fill="#2075BC" d="M215.774,329.743c-6.969,0-11.661-5.451-11.661-12.281c0-6.9,4.763-12.421,11.8-12.421
		c6.969,0,11.662,5.451,11.662,12.282C227.575,324.224,222.813,329.743,215.774,329.743z M217.155,353.894h-8.211l35.26-48.3h8.211
		L217.155,353.894z M215.774,311.32c-2.896,0-4.416,2.76-4.416,6.003c0,3.312,1.795,6.142,4.555,6.142
		c2.898,0,4.416-2.761,4.416-6.003C220.329,314.149,218.536,311.32,215.774,311.32z M245.446,354.445
		c-6.971,0-11.662-5.451-11.662-12.282c0-6.899,4.762-12.42,11.799-12.42c6.969,0,11.662,5.451,11.662,12.282
		C257.245,348.926,252.483,354.445,245.446,354.445z M245.446,336.022c-2.898,0-4.416,2.76-4.416,6.003
		c0,3.312,1.793,6.142,4.553,6.142c2.898,0,4.416-2.761,4.416-6.004C249.999,338.852,248.206,336.022,245.446,336.022z"/>
</g>
</svg>
