<?xml version="1.0" encoding="utf-8"?>
<!-- Generator: Adobe Illustrator 16.0.0, SVG Export Plug-In . SVG Version: 6.00 Build 0)  -->
<!DOCTYPE svg PUBLIC "-//W3C//DTD SVG 1.1//EN" "http://www.w3.org/Graphics/SVG/1.1/DTD/svg11.dtd">
<svg version="1.1" id="Capa_1" xmlns="http://www.w3.org/2000/svg" xmlns:xlink="http://www.w3.org/1999/xlink" x="0px" y="0px"
	 width="369.385px" height="282.667px" viewBox="0 -14.653 369.385 282.667" enable-background="new 0 -14.653 369.385 282.667"
	 xml:space="preserve">
<g>
	<g>
		<g>
			
				<image overflow="visible" opacity="0.25" enable-background="new    " width="683" height="388" xlink:href="893E605C9544A881.png"  transform="matrix(0.2382 0 0 0.2382 108.2974 -3.0488)">
			</image>
			<g>
				<g enable-background="new    ">
					<path fill="#1C75BC" d="M142.687,48.25l-4.923,0.64l-1.345-10.349l4.804-0.625c2.114-0.275,3.552,0.606,3.763,2.232l0.004,0.03
						c0.152,1.168-0.384,1.898-1.069,2.409c1.257,0.302,2.086,0.9,2.267,2.29l0.004,0.029
						C146.437,46.801,145.022,47.947,142.687,48.25z M142.774,40.828c-0.088-0.68-0.67-0.996-1.631-0.871l-2.247,0.292l0.284,2.188
						l2.1-0.273c1.005-0.13,1.598-0.538,1.499-1.307L142.774,40.828z M143.889,44.892c-0.09-0.694-0.664-1.056-1.831-0.904
						l-2.632,0.342l0.296,2.276l2.705-0.352c1.006-0.13,1.565-0.564,1.466-1.333L143.889,44.892z"/>
					<path fill="#1C75BC" d="M148.438,47.503l-1.345-10.349l7.806-1.015l0.263,2.025l-5.544,0.721l0.273,2.1l4.878-0.634
						l0.263,2.025l-4.878,0.634l0.283,2.173l5.618-0.73l0.263,2.025L148.438,47.503z"/>
					<path fill="#1C75BC" d="M162.044,45.885c-1.567,0.204-3.22-0.138-4.605-1.085l1.136-1.786c1.031,0.647,2.07,1.009,3.252,0.855
						c0.932-0.121,1.446-0.564,1.367-1.171l-0.004-0.029c-0.075-0.576-0.468-0.826-2.255-1.044
						c-2.154-0.261-3.574-0.663-3.841-2.718l-0.004-0.029c-0.244-1.877,1.103-3.316,3.216-3.591c1.508-0.196,2.856,0.11,4.015,0.817
						l-0.96,1.868c-0.999-0.517-1.951-0.783-2.823-0.669s-1.279,0.572-1.213,1.074l0.004,0.029c0.088,0.68,0.561,0.844,2.409,1.07
						c2.17,0.275,3.451,0.874,3.685,2.678l0.004,0.029C165.693,44.238,164.276,45.595,162.044,45.885z"/>
					<path fill="#1C75BC" d="M171.199,36.156l1.072,8.249l-2.277,0.296l-1.072-8.249l-3.149,0.409l-0.273-2.1l8.574-1.114l0.273,2.1
						L171.199,36.156z"/>
					<path fill="#1C75BC" d="M186.649,42.716c-3.192,0.415-5.793-1.667-6.176-4.608l-0.004-0.029
						c-0.382-2.942,1.626-5.653,4.818-6.068c3.193-0.415,5.794,1.667,6.177,4.609l0.004,0.029
						C191.851,39.59,189.843,42.301,186.649,42.716z M189.089,36.958c-0.23-1.774-1.724-3.083-3.557-2.845
						c-1.833,0.238-2.916,1.852-2.686,3.626l0.004,0.029c0.23,1.773,1.723,3.083,3.557,2.844c1.832-0.238,2.916-1.853,2.686-3.626
						L189.089,36.958z"/>
					<path fill="#1C75BC" d="M195.368,32.984l0.286,2.203l4.938-0.642l0.269,2.069l-4.938,0.642l0.521,4.007l-2.276,0.296
						l-1.345-10.349l7.879-1.024l0.27,2.069L195.368,32.984z"/>
					<path fill="#1C75BC" d="M205.067,31.723l0.286,2.203l4.938-0.642l0.269,2.069l-4.938,0.642l0.521,4.007l-2.277,0.296
						l-1.345-10.349l7.88-1.024l0.27,2.069L205.067,31.723z"/>
					<path fill="#1C75BC" d="M213.565,39.038l-1.346-10.349l7.807-1.014l0.263,2.025l-5.544,0.72l0.273,2.1l4.878-0.634l0.263,2.025
						l-4.878,0.634l0.282,2.173l5.618-0.73l0.263,2.025L213.565,39.038z"/>
					<path fill="#1C75BC" d="M229.754,36.934l-2.647-3.023l-1.789,0.232l0.43,3.312l-2.275,0.296l-1.346-10.349l4.73-0.615
						c2.439-0.317,4.07,0.779,4.348,2.908l0.004,0.029c0.217,1.671-0.549,2.838-1.801,3.497l3.008,3.367L229.754,36.934z
						 M228.913,30.113c-0.127-0.977-0.873-1.391-1.981-1.247l-2.263,0.294l0.387,2.972l2.307-0.3
						c1.108-0.144,1.668-0.817,1.555-1.69L228.913,30.113z"/>
				</g>
			</g>
		</g>
		<g>
			
				<image overflow="visible" opacity="0.25" enable-background="new    " width="1433" height="750" xlink:href="893E605C9544A883.png"  transform="matrix(0.2391 0 0 0.2391 15.6978 43.7041)">
			</image>
			<g>
				<path fill="#3D81C3" d="M281.399,159.396L93.021,184.077c-24.159,3.165-46.516-14.012-49.681-38.171l0,0
					c-3.165-24.16,14.012-46.516,38.171-49.681L269.89,71.544c24.159-3.166,46.517,14.011,49.682,38.171l0,0
					C322.735,133.874,305.56,156.23,281.399,159.396z"/>
			</g>
		</g>
		<g>
			
				<image overflow="visible" opacity="0.25" enable-background="new    " width="1400" height="721" xlink:href="893E605C9544A886.png"  transform="matrix(0.2392 0 0 0.2392 19.5264 47.0928)">
			</image>
			<g>
				<path fill="#3D81C3" d="M87.273,180.771c-20.325,0-37.643-15.194-40.283-35.343c-2.91-22.208,12.791-42.643,34.999-45.553
					l188.378-24.681c1.745-0.229,3.519-0.345,5.269-0.345c20.326,0,37.645,15.195,40.284,35.344
					c2.91,22.208-12.791,42.643-34.999,45.552L92.542,180.426C90.796,180.655,89.023,180.771,87.273,180.771z"/>
			</g>
		</g>
		<g>
			
				<image overflow="visible" opacity="0.15" enable-background="new    " width="1029" height="583" xlink:href="893E605C9544A887.png"  transform="matrix(0.2393 0 0 0.2393 57.5312 67.8447)">
			</image>
			<g>
				<g enable-background="new    ">
					<path fill="#FFFFFF" d="M102.748,166.313c-7.727,1.012-15.879-0.663-22.718-5.328l5.592-8.813
						c5.089,3.188,10.215,4.964,16.047,4.2c4.592-0.602,7.123-2.787,6.731-5.776l-0.02-0.146c-0.372-2.843-2.313-4.071-11.128-5.141
						c-10.621-1.278-17.627-3.251-18.954-13.383l-0.02-0.146c-1.213-9.258,5.42-16.355,15.844-17.721
						c7.435-0.974,14.082,0.528,19.802,4.004l-4.724,9.22c-4.93-2.542-9.624-3.855-13.925-3.292s-6.303,2.827-5.979,5.306
						l0.02,0.146c0.439,3.353,2.77,4.16,11.886,5.264c10.704,1.341,17.022,4.295,18.188,13.188l0.019,0.146
						C120.737,158.173,113.755,164.871,102.748,166.313z"/>
					<path fill="#FFFFFF" d="M168.035,157.019l-6.164-10.833l-21.576,2.827l-3.166,12.055l-11.444,1.5l15.135-54.254l10.352-1.356
						l28.6,48.524L168.035,157.019z M147.616,121.14l-4.611,17.434l13.558-1.776L147.616,121.14z"/>
					<path fill="#FFFFFF" d="M187.641,154.45l-6.685-51.024l11.225-1.471l5.348,40.819l25.439-3.333l1.338,10.205L187.641,154.45z"
						/>
					<path fill="#FFFFFF" d="M232.758,148.539l-6.685-51.024l38.487-5.042l1.308,9.986l-27.334,3.581l1.356,10.351l24.054-3.151
						l1.309,9.986l-24.055,3.151l1.404,10.715l27.698-3.629l1.309,9.986L232.758,148.539z"/>
				</g>
			</g>
		</g>
		<g>
			
				<image overflow="visible" opacity="0.25" enable-background="new    " width="1438" height="758" xlink:href="893E605C9544A882.png"  transform="matrix(0.2389 0 0 0.2389 13.5127 43.2764)">
			</image>
			<g>
				<path fill="#72CEF5" d="M280.479,159.578c0,0-9.106,1.29-25.041,3.548c-15.941,2.21-38.715,5.368-66.043,9.159
					c-13.667,1.861-28.476,3.878-44.137,6.011c-15.664,2.113-32.183,4.343-49.271,6.647c-1.068,0.143-2.139,0.285-3.211,0.427
					l-0.402,0.054l-0.262,0.029l-0.202,0.016l-0.81,0.066l-1.623,0.131l-1.625,0.133c-0.552,0.022-1.129-0.011-1.694-0.014
					c-1.132-0.035-2.279-0.015-3.405-0.103c-4.489-0.375-8.928-1.45-13.183-3.082c-8.439-3.414-16.036-9.351-21.158-17.146
					c-1.362-1.896-2.38-4.002-3.471-6.07c-0.872-2.168-1.835-4.311-2.4-6.595l-0.493-1.69c-0.161-0.564-0.23-1.15-0.349-1.725
					l-0.32-1.733l-0.159-0.867l-0.08-0.434c-0.015-0.058-0.034-0.269-0.033-0.281l-0.017-0.214l-0.278-3.418
					c-0.067-0.56-0.062-1.155-0.043-1.757l0.034-1.794c0.201-9.51,3.692-18.753,9.374-26.332c2.93-3.729,6.406-7.01,10.279-9.725
					c3.849-2.768,8.229-4.726,12.723-6.111l1.699-0.49c0.564-0.172,1.132-0.331,1.716-0.415l3.475-0.63
					c2.281-0.331,4.534-0.596,6.797-0.897c4.52-0.584,9.027-1.167,13.516-1.748c17.956-2.321,35.626-4.606,52.727-6.817
					c17.105-2.175,33.64-4.278,49.321-6.271c15.682-1.973,30.51-3.839,44.195-5.561c6.844-0.857,13.402-1.68,19.641-2.461
					c0.779-0.095,1.555-0.19,2.324-0.285c0.835-0.092,1.561-0.12,2.336-0.183c0.764-0.054,1.522-0.108,2.275-0.162
					c0.76-0.023,1.533,0.032,2.289,0.044c0.759,0.023,1.512,0.046,2.259,0.069c0.743,0.057,1.47,0.182,2.196,0.269
					c0.725,0.096,1.445,0.191,2.158,0.285c0.711,0.117,1.4,0.314,2.093,0.465c5.53,1.255,10.419,3.484,14.526,6.127
					c4.125,2.65,7.357,5.832,9.987,8.891c5.177,6.266,7.501,12.352,8.615,16.486c0.655,2.062,0.836,3.715,1.041,4.809
					c0.188,1.098,0.286,1.664,0.286,1.664s-0.11-0.564-0.323-1.658c-0.229-1.089-0.447-2.733-1.146-4.774
					c-1.192-4.103-3.677-10.071-8.877-16.183c-2.65-2.979-5.891-6.061-9.99-8.599c-4.082-2.53-8.914-4.633-14.338-5.769
					c-0.679-0.136-1.354-0.318-2.049-0.421c-0.697-0.08-1.402-0.161-2.111-0.242c-0.709-0.073-1.424-0.184-2.143-0.227
					c-0.719-0.01-1.443-0.02-2.173-0.029c-0.731,0-1.459-0.045-2.206-0.01c-0.752,0.066-1.509,0.133-2.271,0.2
					c-0.748,0.072-1.563,0.123-2.27,0.214c-0.768,0.107-1.542,0.215-2.32,0.324c-6.229,0.852-12.776,1.747-19.61,2.681
					c-13.668,1.862-28.476,3.879-44.138,6.013c-15.664,2.113-32.183,4.341-49.271,6.646c-17.093,2.269-34.756,4.613-52.704,6.996
					c-4.487,0.596-8.992,1.194-13.51,1.793c-2.253,0.307-4.534,0.584-6.773,0.917l-3.272,0.605
					c-0.551,0.079-1.084,0.231-1.615,0.396l-1.598,0.468c-4.226,1.32-8.343,3.168-11.954,5.79c-3.638,2.567-6.892,5.671-9.648,9.179
					c-2.685,3.564-4.842,7.511-6.386,11.687c-1.603,4.153-2.329,8.646-2.515,13.017l-0.042,1.639
					c-0.024,0.543-0.036,1.091,0.031,1.67l0.266,3.419l0.017,0.214c0.011,0.13,0,0.062,0.017,0.144l0.075,0.409l0.149,0.817
					l0.296,1.635c0.111,0.542,0.17,1.096,0.321,1.628l0.461,1.593c0.521,2.157,1.43,4.176,2.24,6.227
					c1.028,1.95,1.975,3.943,3.258,5.736c4.808,7.378,11.979,13.019,19.952,16.277c4.021,1.555,8.216,2.589,12.463,2.959
					c1.053,0.086,2.097,0.064,3.144,0.106c0.525,0.007,1.039,0.045,1.573,0.026l1.626-0.127l1.623-0.127l0.811-0.062l0.202-0.016
					c0.081-0.006,0.021-0.001,0.142-0.016l0.402-0.052c1.073-0.14,2.145-0.277,3.213-0.415c17.105-2.175,33.64-4.277,49.32-6.27
					c15.682-1.975,30.509-3.84,44.196-5.562c27.382-3.379,50.2-6.193,66.172-8.164C271.349,160.677,280.479,159.578,280.479,159.578
					z"/>
			</g>
		</g>
		<g>
			
				<image overflow="visible" opacity="0.25" enable-background="new    " width="1033" height="492" xlink:href="893E605C9544A88D.png"  transform="matrix(0.2393 0 0 0.2393 79.4995 139.5918)">
			</image>
			<g>
				<g enable-background="new    ">
					<path fill="#1C75BC" d="M111.431,214.186l-2.6-19.179l4.22-0.572l2.08,15.343l9.562-1.296l0.52,3.836L111.431,214.186z"/>
					<path fill="#1C75BC" d="M136.554,210.781l-0.215-1.589c-0.861,1.261-2.159,2.19-4.186,2.465
						c-2.768,0.375-5.257-0.906-5.651-3.81l-0.007-0.056c-0.435-3.205,1.804-5.015,5.283-5.486c1.479-0.201,2.582-0.099,3.671,0.117
						l-0.034-0.247c-0.234-1.727-1.432-2.541-3.514-2.258c-1.59,0.215-2.672,0.669-3.948,1.344l-1.472-3.038
						c1.52-0.931,3.046-1.612,5.539-1.95c4.548-0.617,6.868,1.469,7.406,5.441l1.155,8.521L136.554,210.781z M135.833,204.852
						c-0.757-0.231-1.718-0.325-2.732-0.188c-1.781,0.241-2.78,1.102-2.602,2.417l0.007,0.055c0.152,1.124,1.173,1.655,2.515,1.473
						c1.946-0.264,3.116-1.51,2.912-3.017L135.833,204.852z"/>
					<path fill="#1C75BC" d="M153.456,208.49l-1.11-8.191c-0.268-1.973-1.336-2.861-2.925-2.646
						c-1.589,0.215-2.465,1.367-2.198,3.34l1.11,8.191l-4.165,0.564l-1.99-14.686l4.165-0.564l0.282,2.082
						c0.791-1.362,1.872-2.652,3.982-2.938c3.15-0.427,5.268,1.406,5.725,4.776l1.289,9.507L153.456,208.49z"/>
					<path fill="#1C75BC" d="M160.742,207.502l-0.397-2.931l6.453-9.414l-7.343,0.995l-0.457-3.37l12.521-1.697l0.397,2.932
						l-6.48,9.417l7.617-1.032l0.457,3.369L160.742,207.502z"/>
					<path fill="#1C75BC" d="M185.263,204.179l-0.216-1.589c-0.861,1.261-2.159,2.19-4.187,2.465
						c-2.767,0.375-5.256-0.906-5.65-3.81l-0.007-0.056c-0.435-3.205,1.803-5.015,5.282-5.486c1.48-0.201,2.582-0.099,3.671,0.117
						l-0.033-0.247c-0.234-1.727-1.433-2.541-3.515-2.258c-1.589,0.215-2.671,0.669-3.947,1.344l-1.472-3.038
						c1.52-0.931,3.046-1.612,5.539-1.95c4.548-0.616,6.868,1.469,7.406,5.442l1.155,8.521L185.263,204.179z M184.542,198.25
						c-0.757-0.231-1.718-0.325-2.732-0.188c-1.781,0.241-2.78,1.102-2.602,2.417l0.007,0.055c0.152,1.124,1.173,1.655,2.515,1.473
						c1.946-0.264,3.116-1.51,2.912-3.017L184.542,198.25z"/>
					<path fill="#1C75BC" d="M211.124,200.674l-1.11-8.191c-0.268-1.973-1.281-2.868-2.843-2.657
						c-1.562,0.211-2.384,1.356-2.116,3.329l1.11,8.191l-4.164,0.564l-1.111-8.191c-0.267-1.973-1.281-2.868-2.843-2.656
						c-1.562,0.211-2.384,1.356-2.116,3.329l1.11,8.191l-4.164,0.564l-1.99-14.686l4.164-0.564l0.282,2.082
						c0.791-1.362,1.9-2.656,4.01-2.942c1.918-0.26,3.484,0.393,4.453,1.768c1.084-1.681,2.506-2.711,4.506-2.982
						c3.096-0.42,5.212,1.191,5.691,4.725l1.295,9.562L211.124,200.674z"/>
					<path fill="#1C75BC" d="M216.774,183.307l-0.502-3.698l4.385-0.594l0.501,3.698L216.774,183.307z M219.094,199.594
						l-1.99-14.686l4.164-0.564l1.991,14.686L219.094,199.594z"/>
					<path fill="#1C75BC" d="M240.021,190.759l-10.22,1.385c0.667,1.834,2.116,2.643,3.979,2.391
						c1.396-0.189,2.351-0.765,3.357-1.991l2.669,1.787c-1.139,1.885-2.971,3.193-5.629,3.553c-4.41,0.598-8.091-2.057-8.7-6.55
						l-0.007-0.054c-0.568-4.192,1.95-8.049,6.225-8.628c4.904-0.665,7.667,2.839,8.231,7.003l0.007,0.055
						C239.991,190.121,239.997,190.371,240.021,190.759z M232.149,185.995c-1.726,0.234-2.682,1.62-2.756,3.554l6.275-0.85
						C235.169,186.868,233.902,185.757,232.149,185.995z"/>
					<path fill="#1C75BC" d="M253.257,194.964l-1.111-8.191c-0.267-1.973-1.336-2.861-2.925-2.646s-2.466,1.368-2.198,3.34
						l1.11,8.191l-4.165,0.564l-1.99-14.686l4.165-0.564l0.282,2.082c0.791-1.363,1.872-2.653,3.982-2.938
						c3.15-0.427,5.269,1.406,5.725,4.776l1.289,9.507L253.257,194.964z"/>
					<path fill="#1C75BC" d="M266.028,193.484c-2.548,0.345-4.412-0.435-4.873-3.833l-0.943-6.958l-1.753,0.238l-0.482-3.562
						l1.753-0.238l-0.508-3.753l4.164-0.564l0.509,3.753l3.452-0.468l0.482,3.562l-3.452,0.468l0.851,6.274
						c0.13,0.959,0.604,1.369,1.535,1.243c0.768-0.104,1.427-0.389,1.984-0.8l0.453,3.343
						C268.395,192.828,267.426,193.295,266.028,193.484z"/>
					<path fill="#1C75BC" d="M279.243,191.776c-4.548,0.617-8.375-2.297-8.946-6.517l-0.008-0.054
						c-0.571-4.221,2.361-8.105,6.938-8.725c4.548-0.616,8.375,2.297,8.946,6.516l0.008,0.056
						C286.753,187.271,283.819,191.156,279.243,191.776z M282.07,183.609c-0.293-2.165-2.11-3.844-4.412-3.532
						c-2.384,0.323-3.56,2.353-3.267,4.517l0.008,0.056c0.293,2.164,2.111,3.843,4.412,3.531c2.385-0.323,3.56-2.352,3.267-4.517
						L282.07,183.609z"/>
				</g>
			</g>
		</g>
		<g>
			
				<image overflow="visible" opacity="0.15" enable-background="new    " width="829" height="396" xlink:href="893E605C9544A88E.png"  transform="matrix(0.2385 0 0 0.2385 94.8721 27.7588)">
			</image>
			<g>
				<g>
					
						<linearGradient id="SVGID_1_" gradientUnits="userSpaceOnUse" x1="48.6553" y1="396.9316" x2="213.5132" y2="395.5484" gradientTransform="matrix(1 0 0 -1 57.0771 465.6934)">
						<stop  offset="0" style="stop-color:#4682C3"/>
						<stop  offset="0.2634" style="stop-color:#4471B8"/>
						<stop  offset="0.6242" style="stop-color:#425EAB"/>
						<stop  offset="0.7048" style="stop-color:#3A56A6"/>
						<stop  offset="0.8858" style="stop-color:#2C499F"/>
						<stop  offset="1" style="stop-color:#26459C"/>
					</linearGradient>
					<path fill="url(#SVGID_1_)" d="M270.469,58.67c-1.616-12.333-13.028-21.101-25.36-19.485L125.338,54.877
						c-12.333,1.616-21.101,13.028-19.485,25.36c1.616,12.333,13.028,21.101,25.36,19.485L250.983,84.03
						C263.317,82.415,272.085,71.003,270.469,58.67z"/>
				</g>
			</g>
		</g>
		<g>
			
				<image overflow="visible" opacity="0.15" enable-background="new    " width="642" height="317" xlink:href="893E605C9544A88F.png"  transform="matrix(0.2382 0 0 0.2382 111.7051 35.8037)">
			</image>
			<g>
				<g enable-background="new    ">
					<path fill="#FFFFFF" d="M134.619,90.017c-3.942,0.517-8.104-0.338-11.595-2.72l2.854-4.498
						c2.597,1.627,5.214,2.533,8.189,2.144c2.344-0.307,3.636-1.423,3.436-2.948l-0.01-0.075c-0.189-1.45-1.181-2.077-5.679-2.623
						c-5.421-0.653-8.997-1.659-9.674-6.831l-0.01-0.074c-0.619-4.725,2.766-8.347,8.086-9.044c3.794-0.497,7.188,0.27,10.106,2.044
						l-2.411,4.705c-2.516-1.297-4.912-1.968-7.107-1.68c-2.194,0.288-3.217,1.443-3.051,2.708l0.01,0.074
						c0.225,1.712,1.413,2.124,6.065,2.687c5.464,0.685,8.688,2.191,9.283,6.73l0.01,0.074
						C143.801,85.862,140.237,89.281,134.619,90.017z"/>
					<path fill="#FFFFFF" d="M160.036,86.725c-6.993,0.917-11.783-2.429-12.787-10.093l-1.95-14.881L151.028,61l1.93,14.732
						c0.556,4.241,2.964,6.159,6.461,5.701s5.34-2.857,4.799-6.986l-1.955-14.919l5.729-0.75l1.926,14.694
						C170.951,81.359,167.03,85.809,160.036,86.725z"/>
					<path fill="#FFFFFF" d="M186.308,74.919l-4.354,0.57l1.023,7.813l-5.729,0.75l-3.412-26.042l10.64-1.394
						c6.213-0.814,10.453,2.376,11.15,7.697l0.01,0.075C196.426,70.416,192.147,74.154,186.308,74.919z M189.838,65.186
						c-0.336-2.566-2.303-3.709-5.167-3.334l-4.428,0.58l1.044,7.962l4.539-0.595c2.864-0.375,4.313-2.306,4.021-4.538
						L189.838,65.186z"/>
					<path fill="#FFFFFF" d="M202.104,80.797l-3.412-26.042l19.643-2.574l0.668,5.097l-13.95,1.828l0.691,5.282l12.276-1.608
						l0.668,5.098l-12.276,1.608l0.717,5.469l14.137-1.852l0.668,5.097L202.104,80.797z"/>
					<path fill="#FFFFFF" d="M242.843,75.46l-6.672-7.602l-4.501,0.59l1.091,8.333l-5.729,0.75l-3.412-26.042l11.905-1.56
						c6.138-0.804,10.245,1.949,10.947,7.307l0.01,0.074c0.551,4.204-1.373,7.143-4.523,8.806l7.581,8.466L242.843,75.46z
						 M240.708,58.295c-0.322-2.455-2.199-3.497-4.989-3.131l-5.692,0.746l0.98,7.478l5.803-0.76
						c2.791-0.366,4.195-2.062,3.908-4.258L240.708,58.295z"/>
				</g>
			</g>
		</g>
		<g>
			<path fill="#86ACDB" d="M270.469,58.67c0,0-0.054-0.266-0.157-0.781c-0.127-0.508-0.201-1.295-0.541-2.253
				c-0.541-1.936-1.664-4.769-4.031-7.704c-2.327-2.913-5.998-5.97-11.006-7.464c-2.479-0.752-5.258-1.111-8.146-0.875
				c-1.429,0.103-2.95,0.359-4.489,0.564c-1.541,0.215-3.119,0.436-4.729,0.661c-6.444,0.901-13.427,1.877-20.81,2.909
				c-7.385,1.029-15.17,2.138-23.233,3.198c-16.123,2.159-33.32,4.462-50.518,6.765c-4.303,0.552-8.605,1.104-12.891,1.654
				l-3.211,0.412c-0.51,0.073-1.125,0.126-1.547,0.216l-1.588,0.286c-0.538,0.087-0.975,0.268-1.468,0.394
				c-0.48,0.135-0.961,0.262-1.434,0.475l-1.422,0.569l-1.356,0.707c-1.769,1-3.451,2.182-4.854,3.643
				c-1.428,1.427-2.685,3.03-3.635,4.793c-0.535,0.851-0.881,1.792-1.303,2.693c-0.297,0.948-0.693,1.866-0.869,2.841
				c-0.511,1.914-0.616,3.894-0.587,5.835c0.285,7.862,5.004,14.909,11.372,18.295c3.135,1.782,6.655,2.596,10.039,2.681
				c1.695,0.055,3.354-0.168,5.053-0.373c1.68-0.205,3.328-0.407,4.943-0.604c12.916-1.594,23.697-2.788,31.235-3.686
				c7.544-0.852,11.855-1.339,11.855-1.339s-4.291,0.64-11.8,1.761c-7.515,1.073-18.24,2.697-31.13,4.484
				c-1.611,0.225-3.256,0.455-4.932,0.689c-1.653,0.228-3.427,0.5-5.239,0.473c-3.605-0.026-7.383-0.833-10.779-2.682l-1.271-0.702
				c-0.415-0.251-0.808-0.542-1.215-0.813c-0.833-0.52-1.554-1.197-2.324-1.821c-1.438-1.358-2.828-2.836-3.91-4.564
				c-0.602-0.824-1.037-1.755-1.532-2.658c-0.235-0.458-0.401-0.949-0.605-1.424c-0.192-0.481-0.407-0.95-0.538-1.47l-0.446-1.532
				c-0.146-0.512-0.199-0.993-0.303-1.492l-0.139-0.744l-0.035-0.186l-0.024-0.141l-0.008-0.098l-0.033-0.394l-0.13-1.58
				c-0.048-2.112,0.062-4.271,0.603-6.36c0.19-1.063,0.607-2.068,0.931-3.102c0.449-0.986,0.828-2.013,1.401-2.945
				c1.027-1.927,2.385-3.684,3.936-5.251c1.525-1.601,3.353-2.909,5.285-4.013l1.483-0.781l1.555-0.634
				c0.508-0.229,1.062-0.385,1.615-0.543c0.544-0.146,1.117-0.355,1.641-0.442l1.586-0.295c0.632-0.125,1.095-0.158,1.651-0.242
				l3.208-0.43c4.283-0.573,8.583-1.147,12.882-1.723c17.21-2.205,34.421-4.41,50.556-6.477c8.065-1.053,15.872-1.987,23.272-2.895
				c7.4-0.905,14.397-1.76,20.856-2.55c1.615-0.198,3.196-0.391,4.741-0.58c1.551-0.179,3.035-0.412,4.568-0.475
				c3.031-0.161,5.914,0.297,8.461,1.149c5.143,1.696,8.807,4.943,11.092,7.975c2.341,3.054,3.332,5.969,3.812,7.937
				c0.305,0.976,0.348,1.761,0.456,2.275C270.425,58.403,270.469,58.67,270.469,58.67z"/>
		</g>
	</g>
	
		<linearGradient id="SVGID_2_" gradientUnits="userSpaceOnUse" x1="222.5059" y1="215.5791" x2="242.5635" y2="215.5791" gradientTransform="matrix(1 0 0 -1 84 440.6934)">
		<stop  offset="0" style="stop-color:#4682C3"/>
		<stop  offset="0.2017" style="stop-color:#4471B8"/>
		<stop  offset="0.478" style="stop-color:#425EAB"/>
		<stop  offset="0.59" style="stop-color:#3A56A6"/>
		<stop  offset="0.8415" style="stop-color:#2C499F"/>
		<stop  offset="1" style="stop-color:#26459C"/>
	</linearGradient>
	<polygon fill="none" stroke="url(#SVGID_2_)" stroke-width="1.0692" stroke-miterlimit="10" points="325.494,225.114 
		307.04,214.46 307.04,235.769 	"/>
	
		<linearGradient id="SVGID_3_" gradientUnits="userSpaceOnUse" x1="-32.2749" y1="384.0303" x2="-12.2173" y2="384.0303" gradientTransform="matrix(1 0 0 -1 84 440.6934)">
		<stop  offset="0" style="stop-color:#4682C3"/>
		<stop  offset="0.2017" style="stop-color:#4471B8"/>
		<stop  offset="0.478" style="stop-color:#425EAB"/>
		<stop  offset="0.59" style="stop-color:#3A56A6"/>
		<stop  offset="0.8415" style="stop-color:#2C499F"/>
		<stop  offset="1" style="stop-color:#26459C"/>
	</linearGradient>
	<polygon fill="none" stroke="url(#SVGID_3_)" stroke-width="1.0692" stroke-miterlimit="10" points="52.794,56.664 71.248,67.317 
		71.248,46.009 	"/>
	
		<linearGradient id="SVGID_4_" gradientUnits="userSpaceOnUse" x1="244.3779" y1="401.9678" x2="267.5381" y2="401.9678" gradientTransform="matrix(1 0 0 -1 84 440.6934)">
		<stop  offset="0" style="stop-color:#4682C3"/>
		<stop  offset="0.2017" style="stop-color:#4471B8"/>
		<stop  offset="0.478" style="stop-color:#425EAB"/>
		<stop  offset="0.59" style="stop-color:#3A56A6"/>
		<stop  offset="0.8415" style="stop-color:#2C499F"/>
		<stop  offset="1" style="stop-color:#26459C"/>
	</linearGradient>
	<polygon fill="none" stroke="url(#SVGID_4_)" stroke-width="1.0692" stroke-miterlimit="10" points="339.958,29.767 329.304,48.22 
		350.612,48.22 	"/>
	
		<linearGradient id="SVGID_5_" gradientUnits="userSpaceOnUse" x1="-69.2769" y1="233.8447" x2="-46.1162" y2="233.8447" gradientTransform="matrix(1 0 0 -1 84 440.6934)">
		<stop  offset="0" style="stop-color:#4682C3"/>
		<stop  offset="0.2017" style="stop-color:#4471B8"/>
		<stop  offset="0.478" style="stop-color:#425EAB"/>
		<stop  offset="0.59" style="stop-color:#3A56A6"/>
		<stop  offset="0.8415" style="stop-color:#2C499F"/>
		<stop  offset="1" style="stop-color:#26459C"/>
	</linearGradient>
	<polygon fill="none" stroke="url(#SVGID_5_)" stroke-width="1.0692" stroke-miterlimit="10" points="26.304,215.809 
		36.958,197.355 15.649,197.355 	"/>
	<g>
		
			<linearGradient id="SVGID_6_" gradientUnits="userSpaceOnUse" x1="53.229" y1="442.3193" x2="64.0288" y2="442.3193" gradientTransform="matrix(1 0 0 -1 84 440.6934)">
			<stop  offset="0" style="stop-color:#4682C3"/>
			<stop  offset="0.2017" style="stop-color:#4471B8"/>
			<stop  offset="0.478" style="stop-color:#425EAB"/>
			<stop  offset="0.59" style="stop-color:#3A56A6"/>
			<stop  offset="0.8415" style="stop-color:#2C499F"/>
			<stop  offset="1" style="stop-color:#26459C"/>
		</linearGradient>
		
			<line fill="none" stroke="url(#SVGID_6_)" stroke-width="1.2398" stroke-miterlimit="10" x1="137.229" y1="-1.626" x2="148.029" y2="-1.626"/>
		
			<linearGradient id="SVGID_7_" gradientUnits="userSpaceOnUse" x1="58.0088" y1="442.3193" x2="59.249" y2="442.3193" gradientTransform="matrix(1 0 0 -1 84 440.6934)">
			<stop  offset="0" style="stop-color:#4682C3"/>
			<stop  offset="0.2017" style="stop-color:#4471B8"/>
			<stop  offset="0.478" style="stop-color:#425EAB"/>
			<stop  offset="0.59" style="stop-color:#3A56A6"/>
			<stop  offset="0.8415" style="stop-color:#2C499F"/>
			<stop  offset="1" style="stop-color:#26459C"/>
		</linearGradient>
		
			<line fill="none" stroke="url(#SVGID_7_)" stroke-width="1.2398" stroke-miterlimit="10" x1="142.629" y1="3.774" x2="142.629" y2="-7.027"/>
	</g>
	<g>
		
			<linearGradient id="SVGID_8_" gradientUnits="userSpaceOnUse" x1="253.5596" y1="340.7783" x2="264.3584" y2="340.7783" gradientTransform="matrix(1 0 0 -1 84 440.6934)">
			<stop  offset="0" style="stop-color:#4682C3"/>
			<stop  offset="0.2017" style="stop-color:#4471B8"/>
			<stop  offset="0.478" style="stop-color:#425EAB"/>
			<stop  offset="0.59" style="stop-color:#3A56A6"/>
			<stop  offset="0.8415" style="stop-color:#2C499F"/>
			<stop  offset="1" style="stop-color:#26459C"/>
		</linearGradient>
		
			<line fill="none" stroke="url(#SVGID_8_)" stroke-width="1.2398" stroke-miterlimit="10" x1="337.56" y1="99.915" x2="348.358" y2="99.915"/>
		
			<linearGradient id="SVGID_9_" gradientUnits="userSpaceOnUse" x1="258.3389" y1="340.7783" x2="259.5791" y2="340.7783" gradientTransform="matrix(1 0 0 -1 84 440.6934)">
			<stop  offset="0" style="stop-color:#4682C3"/>
			<stop  offset="0.2017" style="stop-color:#4471B8"/>
			<stop  offset="0.478" style="stop-color:#425EAB"/>
			<stop  offset="0.59" style="stop-color:#3A56A6"/>
			<stop  offset="0.8415" style="stop-color:#2C499F"/>
			<stop  offset="1" style="stop-color:#26459C"/>
		</linearGradient>
		
			<line fill="none" stroke="url(#SVGID_9_)" stroke-width="1.2398" stroke-miterlimit="10" x1="342.959" y1="105.315" x2="342.959" y2="94.515"/>
	</g>
	<g>
		
			<linearGradient id="SVGID_10_" gradientUnits="userSpaceOnUse" x1="133.7041" y1="185.3818" x2="144.5049" y2="185.3818" gradientTransform="matrix(1 0 0 -1 84 440.6934)">
			<stop  offset="0" style="stop-color:#4682C3"/>
			<stop  offset="0.2017" style="stop-color:#4471B8"/>
			<stop  offset="0.478" style="stop-color:#425EAB"/>
			<stop  offset="0.59" style="stop-color:#3A56A6"/>
			<stop  offset="0.8415" style="stop-color:#2C499F"/>
			<stop  offset="1" style="stop-color:#26459C"/>
		</linearGradient>
		
			<line fill="none" stroke="url(#SVGID_10_)" stroke-width="1.2398" stroke-miterlimit="10" x1="217.704" y1="255.312" x2="228.505" y2="255.312"/>
		
			<linearGradient id="SVGID_11_" gradientUnits="userSpaceOnUse" x1="138.4844" y1="185.3828" x2="139.7246" y2="185.3828" gradientTransform="matrix(1 0 0 -1 84 440.6934)">
			<stop  offset="0" style="stop-color:#4682C3"/>
			<stop  offset="0.2017" style="stop-color:#4471B8"/>
			<stop  offset="0.478" style="stop-color:#425EAB"/>
			<stop  offset="0.59" style="stop-color:#3A56A6"/>
			<stop  offset="0.8415" style="stop-color:#2C499F"/>
			<stop  offset="1" style="stop-color:#26459C"/>
		</linearGradient>
		
			<line fill="none" stroke="url(#SVGID_11_)" stroke-width="1.2398" stroke-miterlimit="10" x1="223.104" y1="260.711" x2="223.104" y2="249.91"/>
	</g>
	
		<linearGradient id="SVGID_12_" gradientUnits="userSpaceOnUse" x1="-79.2139" y1="326.9014" x2="-69.0186" y2="326.9014" gradientTransform="matrix(1 0 0 -1 84 440.6934)">
		<stop  offset="0" style="stop-color:#4682C3"/>
		<stop  offset="0.2017" style="stop-color:#4471B8"/>
		<stop  offset="0.478" style="stop-color:#425EAB"/>
		<stop  offset="0.59" style="stop-color:#3A56A6"/>
		<stop  offset="0.8415" style="stop-color:#2C499F"/>
		<stop  offset="1" style="stop-color:#26459C"/>
	</linearGradient>
	<circle fill="none" stroke="url(#SVGID_12_)" stroke-width="1.0692" stroke-miterlimit="10" cx="9.884" cy="113.792" r="4.563"/>
	
		<linearGradient id="SVGID_13_" gradientUnits="userSpaceOnUse" x1="268.5781" y1="267.4189" x2="278.7695" y2="267.4189" gradientTransform="matrix(1 0 0 -1 84 440.6934)">
		<stop  offset="0" style="stop-color:#4682C3"/>
		<stop  offset="0.2017" style="stop-color:#4471B8"/>
		<stop  offset="0.478" style="stop-color:#425EAB"/>
		<stop  offset="0.59" style="stop-color:#3A56A6"/>
		<stop  offset="0.8415" style="stop-color:#2C499F"/>
		<stop  offset="1" style="stop-color:#26459C"/>
	</linearGradient>
	<circle fill="none" stroke="url(#SVGID_13_)" stroke-width="1.0692" stroke-miterlimit="10" cx="357.674" cy="173.275" r="4.562"/>
	
		<linearGradient id="SVGID_14_" gradientUnits="userSpaceOnUse" x1="167.2769" y1="427.2695" x2="177.4712" y2="427.2695" gradientTransform="matrix(1 0 0 -1 84 440.6934)">
		<stop  offset="0" style="stop-color:#4682C3"/>
		<stop  offset="0.2017" style="stop-color:#4471B8"/>
		<stop  offset="0.478" style="stop-color:#425EAB"/>
		<stop  offset="0.59" style="stop-color:#3A56A6"/>
		<stop  offset="0.8415" style="stop-color:#2C499F"/>
		<stop  offset="1" style="stop-color:#26459C"/>
	</linearGradient>
	<circle fill="none" stroke="url(#SVGID_14_)" stroke-width="1.0692" stroke-miterlimit="10" cx="256.374" cy="13.424" r="4.562"/>
	
		<linearGradient id="SVGID_15_" gradientUnits="userSpaceOnUse" x1="49.3013" y1="196.8315" x2="59.4946" y2="196.8315" gradientTransform="matrix(1 0 0 -1 84 440.6934)">
		<stop  offset="0" style="stop-color:#4682C3"/>
		<stop  offset="0.2017" style="stop-color:#4471B8"/>
		<stop  offset="0.478" style="stop-color:#425EAB"/>
		<stop  offset="0.59" style="stop-color:#3A56A6"/>
		<stop  offset="0.8415" style="stop-color:#2C499F"/>
		<stop  offset="1" style="stop-color:#26459C"/>
	</linearGradient>
	<circle fill="none" stroke="url(#SVGID_15_)" stroke-width="1.0692" stroke-miterlimit="10" cx="138.398" cy="243.862" r="4.562"/>
</g>
</svg>
