<?xml version="1.0" encoding="utf-8"?>
<!-- Generator: Adobe Illustrator 16.0.0, SVG Export Plug-In . SVG Version: 6.00 Build 0)  -->
<!DOCTYPE svg PUBLIC "-//W3C//DTD SVG 1.1//EN" "http://www.w3.org/Graphics/SVG/1.1/DTD/svg11.dtd">
<svg version="1.1" id="Layer_1" xmlns="http://www.w3.org/2000/svg" xmlns:xlink="http://www.w3.org/1999/xlink" x="0px" y="0px"
	 width="512.568px" height="123.467px" viewBox="0 -42.533 512.568 123.467" enable-background="new 0 -42.533 512.568 123.467"
	 xml:space="preserve">
<g>
	<rect x="0.484" y="-42.013" fill="#FFFFFF" stroke="#231F20" stroke-width="0.5" width="511.6" height="122.428"/>
	<g enable-background="new    ">
		<path fill="#231F20" d="M192.509-19.774c0.854,0,1.586,0.3,2.191,0.9c0.608,0.604,0.911,1.331,0.911,2.184
			c0,0.855-0.303,1.581-0.911,2.185c-0.605,0.602-1.337,0.901-2.191,0.901s-1.583-0.3-2.184-0.901
			c-0.604-0.604-0.902-1.33-0.902-2.185c0-0.854,0.299-1.582,0.902-2.184C190.928-19.472,191.654-19.774,192.509-19.774z
			 M195.017,7.944h-4.982v-19.399h4.982V7.944z"/>
		<path fill="#231F20" d="M208.836-25.785h5.125L224.17,0.76h-5.252l-2.077-5.465H206.01l-2.159,5.465h-5.252L208.836-25.785z
			 M211.43-18.745l-3.56,9.115h7.101L211.43-18.745z"/>
		<path fill="#231F20" d="M232.425-18.873v2.166c0.89-0.89,1.853-1.558,2.886-2.001c1.035-0.445,2.143-0.67,3.322-0.67
			c2.561,0,4.739,0.968,6.532,2.907c1.794,1.934,2.689,4.419,2.689,7.451c0,2.923-0.927,5.369-2.779,7.334
			c-1.854,1.969-4.049,2.953-6.588,2.953c-1.131,0-2.185-0.204-3.157-0.605c-0.975-0.401-1.941-1.061-2.905-1.975v9.258h-4.89
			v-26.815L232.425-18.873L232.425-18.873z M237.604-14.828c-1.552,0-2.839,0.527-3.861,1.588c-1.022,1.057-1.533,2.44-1.533,4.148
			c0,1.744,0.511,3.156,1.533,4.231c1.021,1.078,2.312,1.617,3.861,1.617c1.504,0,2.768-0.549,3.798-1.644
			c1.029-1.094,1.544-2.489,1.544-4.186c0-1.684-0.506-3.065-1.517-4.143C240.42-14.292,239.145-14.828,237.604-14.828z"/>
		<path fill="#231F20" d="M250.777-18.873H255v2.473c0.459-0.973,1.065-1.716,1.824-2.221c0.759-0.505,1.588-0.758,2.488-0.758
			c0.639,0,1.305,0.169,2.003,0.506l-1.535,4.24c-0.575-0.289-1.05-0.431-1.424-0.431c-0.761,0-1.401,0.468-1.925,1.407
			c-0.523,0.936-0.785,2.779-0.785,5.522l0.018,0.957V0.76h-4.887V-18.873L250.777-18.873z"/>
		<path fill="#231F20" d="M272.975-19.377c1.851,0,3.592,0.463,5.225,1.389c1.628,0.927,2.901,2.182,3.816,3.771
			c0.912,1.589,1.368,3.303,1.368,5.142c0,1.853-0.459,3.586-1.38,5.197c-0.919,1.613-2.173,2.872-3.763,3.78
			c-1.589,0.911-3.339,1.365-5.249,1.365c-2.813,0-5.217-1.003-7.208-3.006c-1.991-2.001-2.986-4.436-2.986-7.297
			c0-3.069,1.123-5.625,3.37-7.671C268.143-18.488,270.41-19.377,272.975-19.377z M273.055-14.74c-1.532,0-2.806,0.53-3.824,1.597
			c-1.02,1.064-1.527,2.427-1.527,4.087c0,1.707,0.505,3.091,1.509,4.149c1.009,1.057,2.28,1.59,3.825,1.59
			c1.541,0,2.826-0.536,3.848-1.608c1.026-1.069,1.538-2.447,1.538-4.133c0-1.684-0.503-3.052-1.511-4.103
			C275.907-14.214,274.62-14.74,273.055-14.74z"/>
		<path fill="#231F20" d="M285.307-18.873h5.02l4.958,11.585l4.947-11.585h4.997L296.866,0.76h-3.192L285.307-18.873z"/>
		<path fill="#231F20" d="M327.777-7.629H311.95c0.227,1.396,0.838,2.504,1.833,3.33c0.987,0.823,2.258,1.236,3.793,1.236
			c1.841,0,3.425-0.645,4.748-1.931l4.15,1.948c-1.035,1.468-2.272,2.554-3.721,3.257c-1.44,0.702-3.154,1.057-5.143,1.057
			c-3.082,0-5.586-0.975-7.527-2.915c-1.938-1.944-2.9-4.376-2.9-7.301c0-2.994,0.967-5.48,2.892-7.46
			c1.935-1.978,4.355-2.967,7.265-2.967c3.095,0,5.604,0.989,7.542,2.967c1.938,1.979,2.906,4.594,2.906,7.84L327.777-7.629z
			 M322.849-11.509c-0.321-1.092-0.965-1.984-1.923-2.671c-0.96-0.686-2.068-1.029-3.336-1.029c-1.374,0-2.577,0.385-3.615,1.154
			c-0.65,0.479-1.253,1.331-1.811,2.544L322.849-11.509L322.849-11.509z"/>
		<path fill="#231F20" d="M350.983-14.903l-4.102,2.256c-0.77-0.807-1.533-1.367-2.287-1.68c-0.751-0.312-1.634-0.468-2.646-0.468
			c-1.843,0-3.333,0.548-4.473,1.648c-1.138,1.098-1.707,2.505-1.707,4.222c0,1.672,0.548,3.035,1.646,4.093
			c1.097,1.058,2.537,1.587,4.319,1.587c2.203,0,3.917-0.751,5.148-2.258l3.884,2.659c-2.104,2.739-5.077,4.107-8.912,4.107
			c-3.455,0-6.159-1.022-8.115-3.069c-1.952-2.046-2.93-4.439-2.93-7.183c0-1.899,0.477-3.65,1.424-5.25
			c0.951-1.599,2.277-2.857,3.98-3.771c1.702-0.917,3.606-1.373,5.711-1.373c1.946,0,3.699,0.388,5.25,1.163
			C348.727-17.436,349.997-16.334,350.983-14.903z"/>
		<path fill="#231F20" d="M355.439-26.451h4.889v9.563c0.966-0.828,1.933-1.452,2.903-1.867c0.979-0.414,1.962-0.622,2.957-0.622
			c1.95,0,3.596,0.673,4.932,2.021c1.142,1.166,1.711,2.88,1.711,5.142V0.76h-4.851V-7.85c0-2.27-0.107-3.812-0.327-4.619
			c-0.218-0.804-0.588-1.406-1.109-1.806c-0.524-0.396-1.171-0.594-1.941-0.594c-0.995,0-1.854,0.331-2.568,0.993
			c-0.719,0.66-1.214,1.561-1.491,2.705c-0.146,0.589-0.22,1.938-0.22,4.041v7.886h-4.89v-27.208H355.439z"/>
		<path fill="#231F20" d="M392.091-18.873h4.925V0.76h-4.925v-2.074c-0.962,0.914-1.926,1.574-2.895,1.975
			c-0.972,0.402-2.015,0.605-3.148,0.605c-2.534,0-4.728-0.984-6.578-2.953c-1.852-1.966-2.775-4.412-2.775-7.334
			c0-3.032,0.896-5.517,2.688-7.451c1.789-1.939,3.965-2.907,6.522-2.907c1.178,0,2.283,0.224,3.314,0.67
			c1.035,0.446,1.991,1.111,2.867,2.001L392.091-18.873L392.091-18.873z M386.909-14.828c-1.52,0-2.783,0.536-3.791,1.614
			c-1.005,1.075-1.509,2.457-1.509,4.141c0,1.696,0.51,3.093,1.539,4.187c1.024,1.095,2.285,1.644,3.782,1.644
			c1.547,0,2.829-0.539,3.849-1.619c1.02-1.076,1.525-2.488,1.525-4.23c0-1.708-0.51-3.091-1.525-4.149
			C389.76-14.3,388.469-14.828,386.909-14.828z"/>
		<path fill="#231F20" d="M404.667-4.906c0.853,0,1.586,0.302,2.194,0.905c0.608,0.601,0.912,1.328,0.912,2.183
			c0,0.842-0.301,1.567-0.912,2.176c-0.608,0.609-1.338,0.913-2.194,0.913c-0.854,0-1.579-0.3-2.186-0.905
			c-0.602-0.602-0.902-1.327-0.902-2.183c0-0.854,0.301-1.582,0.902-2.183C403.088-4.605,403.812-4.906,404.667-4.906z
			 M402.176-26.451h4.98v19.399h-4.98V-26.451z"/>
	</g>
	<g enable-background="new    ">
		<path fill="#231F20" d="M139.436,37.718V18.199h4.047c2.918,0,5.036,0.234,6.354,0.705c1.895,0.662,3.373,1.813,4.44,3.45
			c1.065,1.637,1.598,3.589,1.598,5.851c0,1.956-0.421,3.676-1.267,5.16c-0.845,1.488-1.941,2.584-3.29,3.291
			c-1.349,0.707-3.24,1.062-5.673,1.062H139.436L139.436,37.718z M141.307,35.872h2.254c2.698,0,4.567-0.167,5.613-0.503
			c1.468-0.477,2.622-1.335,3.463-2.576c0.842-1.243,1.261-2.763,1.261-4.552c0-1.884-0.452-3.494-1.365-4.826
			c-0.91-1.335-2.181-2.25-3.809-2.743c-1.221-0.372-3.233-0.56-6.038-0.56h-1.379V35.872L141.307,35.872z"/>
		<path fill="#231F20" d="M171.505,32.928l1.564,0.822c-0.513,1.008-1.106,1.821-1.778,2.441c-0.673,0.62-1.43,1.091-2.272,1.416
			c-0.841,0.322-1.794,0.483-2.855,0.483c-2.355,0-4.197-0.772-5.525-2.317c-1.328-1.546-1.992-3.287-1.992-5.234
			c0-1.833,0.562-3.466,1.688-4.897c1.424-1.821,3.332-2.736,5.724-2.736c2.461,0,4.426,0.933,5.896,2.802
			c1.044,1.317,1.574,2.963,1.593,4.936h-12.99c0.033,1.676,0.569,3.05,1.607,4.12c1.036,1.073,2.315,1.61,3.839,1.61
			c0.735,0,1.449-0.125,2.146-0.384c0.695-0.254,1.285-0.597,1.774-1.017C170.41,34.555,170.938,33.869,171.505,32.928z
			 M171.505,29.037c-0.247-0.987-0.609-1.78-1.082-2.376c-0.475-0.593-1.101-1.067-1.879-1.431c-0.78-0.361-1.599-0.542-2.456-0.542
			c-1.419,0-2.636,0.456-3.654,1.365c-0.746,0.668-1.307,1.663-1.688,2.987h10.759V29.037z"/>
		<path fill="#231F20" d="M176.732,17.709h1.857v20.009h-1.857V17.709z"/>
	</g>
	<g enable-background="new    ">
		<path fill="#231F20" d="M192.455,18.199h5.561v19.519h-3.689V21.689h-4.021L192.455,18.199z"/>
		<path fill="#231F20" d="M210.753,17.709c1.426,0,2.652,0.35,3.683,1.051c1.029,0.7,1.827,1.767,2.387,3.204
			c0.562,1.437,0.843,3.44,0.843,6.006c0,2.588-0.285,4.605-0.855,6.049c-0.57,1.439-1.337,2.504-2.301,3.181
			c-0.965,0.673-2.181,1.013-3.649,1.013c-1.468,0-2.703-0.343-3.703-1.02c-1-0.682-1.78-1.716-2.347-3.105
			c-0.567-1.386-0.851-3.366-0.851-5.929c0-3.586,0.551-6.183,1.657-7.789C206.848,18.593,208.56,17.709,210.753,17.709z
			 M210.84,21.24c-0.628,0-1.182,0.202-1.668,0.602c-0.487,0.405-0.858,1.097-1.113,2.078c-0.255,0.978-0.384,2.42-0.384,4.31
			c0,2.468,0.293,4.174,0.882,5.115c0.585,0.942,1.347,1.414,2.283,1.414c0.9,0,1.615-0.444,2.146-1.339
			c0.644-1.079,0.968-2.885,0.968-5.413c0-2.566-0.291-4.334-0.869-5.309C212.506,21.725,211.758,21.24,210.84,21.24z"/>
		<path fill="#231F20" d="M238.512,23.281h3.624v14.437h-3.624v-1.526c-0.705,0.67-1.416,1.159-2.127,1.455
			c-0.71,0.295-1.48,0.444-2.312,0.444c-1.863,0-3.477-0.724-4.837-2.169c-1.36-1.447-2.041-3.244-2.041-5.393
			c0-2.23,0.66-4.054,1.977-5.482c1.318-1.425,2.915-2.137,4.798-2.137c0.864,0,1.679,0.164,2.439,0.492
			c0.76,0.328,1.462,0.82,2.106,1.473L238.512,23.281L238.512,23.281z M234.7,26.256c-1.116,0-2.047,0.394-2.788,1.184
			c-0.739,0.796-1.111,1.809-1.111,3.046c0,1.246,0.377,2.275,1.131,3.079c0.754,0.802,1.681,1.208,2.783,1.208
			c1.137,0,2.08-0.4,2.831-1.189c0.748-0.793,1.121-1.828,1.121-3.109c0-1.258-0.373-2.274-1.121-3.052
			C236.799,26.643,235.849,26.256,234.7,26.256z"/>
		<path fill="#231F20" d="M245.398,17.709h3.621v20.009h-3.621V17.709z"/>
		<path fill="#231F20" d="M262.553,18.199h5.56v19.519h-3.687V21.689h-4.022L262.553,18.199z"/>
		<path fill="#231F20" d="M281.184,17.709l3.163,1.583l-3.417,6.633c1.652,0,3.06,0.593,4.219,1.777
			c1.16,1.183,1.74,2.659,1.74,4.418c0,1.699-0.595,3.139-1.788,4.322c-1.184,1.178-2.623,1.769-4.301,1.769
			c-1.76,0-3.227-0.611-4.397-1.837c-1.174-1.225-1.758-2.629-1.758-4.215c0-0.602,0.092-1.204,0.273-1.815
			c0.179-0.611,0.599-1.547,1.252-2.811L281.184,17.709z M280.716,29.44c-0.688,0-1.27,0.25-1.737,0.746
			c-0.472,0.503-0.704,1.126-0.704,1.877c0,0.754,0.245,1.387,0.735,1.899c0.489,0.513,1.062,0.77,1.722,0.77
			c0.686,0,1.281-0.253,1.775-0.757c0.492-0.504,0.74-1.139,0.74-1.911c0-0.748-0.242-1.374-0.722-1.877
			C282.045,29.69,281.443,29.44,280.716,29.44z"/>
		<path fill="#231F20" d="M308.609,17.709h3.621v20.009h-3.621v-1.526c-0.703,0.67-1.417,1.159-2.126,1.455
			c-0.712,0.295-1.481,0.444-2.313,0.444c-1.869,0-3.476-0.724-4.838-2.169c-1.362-1.447-2.042-3.244-2.042-5.393
			c0-2.23,0.659-4.054,1.977-5.482c1.312-1.425,2.913-2.137,4.796-2.137c0.865,0,1.679,0.164,2.438,0.492
			c0.76,0.328,1.465,0.82,2.108,1.473V17.709L308.609,17.709z M304.803,26.256c-1.118,0-2.052,0.394-2.791,1.184
			c-0.739,0.796-1.108,1.809-1.108,3.046c0,1.246,0.376,2.275,1.127,3.079c0.754,0.802,1.684,1.208,2.783,1.208
			c1.14,0,2.084-0.4,2.829-1.189c0.752-0.793,1.121-1.828,1.121-3.109c0-1.258-0.369-2.274-1.121-3.052
			C306.897,26.643,305.947,26.256,304.803,26.256z"/>
		<path fill="#231F20" d="M330.358,31.548h-11.638c0.167,1.025,0.613,1.842,1.344,2.447c0.732,0.605,1.661,0.913,2.793,0.913
			c1.354,0,2.52-0.477,3.49-1.422l3.053,1.434c-0.76,1.079-1.672,1.875-2.732,2.396c-1.065,0.515-2.322,0.775-3.783,0.775
			c-2.266,0-4.107-0.719-5.535-2.143c-1.423-1.428-2.135-3.217-2.135-5.369c0-2.2,0.709-4.033,2.131-5.488
			c1.419-1.455,3.202-2.185,5.34-2.185c2.273,0,4.123,0.73,5.551,2.185c1.421,1.455,2.133,3.377,2.133,5.765L330.358,31.548z
			 M326.732,28.698c-0.238-0.808-0.708-1.461-1.415-1.967c-0.703-0.504-1.521-0.754-2.451-0.754c-1.011,0-1.896,0.286-2.658,0.85
			c-0.478,0.352-0.921,0.978-1.329,1.875L326.732,28.698L326.732,28.698z"/>
		<path fill="#231F20" d="M341.305,18.199h3.562l8.354,12.845V18.199h3.714v19.519h-3.573l-8.341-12.803v12.803h-3.717V18.199
			L341.305,18.199z"/>
		<path fill="#231F20" d="M367.774,22.908c1.359,0,2.639,0.343,3.84,1.022c1.201,0.683,2.135,1.606,2.805,2.775
			c0.671,1.168,1.011,2.427,1.011,3.78c0,1.365-0.34,2.641-1.016,3.822c-0.678,1.186-1.599,2.113-2.767,2.781
			c-1.165,0.668-2.45,1.002-3.857,1.002c-2.072,0-3.84-0.736-5.306-2.209c-1.465-1.472-2.194-3.264-2.194-5.365
			c0-2.259,0.828-4.137,2.482-5.64C364.222,23.565,365.888,22.908,367.774,22.908z M367.831,26.322c-1.12,0-2.06,0.391-2.808,1.174
			c-0.751,0.782-1.124,1.783-1.124,3.005c0,1.255,0.369,2.275,1.111,3.053c0.743,0.781,1.679,1.171,2.814,1.171
			c1.133,0,2.075-0.396,2.829-1.183c0.754-0.787,1.131-1.798,1.131-3.038c0-1.24-0.367-2.245-1.113-3.017
			C369.93,26.709,368.985,26.322,367.831,26.322z"/>
		<path fill="#231F20" d="M376.844,23.281h3.689l3.648,8.52l3.64-8.52h3.67l-6.138,14.437h-2.35L376.844,23.281z"/>
		<path fill="#231F20" d="M395.021,17.337c0.635,0,1.18,0.229,1.633,0.69c0.456,0.459,0.683,1.018,0.683,1.672
			c0,0.646-0.227,1.197-0.673,1.65c-0.451,0.459-0.99,0.686-1.616,0.686c-0.644,0-1.192-0.232-1.646-0.697
			c-0.456-0.468-0.683-1.028-0.683-1.691c0-0.638,0.224-1.182,0.674-1.631C393.844,17.563,394.387,17.337,395.021,17.337z
			 M393.209,23.281h3.621v14.437h-3.621V23.281z"/>
		<path fill="#231F20" d="M414.585,31.548h-11.638c0.17,1.025,0.617,1.842,1.348,2.447c0.73,0.608,1.66,0.913,2.793,0.913
			c1.354,0,2.516-0.477,3.49-1.422l3.054,1.434c-0.764,1.079-1.676,1.875-2.737,2.396c-1.061,0.515-2.322,0.775-3.783,0.775
			c-2.262,0-4.104-0.719-5.532-2.143c-1.425-1.428-2.134-3.217-2.134-5.369c0-2.2,0.709-4.033,2.131-5.488
			c1.419-1.455,3.198-2.185,5.339-2.185c2.274,0,4.122,0.73,5.548,2.185c1.424,1.455,2.138,3.377,2.138,5.765L414.585,31.548z
			 M410.963,28.698c-0.237-0.808-0.712-1.461-1.415-1.967c-0.704-0.504-1.524-0.754-2.451-0.754c-1.011,0-1.898,0.286-2.658,0.85
			c-0.477,0.352-0.922,0.978-1.331,1.875L410.963,28.698L410.963,28.698z"/>
		<path fill="#231F20" d="M417.491,23.281h3.622v1.66c0.62-0.682,1.309-1.189,2.069-1.526c0.754-0.337,1.577-0.507,2.478-0.507
			c0.899,0,1.71,0.224,2.44,0.665c0.728,0.444,1.312,1.091,1.751,1.938c0.577-0.847,1.287-1.494,2.122-1.938
			c0.837-0.438,1.746-0.665,2.739-0.665c1.028,0,1.931,0.239,2.706,0.719c0.784,0.477,1.342,1.103,1.685,1.875
			c0.34,0.769,0.51,2.021,0.51,3.753v8.466h-3.652v-7.325c0-1.637-0.202-2.743-0.607-3.327c-0.405-0.578-1.017-0.867-1.831-0.867
			c-0.613,0-1.174,0.178-1.663,0.53c-0.491,0.355-0.858,0.844-1.097,1.47c-0.238,0.623-0.357,1.625-0.357,3.004v6.516h-3.648V30.73
			c0-1.291-0.097-2.227-0.29-2.805c-0.19-0.578-0.473-1.011-0.854-1.294c-0.382-0.286-0.844-0.426-1.384-0.426
			c-0.603,0-1.15,0.182-1.643,0.54c-0.495,0.36-0.859,0.858-1.105,1.505c-0.244,0.647-0.364,1.663-0.364,3.052v6.421h-3.625V23.287
			h0.003v-0.005H417.491z"/>
		<path fill="#231F20" d="M446.654,17.709v7.167c0.656-0.656,1.362-1.148,2.126-1.473c0.76-0.328,1.573-0.492,2.444-0.492
			c1.881,0,3.48,0.713,4.802,2.137c1.317,1.422,1.978,3.25,1.978,5.479c0,2.152-0.681,3.946-2.047,5.393
			c-1.361,1.445-2.975,2.169-4.84,2.169c-0.835,0-1.607-0.149-2.322-0.444c-0.716-0.295-1.432-0.781-2.135-1.451v1.526h-3.598
			V17.709H446.654L446.654,17.709z M450.465,26.256c-1.143,0-2.091,0.387-2.838,1.166c-0.755,0.778-1.127,1.794-1.127,3.052
			c0,1.282,0.372,2.319,1.127,3.109c0.747,0.793,1.695,1.189,2.838,1.189c1.105,0,2.035-0.406,2.792-1.208
			c0.758-0.804,1.136-1.83,1.136-3.079c0-1.24-0.373-2.253-1.115-3.046C452.536,26.65,451.594,26.256,450.465,26.256z"/>
		<path fill="#231F20" d="M460.148,23.281h3.107v1.818c0.334-0.715,0.78-1.261,1.338-1.63c0.558-0.373,1.169-0.561,1.833-0.561
			c0.468,0,0.96,0.128,1.47,0.373l-1.127,3.121c-0.423-0.214-0.774-0.319-1.049-0.319c-0.555,0-1.025,0.343-1.414,1.031
			c-0.383,0.692-0.574,2.048-0.574,4.063l0.012,0.701v5.84h-3.596V23.281L460.148,23.281z"/>
		<path fill="#231F20" d="M484.151,31.548h-11.638c0.168,1.025,0.617,1.842,1.348,2.447c0.73,0.608,1.664,0.913,2.793,0.913
			c1.357,0,2.513-0.477,3.49-1.422l3.054,1.434c-0.763,1.079-1.675,1.875-2.733,2.396c-1.064,0.515-2.322,0.775-3.783,0.775
			c-2.266,0-4.111-0.719-5.533-2.143c-1.428-1.428-2.137-3.217-2.137-5.369c0-2.2,0.709-4.033,2.131-5.488
			c1.423-1.455,3.202-2.185,5.342-2.185c2.275,0,4.123,0.73,5.549,2.185c1.424,1.455,2.137,3.377,2.137,5.765L484.151,31.548z
			 M480.53,28.698c-0.238-0.808-0.713-1.461-1.416-1.967c-0.703-0.504-1.521-0.754-2.45-0.754c-1.012,0-1.896,0.286-2.659,0.85
			c-0.477,0.352-0.921,0.978-1.329,1.875L480.53,28.698L480.53,28.698z"/>
	</g>
	<g enable-background="new    ">
		<path fill="#231F20" d="M123.879,51.168h1.487v2.068c0.594-0.795,1.251-1.383,1.974-1.779c0.721-0.395,1.507-0.59,2.356-0.59
			c0.862,0,1.628,0.224,2.297,0.658c0.668,0.438,1.161,1.031,1.48,1.773c0.317,0.742,0.478,1.902,0.478,3.468v5.946h-1.486v-5.506
			c0-1.329-0.056-2.218-0.166-2.665c-0.172-0.763-0.501-1.338-0.99-1.727c-0.488-0.384-1.126-0.574-1.911-0.574
			c-0.898,0-1.704,0.295-2.415,0.891c-0.712,0.594-1.179,1.33-1.406,2.207c-0.14,0.571-0.21,1.617-0.21,3.142v4.232h-1.487V51.168
			L123.879,51.168z"/>
		<path fill="#231F20" d="M136.945,51.168h1.485v5.393c0,1.314,0.072,2.221,0.214,2.715c0.212,0.707,0.618,1.268,1.216,1.679
			c0.6,0.411,1.314,0.614,2.142,0.614c0.831,0,1.532-0.199,2.11-0.605c0.577-0.396,0.979-0.921,1.196-1.57
			c0.148-0.444,0.224-1.389,0.224-2.832v-5.393h1.517v5.667c0,1.598-0.185,2.793-0.557,3.601c-0.371,0.805-0.929,1.437-1.678,1.894
			c-0.747,0.459-1.684,0.686-2.808,0.686c-1.125,0-2.065-0.23-2.817-0.686c-0.756-0.457-1.317-1.095-1.688-1.911
			c-0.373-0.819-0.558-2.048-0.558-3.69L136.945,51.168L136.945,51.168z"/>
		<path fill="#231F20" d="M160.074,58.885l1.253,0.659c-0.411,0.809-0.885,1.458-1.424,1.953c-0.54,0.498-1.145,0.87-1.817,1.133
			c-0.672,0.257-1.434,0.387-2.285,0.387c-1.884,0-3.357-0.619-4.42-1.854c-1.064-1.237-1.595-2.632-1.595-4.188
			c0-1.465,0.45-2.77,1.351-3.918c1.141-1.457,2.668-2.188,4.579-2.188c1.969,0,3.54,0.746,4.717,2.242
			c0.836,1.053,1.262,2.37,1.274,3.95h-10.394c0.029,1.338,0.457,2.44,1.287,3.297c0.827,0.855,1.853,1.287,3.072,1.287
			c0.587,0,1.158-0.099,1.716-0.307c0.555-0.205,1.028-0.475,1.419-0.811C159.2,60.188,159.621,59.643,160.074,58.885z
			 M160.074,55.777c-0.199-0.796-0.486-1.428-0.866-1.902c-0.381-0.477-0.881-0.854-1.506-1.145
			c-0.624-0.292-1.277-0.435-1.965-0.435c-1.135,0-2.108,0.364-2.925,1.094c-0.594,0.533-1.044,1.326-1.35,2.388H160.074
			L160.074,55.777z"/>
		<path fill="#231F20" d="M170.285,52.432l-0.954,0.987c-0.795-0.772-1.571-1.157-2.329-1.157c-0.481,0-0.896,0.158-1.24,0.477
			c-0.344,0.319-0.516,0.689-0.516,1.115c0,0.372,0.14,0.73,0.425,1.07c0.286,0.349,0.88,0.754,1.787,1.222
			c1.107,0.573,1.858,1.124,2.255,1.654c0.389,0.537,0.587,1.146,0.587,1.816c0,0.947-0.335,1.749-1.002,2.408
			c-0.664,0.658-1.499,0.987-2.497,0.987c-0.665,0-1.302-0.149-1.908-0.438c-0.605-0.286-1.107-0.688-1.503-1.198l0.935-1.062
			c0.759,0.859,1.564,1.285,2.416,1.285c0.595,0,1.101-0.189,1.521-0.569c0.418-0.384,0.627-0.834,0.627-1.351
			c0-0.422-0.139-0.802-0.414-1.136c-0.275-0.323-0.901-0.733-1.872-1.234c-1.042-0.538-1.753-1.066-2.128-1.591
			s-0.564-1.12-0.564-1.792c0-0.879,0.299-1.612,0.898-2.19c0.601-0.582,1.356-0.867,2.27-0.867
			C168.138,50.873,169.207,51.392,170.285,52.432z"/>
		<path fill="#231F20" d="M174.214,46.882h1.486v4.289h2.357v1.288H175.7v10.263h-1.486V52.459h-2.028v-1.288h2.028V46.882z"/>
		<path fill="#231F20" d="M179.723,51.168h1.517v1.687c0.453-0.667,0.931-1.162,1.432-1.493c0.504-0.33,1.027-0.492,1.57-0.492
			c0.409,0,0.849,0.132,1.315,0.391l-0.773,1.255c-0.313-0.14-0.574-0.205-0.786-0.205c-0.496,0-0.972,0.209-1.434,0.611
			c-0.459,0.404-0.81,1.037-1.05,1.893c-0.183,0.659-0.274,1.988-0.274,3.992v3.907h-1.519L179.723,51.168L179.723,51.168z"/>
		<path fill="#231F20" d="M198.331,51.168v11.548h-1.464v-1.985c-0.624,0.757-1.324,1.326-2.099,1.708s-1.622,0.576-2.543,0.576
			c-1.635,0-3.03-0.6-4.188-1.78c-1.158-1.186-1.735-2.633-1.735-4.325c0-1.666,0.584-3.086,1.751-4.27
			c1.167-1.18,2.573-1.772,4.214-1.772c0.948,0,1.807,0.206,2.573,0.604c0.768,0.405,1.442,1.008,2.022,1.815v-2.126h1.469V51.168
			L198.331,51.168z M192.392,52.306c-0.827,0-1.591,0.204-2.29,0.608c-0.698,0.409-1.255,0.978-1.669,1.712
			c-0.414,0.735-0.62,1.518-0.62,2.334c0,0.811,0.209,1.589,0.625,2.331s0.977,1.32,1.68,1.737c0.704,0.411,1.458,0.617,2.264,0.617
			c0.813,0,1.584-0.206,2.311-0.614c0.729-0.411,1.288-0.965,1.682-1.666c0.391-0.697,0.588-1.487,0.588-2.363
			c0-1.336-0.439-2.451-1.318-3.348C194.763,52.754,193.679,52.306,192.392,52.306z"/>
		<path fill="#231F20" d="M207.715,51.168h1.486v2.126c0.587-0.809,1.262-1.414,2.025-1.816s1.615-0.604,2.555-0.604
			c1.642,0,3.044,0.593,4.211,1.773c1.166,1.18,1.748,2.605,1.748,4.269c0,1.693-0.578,3.139-1.733,4.325
			c-1.153,1.181-2.55,1.78-4.184,1.78c-0.921,0-1.765-0.194-2.535-0.575c-0.771-0.382-1.468-0.951-2.089-1.709v6.207h-1.487V51.168
			H207.715z M213.658,52.306c-1.283,0-2.367,0.448-3.245,1.345c-0.878,0.9-1.318,2.019-1.318,3.352c0,0.876,0.196,1.666,0.589,2.363
			c0.392,0.703,0.953,1.255,1.685,1.67c0.73,0.408,1.504,0.61,2.313,0.61c0.798,0,1.548-0.206,2.251-0.619
			c0.702-0.411,1.263-0.986,1.679-1.735c0.415-0.742,0.624-1.518,0.624-2.331c0-0.816-0.204-1.599-0.619-2.331
			c-0.413-0.737-0.968-1.306-1.667-1.711C215.247,52.506,214.484,52.306,213.658,52.306z"/>
		<path fill="#231F20" d="M221.959,51.168h1.518v1.687c0.453-0.667,0.931-1.162,1.434-1.493c0.504-0.33,1.027-0.492,1.572-0.492
			c0.408,0,0.848,0.132,1.314,0.391l-0.773,1.255c-0.313-0.14-0.573-0.205-0.787-0.205c-0.496,0-0.974,0.209-1.433,0.611
			c-0.46,0.404-0.811,1.037-1.051,1.893c-0.185,0.659-0.276,1.988-0.276,3.992v3.907h-1.519L221.959,51.168L221.959,51.168z"/>
		<path fill="#231F20" d="M234.529,50.873c1.778,0,3.253,0.644,4.422,1.932c1.062,1.177,1.594,2.565,1.594,4.171
			c0,1.615-0.563,3.022-1.686,4.229c-1.124,1.208-2.568,1.812-4.33,1.812c-1.774,0-3.222-0.604-4.345-1.812
			c-1.124-1.206-1.685-2.613-1.685-4.229c0-1.599,0.531-2.985,1.593-4.162C231.264,51.52,232.74,50.873,234.529,50.873z
			 M234.522,52.327c-1.236,0-2.297,0.457-3.187,1.365c-0.886,0.915-1.33,2.019-1.33,3.312c0,0.837,0.202,1.618,0.608,2.337
			c0.405,0.721,0.95,1.278,1.64,1.672c0.689,0.391,1.448,0.588,2.269,0.588c0.823,0,1.583-0.197,2.27-0.588
			c0.688-0.394,1.236-0.951,1.64-1.672c0.405-0.722,0.608-1.503,0.608-2.337c0-1.294-0.445-2.397-1.337-3.312
			C236.81,52.784,235.751,52.327,234.522,52.327z"/>
		<path fill="#231F20" d="M243.286,51.168h1.487v1.997c0.516-0.736,1.046-1.272,1.591-1.615c0.751-0.454,1.542-0.677,2.37-0.677
			c0.561,0,1.092,0.107,1.594,0.33c0.504,0.218,0.912,0.51,1.233,0.874c0.318,0.364,0.595,0.888,0.828,1.564
			c0.495-0.905,1.11-1.595,1.853-2.065c0.743-0.474,1.541-0.707,2.395-0.707c0.795,0,1.502,0.204,2.112,0.605
			c0.611,0.402,1.064,0.963,1.358,1.688c0.299,0.721,0.448,1.804,0.448,3.246v6.308h-1.521v-6.305c0-1.239-0.086-2.089-0.262-2.555
			c-0.176-0.465-0.477-0.837-0.906-1.118c-0.427-0.283-0.936-0.426-1.526-0.426c-0.721,0-1.377,0.218-1.971,0.639
			c-0.598,0.426-1.032,0.989-1.307,1.698c-0.275,0.707-0.413,1.887-0.413,3.545v4.521h-1.486v-5.911c0-1.396-0.087-2.34-0.26-2.838
			c-0.172-0.497-0.475-0.9-0.906-1.201c-0.433-0.298-0.946-0.453-1.541-0.453c-0.686,0-1.328,0.211-1.927,0.623
			c-0.599,0.414-1.04,0.972-1.328,1.672c-0.286,0.701-0.429,1.771-0.429,3.217v4.892h-1.489L243.286,51.168L243.286,51.168z"/>
		<path fill="#231F20" d="M269.152,50.873c1.78,0,3.256,0.644,4.425,1.932c1.061,1.177,1.595,2.565,1.595,4.171
			c0,1.615-0.564,3.022-1.685,4.229c-1.124,1.208-2.572,1.812-4.335,1.812c-1.771,0-3.22-0.604-4.347-1.812
			c-1.12-1.206-1.683-2.613-1.683-4.229c0-1.599,0.532-2.985,1.594-4.162C265.889,51.52,267.363,50.873,269.152,50.873z
			 M269.146,52.327c-1.237,0-2.298,0.457-3.184,1.365c-0.889,0.915-1.332,2.019-1.332,3.312c0,0.837,0.203,1.618,0.605,2.337
			c0.402,0.718,0.949,1.278,1.639,1.672c0.689,0.391,1.443,0.588,2.266,0.588c0.823,0,1.583-0.197,2.271-0.588
			c0.688-0.394,1.236-0.951,1.64-1.672c0.402-0.722,0.608-1.503,0.608-2.337c0-1.294-0.447-2.397-1.339-3.312
			C271.436,52.784,270.377,52.327,269.146,52.327z"/>
		<path fill="#231F20" d="M289.132,53.569l-1.178,0.732c-1.02-1.354-2.409-2.027-4.165-2.027c-1.407,0-2.576,0.45-3.506,1.356
			c-0.93,0.907-1.392,2.006-1.392,3.297c0,0.844,0.212,1.635,0.641,2.376c0.424,0.746,1.017,1.321,1.756,1.732
			c0.748,0.411,1.583,0.61,2.51,0.61c1.7,0,3.085-0.674,4.159-2.027l1.177,0.775c-0.551,0.835-1.296,1.479-2.224,1.938
			c-0.927,0.462-1.994,0.689-3.181,0.689c-1.821,0-3.339-0.582-4.546-1.748c-1.202-1.155-1.804-2.568-1.804-4.229
			c0-1.118,0.28-2.159,0.841-3.115c0.564-0.96,1.338-1.709,2.322-2.249c0.983-0.538,2.084-0.802,3.3-0.802
			c0.766,0,1.502,0.114,2.212,0.35c0.713,0.232,1.314,0.54,1.812,0.915C288.362,52.51,288.785,52.99,289.132,53.569z"/>
		<path fill="#231F20" d="M292.499,46.414c0.341,0,0.63,0.118,0.868,0.36c0.235,0.237,0.357,0.53,0.357,0.867
			s-0.122,0.62-0.357,0.857c-0.238,0.242-0.531,0.362-0.868,0.362c-0.333,0-0.613-0.123-0.854-0.362
			c-0.241-0.237-0.358-0.527-0.358-0.857c0-0.34,0.117-0.63,0.358-0.867C291.882,46.532,292.168,46.414,292.499,46.414z
			 M291.764,51.168h1.484v11.548h-1.484V51.168z"/>
		<path fill="#231F20" d="M301.803,50.873c1.783,0,3.255,0.644,4.424,1.932c1.064,1.177,1.599,2.565,1.599,4.171
			c0,1.615-0.564,3.022-1.688,4.229c-1.124,1.208-2.567,1.812-4.335,1.812c-1.77,0-3.219-0.604-4.34-1.812
			c-1.127-1.206-1.687-2.613-1.687-4.229c0-1.599,0.532-2.985,1.595-4.162C298.539,51.52,300.018,50.873,301.803,50.873z
			 M301.797,52.327c-1.233,0-2.295,0.457-3.184,1.365c-0.889,0.915-1.332,2.019-1.332,3.312c0,0.837,0.202,1.618,0.608,2.337
			c0.404,0.718,0.951,1.278,1.639,1.672c0.689,0.391,1.443,0.588,2.267,0.588c0.824,0,1.582-0.197,2.271-0.588
			c0.686-0.394,1.233-0.951,1.637-1.672c0.408-0.722,0.607-1.503,0.607-2.337c0-1.294-0.444-2.397-1.336-3.312
			C304.089,52.784,303.028,52.327,301.797,52.327z M302.536,45.758h2.284l-3.13,3.27h-1.468L302.536,45.758z"/>
		<path fill="#231F20" d="M310.573,51.168h1.487v2.068c0.596-0.795,1.249-1.383,1.971-1.779c0.725-0.395,1.509-0.59,2.358-0.59
			c0.863,0,1.626,0.224,2.294,0.658c0.672,0.438,1.17,1.031,1.488,1.773c0.316,0.742,0.474,1.902,0.474,3.468v5.946h-1.483v-5.506
			c0-1.329-0.058-2.218-0.167-2.665c-0.167-0.763-0.501-1.338-0.988-1.727c-0.488-0.384-1.126-0.574-1.909-0.574
			c-0.898,0-1.706,0.295-2.418,0.891c-0.713,0.594-1.178,1.33-1.404,2.207c-0.146,0.571-0.218,1.617-0.218,3.142v4.232h-1.484
			V51.168L310.573,51.168z"/>
		<path fill="#231F20" d="M329.869,51.168h1.487v2.126c0.588-0.809,1.261-1.414,2.024-1.816c0.763-0.402,1.615-0.604,2.558-0.604
			c1.637,0,3.04,0.593,4.209,1.773c1.166,1.18,1.75,2.605,1.75,4.269c0,1.693-0.579,3.139-1.735,4.325
			c-1.159,1.181-2.549,1.78-4.183,1.78c-0.921,0-1.762-0.194-2.534-0.575c-0.771-0.382-1.469-0.951-2.085-1.709v6.207h-1.491V51.168
			L329.869,51.168z M335.815,52.306c-1.284,0-2.366,0.448-3.245,1.345c-0.88,0.9-1.318,2.019-1.318,3.352
			c0,0.876,0.194,1.666,0.587,2.363c0.391,0.703,0.951,1.255,1.688,1.67c0.731,0.408,1.496,0.61,2.316,0.61
			c0.796,0,1.547-0.206,2.25-0.619c0.701-0.411,1.262-0.986,1.679-1.735c0.417-0.742,0.623-1.518,0.623-2.331
			c0-0.816-0.206-1.599-0.616-2.331c-0.411-0.737-0.972-1.306-1.67-1.711C337.405,52.506,336.642,52.306,335.815,52.306z"/>
		<path fill="#231F20" d="M350.146,50.873c1.78,0,3.252,0.644,4.423,1.932c1.062,1.177,1.596,2.565,1.596,4.171
			c0,1.615-0.563,3.022-1.684,4.229c-1.125,1.208-2.57,1.812-4.335,1.812c-1.774,0-3.22-0.604-4.343-1.812
			c-1.127-1.21-1.688-2.613-1.688-4.229c0-1.599,0.534-2.985,1.599-4.162C346.882,51.52,348.357,50.873,350.146,50.873z
			 M350.14,52.327c-1.237,0-2.298,0.457-3.184,1.365c-0.889,0.915-1.333,2.019-1.333,3.312c0,0.837,0.202,1.618,0.608,2.337
			c0.402,0.721,0.951,1.278,1.64,1.672c0.688,0.391,1.442,0.588,2.266,0.588c0.822,0,1.58-0.197,2.268-0.588
			c0.689-0.394,1.238-0.951,1.644-1.672c0.401-0.722,0.605-1.503,0.605-2.337c0-1.294-0.447-2.397-1.339-3.312
			C352.429,52.784,351.367,52.327,350.14,52.327z"/>
		<path fill="#231F20" d="M358.349,51.168h1.518v1.687c0.453-0.667,0.931-1.162,1.435-1.493c0.501-0.33,1.025-0.492,1.566-0.492
			c0.412,0,0.854,0.132,1.315,0.391l-0.775,1.255c-0.31-0.14-0.571-0.205-0.786-0.205c-0.495,0-0.976,0.209-1.431,0.611
			c-0.463,0.404-0.809,1.037-1.05,1.893c-0.185,0.659-0.276,1.988-0.276,3.992v3.907h-1.516V51.168L358.349,51.168z"/>
		<path fill="#231F20" d="M371.248,46.711h1.486v16.005h-1.486V46.711z"/>
		<path fill="#231F20" d="M387.331,51.168v11.548h-1.468v-1.985c-0.623,0.757-1.32,1.326-2.096,1.708
			c-0.774,0.382-1.621,0.576-2.543,0.576c-1.633,0-3.031-0.6-4.188-1.78c-1.157-1.186-1.735-2.633-1.735-4.325
			c0-1.666,0.585-3.086,1.751-4.27c1.167-1.18,2.572-1.772,4.214-1.772c0.948,0,1.804,0.206,2.572,0.604
			c0.769,0.405,1.443,1.008,2.022,1.815v-2.126h1.47V51.168L387.331,51.168z M381.389,52.306c-0.825,0-1.592,0.204-2.289,0.608
			c-0.7,0.409-1.256,0.978-1.669,1.712c-0.415,0.735-0.62,1.518-0.62,2.334c0,0.811,0.209,1.589,0.622,2.331
			c0.418,0.742,0.981,1.32,1.686,1.737c0.7,0.411,1.458,0.617,2.262,0.617c0.809,0,1.583-0.206,2.31-0.614
			c0.731-0.411,1.292-0.965,1.682-1.666c0.392-0.697,0.591-1.487,0.591-2.363c0-1.336-0.441-2.451-1.317-3.348
			C383.759,52.754,382.677,52.306,381.389,52.306z"/>
		<path fill="#231F20" d="M390.672,51.168h1.487v2.068c0.593-0.795,1.252-1.383,1.973-1.779c0.723-0.395,1.509-0.59,2.359-0.59
			c0.861,0,1.627,0.224,2.295,0.658c0.671,0.438,1.162,1.031,1.481,1.773c0.318,0.742,0.477,1.902,0.477,3.468v5.946h-1.484v-5.506
			c0-1.329-0.056-2.218-0.166-2.665c-0.171-0.763-0.505-1.338-0.99-1.727c-0.485-0.384-1.124-0.574-1.911-0.574
			c-0.896,0-1.705,0.295-2.417,0.891c-0.713,0.594-1.175,1.33-1.404,2.207c-0.144,0.571-0.212,1.617-0.212,3.142v4.232h-1.487
			V51.168L390.672,51.168z"/>
		<path fill="#231F20" d="M402.986,51.168h8.481l-6.535,10.233h6.325v1.314h-8.886l6.53-10.243h-5.913v-1.305H402.986z"/>
		<path fill="#231F20" d="M424.673,51.168v11.548h-1.468v-1.985c-0.622,0.757-1.32,1.326-2.096,1.708
			c-0.773,0.382-1.617,0.576-2.542,0.576c-1.634,0-3.031-0.6-4.188-1.78c-1.158-1.186-1.734-2.633-1.734-4.325
			c0-1.666,0.585-3.086,1.75-4.27c1.168-1.18,2.572-1.772,4.215-1.772c0.947,0,1.806,0.206,2.572,0.604
			c0.77,0.405,1.443,1.008,2.023,1.815v-2.126h1.468V51.168L424.673,51.168z M418.732,52.306c-0.826,0-1.59,0.204-2.291,0.608
			c-0.699,0.409-1.254,0.978-1.668,1.712c-0.415,0.735-0.621,1.518-0.621,2.334c0,0.811,0.209,1.589,0.626,2.331
			c0.418,0.742,0.978,1.32,1.683,1.737c0.699,0.411,1.457,0.617,2.262,0.617c0.813,0,1.583-0.206,2.313-0.614
			c0.728-0.411,1.288-0.965,1.679-1.666c0.391-0.697,0.593-1.487,0.593-2.363c0-1.336-0.441-2.451-1.32-3.348
			C421.102,52.754,420.02,52.306,418.732,52.306z"/>
		<path fill="#231F20" d="M428.005,51.168h1.484v1.997c0.519-0.736,1.05-1.272,1.596-1.615c0.748-0.454,1.541-0.677,2.369-0.677
			c0.561,0,1.092,0.107,1.595,0.33c0.504,0.218,0.916,0.51,1.234,0.874c0.319,0.364,0.6,0.888,0.832,1.564
			c0.495-0.905,1.112-1.595,1.854-2.065c0.739-0.474,1.54-0.707,2.388-0.707c0.798,0,1.505,0.204,2.113,0.605
			c0.611,0.402,1.063,0.963,1.365,1.688c0.295,0.721,0.443,1.804,0.443,3.246v6.308h-1.517v-6.305c0-1.239-0.09-2.089-0.266-2.555
			c-0.176-0.465-0.477-0.837-0.905-1.118c-0.424-0.283-0.934-0.426-1.526-0.426c-0.722,0-1.377,0.218-1.977,0.639
			c-0.596,0.426-1.028,0.989-1.303,1.698c-0.277,0.707-0.415,1.887-0.415,3.545v4.521h-1.487v-5.911c0-1.396-0.086-2.34-0.262-2.838
			c-0.171-0.497-0.475-0.9-0.907-1.201c-0.432-0.295-0.944-0.453-1.537-0.453c-0.689,0-1.329,0.211-1.929,0.623
			c-0.6,0.414-1.041,0.972-1.327,1.672c-0.285,0.701-0.429,1.771-0.429,3.217v4.892h-1.484L428.005,51.168L428.005,51.168z"/>
		<path fill="#231F20" d="M448.919,46.414c0.341,0,0.63,0.118,0.868,0.36c0.238,0.237,0.357,0.53,0.357,0.867
			s-0.119,0.62-0.357,0.857c-0.238,0.242-0.53,0.362-0.868,0.362c-0.33,0-0.613-0.123-0.854-0.362
			c-0.239-0.237-0.358-0.527-0.358-0.857c0-0.34,0.119-0.63,0.358-0.867C448.306,46.532,448.589,46.414,448.919,46.414z
			 M448.184,51.168h1.488v11.548h-1.488V51.168z"/>
		<path fill="#231F20" d="M462.483,58.885l1.252,0.659c-0.415,0.809-0.886,1.458-1.428,1.953c-0.54,0.498-1.145,0.87-1.815,1.133
			c-0.674,0.257-1.434,0.387-2.286,0.387c-1.882,0-3.356-0.619-4.419-1.854c-1.062-1.237-1.594-2.632-1.594-4.188
			c0-1.465,0.449-2.77,1.347-3.918c1.143-1.457,2.665-2.188,4.579-2.188c1.97,0,3.541,0.746,4.722,2.242
			c0.835,1.053,1.261,2.37,1.272,3.95h-10.395c0.03,1.338,0.459,2.44,1.291,3.297c0.829,0.855,1.852,1.287,3.071,1.287
			c0.587,0,1.159-0.099,1.716-0.307c0.558-0.205,1.029-0.475,1.419-0.811C461.606,60.188,462.026,59.643,462.483,58.885z
			 M462.483,55.777c-0.202-0.796-0.489-1.428-0.868-1.902c-0.382-0.477-0.883-0.854-1.505-1.145
			c-0.617-0.292-1.278-0.435-1.964-0.435c-1.133,0-2.108,0.364-2.925,1.094c-0.596,0.533-1.047,1.326-1.348,2.388H462.483
			L462.483,55.777z"/>
		<path fill="#231F20" d="M466.89,51.168h1.483v2.068c0.597-0.795,1.252-1.383,1.974-1.779c0.725-0.395,1.509-0.59,2.358-0.59
			c0.861,0,1.627,0.224,2.295,0.658c0.672,0.438,1.166,1.031,1.484,1.773c0.319,0.742,0.478,1.902,0.478,3.468v5.946h-1.485v-5.506
			c0-1.329-0.056-2.218-0.167-2.665c-0.167-0.763-0.501-1.338-0.989-1.727c-0.485-0.384-1.124-0.574-1.908-0.574
			c-0.9,0-1.704,0.295-2.417,0.891c-0.716,0.594-1.181,1.33-1.403,2.207c-0.146,0.571-0.215,1.617-0.215,3.142v4.232h-1.487V51.168
			L466.89,51.168z"/>
		<path fill="#231F20" d="M481.439,46.882h1.487v4.289h2.357v1.288h-2.357v10.263h-1.487V52.459h-2.024v-1.288h2.024V46.882
			L481.439,46.882z"/>
		<path fill="#231F20" d="M492.979,50.873c1.78,0,3.252,0.644,4.424,1.932c1.062,1.177,1.596,2.565,1.596,4.171
			c0,1.615-0.564,3.022-1.685,4.229c-1.125,1.208-2.573,1.812-4.335,1.812c-1.773,0-3.22-0.604-4.347-1.812
			c-1.127-1.21-1.685-2.613-1.685-4.229c0-1.599,0.534-2.985,1.595-4.162C489.715,51.52,491.193,50.873,492.979,50.873z
			 M492.973,52.327c-1.234,0-2.298,0.457-3.184,1.365c-0.889,0.915-1.333,2.019-1.333,3.312c0,0.837,0.203,1.618,0.608,2.337
			c0.402,0.721,0.951,1.278,1.64,1.672c0.688,0.391,1.445,0.588,2.269,0.588c0.822,0,1.577-0.197,2.269-0.588
			c0.686-0.394,1.237-0.951,1.64-1.672c0.402-0.722,0.605-1.503,0.605-2.337c0-1.294-0.447-2.397-1.339-3.312
			C495.262,52.784,494.2,52.327,492.973,52.327z"/>
	</g>
	<g>
		<path d="M23.815-25.976l81.398,13.106c0,0,0.688,0.067,0.753,1.004c0.062,1.384,2.76,62.708,2.76,62.708
			c0,0.691-0.689,1.317-0.94,1.443c0,0,0.126,0.187,0.126,0.5c0,1.503-0.252,7.841-0.188,8.528c0.062,1.632-0.94,3.453-3.013,3.453
			c-1.505,0-83.907,0-84.531,0c-1.193,0-3.89-0.689-3.89-4.83c0.064-1.815,0.753-81.711,0.753-81.711s0-0.567,0-1.442
			c0-0.877,0.879-1.253,3.072-2.257c1.004-0.44,2.133-0.817,2.821-0.883C23.563-26.414,23.439-26.289,23.815-25.976z"/>
		<path fill="#E20613" d="M24.442,43.695l83.028,2.069l0.252,4.956l-8.594,0.439c0,0-0.374,0-0.562,0.247
			c-0.189,0.186-0.127,0.501-0.127,0.501v7.59l-73.995-0.505L24.442,43.695L24.442,43.695z"/>
		<polygon fill="#FFFFFF" points="99.694,58.874 99.694,52.477 106.843,52.101 		"/>
		<polygon fill="#FFFFFF" points="24.507,-25.284 24.442,43.695 107.471,45.764 104.774,-11.864 		"/>
		<path d="M79.815-10.297c-0.626,0.879-1.818,0.879-2.759,0.377c-1.127-0.563-1.567-1.818-1.127-2.696
			c0.438-0.878,1.691-1.064,2.819-0.5C79.815-12.555,80.317-11.049,79.815-10.297z"/>
		<path d="M52.095-17.07c0.629,1.065,0.566,2.197-0.312,2.76c-0.879,0.566-2.509,0.189-3.136-0.815
			c-0.629-1.066-0.503-2.258,0.379-2.883C49.901-18.574,51.408-18.134,52.095-17.07z"/>
		<polygon points="37.611,7.451 51.157,8.83 51.157,13.094 42.813,12.218 42.879,16.168 50.717,16.794 50.78,20.744 42.879,20.243 
			42.942,27.955 37.864,27.892 		"/>
		<polygon points="52.598,8.957 57.742,9.456 58.181,28.584 52.976,28.331 		"/>
		<polygon points="60.249,9.707 65.955,10.209 74.421,22.688 74.046,11.026 78.685,11.528 79.375,29.464 73.42,29.273 
			65.202,16.985 65.517,28.897 60.752,28.709 		"/>
		<path fill="#E20613" d="M86.273,17.734c-0.188,1.063-1.191,1.754-2.509,1.565c-1.315-0.188-2.258-1.377-2.068-2.445
			c0.189-1.064,1.254-1.632,2.509-1.38C85.521,15.665,86.463,16.669,86.273,17.734z"/>
		<path fill="#E20613" d="M86.65,25.699c-0.188,1.064-1.191,1.815-2.508,1.565c-1.317-0.188-2.257-1.377-2.068-2.447
			c0.186-1.062,1.252-1.628,2.509-1.378C85.898,23.627,86.839,24.635,86.65,25.699z"/>
		<path d="M48.837,0.55c-0.313-0.5-1.381-1.316-2.133-1.502c-0.25-0.062-0.313-0.062-0.438-0.188c0.5-0.063,1.566-0.565,1.88-1.006
			c0.503-0.688,0.628-1.191,0.628-2.13c0-2.633-1.943-3.827-3.701-4.142C43.38-8.731,37.3-9.545,37.3-9.545l0.062,15.929
			c0,0,5.017,0.627,7.526,0.627c3.448,0,4.514-2.193,4.514-3.763C49.464,2.121,49.277,1.24,48.837,0.55z M41.248-5.969l1.631,0.191
			c1.191,0.188,1.565,0.938,1.565,1.439c0,0.503,0,0.812-0.249,1.127c-0.189,0.313-0.502,0.566-1.128,0.501
			c-0.503,0-1.756-0.188-1.756-0.188L41.248-5.969z M44.824,3.375c-0.312,0.313-0.942,0.435-1.444,0.376
			c-0.69-0.063-2.006-0.25-2.006-0.25V0.177l1.943,0.187c0.751,0.125,1.128,0.378,1.38,0.626
			C45.514,1.807,45.072,3.061,44.824,3.375z"/>
		<path d="M60.249-6.282l3.888,0.565l0.313,7.775c0,0.94,0.063,1.879-0.062,2.761c-0.125,0.878-0.502,1.751-1.13,2.38
			c-0.627,0.628-1.505,1.568-5.017,1.568c-2.195,0-4.515-0.754-5.896-1.942c-1.69-1.444-1.817-4.078-1.817-4.895L50.465-7.66
			l3.762,0.565l0.251,9.531c0,2.132,1.88,3.009,3.135,3.009c1.067,0,1.819-0.122,2.259-0.623c0.437-0.501,0.565-1.005,0.565-1.942
			L60.249-6.282z"/>
		<path d="M66.207-5.467l10.724,1.563l0.125,3.014l-6.772-0.88v2.573l6.459,0.813l0.064,2.95L70.41,3.813v2.698l7.023,0.688
			l0.064,3.074L66.649,9.212L66.207-5.467z"/>
		<path d="M78.562-3.589l4.452,0.627l6.648,9.72l-0.378-8.778l3.639,0.563l0.688,13.422l-4.577-0.438l-6.584-9.594l0.313,8.968
			l-3.574-0.377L78.562-3.589z"/>
		<path fill="#E20613" d="M88.407,13.906c0,0,1.003-0.246,1.817,0.754c0.816,1.003,3.2,3.887,3.2,8.09
			c0,2.823-2.068,6.271-3.138,6.644c0,0-1.629,0.25-1.252-0.313c0.25-0.313,0.815-1.44,0.939-2.002
			c0.312-0.88,0.88-1.571,0.88-5.646c0-1.816-1.129-4.954-2.322-6.771C88.469,14.661,87.966,14.033,88.407,13.906z"/>
		<g>
			<path fill="#1D1D1B" d="M33.347,35.357l0.063-2.948h0.565c0.25,0,0.503,0.062,0.689,0.125c0.189,0.062,0.314,0.188,0.439,0.311
				c0.249,0.313,0.438,0.625,0.376,1.126c0,0.441-0.188,0.817-0.502,1.067c-0.126,0.125-0.314,0.248-0.501,0.248
				c-0.127,0.065-0.379,0.065-0.629,0.065L33.347,35.357L33.347,35.357z M33.787,34.982h0.188c0.188,0,0.377,0,0.503-0.069
				c0.125-0.062,0.249-0.122,0.312-0.185c0.189-0.188,0.314-0.438,0.314-0.754c0-0.313-0.063-0.563-0.314-0.814
				c-0.187-0.188-0.438-0.25-0.814-0.315h-0.188V34.982z"/>
			<path fill="#1D1D1B" d="M36.482,32.534l-0.063,2.949h-0.439l0.062-2.949H36.482z"/>
			<path fill="#1D1D1B" d="M38.738,33.038l-0.375,0.188c-0.064-0.125-0.125-0.188-0.188-0.254c-0.062-0.059-0.127-0.062-0.251-0.062
				c-0.125,0-0.187,0-0.312,0.128c-0.064,0.062-0.125,0.122-0.125,0.248c0,0.125,0.125,0.25,0.312,0.375l0.249,0.125
				c0.253,0.125,0.379,0.25,0.504,0.375c0.126,0.128,0.126,0.316,0.126,0.507c0,0.244-0.126,0.501-0.251,0.688
				c-0.188,0.188-0.379,0.248-0.628,0.248s-0.438-0.063-0.563-0.248c-0.127-0.125-0.252-0.375-0.252-0.628l0.44-0.06
				c0,0.185,0.063,0.313,0.063,0.375c0.063,0.125,0.188,0.188,0.379,0.188c0.123,0,0.248-0.062,0.312-0.125
				c0.064-0.062,0.124-0.191,0.124-0.378c0-0.06,0-0.125,0-0.188s-0.063-0.062-0.063-0.122c0-0.062-0.062-0.066-0.125-0.128
				c-0.064-0.062-0.125-0.062-0.19-0.122l-0.25-0.125c-0.376-0.188-0.565-0.438-0.565-0.751c0-0.25,0.064-0.378,0.252-0.566
				c0.188-0.125,0.377-0.188,0.628-0.188C38.301,32.534,38.552,32.659,38.738,33.038z"/>
			<path fill="#1D1D1B" d="M40.684,33.038h-0.938v0.688h0.938v0.438h-0.938l-0.064,1.38h-0.439l0.062-2.949l1.381,0.062
				L40.684,33.038L40.684,33.038z"/>
			<path fill="#1D1D1B" d="M42.128,34.352l0.814,1.252H42.44l-0.751-1.189h-0.064v1.189h-0.439l0.063-2.948h0.501
				c0.379,0,0.627,0.065,0.817,0.25c0.188,0.187,0.249,0.378,0.249,0.625c0,0.188-0.062,0.375-0.187,0.501
				C42.441,34.227,42.313,34.29,42.128,34.352z M41.627,33.977h0.125c0.377,0,0.627-0.122,0.627-0.438
				c0-0.313-0.188-0.438-0.564-0.438h-0.125L41.627,33.977z"/>
			<path fill="#1D1D1B" d="M43.821,32.722l-0.064,1.752c0,0.25,0,0.436,0.125,0.567c0.126,0.188,0.252,0.247,0.503,0.247
				c0.189,0,0.377-0.062,0.501-0.247c0.064-0.128,0.125-0.316,0.125-0.567l0.064-1.752h0.439l-0.062,1.875
				c0,0.313-0.125,0.569-0.314,0.754c-0.188,0.188-0.438,0.316-0.752,0.316s-0.564-0.128-0.754-0.381
				c-0.187-0.185-0.25-0.438-0.25-0.748l0.065-1.881L43.821,32.722z"/>
			<path fill="#1D1D1B" d="M46.891,33.226l-0.061,2.509h-0.439l0.063-2.509h-0.627v-0.441l1.695,0.065v0.438L46.891,33.226z"/>
			<path fill="#1D1D1B" d="M49.337,35.044h-1.19l-0.313,0.689h-0.439l1.441-3.074l1.255,3.139H49.65L49.337,35.044z M49.214,34.669
				l-0.377-1.008l-0.44,1.008H49.214z"/>
			<path fill="#1D1D1B" d="M52.034,32.909l-0.062,2.513h0.814v0.438h-1.255l0.065-2.952H52.034z"/>
			<path fill="#1D1D1B" d="M52.976,34.418c0-0.441,0.188-0.751,0.44-1.067c0.312-0.313,0.624-0.438,1.062-0.438
				c0.378,0,0.755,0.188,1.005,0.504c0.25,0.31,0.439,0.688,0.379,1.064c0,0.435-0.189,0.751-0.44,1.064
				c-0.312,0.312-0.627,0.438-1.065,0.438c-0.377,0-0.689-0.125-0.939-0.438C53.103,35.232,52.976,34.853,52.976,34.418z
				 M53.416,34.418c0,0.31,0.062,0.563,0.312,0.814c0.19,0.187,0.439,0.313,0.69,0.313c0.314,0,0.566-0.062,0.753-0.313
				c0.188-0.188,0.312-0.441,0.312-0.751c0-0.313-0.063-0.566-0.25-0.813c-0.19-0.191-0.439-0.316-0.753-0.316
				c-0.312,0-0.562,0.066-0.75,0.316C53.541,33.852,53.416,34.102,53.416,34.418z"/>
			<path fill="#1D1D1B" d="M57.429,35.983l0.69-3.138l0.878,2.322l1.065-2.259l0.438,3.139h-0.438L59.81,34.29l-0.877,1.881
				l-0.754-1.943l-0.312,1.755H57.429L57.429,35.983z"/>
			<path fill="#1D1D1B" d="M62.757,35.419h-1.191l-0.313,0.692h-0.439l1.442-3.076l1.253,3.139H63.07L62.757,35.419z M62.57,34.982
				l-0.378-1.008l-0.438,1.008H62.57z M62.884,32.409l-0.754,0.5l-0.188-0.188l0.563-0.629L62.884,32.409z"/>
			<path fill="#1D1D1B" d="M65.454,33.664l-0.377,0.188c-0.064-0.125-0.125-0.188-0.188-0.25c-0.064-0.062-0.124-0.062-0.249-0.062
				c-0.127,0-0.189,0-0.314,0.125c-0.062,0.062-0.125,0.125-0.125,0.248c0,0.128,0.125,0.25,0.313,0.378l0.253,0.125
				c0.25,0.125,0.375,0.25,0.499,0.375c0.127,0.125,0.127,0.316,0.127,0.501c0,0.25-0.127,0.506-0.251,0.694
				c-0.187,0.188-0.375,0.245-0.626,0.245c-0.25,0-0.438-0.06-0.565-0.245c-0.126-0.125-0.25-0.381-0.25-0.629l0.44-0.065
				c0,0.191,0.062,0.313,0.062,0.378c0.063,0.128,0.188,0.191,0.378,0.191c0.125,0,0.251-0.063,0.313-0.128
				c0.064-0.063,0.127-0.188,0.127-0.376c0-0.065,0-0.125,0-0.187c0-0.063-0.062-0.063-0.062-0.125c0-0.06-0.064-0.062-0.126-0.128
				c-0.064-0.06-0.125-0.06-0.189-0.123l-0.25-0.122c-0.377-0.19-0.566-0.441-0.566-0.754c0-0.25,0.064-0.375,0.252-0.566
				c0.188-0.125,0.376-0.188,0.627-0.188C65.079,33.16,65.328,33.351,65.454,33.664z"/>
			<path fill="#1D1D1B" d="M67.148,36.234l0.064-2.946h0.436c0.189,0,0.315,0,0.441,0.062c0.125,0.062,0.188,0.062,0.249,0.188
				c0.064,0.062,0.125,0.188,0.188,0.313c0.063,0.122,0.063,0.247,0.063,0.313c0,0.188-0.063,0.375-0.252,0.501
				c0.127,0.062,0.252,0.122,0.314,0.313c0.064,0.125,0.127,0.313,0.127,0.438c0,0.25-0.064,0.438-0.252,0.566
				c-0.125,0.125-0.189,0.188-0.314,0.188c-0.125,0.06-0.312,0.06-0.501,0.06h-0.564V36.234z M67.585,35.798h0.252
				c0.189,0,0.314,0,0.439-0.128c0.127-0.065,0.127-0.187,0.127-0.313c0-0.125-0.064-0.25-0.127-0.312
				c-0.062-0.065-0.25-0.128-0.439-0.128h-0.189L67.585,35.798z M67.585,34.54h0.126c0.126,0,0.251,0,0.379-0.122
				c0.062-0.066,0.125-0.191,0.125-0.316c0-0.125,0-0.248-0.125-0.313c-0.063-0.063-0.188-0.125-0.314-0.125h-0.127L67.585,34.54z"
				/>
			<path fill="#1D1D1B" d="M70.911,35.607h-1.19l-0.314,0.692h-0.439l1.441-3.073l1.254,3.135h-0.438L70.911,35.607z M70.786,35.17
				l-0.376-1.005l-0.44,1.005H70.786z"/>
			<path fill="#1D1D1B" d="M72.98,35.107l0.815,1.249h-0.504l-0.753-1.186h-0.064v1.186h-0.437l0.064-2.945h0.501
				c0.375,0,0.626,0.062,0.814,0.25c0.189,0.188,0.251,0.375,0.251,0.626c0,0.188-0.064,0.379-0.188,0.5
				C73.355,34.982,73.168,35.107,72.98,35.107z M72.477,34.791h0.127c0.375,0,0.624-0.122,0.624-0.435s-0.188-0.438-0.563-0.438
				h-0.127L72.477,34.791z"/>
			<path fill="#1D1D1B" d="M75.93,35.733h-1.193l-0.313,0.688h-0.438l1.442-3.07l1.254,3.136h-0.438L75.93,35.733z M75.738,35.294
				l-0.377-1.004l-0.44,1.004H75.738z"/>
			<path fill="#1D1D1B" d="M77.683,33.977l-0.063,2.513h-0.438l0.062-2.513h-0.627v-0.438l1.694,0.065v0.438L77.683,33.977z"/>
			<path fill="#1D1D1B" d="M78.438,35.044c0-0.441,0.188-0.754,0.438-1.067c0.314-0.313,0.627-0.438,1.064-0.438
				c0.378,0,0.752,0.188,1.004,0.504c0.251,0.313,0.438,0.688,0.376,1.064c0,0.438-0.188,0.751-0.437,1.064
				c-0.314,0.313-0.628,0.438-1.066,0.438c-0.377,0-0.689-0.125-0.941-0.438C78.562,35.858,78.438,35.483,78.438,35.044z
				 M78.874,35.044c0,0.312,0.062,0.562,0.315,0.813c0.188,0.19,0.438,0.313,0.689,0.313c0.313,0,0.563-0.063,0.751-0.313
				c0.191-0.188,0.314-0.438,0.314-0.751c0-0.316-0.063-0.566-0.25-0.817c-0.188-0.188-0.438-0.313-0.751-0.313
				c-0.314,0-0.566,0.066-0.753,0.313C78.937,34.481,78.874,34.728,78.874,35.044z"/>
			<path fill="#1D1D1B" d="M82.951,36.609l0.063-2.951h0.563c0.252,0,0.504,0.069,0.691,0.126c0.188,0.065,0.313,0.187,0.438,0.312
				c0.251,0.316,0.439,0.629,0.377,1.13c0,0.441-0.188,0.817-0.502,1.061c-0.127,0.125-0.313,0.251-0.503,0.251
				c-0.124,0.065-0.378,0.065-0.627,0.065L82.951,36.609L82.951,36.609z M83.388,36.234h0.189c0.188,0,0.377,0,0.502-0.063
				c0.125-0.063,0.25-0.123,0.376-0.188c0.188-0.185,0.313-0.438,0.313-0.75c0-0.316-0.063-0.563-0.313-0.814
				c-0.188-0.191-0.438-0.25-0.815-0.316H83.45L83.388,36.234z"/>
			<path fill="#1D1D1B" d="M87.28,34.227h-1.132v0.688h1.067v0.441h-1.067v0.999h1.132v0.441l-1.568-0.063l0.062-2.95l1.569,0.065
				L87.28,34.227z"/>
			<path fill="#1D1D1B" d="M88.219,33.852l-0.062,2.504h0.814v0.441h-1.255l0.062-2.948L88.219,33.852L88.219,33.852z"/>
			<path fill="#1D1D1B" d="M92.17,36.171h-1.192l-0.312,0.689h-0.44l1.444-3.07l1.254,3.132h-0.44L92.17,36.171z M92.042,35.733
				l-0.375-1.005l-0.44,1.005H92.042z"/>
			<path fill="#1D1D1B" d="M93.3,36.86l0.061-3.133l2.009,2.256l0.063-2.009h0.438l-0.063,3.139l-2.006-2.257l-0.062,2.066
				L93.3,36.86z M94.051,33.664L93.8,33.473l0.064-0.062c0.064-0.062,0.064-0.062,0.126-0.122c0.062-0.066,0.062-0.066,0.126-0.066
				c0.061,0,0.061-0.065,0.123-0.065c0.064,0,0.064,0,0.126,0c0.126,0,0.188,0.065,0.313,0.128c0.125,0.062,0.188,0.125,0.25,0.125
				s0.125-0.066,0.251-0.188l0.25,0.188c-0.125,0.25-0.25,0.375-0.501,0.375c-0.063,0-0.188-0.062-0.314-0.125
				s-0.188-0.062-0.251-0.062C94.176,33.476,94.114,33.539,94.051,33.664z"/>
			<path fill="#1D1D1B" d="M96.31,35.483c0-0.438,0.188-0.754,0.438-1.064c0.313-0.316,0.625-0.441,1.064-0.441
				c0.376,0,0.753,0.191,1.002,0.504c0.252,0.31,0.439,0.691,0.377,1.064c0,0.438-0.188,0.75-0.438,1.063
				c-0.314,0.313-0.628,0.438-1.065,0.438c-0.377,0-0.69-0.125-0.942-0.438C96.434,36.356,96.31,35.983,96.31,35.483z
				 M96.747,35.483c0,0.315,0.064,0.565,0.314,0.813c0.188,0.188,0.439,0.313,0.689,0.313c0.315,0,0.566-0.062,0.753-0.313
				c0.189-0.188,0.314-0.438,0.314-0.75c0-0.313-0.063-0.563-0.252-0.817c-0.189-0.188-0.438-0.31-0.751-0.31
				c-0.314,0-0.565,0.06-0.751,0.31C96.872,34.916,96.747,35.17,96.747,35.483z"/>
			<path fill="#1D1D1B" d="M40.435,37.676h-1.129v0.689h1.064v0.441h-1.064v1.001h1.129v0.441l-1.568-0.065l0.064-2.949l1.566,0.063
				L40.435,37.676z"/>
			<path fill="#1D1D1B" d="M40.933,40.248l0.066-3.135l2.006,2.253l0.062-2.006h0.438l-0.062,3.14l-2.009-2.257l-0.062,2.069
				L40.933,40.248z"/>
			<path fill="#1D1D1B" d="M46.016,37.867l-0.063,2.509h-0.438l0.064-2.509H44.95v-0.439l1.693,0.063v0.438L46.016,37.867z"/>
			<path fill="#1D1D1B" d="M47.456,37.488l-0.062,2.952h-0.438l0.062-2.952H47.456z"/>
			<path fill="#1D1D1B" d="M49.714,37.927h-1.128v0.691h1.064v0.438h-1.064v1.005h1.128v0.435l-1.567-0.063l0.064-2.947l1.565,0.062
				L49.714,37.927z"/>
			<path fill="#1D1D1B" d="M50.152,40.436l0.063-3.139l2.007,2.256l0.064-2.006h0.437l-0.062,3.14l-2.005-2.257l-0.064,2.066
				L50.152,40.436z"/>
			<path fill="#1D1D1B" d="M53.288,40.561l0.064-2.947h0.564c0.251,0,0.502,0.059,0.69,0.122c0.188,0.065,0.312,0.191,0.438,0.31
				c0.252,0.316,0.439,0.629,0.377,1.134c0,0.438-0.188,0.814-0.502,1.064c-0.125,0.125-0.312,0.244-0.501,0.244
				c-0.125,0.069-0.377,0.069-0.626,0.069L53.288,40.561L53.288,40.561z M53.727,40.123h0.19c0.187,0,0.376,0,0.501-0.062
				c0.125-0.066,0.25-0.126,0.376-0.188c0.19-0.191,0.313-0.441,0.313-0.754s-0.063-0.564-0.313-0.814
				c-0.188-0.191-0.438-0.253-0.816-0.316h-0.188L53.727,40.123z"/>
			<path fill="#1D1D1B" d="M57.49,39.935h-1.193l-0.312,0.689h-0.439l1.44-3.073l1.255,3.139h-0.439L57.49,39.935z M57.365,39.494
				l-0.377-1.001l-0.438,1.001H57.365z"/>
			<path fill="#1D1D1B" d="M61.189,38.242H60.25v0.689h0.939v0.435H60.25l-0.063,1.383h-0.439l0.062-2.948l1.38,0.063L61.189,38.242
				L61.189,38.242z"/>
			<path fill="#1D1D1B" d="M62.069,37.867l-0.064,2.947h-0.438l0.064-2.947H62.069z M62.57,37.047l-0.692,0.504l-0.186-0.188
				l0.564-0.626L62.57,37.047z"/>
			<path fill="#1D1D1B" d="M64.325,38.305l-0.376,0.188c-0.063-0.128-0.126-0.188-0.188-0.251c-0.064-0.062-0.126-0.062-0.251-0.062
				s-0.187,0-0.312,0.125c-0.064,0.06-0.126,0.125-0.126,0.248c0,0.125,0.126,0.25,0.313,0.378l0.25,0.125
				c0.252,0.125,0.379,0.251,0.504,0.376c0.125,0.128,0.125,0.313,0.125,0.503c0,0.248-0.125,0.501-0.25,0.689
				c-0.189,0.188-0.379,0.248-0.628,0.248s-0.439-0.063-0.566-0.248c-0.124-0.125-0.249-0.376-0.249-0.626l0.438-0.063
				c0,0.188,0.064,0.313,0.064,0.376c0.063,0.125,0.188,0.188,0.375,0.188c0.126,0,0.252-0.063,0.313-0.125
				c0.063-0.063,0.126-0.188,0.126-0.376c0-0.063,0-0.125,0-0.191c0-0.062-0.063-0.062-0.063-0.125c0-0.06-0.063-0.062-0.125-0.122
				c-0.062-0.066-0.127-0.066-0.189-0.126l-0.25-0.125c-0.376-0.188-0.564-0.438-0.564-0.751c0-0.191,0.064-0.376,0.249-0.566
				c0.189-0.125,0.379-0.188,0.628-0.188C63.887,37.804,64.139,37.989,64.325,38.305z"/>
			<path fill="#1D1D1B" d="M65.328,37.927l-0.063,2.95h-0.438l0.062-2.95H65.328z"/>
			<path fill="#1D1D1B" d="M68.089,38.114v0.504c-0.252-0.253-0.504-0.313-0.755-0.313c-0.312,0-0.501,0.125-0.752,0.313
				c-0.187,0.188-0.312,0.501-0.312,0.748c0,0.316,0.063,0.569,0.25,0.817c0.188,0.191,0.439,0.313,0.691,0.313
				c0.123,0,0.249,0,0.375-0.063c0.062,0,0.127-0.062,0.189-0.125c0.062-0.062,0.126-0.062,0.188-0.125v0.504
				c-0.251,0.122-0.503,0.185-0.753,0.185c-0.377,0-0.752-0.185-1.003-0.436c-0.252-0.313-0.377-0.691-0.377-1.064
				c0-0.378,0.125-0.691,0.377-1.007c0.313-0.376,0.688-0.498,1.128-0.498C67.585,37.927,67.838,37.989,68.089,38.114z"/>
			<path fill="#1D1D1B" d="M70.283,40.248h-1.191l-0.313,0.689h-0.441l1.442-3.074L71.034,41h-0.439L70.283,40.248z M70.094,39.807
				l-0.375-1.001l-0.439,1.001H70.094z"/>
			<path fill="#1D1D1B" d="M72.352,39.557c0-0.438,0.188-0.751,0.439-1.064c0.314-0.313,0.626-0.441,1.065-0.441
				c0.375,0,0.751,0.19,1.004,0.506c0.252,0.31,0.439,0.689,0.377,1.062c0,0.441-0.188,0.754-0.438,1.067
				c-0.313,0.31-0.625,0.435-1.064,0.435c-0.379,0-0.691-0.125-0.94-0.435C72.54,40.374,72.352,39.998,72.352,39.557z
				 M72.791,39.557c0,0.316,0.063,0.566,0.314,0.817c0.188,0.187,0.438,0.313,0.69,0.313c0.311,0,0.563-0.063,0.75-0.313
				c0.189-0.191,0.314-0.439,0.314-0.754c0-0.313-0.064-0.564-0.25-0.814c-0.189-0.188-0.438-0.313-0.752-0.313
				c-0.313,0-0.566,0.062-0.753,0.313C72.917,38.994,72.791,39.244,72.791,39.557z"/>
			<path fill="#1D1D1B" d="M78.498,38.681h-1.13v0.691h1.067v0.435h-1.067v1.005h1.13v0.438l-1.566-0.062l0.063-2.948l1.567,0.062
				L78.498,38.681z"/>
			<path fill="#1D1D1B" d="M78.998,41.188l0.065-3.143l2.007,2.261l0.062-2.007h0.44l-0.064,3.136l-2.007-2.253l-0.064,2.066
				L78.998,41.188z"/>
			<path fill="#1D1D1B" d="M83.765,38.365l-0.062,2.512h0.817v0.437h-1.254l0.062-2.949H83.765L83.765,38.365z"/>
			<path fill="#1D1D1B" d="M85.396,38.43l-0.062,2.945h-0.438l0.063-2.945H85.396z M85.898,37.676l-0.689,0.504l-0.189-0.191
				l0.565-0.626L85.898,37.676z"/>
			<path fill="#1D1D1B" d="M86.023,41.375l0.062-3.135l2.007,2.256l0.064-2.006h0.438l-0.063,3.136l-2.007-2.257l-0.062,2.065
				L86.023,41.375z"/>
			<path fill="#1D1D1B" d="M90.726,38.994H89.6v0.688h1.063v0.441H89.6v1.002h1.126v0.438L89.159,41.5l0.063-2.951l1.565,0.065
				L90.726,38.994z"/>
			<path fill="#1D1D1B" d="M92.856,40.813h-1.189l-0.312,0.69h-0.439l1.44-3.076l1.254,3.14h-0.438L92.856,40.813z M92.732,40.436
				l-0.377-1.004l-0.438,1.004H92.732z"/>
		</g>
		<g>
			<path fill="#93CAEE" d="M93.171,29.21c-0.438,0-0.878-0.188-1.129-0.563l-4.389-5.894c-0.375-0.5-0.375-1.192,0-1.693
				l4.389-5.896c0.251-0.375,0.69-0.566,1.129-0.566s0.88,0.19,1.13,0.566l3.26,4.454c1.005,1.382,1.005,3.264,0,4.644l-3.26,4.453
				C94.051,29.022,93.612,29.21,93.171,29.21z"/>
			<path fill="#12100B" d="M93.171,15.164c0.251,0,0.504,0.124,0.629,0.313l3.26,4.453c0.879,1.127,0.879,2.761,0,3.888l-3.26,4.451
				c-0.125,0.194-0.378,0.316-0.629,0.316c-0.248,0-0.502-0.122-0.626-0.316l-4.389-5.891c-0.191-0.25-0.191-0.626,0-0.939
				l4.389-5.897C92.732,15.288,92.923,15.164,93.171,15.164 M93.171,13.906c-0.626,0-1.253,0.316-1.63,0.817l-4.39,5.895
				c-0.563,0.751-0.563,1.694,0,2.447l4.39,5.894c0.377,0.501,1.004,0.817,1.63,0.817c0.629,0,1.253-0.316,1.63-0.817l3.261-4.454
				c1.191-1.63,1.191-3.765,0-5.395l-3.261-4.452C94.427,14.223,93.8,13.906,93.171,13.906L93.171,13.906z"/>
		</g>
		<g>
			<g>
				<path fill="#FFFFFF" d="M35.418,49.404h-0.754l0.377-0.751l1.002,0.064v5.078h-0.625V49.404L35.418,49.404z"/>
				<path fill="#FFFFFF" d="M37.298,51.284c0-0.814,0.189-1.503,0.501-1.94c0.249-0.438,0.628-0.627,1.004-0.627
					s0.751,0.248,1.003,0.689c0.314,0.503,0.438,1.188,0.438,2.006c0,0.814-0.189,1.315-0.5,1.818
					c-0.251,0.438-0.628,0.626-1.006,0.626c-0.376,0-0.752-0.248-1.001-0.691C37.424,52.664,37.298,52.163,37.298,51.284z
					 M37.924,51.284c0,0.566,0.064,0.879,0.251,1.252c0.188,0.378,0.377,0.566,0.628,0.566c0.252,0,0.438-0.188,0.627-0.566
					c0.189-0.376,0.251-0.626,0.251-1.192s-0.062-1.002-0.251-1.38c-0.188-0.373-0.375-0.561-0.627-0.561
					c-0.251,0-0.439,0.188-0.628,0.561C37.988,50.281,37.924,50.72,37.924,51.284z"/>
				<path fill="#FFFFFF" d="M42.253,51.976h1.192v0.626h-1.192V51.976z"/>
				<path fill="#FFFFFF" d="M46.704,49.716h-0.752l0.377-0.688l1.003,0.062v4.892h-0.626L46.704,49.716L46.704,49.716z"/>
				<path fill="#FFFFFF" d="M50.341,48.965l0.439,0.438l-1.004,1.564c0.064,0,0.127,0,0.127,0c0.064,0,0.064,0,0.064,0
					c0.313,0,0.627,0.191,0.877,0.504c0.252,0.311,0.377,0.626,0.377,1.062c0,0.438-0.126,0.816-0.438,1.13
					c-0.253,0.312-0.629,0.435-1.005,0.435c-0.377,0-0.69-0.185-1.004-0.498c-0.25-0.312-0.437-0.688-0.437-1.127
					c0-0.378,0.125-0.819,0.437-1.191L50.341,48.965z M50.656,52.477c0-0.25-0.064-0.501-0.253-0.626
					c-0.125-0.19-0.312-0.25-0.564-0.25s-0.439,0.062-0.566,0.25c-0.127,0.188-0.248,0.376-0.248,0.626
					c0,0.247,0.061,0.501,0.248,0.626c0.125,0.191,0.313,0.251,0.566,0.251c0.187,0,0.376-0.063,0.564-0.251
					C50.595,52.978,50.656,52.728,50.656,52.477z"/>
				<path fill="#FFFFFF" d="M53.791,53.982v-4.767h0.879c0.438,0,0.751,0.063,1.005,0.188c0.248,0.125,0.5,0.251,0.688,0.504
					c0.437,0.435,0.626,0.999,0.626,1.753c0,0.688-0.25,1.313-0.69,1.752c-0.249,0.251-0.438,0.376-0.69,0.438
					c-0.249,0.065-0.563,0.125-1.003,0.125L53.791,53.982L53.791,53.982z M54.48,53.354h0.313c0.313,0,0.503,0,0.69-0.06
					c0.19-0.066,0.376-0.191,0.501-0.316c0.313-0.313,0.504-0.751,0.504-1.256c0-0.497-0.126-0.938-0.439-1.252
					c-0.252-0.312-0.69-0.432-1.255-0.432H54.48V53.354L54.48,53.354z"/>
				<path fill="#FFFFFF" d="M60.188,50.155l-1.693-0.065v1.13l1.631,0.065v0.623h-1.631v1.564h1.693v0.626h-2.321v-4.641
					l2.321,0.065V50.155z"/>
				<path fill="#FFFFFF" d="M62.757,54.045v-4.771l3.074,3.449v-3.067h0.628v4.639l-3.073-3.387v3.137H62.757L62.757,54.045z"/>
				<path fill="#FFFFFF" d="M67.336,51.913c0-0.626,0.25-1.127,0.628-1.567c0.438-0.437,0.94-0.623,1.566-0.623
					s1.128,0.25,1.568,0.688c0.438,0.438,0.625,0.939,0.625,1.568c0,0.626-0.188,1.127-0.625,1.568
					c-0.44,0.435-0.942,0.623-1.568,0.623c-0.565,0-1.005-0.188-1.441-0.563C67.585,53.165,67.336,52.602,67.336,51.913z
					 M67.964,51.913c0,0.501,0.126,0.88,0.438,1.192c0.314,0.313,0.69,0.438,1.067,0.503c0.438,0,0.814-0.128,1.127-0.44
					c0.315-0.313,0.441-0.688,0.441-1.126c0-0.441-0.126-0.817-0.441-1.131c-0.312-0.312-0.689-0.501-1.127-0.501
					c-0.438,0-0.815,0.123-1.13,0.438C68.151,51.034,67.964,51.475,67.964,51.913z"/>
				<path fill="#FFFFFF" d="M72.604,49.907l1.191,2.945l1.191-2.886h0.689l-1.88,4.456l-1.819-4.579L72.604,49.907z"/>
				<path fill="#FFFFFF" d="M76.807,50.03v4.078H76.18v-4.144L76.807,50.03z"/>
				<path fill="#FFFFFF" d="M80.129,50.72l-1.691-0.064v1.005l1.629,0.059v0.569h-1.629v1.378h1.691v0.568h-2.321v-4.077l2.321,0.06
					V50.72z"/>
				<path fill="#FFFFFF" d="M80.819,54.17l0.877-4.263l1.443,3.07l1.503-3.014l0.814,4.144h-0.625l-0.379-2.322l-1.254,2.51
					l-1.191-2.576l-0.438,2.386L80.819,54.17z"/>
				<path fill="#FFFFFF" d="M86.335,54.17v-3.953h0.629c0.314,0,0.501,0.063,0.689,0.063c0.189,0.062,0.312,0.125,0.439,0.189
					c0.126,0.123,0.188,0.25,0.313,0.376c0.063,0.125,0.126,0.313,0.126,0.441c0,0.247-0.126,0.5-0.375,0.688
					c0.25,0.062,0.437,0.188,0.563,0.372c0.126,0.188,0.19,0.38,0.19,0.63c0,0.312-0.127,0.566-0.379,0.751
					c-0.126,0.125-0.312,0.188-0.502,0.251c-0.189,0.065-0.439,0.065-0.75,0.065L86.335,54.17z M87.026,51.976h0.189
					c0.251,0,0.438-0.065,0.562-0.125c0.127-0.129,0.191-0.25,0.191-0.438c0-0.188-0.064-0.316-0.191-0.441
					c-0.125-0.122-0.311-0.122-0.498-0.188h-0.252L87.026,51.976L87.026,51.976z M86.966,53.669h0.378
					c0.312,0,0.501-0.062,0.626-0.125c0.125-0.125,0.25-0.25,0.25-0.438c0-0.188-0.062-0.312-0.188-0.438
					c-0.127-0.129-0.377-0.188-0.752-0.188h-0.314V53.669z"/>
				<path fill="#FFFFFF" d="M91.227,52.602l1.381,1.693h-0.815l-1.254-1.631h-0.124v1.631h-0.688v-3.953h0.752
					c0.564,0,1.004,0.125,1.253,0.313c0.313,0.247,0.439,0.504,0.439,0.879c0,0.248-0.063,0.501-0.252,0.688
					C91.793,52.414,91.541,52.539,91.227,52.602z M90.414,52.101h0.188c0.624,0,0.938-0.19,0.938-0.626
					c0-0.379-0.314-0.629-0.938-0.629h-0.252L90.414,52.101z"/>
				<path fill="#FFFFFF" d="M95.808,50.971l-1.819-0.064v0.94l1.755,0.063v0.566l-1.755-0.065v1.32h1.819v0.563H93.36v-3.89
					l2.447,0.064V50.971L95.808,50.971z"/>
			</g>
		</g>
	</g>
</g>
</svg>
