<?xml version="1.0" encoding="utf-8"?>
<!-- Generator: Adobe Illustrator 16.0.0, SVG Export Plug-In . SVG Version: 6.00 Build 0)  -->
<!DOCTYPE svg PUBLIC "-//W3C//DTD SVG 1.1//EN" "http://www.w3.org/Graphics/SVG/1.1/DTD/svg11.dtd">
<svg version="1.1" xmlns="http://www.w3.org/2000/svg" xmlns:xlink="http://www.w3.org/1999/xlink" x="0px" y="0px" width="1440px"
	 height="325px" viewBox="0 0 1440 325" enable-background="new 0 0 1440 325" xml:space="preserve">
<g id="Layer_1">
	<g>
		<g>
			<g>
				<g>
					
						<linearGradient id="w45va_2_" gradientUnits="userSpaceOnUse" x1="1349.7002" y1="173.0469" x2="320.1008" y2="157.437" gradientTransform="matrix(1 0 0 -1 0 326)">
						<stop  offset="0" style="stop-color:#0161CD"/>
						<stop  offset="1" style="stop-color:#0353A7"/>
					</linearGradient>
					<path id="w45va" fill="url(#w45va_2_)" d="M0,325V0h1440v325H0z"/>
				</g>
			</g>
			<g>
				<defs>
					<rect id="SVGID_1_" width="1440" height="325"/>
				</defs>
				<clipPath id="SVGID_2_">
					<use xlink:href="#SVGID_1_"  overflow="visible"/>
				</clipPath>
				<g clip-path="url(#SVGID_2_)">
					<g>
						<g>
							<path id="w45vd" fill="#0161CD" d="M964.32,129.06c100.22-46.44,180.439,57.85,217.08-20.79
								c36.649-78.63,211.96,6.94,153.66,169.2c-58.301,162.24-179.131-85.989-194.15,63.771
								c-15.021,149.77-160.83,55.029-209.74-7.58C882.26,271.061,864.11,175.5,964.32,129.06L964.32,129.06z"/>
						</g>
					</g>
					<g>
						<g>
							<path id="w45ve" fill="#0161CD" d="M765-80c-5.08,23.8-15.72,48.64-31.36,67.33c-15.159,18.11-37.5,33.56-60.52,38.38
								c-26.61,5.56-54,1.8-80.12-4.2c-30.45-7-72.44-3.56-102.49,15.7c-28.819,18.47-47.83,43.54-70.08,69.03
								c-32.399,37.09-73.689,69-125.5,65.199c-41.08-3-75.88-28.009-99.5-60.669c-14.94-20.66-25.82-44.08-33.9-68.2
								c-30.64-91.44-16.06-121.73-16.06-121.73L765-80z"/>
						</g>
					</g>
					<g>
						<g>
							
								<linearGradient id="w45vf_2_" gradientUnits="userSpaceOnUse" x1="1350.293" y1="-7.772" x2="1120.1332" y2="96.6079" gradientTransform="matrix(1 0 0 -1 0 326)">
								<stop  offset="0" style="stop-color:#1273EB"/>
								<stop  offset="1" style="stop-color:#2C8CF4"/>
							</linearGradient>
							<path id="w45vf" fill="url(#w45vf_2_)" d="M1339.33,162.63c-25.2,15.37-6.62,82.16-28.67,88.601
								c-13.221,3.879-24.34-18.84-44.07-33.7c-7.75-5.841-16.82-10.47-27.87-11.8c-2.22-0.26-4.41-0.381-6.58-0.371
								c-6.505,0.068-12.958,1.183-19.109,3.301c-26.72,9-46.891,33.5-50.851,38.32c-1.8,2.189-4.27,5.18-6.989,8.819
								c-3.769,5.005-7.187,10.265-10.23,15.74c-5.479,9.96-9.93,21.7-9.96,33.819v0.25c0.01,4.811,0.73,9.701,2.36,14.541
								c4.12,12.27,13.3,22.029,24.859,29.27c6.4,4,13.511,7.24,20.9,9.7c13.41,4.47,27.89,6.649,42.021,5.569
								c33.76-2.58,44.399-23.729,77.689-18.989c19.92,2.84,45.08,14.56,46.93,30.08c2.12,17.729-28.149,23.7-39.33,55.12
								c-6.979,19.619-4.26,42.819,4.5,58.189c23.301,40.88,102.03,48.601,151.891,19.54c49.5-28.86,60.63-88.2,62.32-126.479
								c0.399-9.221,0.26-17.221-0.021-23.271c-0.168-4.023-0.481-8.039-0.94-12.04c-3.939-30.67-15.56-59.029-31.329-83.93
								c-39.931-63.061-106.48-103.9-142.24-103.91C1348.54,159,1343.351,160.18,1339.33,162.63"/>
						</g>
					</g>
					<g>
						<g>
							<path id="w45vh" fill="#2C8CF4" d="M1044.97,239.26c-7.75,10.2-5.939,22.91-5.399,26.801
								c0.59,4.069,4.029,24.029,20.239,30.209c15.301,5.83,33.471-3.819,41.37-18.17c7.221-13.119,6.971-32.16-5.17-43.6
								C1080.979,220.33,1055.63,225.24,1044.97,239.26"/>
						</g>
					</g>
					<g>
						<g>
							<path id="w45vi" fill="#0353A7" d="M1255.17-151.36c102.3,41.62,80.75,171.41,163.25,144.58
								c82.5-26.83,139.48,159.75-18.939,227.761C1241.05,288.99,1340.2,31.34,1220.42,122.5
								c-119.77,91.15-149.93-80.1-137.5-158.57c12.431-78.47,69.94-156.91,172.25-115.3V-151.36z"/>
						</g>
					</g>
					<g>
						<g>
							<path id="w45vj" fill="#2C8CF4" d="M16.76-108.01c16.85-1.94,59.19,2.2,94.03,22.76s51.99,65.16,50.45,96.86
								c-1.55,31.7,8.88,56.45,30.32,67.37c21.45,10.93,34.93,3.37,57.19,0.62c22.25-2.76,77.14,12.45,85.24,61
								c8.1,48.56-33.9,94.509-62.09,108.9c-28.2,14.38-43.78,34.4-25.13,55.7c9.65,11.021,43.78,38.521,26.42,64.95
								c-83.15,126.64-333.07-9.44-376.53-176.9C-142.6,41.96-74.59-97.29,16.76-108"/>
						</g>
					</g>
				</g>
			</g>
		</g>
	</g>
</g>
<g id="Layer_2">
	<g>
		<g>
			<g>
				<g>
					<path id="w45va_1_" fill="#ED1C24" stroke="#000000" stroke-miterlimit="10" d="M0,325V0h1440v325H0z"/>
				</g>
			</g>
			<g>
				<defs>
					<rect id="SVGID_3_" width="1440" height="325"/>
				</defs>
				<clipPath id="SVGID_4_">
					<use xlink:href="#SVGID_3_"  overflow="visible"/>
				</clipPath>
				<g clip-path="url(#SVGID_4_)">
					<g>
						<g>
							<path id="w45vd_1_" fill="#ED1C24" d="M964.32,129.06c100.22-46.44,180.439,57.85,217.08-20.79
								c36.649-78.63,211.96,6.94,153.66,169.2c-58.301,162.24-179.131-85.989-194.15,63.771
								c-15.021,149.77-160.83,55.029-209.74-7.58C882.26,271.061,864.11,175.5,964.32,129.06L964.32,129.06z"/>
						</g>
					</g>
					<g>
						<g>
							<path id="w45ve_1_" fill="#ED1C24" d="M765-80c-5.08,23.8-15.72,48.64-31.36,67.33c-15.159,18.11-37.5,33.56-60.52,38.38
								c-26.61,5.56-54,1.8-80.12-4.2c-30.45-7-72.44-3.56-102.49,15.7c-28.819,18.47-47.83,43.54-70.08,69.03
								c-32.399,37.09-73.689,69-125.5,65.199c-41.08-3-75.88-28.009-99.5-60.669c-14.94-20.66-25.82-44.08-33.9-68.2
								c-30.64-91.44-16.06-121.73-16.06-121.73L765-80z"/>
						</g>
					</g>
					<g>
						<g>
							<path id="w45vf_1_" fill="#ED1C24" d="M1339.33,162.63c-25.2,15.37-6.62,82.16-28.67,88.601
								c-13.221,3.879-24.34-18.84-44.07-33.7c-7.75-5.841-16.82-10.47-27.87-11.8c-2.22-0.26-4.41-0.381-6.58-0.371
								c-6.505,0.068-12.958,1.183-19.109,3.301c-26.72,9-46.891,33.5-50.851,38.32c-1.8,2.189-4.27,5.18-6.989,8.819
								c-3.769,5.005-7.187,10.265-10.23,15.74c-5.479,9.96-9.93,21.7-9.96,33.819v0.25c0.01,4.811,0.73,9.701,2.36,14.541
								c4.12,12.27,13.3,22.029,24.859,29.27c6.4,4,13.511,7.24,20.9,9.7c13.41,4.47,27.89,6.649,42.021,5.569
								c33.76-2.58,44.399-23.729,77.689-18.989c19.92,2.84,45.08,14.56,46.93,30.08c2.12,17.729-28.149,23.7-39.33,55.12
								c-6.979,19.619-4.26,42.819,4.5,58.189c23.301,40.88,102.03,48.601,151.891,19.54c49.5-28.86,60.63-88.2,62.32-126.479
								c0.399-9.221,0.26-17.221-0.021-23.271c-0.168-4.023-0.481-8.039-0.94-12.04c-3.939-30.67-15.56-59.029-31.329-83.93
								c-39.931-63.061-106.48-103.9-142.24-103.91C1348.54,159,1343.351,160.18,1339.33,162.63"/>
						</g>
					</g>
					<g>
						<g>
							<path id="w45vh_1_" fill="#ED1C24" d="M1044.97,239.26c-7.75,10.2-5.939,22.91-5.399,26.801
								c0.59,4.069,4.029,24.029,20.239,30.209c15.301,5.83,33.471-3.819,41.37-18.17c7.221-13.119,6.971-32.16-5.17-43.6
								C1080.979,220.33,1055.63,225.24,1044.97,239.26"/>
						</g>
					</g>
					<g>
						<g>
							<path id="w45vi_1_" fill="#ED1C24" d="M1255.17-151.36c102.3,41.62,80.75,171.41,163.25,144.58
								c82.5-26.83,139.48,159.75-18.939,227.761C1241.05,288.99,1340.2,31.34,1220.42,122.5
								c-119.77,91.15-149.93-80.1-137.5-158.57c12.431-78.47,69.94-156.91,172.25-115.3V-151.36z"/>
						</g>
					</g>
					<g>
						<g>
							<path id="w45vj_1_" fill="#ED1C24" d="M16.76-108.01c16.85-1.94,59.19,2.2,94.03,22.76s51.99,65.16,50.45,96.86
								c-1.55,31.7,8.88,56.45,30.32,67.37c21.45,10.93,34.93,3.37,57.19,0.62c22.25-2.76,77.14,12.45,85.24,61
								c8.1,48.56-33.9,94.509-62.09,108.9c-28.2,14.38-43.78,34.4-25.13,55.7c9.65,11.021,43.78,38.521,26.42,64.95
								c-83.15,126.64-333.07-9.44-376.53-176.9C-142.6,41.96-74.59-97.29,16.76-108"/>
						</g>
					</g>
				</g>
			</g>
		</g>
	</g>
</g>
</svg>
