<svg xmlns="http://www.w3.org/2000/svg" width="513.398" height="449.452" viewBox="0 0 513.398 449.452">
  <g id="Grupo_2007" data-name="Grupo 2007" transform="translate(-1152.602 -225)">
    <g id="_2905211" data-name="2905211" transform="translate(1152.602 242.864)">
      <g id="Floor" transform="translate(0 219.164)" opacity="0.192">
        <path id="Floor_11_" d="M98.831,424.293c90.848,41.477,238.149,41.477,329.007,0s90.848-108.731,0-150.208-238.16-41.477-329.007,0S7.973,382.816,98.831,424.293Z" transform="translate(-30.688 -242.978)" fill="#5a0883"/>
      </g>
      <g id="Shadow" transform="translate(353.734 307.172)" opacity="0.601">
        <ellipse id="XMLID_1972_" cx="44.508" cy="25.693" rx="44.508" ry="25.693" fill="#5a0883"/>
      </g>
      <g id="Pen_tool" transform="translate(27.141)">
        <g id="XMLID_1661_">
          <g id="XMLID_647_" transform="translate(43.745)">
            <g id="XMLID_1026_" transform="translate(0 46.473)">
              <path id="XMLID_1034_" d="M149.166,140.716c-4.356,2.521-7.906,9.278-7.906,15.1,0,5.181,2.827,7.869,6.516,6.609V272.405l-40.087-84.113a7.111,7.111,0,0,1-.083-5.135,256.686,256.686,0,0,0,20.141-76.884,6.149,6.149,0,0,1,2.688-4.226l37.445-21.624a1.688,1.688,0,0,1,2.725,1.4c2.512,23.422,9.686,40.8,19.4,52.488a5.75,5.75,0,0,1,1.029,4.829c-5.635,18.315-38.113,123.94-40.476,131.652V160.811a19.663,19.663,0,0,0,6.516-14.125C157.063,140.855,153.532,138.2,149.166,140.716Z" transform="translate(-107.167 -80.09)" fill="#27debf"/>
            </g>
            <path id="XMLID_1035_" d="M209.375,149.715,168.9,281.367l-2.762-1.6v3.207l-18.361-10.585-40.087-84.113a7.111,7.111,0,0,1-.083-5.135,256.686,256.686,0,0,0,20.141-76.883,6.149,6.149,0,0,1,2.688-4.227L167.879,80.4a5.4,5.4,0,0,1,4.885,0l13.458,7.767a6.208,6.208,0,0,1,2.725,4.217c2.512,23.431,9.686,40.81,19.4,52.5A5.726,5.726,0,0,1,209.375,149.715Z" transform="translate(-107.166 -33.597)" fill="#27debf"/>
            <path id="XMLID_1046_" d="M179.554,162.814a19.629,19.629,0,0,1-6.516,14.125V286.921l-2.762-1.6V178.543c-3.707,1.261-6.516-1.409-6.516-6.59,0-5.821,3.531-12.587,7.906-15.108C176.022,154.324,179.554,157,179.554,162.814Z" transform="translate(-111.305 -39.161)" opacity="0.15"/>
            <g id="XMLID_871_" transform="translate(18.348 57.067)">
              <path id="XMLID_1041_" d="M210.823,150.571,170.347,282.223V172.231a19.613,19.613,0,0,0,6.516-14.125c0-5.811-3.531-8.49-7.888-5.969s-7.906,9.278-7.906,15.108c0,5.181,2.808,7.86,6.516,6.59V283.817l-40.1-84.095a7.064,7.064,0,0,1-.083-5.135,256.683,256.683,0,0,0,20.15-76.893,6.149,6.149,0,0,1,2.688-4.227l37.436-21.615a1.68,1.68,0,0,1,2.716,1.4c2.512,23.431,9.686,40.81,19.4,52.5A5.7,5.7,0,0,1,210.823,150.571Z" transform="translate(-126.963 -91.52)" fill="#27debf"/>
            </g>
            <path id="XMLID_1037_" d="M146.858,116.593a5.405,5.405,0,0,0-.76,2.16c-2.54,27.083-10.029,53.471-20.15,76.893a6.788,6.788,0,0,0-.426,2.808l-18.343-10.594a6.9,6.9,0,0,1,.426-2.827,256.137,256.137,0,0,0,20.141-76.884,5.373,5.373,0,0,1,.769-2.169Z" transform="translate(-107.167 -35.51)" fill="#455a64" opacity="0.25"/>
            <path id="XMLID_1040_" d="M190.568,92a1.631,1.631,0,0,0-2.642-1l-37.445,21.624a5.557,5.557,0,0,0-1.928,2.067l-18.343-10.6a5.809,5.809,0,0,1,1.919-2.058L169.574,80.4a5.438,5.438,0,0,1,4.9,0l13.449,7.767A6.248,6.248,0,0,1,190.568,92Z" transform="translate(-108.852 -33.597)" fill="#455a64" opacity="0.15"/>
            <g id="XMLID_905_" transform="translate(9.893)">
              <path id="XMLID_874_" d="M120.3,64.8l59.31-34.248a5.4,5.4,0,0,1,4.885,0L197.95,38.33a5.4,5.4,0,0,1,2.447,4.236V68.694a5.4,5.4,0,0,1-2.447,4.236l-59.31,34.248a5.4,5.4,0,0,1-4.885,0L120.3,99.4a5.4,5.4,0,0,1-2.447-4.236V69.037A5.4,5.4,0,0,1,120.3,64.8Z" transform="translate(-117.841 -29.951)" fill="#27debf"/>
              <path id="XMLID_1038_" d="M200.434,42.166c-.167-1.261-1.2-1.724-2.428-1.02l-59.3,34.238a4.828,4.828,0,0,0-1.724,1.826L118.62,66.617a5.015,5.015,0,0,1,1.743-1.826l59.3-34.257a5.4,5.4,0,0,1,4.885,0l13.458,7.776A5.537,5.537,0,0,1,200.434,42.166Z" transform="translate(-117.897 -29.95)" fill="#fff" opacity="0.4"/>
              <path id="XMLID_1042_" d="M138.25,110.255c-.019.009-.037.009-.056.019-.046.009-.093.037-.148.046a.472.472,0,0,1-.158.065.778.778,0,0,1-.241.065c-.093.019-.195.046-.3.065-.056.009-.12.019-.2.037-.139.019-.278.046-.417.056a5.168,5.168,0,0,1-2.984-.556l-13.458-7.767a5.4,5.4,0,0,1-2.447-4.236V71.911a4.919,4.919,0,0,1,.714-2.4L136.915,80.1a4.864,4.864,0,0,0-.723,2.4v26.138c0,1.1.556,1.752,1.353,1.752a1.229,1.229,0,0,0,.352-.046A1.325,1.325,0,0,0,138.25,110.255Z" transform="translate(-117.84 -32.843)" opacity="0.15"/>
            </g>
            <path id="XMLID_1039_" d="M166.138,291.336l-18.361-10.585-40.078-84.1a6.31,6.31,0,0,1-.519-2.317l18.343,10.594a6.262,6.262,0,0,0,.519,2.326Z" transform="translate(-107.168 -41.972)" opacity="0.15"/>
            <path id="XMLID_1045_" d="M173.038,178.178V288.16l-2.762-1.6V179.781c-3.707,1.261-6.516-1.409-6.516-6.59,0-.12,0-.241.009-.361Z" transform="translate(-111.305 -40.399)" opacity="0.15"/>
          </g>
          <g id="XMLID_216_" transform="translate(0 102.057)">
            <path id="XMLID_480_" d="M250.414,144.216c0-2.985-2.095-4.2-4.681-2.706a10.349,10.349,0,0,0-4.681,8.11c0,2.419,1.381,3.643,3.281,3.244-2.642,55.25-41.31,120.363-88.488,147.594-23.44,13.532-45.416,15.757-61.878,6.256-15.544-8.972-24.488-27.444-25.433-52.275a10.478,10.478,0,0,0,3.346-7.09c0-2.985-2.095-4.2-4.681-2.706a10.349,10.349,0,0,0-4.681,8.11c0,2.549,1.529,3.791,3.587,3.17,1.261,25.016,10.6,43.692,26.62,52.943A47.108,47.108,0,0,0,116.6,315.01c12.448,0,26.23-4.162,40.495-12.392,48.262-27.862,87.746-94.8,89.795-151.135A10.567,10.567,0,0,0,250.414,144.216Z" transform="translate(-60.156 -140.119)" fill="#455a64"/>
            <path id="XMLID_406_" d="M245.733,252.97a10.486,10.486,0,0,0-4.5,6.572L71.63,357.465c-.6-1.835-2.354-2.41-4.44-1.2a10.349,10.349,0,0,0-4.681,8.11c0,2.985,2.095,4.2,4.681,2.706a10.514,10.514,0,0,0,4.551-6.794l169.5-97.859c.547,1.965,2.345,2.614,4.5,1.372a10.349,10.349,0,0,0,4.681-8.11C250.413,252.692,248.319,251.477,245.733,252.97Z" transform="translate(-60.156 -148.271)" fill="#455a64"/>
            <path id="XMLID_23_" d="M73.568,258.064A6.664,6.664,0,1,1,66.9,251.4,6.665,6.665,0,0,1,73.568,258.064Z" transform="translate(-59.99 -148.203)" fill="#455a64"/>
            <ellipse id="XMLID_219_" cx="6.664" cy="6.664" rx="6.664" ry="6.664" transform="translate(0 206.598)" fill="#455a64"/>
            <path id="XMLID_220_" d="M266.728,258.524a6.664,6.664,0,1,1-6.664-6.664A6.665,6.665,0,0,1,266.728,258.524Z" transform="translate(-74.116 -148.236)" fill="#455a64"/>
            <path id="XMLID_217_" d="M266.068,146.724a6.664,6.664,0,1,1-6.664-6.664A6.665,6.665,0,0,1,266.068,146.724Z" transform="translate(-74.068 -140.06)" fill="#455a64"/>
          </g>
        </g>
      </g>
      <g id="Character" transform="translate(179.348 92.213)">
        <g id="Character_4_">
          <g id="XMLID_1426_" transform="translate(0 247.248)">
            <path id="XMLID_2608_" d="M297.465,380.713c-1.372,3.031-6.4,3.735-9.324,3.828-4.449.148-8.546-1.854-12.494-3.652-2.781-1.261-5.478-2.706-8.221-4.06-2.716-1.335-5.468-2.9-8.444-3.568-3.55-.8-9.788-1.186-11.02,3.327-1.335,4.875,5.357,8.972,8.509,11.317,3.068,2.28,7.48,4.922,9.018,8.648,1.872,4.532-4.282,5.96-7.526,6.136-9.213.491-18.268-2.53-26.74-5.83-12.151-4.736-24.247-9.927-36.963-12.995-10.631-2.567-27.185-5.116-33.33,6.72-.12.232.26.677.417.408,6.664-10.937,21.92-8.675,32.422-6.136,12.856,3.105,25.053,8.388,37.343,13.152,8.221,3.179,16.85,5.95,25.758,5.793,4.069-.074,12.281-1.8,9.741-7.7-1.316-3.068-4.449-5.339-7.007-7.3-3.151-2.419-6.72-4.653-9.2-7.813-1.585-2.011-2.085-4.949.621-6.358,2.308-1.2,5.5-.788,7.915-.195,3.708.908,7.22,3.049,10.613,4.764,3.133,1.576,6.284,3.1,9.528,4.44a20.727,20.727,0,0,0,11.586,1.733c2.679-.445,6.664-1.418,7.767-4.264.222-.565-.732-.908-.964-.389Z" transform="translate(-160.905 -372.766)" fill="#263238"/>
          </g>
          <g id="XMLID_2700_" transform="translate(132.851)">
            <g id="XMLID_967_" transform="translate(47.724 60.038)">
              <path id="XMLID_981_" d="M376.362,179.511c-4.746,5.672-12.578,13.328-17.027,18.908a16.2,16.2,0,0,0-3.605,10.307c.037,2.781.8,5.1,3.513,3.911,1.965-.853,3.207-1.872,6.071-4.7,2.577-2.54,15.034-14.218,15.034-14.218s2.336-14.348,6.182-15.516,7.128-7.313,7.128-7.313C387.382,170.261,382.377,172.319,376.362,179.511Z" transform="translate(-355.728 -170.784)" fill="#9a4a4d"/>
            </g>
            <g id="XMLID_648_">
              <path id="XMLID_883_" d="M304.379,330.3c.009-.037.028-.074.037-.111L362.744,113.9c.009-.009.009-.009.009-.019l.019-.056a1.667,1.667,0,0,1,.056-.158,3.27,3.27,0,0,1,.417-.871,5.125,5.125,0,0,1,.667-.843,7.5,7.5,0,0,1,3.476-1.835c5.19-1.381,12.466.593,16.257,4.393a6.7,6.7,0,0,1,2.234,4.449,3.909,3.909,0,0,1-.139,1.149l-57.762,214.2-.6,2.243h-.009v.009c-.436,1.678-2.021,3.04-4.588,3.745-5.209,1.372-12.5-.593-16.285-4.393C304.592,334.009,303.915,332,304.379,330.3Z" transform="translate(-304.238 -106.277)" fill="#e6e6e6"/>
              <g id="XMLID_740_" transform="translate(0.048 4.129)">
                <g id="XMLID_877_" transform="translate(1.997 244.166)">
                  <path id="XMLID_882_" d="M306.5,380.434h0l1.464-5.811h0a.956.956,0,0,1,.769-.658,3.1,3.1,0,0,1,2.679.723.971.971,0,0,1,.343.927h0l-1.446,5.8h0a2.027,2.027,0,0,1-.5.844,1.966,1.966,0,0,1-2.79-.009A1.931,1.931,0,0,1,306.5,380.434Z" transform="translate(-306.445 -373.894)" fill="#455a64"/>
                  <path id="XMLID_881_" d="M306.45,381.33v-.019c.009-.111.019-.232.037-.343.009-.009,0-.019.009-.019.426,1.2,2.762,1.974,3.763,1.1a.393.393,0,0,1-.037.111.928.928,0,0,1-.037.1,1.67,1.67,0,0,1-.371.519,1.967,1.967,0,0,1-2.79-.018A1.847,1.847,0,0,1,306.45,381.33Z" transform="translate(-306.445 -374.41)" fill="#263238"/>
                </g>
                <path id="XMLID_876_" d="M306.283,368.012a10.615,10.615,0,0,0,9.287,2.512,3.845,3.845,0,0,0,2.345-1.492l8.62-13.356a7.244,7.244,0,0,1-3.772,2.178c-5.209,1.381-12.494-.593-16.285-4.393a7.1,7.1,0,0,1-2.187-3.93l.7,15.859c0,.1.009.213.019.315A4.01,4.01,0,0,0,306.283,368.012Z" transform="translate(-304.29 -127.947)" fill="#e0e0e0"/>
                <path id="XMLID_875_" d="M306.936,361.38a13.232,13.232,0,0,0,11.53,3.114c1.817-.491,2.938-1.464,3.253-2.651.352-1.2-.093-2.623-1.455-3.995a13.129,13.129,0,0,0-11.512-3.123c-1.854.491-2.985,1.474-3.29,2.688C305.128,358.618,305.6,360.046,306.936,361.38Z" transform="translate(-304.368 -128.304)" opacity="0.1"/>
                <g id="XMLID_750_" transform="translate(0 221.583)">
                  <g id="XMLID_838_">
                    <path id="XMLID_870_" d="M306.283,368.012a10.615,10.615,0,0,0,9.287,2.512,3.845,3.845,0,0,0,2.345-1.492l8.62-13.356a7.244,7.244,0,0,1-3.772,2.178c-5.209,1.381-12.494-.593-16.285-4.393a7.1,7.1,0,0,1-2.187-3.93l.7,15.859c0,.1.009.213.019.315A4.01,4.01,0,0,0,306.283,368.012Z" transform="translate(-304.29 -349.53)" fill="#e0e0e0"/>
                    <path id="XMLID_869_" d="M306.056,373.014h-.019l-.649-14.468a2.739,2.739,0,0,1-.019-.389c0-1.529,1.177-2.827,3.383-3.411a13.155,13.155,0,0,1,11.484,3.1c1.548,1.557,1.928,3.2,1.279,4.5a.828.828,0,0,0-.046.083l-.222.334-7.934,12.281H313.3a2.189,2.189,0,0,1-1.325.853,5.98,5.98,0,0,1-5.228-1.418A2.122,2.122,0,0,1,306.056,373.014Z" transform="translate(-304.369 -349.889)" fill="#27debf"/>
                    <path id="XMLID_862_" d="M306.056,373.014h-.019l-.649-14.468a2.739,2.739,0,0,1-.019-.389c0-1.529,1.177-2.827,3.383-3.411a13.155,13.155,0,0,1,11.484,3.1c1.548,1.557,1.928,3.2,1.279,4.5a.828.828,0,0,0-.046.083l-.222.334-7.934,12.281H313.3a2.189,2.189,0,0,1-1.325.853,5.98,5.98,0,0,1-5.228-1.418A2.122,2.122,0,0,1,306.056,373.014Z" transform="translate(-304.369 -349.889)" opacity="0.1"/>
                    <path id="XMLID_841_" d="M306.936,361.38a13.232,13.232,0,0,0,11.53,3.114c1.817-.491,2.938-1.464,3.253-2.651.352-1.2-.093-2.623-1.455-3.995a13.129,13.129,0,0,0-11.512-3.123c-1.854.491-2.985,1.474-3.29,2.688C305.128,358.618,305.6,360.046,306.936,361.38Z" transform="translate(-304.368 -349.887)" fill="#27debf"/>
                    <path id="XMLID_840_" d="M306.936,361.38a13.232,13.232,0,0,0,11.53,3.114c1.817-.491,2.938-1.464,3.253-2.651.352-1.2-.093-2.623-1.455-3.995a13.129,13.129,0,0,0-11.512-3.123c-1.854.491-2.985,1.474-3.29,2.688C305.128,358.618,305.6,360.046,306.936,361.38Z" transform="translate(-304.368 -349.887)" fill="#27debf"/>
                    <path id="XMLID_839_" d="M305.452,357.468a3.78,3.78,0,0,1,2.493-2.428,19.459,19.459,0,0,0,12.921,3.559,3.689,3.689,0,0,1,.853,3.3c-.315,1.186-1.427,2.15-3.253,2.651a13.2,13.2,0,0,1-11.53-3.114C305.6,360.091,305.128,358.664,305.452,357.468Z" transform="translate(-304.368 -349.933)" opacity="0.05"/>
                  </g>
                  <g id="XMLID_834_" transform="translate(1.363 16.044)">
                    <path id="XMLID_835_" d="M306.789,375.395a5.994,5.994,0,0,0,5.237,1.409,2.192,2.192,0,0,0,1.316-.853h.019l3.828-5.932a3.729,3.729,0,0,1-1.919,1.094,9.623,9.623,0,0,1-8.388-2.252,3.583,3.583,0,0,1-1.121-2.021l.315,7.091h.018A2.029,2.029,0,0,0,306.789,375.395Z" transform="translate(-305.76 -366.84)" fill="#27debf"/>
                  </g>
                </g>
                <g id="XMLID_743_" transform="translate(49.875 28.41)">
                  <path id="XMLID_749_" d="M367.619,142.612a2.085,2.085,0,0,1,1.64-1.344,6.581,6.581,0,0,1,5.747,1.557,2.072,2.072,0,0,1,.742,1.993h0l-9.5,35.091a2.218,2.218,0,0,0-.779-1.77,6.628,6.628,0,0,0-5.784-1.566,2.169,2.169,0,0,0-1.585,1.186Z" transform="translate(-358.1 -141.115)" fill="#fafafa"/>
                  <path id="XMLID_744_" d="M369.108,144.6a6.607,6.607,0,0,0,5.756,1.557,2.084,2.084,0,0,0,1.622-1.325,2.037,2.037,0,0,0-.732-1.993,6.533,6.533,0,0,0-5.747-1.557,2.055,2.055,0,0,0-1.641,1.344A2.1,2.1,0,0,0,369.108,144.6Z" transform="translate(-358.847 -141.115)" fill="#e0e0e0"/>
                </g>
                <path id="XMLID_742_" d="M365.543,124.762h0l.028-.1c.009-.046.028-.1.037-.148l2.734-10.084c.028-.111.056-.213.083-.324l.019-.074h.009c.491-1.418,1.872-2.586,4.087-3.17a16.751,16.751,0,0,1,14.626,3.958c1.715,1.724,2.308,3.531,1.882,5.07h0l-2.771,10.26c-.009.028-.009.046-.019.074l-.018.083h0c-.454,1.474-1.863,2.679-4.134,3.281a16.751,16.751,0,0,1-14.626-3.958C365.831,127.978,365.219,126.245,365.543,124.762Z" transform="translate(-308.764 -110.463)" fill="#27debf"/>
                <path id="XMLID_741_" d="M365.543,124.762h0l.028-.1c.009-.046.028-.1.037-.148l2.734-10.084c.028-.111.056-.213.083-.324l.019-.074h.009c.491-1.418,1.872-2.586,4.087-3.17a16.751,16.751,0,0,1,14.626,3.958c1.715,1.724,2.308,3.531,1.882,5.07h0l-2.771,10.26c-.009.028-.009.046-.019.074l-.018.083h0c-.454,1.474-1.863,2.679-4.134,3.281a16.751,16.751,0,0,1-14.626-3.958C365.831,127.978,365.219,126.245,365.543,124.762Z" transform="translate(-308.764 -110.463)" opacity="0.05"/>
              </g>
              <path id="XMLID_739_" d="M309.946,345.806,313.9,331.18,354.38,180.805a.044.044,0,0,1,.018-.056l.083-.315a2.191,2.191,0,0,1,1.585-1.186,6.648,6.648,0,0,1,5.784,1.566,2.207,2.207,0,0,1,.779,1.77.013.013,0,0,1,0,.019l-.111.4L322.032,333.367l-3.948,14.645a2.085,2.085,0,0,1-1.622,1.325,6.6,6.6,0,0,1-4.384-.593c-.195-.093-.361-.195-.538-.3a4.582,4.582,0,0,1-.834-.658A2.117,2.117,0,0,1,309.946,345.806Z" transform="translate(-304.652 -111.354)" fill="#455a64"/>
              <path id="XMLID_735_" d="M358.707,182.576a6.607,6.607,0,0,0,5.756,1.557,2.084,2.084,0,0,0,1.622-1.325,2.037,2.037,0,0,0-.732-1.993,6.541,6.541,0,0,0-5.747-1.557,2.055,2.055,0,0,0-1.641,1.344A2.077,2.077,0,0,0,358.707,182.576Z" transform="translate(-308.164 -111.354)" fill="#263238"/>
              <path id="XMLID_716_" d="M309.946,358.785l.6-2.215a20.285,20.285,0,0,0,8.138,2.2l-.6,2.224a2.084,2.084,0,0,1-1.622,1.325,6.6,6.6,0,0,1-4.384-.593,5.019,5.019,0,0,1-1.372-.955A2.117,2.117,0,0,1,309.946,358.785Z" transform="translate(-304.652 -124.333)" fill="#263238"/>
              <path id="XMLID_714_" d="M369.434,119.533c3.782,3.8,11.076,5.765,16.285,4.393,2.567-.7,4.152-2.058,4.588-3.745.5-1.7-.139-3.707-2.058-5.645-3.763-3.828-11.057-5.793-16.257-4.412-2.614.7-4.217,2.085-4.653,3.8C366.875,115.631,367.552,117.642,369.434,119.533Z" transform="translate(-308.843 -106.277)" fill="#e0e0e0"/>
              <path id="XMLID_709_" d="M369.773,118.124c3.782,3.8,11.076,5.765,16.285,4.393,2.567-.7,4.152-2.058,4.588-3.745l.028-.074.621-2.243c.009-.056.018-.083.028-.13.028-.12.046-.232.065-.361a2.92,2.92,0,0,0,.037-.491c0-.1,0-.2-.009-.315a.059.059,0,0,0,0-.056c-.009-.093-.018-.2-.037-.315a5,5,0,0,0-.389-1.381c-.056-.13-.121-.269-.185-.389a.782.782,0,0,0-.1-.195,1.962,1.962,0,0,0-.195-.334,8.306,8.306,0,0,0-1.316-1.641c-3.782-3.809-11.067-5.774-16.248-4.4a7.543,7.543,0,0,0-3.485,1.844l-.019.019a4.484,4.484,0,0,0-.343.389l-.287.4c-.056.083-.1.176-.148.26l-.093.158a2.226,2.226,0,0,0-.139.343l-.028.074c-.037.111-.083.222-.111.343l-.538,1.956a1.3,1.3,0,0,0-.083.269C367.215,114.222,367.892,116.233,369.773,118.124Z" transform="translate(-308.867 -106.009)" fill="#27debf"/>
              <path id="XMLID_685_" d="M370.463,115.874c3.782,3.8,11.076,5.765,16.276,4.393,2.567-.7,4.152-2.058,4.588-3.735.5-1.7-.139-3.707-2.058-5.645-3.763-3.819-11.048-5.793-16.257-4.412-2.614.7-4.208,2.085-4.653,3.8C367.905,111.962,368.582,113.983,370.463,115.874Z" transform="translate(-308.918 -106.011)" fill="#fff" opacity="0.3"/>
            </g>
            <g id="XMLID_887_" transform="translate(63.471 19.484)">
              <g id="XMLID_888_">
                <g id="XMLID_889_">
                  <g id="XMLID_944_" transform="translate(8.891)">
                    <path id="XMLID_945_" d="M400.912,162.455h0a18.621,18.621,0,0,0,18.621-18.621v-1.029a15.775,15.775,0,0,0-15.775-15.775h-5.672a15.775,15.775,0,0,0-15.775,15.775v1.029A18.6,18.6,0,0,0,400.912,162.455Z" transform="translate(-382.31 -127.03)" fill="#263238"/>
                  </g>
                  <path id="XMLID_943_" d="M429.953,165.3h0a8.449,8.449,0,0,1-8.453-8.453V140.03h0a8.449,8.449,0,0,1,8.453,8.453Z" transform="translate(-376.285 -127.981)" fill="#263238"/>
                  <g id="XMLID_940_" transform="translate(0 209.58)">
                    <path id="XMLID_941_" d="M381.052,363.151a49.58,49.58,0,0,1-7.1,6.182,3.034,3.034,0,0,0-.982,1.02c-.334.7-.853,2.419,2.317,3.531a11.829,11.829,0,0,0,9.8-.936c2.6-1.631,2.725-5.033,5.19-6.97,1.826-1.437,4.106-1.807,5.58-3.68,1.029-1.307.76-3.04.222-5.19-.584-2.345-.853-4.125-1.631-3.948l.13,1.084c-.973,1.548-6,2-8.231.936C386.335,355.17,382.461,361.6,381.052,363.151Z" transform="translate(-372.718 -353.147)" fill="#263238"/>
                  </g>
                  <g id="XMLID_938_" transform="translate(4.055 202.854)">
                    <path id="XMLID_939_" d="M379.166,364.817V364.8c.751-.7,1.492-1.409,2.206-2.178a61.36,61.36,0,0,0,4.106-6.043,9.225,9.225,0,0,0,1.752-4.421c.056-2.076-.148-5.774-.148-5.774l7.443-.491.362,7.813h0c.195,1.77-1.27,3.346-3.865,5.57s-5.886,7.443-8.231,8.75-4.023,1.261-5.024.593C376.747,367.922,376.645,367.393,379.166,364.817Z" transform="translate(-377.093 -345.89)" fill="#b16668"/>
                  </g>
                  <g id="XMLID_936_" transform="translate(24.794 217.023)">
                    <path id="XMLID_937_" d="M407.8,371.181a49.575,49.575,0,0,1-7.1,6.182,3.034,3.034,0,0,0-.982,1.02c-.334.7-.853,2.419,2.317,3.531a11.829,11.829,0,0,0,9.8-.936c2.6-1.631,2.725-5.033,5.19-6.97,1.826-1.437,4.106-1.807,5.58-3.68,1.029-1.307.76-3.04.222-5.19-.584-2.345-.853-4.125-1.631-3.948l.13,1.084c-.973,1.548-6,2-8.231.936C413.076,363.2,409.211,369.633,407.8,371.181Z" transform="translate(-399.468 -361.177)" fill="#263238"/>
                  </g>
                  <g id="XMLID_934_" transform="translate(28.842 210.871)">
                    <path id="XMLID_935_" d="M405.916,372.892v-.019c.751-.7,1.492-1.409,2.206-2.178a61.354,61.354,0,0,0,4.106-6.043,10.481,10.481,0,0,0,1.743-4.5c.13-1.826.037-5.617.037-5.617l7.443.037.185,7.2h0c.195,1.77-1.27,3.337-3.865,5.571s-5.886,7.443-8.231,8.75-4.023,1.261-5.024.593C403.487,376,403.386,375.469,405.916,372.892Z" transform="translate(-403.836 -354.54)" fill="#b16668"/>
                  </g>
                  <g id="XMLID_932_" transform="translate(4.87 88.154)">
                    <path id="XMLID_933_" d="M419.642,224.262c6.488,14.172-.89,67.9-.89,67.9.195,2.3,2.224,5.876,2.456,12.9.306,9.018-1.3,42.311-1.3,42.311a9.411,9.411,0,0,1-8.49.167s-7.684-45.2-9.185-57.086c-1.307-10.381-3.819-34.767-3.819-34.767L393.254,290.4s2.651,5.793,2.79,11.03c.185,7.026-.853,39.624-.853,39.624s-3.142,1.1-8.629.3c0,0-7.813-44.119-8.555-52.535-.436-5.024,3.318-66.679,3.318-66.679Z" transform="translate(-377.972 -222.14)" fill="#37474f"/>
                  </g>
                  <g id="XMLID_908_" transform="translate(10.263 104.467)">
                    <path id="XMLID_931_" d="M398.852,256.97l-2.1-11.586s-8.907-1.844-12.958-5.645c0,0,4.236,5.274,10.538,7l2.364,10.131-2.336,30.29Z" transform="translate(-383.79 -239.74)" fill="#263238"/>
                  </g>
                  <g id="XMLID_906_" transform="translate(8.009 40.671)">
                    <path id="XMLID_907_" d="M407.229,171.234h0c5.691.788,8.75,2.039,10.585,7.4,1.2,3.5.881,8.648-.334,12.151L412.5,205.324a77.932,77.932,0,0,1,7.387,15.2c-14.542,8.119-33.933,3.8-38.307-2.122-.185-1.261.992-7.332.639-13.783-.38-6.877-1.483-14.765-.4-19.01,2-7.888,7.508-13.032,13.708-14.7Z" transform="translate(-381.359 -170.91)" fill="#f5f5f5"/>
                  </g>
                  <g id="XMLID_903_" transform="translate(10.822 7.526)">
                    <path id="XMLID_904_" d="M388.57,135.15c-1.965,1.159-4.393,6.108-4.162,16.48.2,8.787,3.049,10.956,4.486,11.586s4.189.241,6.868-.2v5.274s-3.708,4.3-3.476,6.72,5.348,2.994,8.824.63a22.483,22.483,0,0,0,5.691-5.96V156.931s1.807,2.419,4.773.454,3.077-6.831,1.353-8.583-5.431-1.2-6.127,1.223c0,0-4.273.158-9.973-2.975A16.026,16.026,0,0,1,388.57,135.15Z" transform="translate(-384.393 -135.15)" fill="#b16668"/>
                  </g>
                  <g id="XMLID_901_" transform="translate(20.652 20.705)">
                    <path id="XMLID_902_" d="M395,150.464a1.1,1.1,0,1,0,1.159-1.094A1.124,1.124,0,0,0,395,150.464Z" transform="translate(-394.999 -149.369)" fill="#263238"/>
                  </g>
                  <g id="XMLID_899_" transform="translate(17.789 29.243)">
                    <path id="XMLID_900_" d="M394.477,158.58l-2.567.816a1.32,1.32,0,0,0,1.668.918A1.4,1.4,0,0,0,394.477,158.58Z" transform="translate(-391.91 -158.58)" fill="#9a4a4d"/>
                  </g>
                  <g id="XMLID_897_" transform="translate(11.365 16.244)">
                    <path id="XMLID_898_" d="M385.2,146.719l2.234-1.548a1.3,1.3,0,0,0-1.854-.38A1.422,1.422,0,0,0,385.2,146.719Z" transform="translate(-384.98 -144.556)" fill="#263238"/>
                  </g>
                  <g id="XMLID_895_" transform="translate(12.106 19.907)">
                    <path id="XMLID_896_" d="M385.78,149.6a1.1,1.1,0,1,0,1.159-1.094A1.124,1.124,0,0,0,385.78,149.6Z" transform="translate(-385.779 -148.508)" fill="#263238"/>
                  </g>
                  <g id="XMLID_892_" transform="translate(13.646 20.363)">
                    <path id="XMLID_893_" d="M391.11,149l-.176,6.655-3.494-1.084Z" transform="translate(-387.44 -149)" fill="#9a4a4d"/>
                  </g>
                  <g id="XMLID_890_" transform="translate(22.191 31.05)">
                    <path id="XMLID_891_" d="M396.66,164.868c2.827-.371,8.638-2.039,9.547-4.338a5.959,5.959,0,0,1-2.039,2.929c-1.733,1.492-7.508,3.17-7.508,3.17v-1.761Z" transform="translate(-396.66 -160.53)" fill="#9a4a4d"/>
                  </g>
                </g>
              </g>
            </g>
            <g id="XMLID_885_" transform="translate(30.694 61.805)">
              <path id="XMLID_886_" d="M347.6,214.186c1.724.649,3.457.7,5.821,1.807a11.067,11.067,0,0,0,5.088,1.455c2.317.111,8.8-2.651,14.5-5.3,6.72-3.124,13.875-8.787,16.619-11.892a120.517,120.517,0,0,0,12.809-18.417c2.03-3.476,4.115-8.518,7.313-9.148,5.6.584,7.878,10.344,4.245,16.368s-10.094,13.912-16.98,20.586c-3.337,3.235-9.454,6.748-18.213,10.492a118.7,118.7,0,0,1-17.685,6.089c-1.752.454-2.994,1.112-6.284,2.243a14.647,14.647,0,0,1-4.171,1.038,18.577,18.577,0,0,1-5.3-.565,12.647,12.647,0,0,1-5.8-3.281,7.85,7.85,0,0,1-1.937-3.124,5.268,5.268,0,0,1,.12-3.633,1.435,1.435,0,0,1,.426-.612,1.774,1.774,0,0,1,1.316-.158c2.5.361,5.153,1.131,7.665,1.223,2.132.083,3.643-.158,3.374-.482s-1.52-.3-3.142-1.2c-1.539-.871-2.54-2.651-1.974-3.476S345.868,213.537,347.6,214.186Z" transform="translate(-337.355 -172.69)" fill="#b16668"/>
            </g>
            <path id="XMLID_884_" d="M347.718,191.808s2.317-1.844,6.72-1.122c2.132.352,1.316,8.407-5.533,10.659-4.458,1.464-5.367.7-6.8,4.375,0,0-2.688-.556-2.039-4.662a22.952,22.952,0,0,1,5.431-11.363c1.965-2.317,2.095-4.273,3.059-3.615,1.094.751.426,2.66.426,2.66Z" transform="translate(-306.851 -111.855)" fill="#b16668"/>
          </g>
        </g>
      </g>
    </g>
    <g id="Elipse_17" data-name="Elipse 17" transform="translate(1416 225)" fill="none" stroke="#27debf" stroke-width="9" opacity="0.22">
      <ellipse cx="21" cy="21.5" rx="21" ry="21.5" stroke="none"/>
      <ellipse cx="21" cy="21.5" rx="16.5" ry="17" fill="none"/>
    </g>
    <g id="Elipse_18" data-name="Elipse 18" transform="translate(1623 489)" fill="none" stroke="#27debf" stroke-width="9" opacity="0.22">
      <ellipse cx="21.5" cy="21" rx="21.5" ry="21" stroke="none"/>
      <ellipse cx="21.5" cy="21" rx="17" ry="16.5" fill="none"/>
    </g>
  </g>
</svg>
