<?xml version="1.0" encoding="utf-8"?>
<!-- Generator: Adobe Illustrator 16.0.0, SVG Export Plug-In . SVG Version: 6.00 Build 0)  -->
<!DOCTYPE svg PUBLIC "-//W3C//DTD SVG 1.1//EN" "http://www.w3.org/Graphics/SVG/1.1/DTD/svg11.dtd">
<svg version="1.1" id="Capa_1" xmlns="http://www.w3.org/2000/svg" xmlns:xlink="http://www.w3.org/1999/xlink" x="0px" y="0px"
	 width="1149.5px" height="560px" viewBox="0 0 1149.5 560" enable-background="new 0 0 1149.5 560" xml:space="preserve">
<g>
	<path fill="#FFFFFF" d="M289.168,272.804v-59.073l-64.476-37.281l1.159-31.227l-62.824-26.786l-63.001,26.781l1.288,34.7
		l-64.606,33.814v61.18L8.948,286.721l1.518,40.938l0.572,15.327l0.743,20.048l60.17,32.822l18.257-9.993l73.188,43.973
		l75.305-42.968l4.924,0.617l15.352,8.371l59.99-32.827l0.753-20.262l0.57-15.327l1.511-40.719L289.168,272.804z M163.018,133.172
		l39.383,16.791l-39.383,18.694l-39.499-18.694L163.018,133.172z M211.718,160.546l-1.963,52.786l-39.955,21.861v-54.746
		L211.718,160.546z M156.246,180.451v54.76l-40.123-21.883l-1.96-52.793L156.246,180.451z M65.169,376.709l-40.125-21.888
		l-1.962-52.792l42.087,19.918V376.709z M71.939,310.155l-39.496-18.694l39.496-16.791l39.384,16.791L71.939,310.155z
		 M78.725,376.688V321.94l41.917-19.896l-1.962,52.784L78.725,376.688z M163.394,412.352l-57.968-34.814l26.515-14.511l0.752-20.264
		l0.569-15.326l1.512-40.716L71.95,259.93l-21.991,9.352v-47.75l51.988-24.477l0.163,4.433l0.744,20.05l60.17,32.823l59.991-32.828
		l0.752-20.262l0.377-10.194l51.766,30.458v45.624l-16.936-7.224l-2.813,1.197l-0.204-0.087l-2.028,1.036l-57.957,24.642
		l1.519,40.942l0.209,5.62l-0.567,30.481l27.118,15.074L163.394,412.352z M252.194,376.709l-40.123-21.888l-1.959-52.792
		l42.084,19.918L252.194,376.709L252.194,376.709z M258.969,310.155l-39.499-18.692l39.499-16.792l39.381,16.792L258.969,310.155z
		 M305.708,354.829l-39.953,21.861v-54.748l41.916-19.896L305.708,354.829z"/>
	<g>
		<path fill="#FFFFFF" d="M833.217,311.301h-41.494V204.906h41.494c33.441,0,56.541,22.951,56.541,52.892v0.302
			C889.759,288.047,866.658,311.301,833.217,311.301 M865.284,258.105c0-18.849-12.918-32.068-32.067-32.068h-18.089v64.14h18.089
			c19.153,0,32.067-12.92,32.067-31.767V258.105z"/>
		<polygon fill="#FFFFFF" points="985.205,311.301 933.68,243.667 933.68,311.301 910.576,311.301 910.576,204.91 932.157,204.91 
			982.013,270.418 982.013,204.91 1005.112,204.91 1005.112,311.301 		"/>
		<path fill="#FFFFFF" d="M1109.832,311.301l-9.725-23.863h-44.992l-9.726,23.863h-23.864l45.599-107.153h21.583l45.596,107.153
			H1109.832z M1077.608,232.269l-14.136,34.501h28.268L1077.608,232.269z"/>
		<polygon fill="#FFFFFF" points="458.417,208.835 445.862,208.835 445.862,311.344 504.52,311.344 504.52,298.491 458.417,298.491 
					"/>
		<path fill="#FFFFFF" d="M568.8,252.093c-3.173-3.269-6.878-5.835-11.009-7.618c-8.302-3.611-17.809-3.609-26.084-0.002
			c-4.141,1.785-7.838,4.337-10.983,7.581c-3.152,3.155-5.617,6.987-7.32,11.393c-1.675,4.387-2.525,8.997-2.525,13.715
			c0,4.746,0.85,9.34,2.527,13.665c1.708,4.374,4.157,8.173,7.273,11.293c3.178,3.272,6.882,5.839,11.013,7.621
			c4.11,1.784,8.503,2.692,13.049,2.692c9.296,0,17.345-2.92,23.9-8.66c1.619-1.347,3.172-3.097,4.748-5.342l2.203-3.123
			l-10.385-6.928l-2.099,2.9c-0.614,0.842-1.656,1.936-3.006,3.148c-1.831,1.611-4.11,2.876-6.771,3.766
			c-5.714,1.927-11.872,1.811-16.891-0.314c-2.663-1.14-4.942-2.715-6.766-4.672c-2.594-2.821-4.401-6.087-5.391-9.717h54.433v-6.33
			c0-4.717-0.872-9.306-2.584-13.637C574.393,259.141,571.927,255.298,568.8,252.093 M565.241,270.614h-40.973
			c0.989-3.653,2.791-6.867,5.378-9.581c1.847-1.978,4.124-3.557,6.766-4.689c5.266-2.226,11.359-2.223,16.709,0
			c2.668,1.132,4.965,2.709,6.84,4.706C562.485,263.703,564.261,266.918,565.241,270.614"/>
		<path fill="#FFFFFF" d="M639.521,249.694c-2.181-1.913-4.603-3.522-7.221-4.785c-8.194-3.998-17.777-4.177-26.293-0.498
			c-4.062,1.762-7.646,4.263-10.635,7.419c-3.101,3.069-5.521,6.838-7.185,11.205c-1.631,4.287-2.463,8.824-2.463,13.49
			c0,4.638,0.83,9.188,2.461,13.528c1.659,4.383,4.055,8.145,7.098,11.149c3.052,3.257,6.659,5.789,10.728,7.519
			c8.504,3.673,18.079,3.497,26.272-0.487c2.63-1.271,5.056-2.881,7.234-4.79v11.09c0,2.229-0.496,4.415-1.468,6.49
			c-1.033,2.159-2.472,4.026-4.386,5.709c-1.912,1.66-4.089,2.915-6.67,3.845c-5.915,2.149-12.893,1.751-18.648-1.067
			c-3.282-1.633-5.72-3.709-7.445-6.341l-1.951-2.956l-10.844,6.359l2.11,3.279c1.587,2.473,3.324,4.601,5.18,6.346
			c3.127,2.829,6.754,5.005,10.772,6.46c3.969,1.453,8.234,2.188,12.677,2.188c4.422,0,8.684-0.735,12.678-2.188
			c4.022-1.471,7.644-3.639,10.753-6.441c3.013-2.663,5.43-5.947,7.182-9.763c1.722-3.781,2.59-7.793,2.59-11.916v-71.665h-12.536
			v6.824h0.006v-0.002H639.521z M639.521,276.521c0,2.92-0.503,5.686-1.545,8.446c-1.029,2.689-2.496,5.066-4.479,7.252
			c-1.763,1.893-3.972,3.434-6.558,4.577c-5.208,2.235-10.904,2.249-16.05,0.029c-2.495-1.054-4.708-2.597-6.566-4.561
			c-2.013-2.217-3.491-4.607-4.519-7.293c-1.038-2.765-1.544-5.525-1.544-8.446c0-6.067,1.969-11.174,6.006-15.601
			c1.901-2.012,4.072-3.526,6.641-4.633c2.52-1.085,5.189-1.633,7.938-1.633c2.767,0,5.482,0.561,8.059,1.663
			c2.614,1.152,4.822,2.689,6.562,4.555C637.541,265.335,639.521,270.45,639.521,276.521"/>
		<path fill="#FFFFFF" d="M714.199,249.76l-0.002-0.006c-5.941-5.29-13.097-7.973-21.262-7.973c-5.132,0-10.012,1.172-14.51,3.478
			c-4.527,2.341-8.17,5.496-10.82,9.371l-2.204,3.211l10.535,6.583l2.057-2.756c1.522-2.04,3.602-3.685,6.335-5.017
			c4.812-2.304,10.565-2.606,15.772-0.831c2.176,0.775,3.954,1.834,5.446,3.256c1.668,1.51,2.882,3.112,3.699,4.903
			c0.815,1.781,1.227,3.668,1.227,5.615v1.788c-1.416-0.807-2.88-1.504-4.378-2.077c-4.048-1.562-8.473-2.355-13.16-2.355
			c-8.249,0-15.332,2.112-21.04,6.269c-2.794,1.933-5.013,4.375-6.588,7.25c-1.642,2.948-2.47,6.048-2.47,9.21
			c0,3.18,0.827,6.276,2.461,9.201c1.596,2.921,3.801,5.348,6.521,7.197c5.728,4.212,12.833,6.351,21.115,6.351
			c4.682,0,9.112-0.792,13.158-2.355c1.5-0.571,2.966-1.268,4.384-2.076v3.348h12.535v-41.747c0-3.749-0.783-7.404-2.325-10.864
			C719.148,255.269,716.966,252.249,714.199,249.76 M675.374,289.682c0-2.396,1.561-4.539,4.772-6.564
			c1.552-0.993,3.424-1.788,5.712-2.423c2.216-0.591,4.617-0.89,7.036-0.89c2.421,0,4.861,0.299,7.152,0.89
			c2.297,0.622,4.173,1.404,5.725,2.382c3.166,2.098,4.702,4.255,4.702,6.604c0,2.355-1.512,4.504-4.616,6.561
			c-1.655,1.025-3.601,1.838-5.777,2.41c-4.572,1.187-9.761,1.192-14.235,0.012c-2.165-0.578-4.089-1.386-5.714-2.402
			C676.929,294.224,675.374,292.07,675.374,289.682"/>
		<rect x="736.944" y="203.429" fill="#FFFFFF" width="12.538" height="107.915"/>
	</g>
</g>
</svg>
