<?xml version="1.0" encoding="utf-8"?>
<!-- Generator: Adobe Illustrator 25.2.3, SVG Export Plug-In . SVG Version: 6.00 Build 0)  -->
<svg version="1.1" id="Capa_1" xmlns="http://www.w3.org/2000/svg" xmlns:xlink="http://www.w3.org/1999/xlink" x="0px" y="0px"
	 viewBox="0 0 289.5 65.1" style="enable-background:new 0 0 289.5 65.1;" xml:space="preserve">
<style type="text/css">
	.st0{fill:#FFFFFF;}
	.st1{fill:none;stroke:#FFFFFF;stroke-width:3;stroke-miterlimit:10;}
	.st2{fill:none;stroke:#FFFFFF;stroke-width:4;stroke-miterlimit:10;}
</style>
<g id="Grupo_1998" transform="translate(-264.039 -563.152)">
	<g id="Grupo_1835" transform="translate(352.687 585.921)">
		<path id="Trazado_1399" class="st0" d="M1.8,19.5H12V21H0V0.3h1.8V19.5z"/>
		<path id="Trazado_1400" class="st0" d="M35.5,11h-9.7v8.4h11.1V21H24V0.3h12.8v1.5h-11v7.8h9.7L35.5,11z"/>
		<path id="Trazado_1401" class="st0" d="M64.2,18.5c-0.7,0.9-1.7,1.6-2.8,2c-1.4,0.5-2.9,0.7-4.3,0.7c-1.5,0-3-0.4-4.3-1.2
			c-1.3-0.8-2.3-1.9-2.9-3.3c-0.7-1.5-1.1-3.2-1.1-4.9V9.3c-0.1-2.5,0.6-4.9,2.2-6.8c1.5-1.7,3.6-2.6,5.8-2.5
			c1.9-0.1,3.7,0.5,5.1,1.6c1.3,1.1,2.2,2.7,2.3,4.5h-1.7c-0.2-1.3-0.8-2.6-1.9-3.5c-1.1-0.8-2.5-1.2-3.8-1.2
			c-1.8-0.1-3.5,0.7-4.6,2.1c-1.2,1.7-1.8,3.7-1.7,5.8v2.4c0,1.4,0.2,2.9,0.8,4.2c0.5,1.1,1.3,2.1,2.3,2.8c1,0.7,2.2,1,3.4,1
			c1.3,0,2.6-0.2,3.9-0.7c0.6-0.2,1.1-0.6,1.6-1.1v-5.3h-5.6v-1.5h7.3V18.5z"/>
		<path id="Trazado_1402" class="st0" d="M89.1,15.2h-9.4L77.6,21h-1.8l7.8-20.7h1.7L93,21h-1.8L89.1,15.2z M80.2,13.7h8.3L84.4,2.4
			L80.2,13.7z"/>
		<path id="Trazado_1403" class="st0" d="M106.6,19.5h10.2V21h-12V0.3h1.8L106.6,19.5z"/>
	</g>
	<g id="Grupo_1994" transform="translate(178.539 128.884)">
		<g id="Grupo_1997" transform="translate(87 436)">
			<g id="Grupo_1994-2" transform="translate(17.933 0)">
				<path id="Trazado_1599" class="st1" d="M25.6,22.1V7.4L12.8,0L0,7.4v14.8l12.8,7.4L25.6,22.1z"/>
				<line id="Línea_70" class="st1" x1="12.7" y1="29.5" x2="12.7" y2="14.8"/>
				<line id="Línea_71" class="st1" x1="0.1" y1="7.4" x2="12.7" y2="14.8"/>
				<line id="Línea_72" class="st1" x1="25.6" y1="7.4" x2="12.7" y2="14.8"/>
			</g>
			<g id="Grupo_1995" transform="translate(0 29.146)">
				<path id="Trazado_1600" class="st1" d="M25.6,22.1V7.4L12.8,0L0,7.4v14.8l12.8,7.4L25.6,22.1z"/>
				<line id="Línea_73" class="st1" x1="12.7" y1="29.5" x2="12.7" y2="14.8"/>
				<line id="Línea_74" class="st1" x1="0.1" y1="7.4" x2="12.7" y2="14.8"/>
				<line id="Línea_75" class="st1" x1="25.6" y1="7.4" x2="12.7" y2="14.8"/>
			</g>
			<g id="Grupo_1996" transform="translate(38.183 29.146)">
				<path id="Trazado_1601" class="st1" d="M25.6,22.1V7.4L12.8,0L0,7.4v14.8l12.8,7.4L25.6,22.1z"/>
				<line id="Línea_76" class="st1" x1="12.7" y1="29.5" x2="12.7" y2="14.8"/>
				<line id="Línea_77" class="st1" x1="0.1" y1="7.4" x2="12.7" y2="14.8"/>
				<line id="Línea_78" class="st1" x1="25.6" y1="7.4" x2="12.7" y2="14.8"/>
			</g>
			<path id="Trazado_1602" class="st2" d="M17.8,12.1L6.3,18.7v14.2"/>
			<path id="Trazado_1603" class="st2" d="M55.2,31.4V18.7l-11.5-6.6"/>
			<path id="Trazado_1604" class="st2" d="M19.7,54.7l11,6.4l12.2-7"/>
		</g>
	</g>
</g>
<path id="Trazado_1404_1_" class="st0" d="M283.5,39.5H276l-1.4,4.3h-4.5l7.7-20.7h3.9l7.7,20.7h-4.5L283.5,39.5z M277.2,36h5.2
	l-2.6-7.7L277.2,36z"/>
<path id="Trazado_1405_1_" class="st0" d="M216.8,43.7V23.1h6.4c1.7,0,3.4,0.4,4.9,1.2c1.4,0.8,2.6,2,3.4,3.5
	c0.8,1.6,1.2,3.4,1.2,5.1v1c0,1.8-0.4,3.5-1.2,5.1c-0.8,1.5-1.9,2.7-3.3,3.5c-1.5,0.8-3.2,1.3-4.9,1.2L216.8,43.7z M221,26.5v13.8
	h2.1c1.5,0.1,2.9-0.5,3.8-1.6c1-1.4,1.4-3,1.3-4.7v-1.1c0.1-1.7-0.3-3.4-1.3-4.8c-0.9-1.1-2.4-1.7-3.8-1.6L221,26.5z"/>
<path id="Trazado_1406_1_" class="st0" d="M261.3,43.7h-4.3l-8.3-13.6v13.6h-4.3V23.1h4.3l8.3,13.6V23.1h4.2L261.3,43.7z"/>
</svg>
