<?xml version="1.0" encoding="utf-8"?>
<!-- Generator: Adobe Illustrator 16.0.0, SVG Export Plug-In . SVG Version: 6.00 Build 0)  -->
<!DOCTYPE svg PUBLIC "-//W3C//DTD SVG 1.1//EN" "http://www.w3.org/Graphics/SVG/1.1/DTD/svg11.dtd">
<svg version="1.1" id="Layer_2" xmlns="http://www.w3.org/2000/svg" xmlns:xlink="http://www.w3.org/1999/xlink" x="0px" y="0px"
	 width="582.46px" height="172.483px" viewBox="0 219.003 582.46 172.483" enable-background="new 0 219.003 582.46 172.483"
	 xml:space="preserve">
<path fill="#4A5FCC" d="M156.93,305.273v-32.284l-35.236-20.375l0.633-17.065L87.994,220.91l-34.431,14.637l0.704,18.963
	L18.96,272.989v33.436l-15.17,6.452l0.83,22.373l0.312,8.377l0.406,10.955l32.883,17.938l9.977-5.461l39.997,24.031l41.155-23.481
	l2.691,0.336l8.39,4.575l32.785-17.94l0.412-11.072l0.311-8.377l0.826-22.252L156.93,305.273z M87.989,228.963l21.522,9.177
	l-21.522,10.217L66.403,238.14L87.989,228.963z M114.604,243.924l-1.073,28.847l-21.835,11.947v-29.919L114.604,243.924z
	 M84.287,254.801v29.926L62.36,272.768l-1.072-28.852L84.287,254.801z M34.514,362.057l-21.928-11.961l-1.072-28.852l23,10.885
	V362.057z M38.215,325.686l-21.586-10.217l21.586-9.177l21.523,9.177L38.215,325.686z M41.923,362.045v-29.92l22.907-10.873
	L63.758,350.1L41.923,362.045z M88.195,381.535l-31.68-19.027l14.491-7.93l0.411-11.072l0.311-8.377l0.826-22.252l-34.333-14.64
	l-12.018,5.11v-26.095l28.411-13.377l0.089,2.423l0.407,10.957l32.883,17.938l32.785-17.941l0.411-11.073l0.207-5.572l28.29,16.646
	v24.934l-9.255-3.949l-1.538,0.654l-0.112-0.048l-1.108,0.567l-31.672,13.467l0.83,22.373l0.114,3.072l-0.31,16.657l14.819,8.238
	L88.195,381.535z M136.724,362.057l-21.927-11.961l-1.072-28.852l22.999,10.885V362.057z M140.426,325.686l-21.586-10.217
	l21.586-9.177l21.522,9.177L140.426,325.686z M165.969,350.1l-21.835,11.945v-29.92l22.907-10.873L165.969,350.1z"/>
<g>
	<path fill="#4A5FCC" d="M415.576,363.896H392.9v-58.146h22.676c18.275,0,30.9,12.542,30.9,28.905v0.166
		C446.477,351.187,433.852,363.896,415.576,363.896 M433.102,334.823c0-10.3-7.061-17.525-17.525-17.525h-9.885v35.053h9.885
		c10.467,0,17.525-7.062,17.525-17.36V334.823z"/>
	<polygon fill="#4A5FCC" points="498.639,363.896 470.479,326.934 470.479,363.896 457.854,363.896 457.854,305.752 
		469.648,305.752 496.893,341.552 496.893,305.752 509.518,305.752 509.518,363.896 	"/>
	<path fill="#4A5FCC" d="M566.746,363.896l-5.314-13.043h-24.588l-5.316,13.043h-13.041l24.92-58.561h11.795l24.918,58.561H566.746z
		 M549.137,320.703l-7.727,18.855h15.449L549.137,320.703z"/>
	<polygon fill="#4A5FCC" points="210.747,307.898 203.886,307.898 203.886,363.918 235.943,363.918 235.943,356.895 
		210.747,356.895 	"/>
	<path fill="#4A5FCC" d="M271.072,331.539c-1.735-1.788-3.76-3.189-6.017-4.165c-4.536-1.974-9.733-1.972-14.256-0.001
		c-2.262,0.975-4.283,2.37-6.002,4.143c-1.723,1.725-3.069,3.818-4,6.228c-0.916,2.396-1.38,4.917-1.38,7.494
		c0,2.594,0.464,5.104,1.381,7.468c0.933,2.39,2.272,4.467,3.975,6.17c1.736,1.789,3.761,3.191,6.018,4.167
		c2.247,0.976,4.646,1.471,7.132,1.471c5.08,0,9.478-1.595,13.062-4.73c0.884-0.737,1.733-1.693,2.594-2.92l1.204-1.707
		l-5.676-3.786l-1.147,1.586c-0.335,0.46-0.904,1.057-1.642,1.721c-1.001,0.881-2.246,1.571-3.7,2.058
		c-3.123,1.053-6.488,0.989-9.231-0.172c-1.455-0.622-2.701-1.483-3.698-2.554c-1.417-1.542-2.405-3.326-2.946-5.311h29.748v-3.459
		c0-2.577-0.475-5.086-1.412-7.453C274.129,335.391,272.781,333.289,271.072,331.539 M269.126,341.66h-22.391
		c0.54-1.996,1.525-3.753,2.938-5.236c1.009-1.08,2.255-1.943,3.699-2.562c2.877-1.217,6.207-1.215,9.131,0
		c1.458,0.619,2.713,1.481,3.738,2.572C267.621,337.883,268.59,339.639,269.126,341.66"/>
	<path fill="#4A5FCC" d="M309.72,330.227c-1.191-1.045-2.514-1.924-3.945-2.615c-4.478-2.185-9.714-2.282-14.367-0.271
		c-2.22,0.963-4.18,2.33-5.812,4.055c-1.696,1.676-3.018,3.736-3.927,6.123c-0.893,2.342-1.346,4.821-1.346,7.371
		c0,2.534,0.453,5.021,1.345,7.394c0.906,2.395,2.215,4.449,3.878,6.093c1.667,1.78,3.64,3.164,5.863,4.109
		c4.648,2.008,9.881,1.91,14.359-0.267c1.437-0.694,2.762-1.574,3.952-2.617v6.062c0,1.218-0.271,2.411-0.801,3.545
		c-0.565,1.18-1.35,2.201-2.396,3.121c-1.044,0.906-2.236,1.592-3.645,2.1c-3.234,1.176-7.046,0.959-10.192-0.583
		c-1.794-0.893-3.125-2.025-4.069-3.464l-1.067-1.616l-5.926,3.476l1.154,1.791c0.867,1.352,1.816,2.516,2.829,3.469
		c1.71,1.547,3.692,2.735,5.889,3.53c2.168,0.794,4.499,1.196,6.927,1.196c2.417,0,4.747-0.402,6.928-1.196
		c2.2-0.804,4.178-1.989,5.877-3.521c1.647-1.456,2.968-3.25,3.925-5.336c0.94-2.065,1.416-4.258,1.416-6.512v-39.164h-6.85
		L309.72,330.227L309.72,330.227z M309.72,344.888c0,1.596-0.275,3.105-0.843,4.616c-0.562,1.47-1.364,2.768-2.447,3.963
		c-0.963,1.034-2.171,1.876-3.585,2.5c-2.845,1.224-5.958,1.229-8.769,0.017c-1.365-0.575-2.574-1.418-3.589-2.492
		c-1.1-1.213-1.908-2.518-2.469-3.985c-0.568-1.511-0.844-3.021-0.844-4.617c0-3.314,1.076-6.105,3.283-8.525
		c1.038-1.098,2.225-1.926,3.628-2.531c1.377-0.592,2.837-0.893,4.339-0.893c1.511,0,2.995,0.307,4.404,0.908
		c1.428,0.629,2.635,1.471,3.586,2.49C308.639,338.775,309.72,341.57,309.72,344.888"/>
	<path fill="#4A5FCC" d="M350.533,330.264l-0.002-0.004c-3.247-2.891-7.156-4.357-11.62-4.357c-2.804,0-5.471,0.641-7.928,1.902
		c-2.475,1.278-4.465,3.004-5.915,5.121l-1.204,1.754l5.759,3.6l1.123-1.506c0.833-1.115,1.968-2.014,3.463-2.742
		c2.628-1.26,5.773-1.424,8.62-0.454c1.189,0.424,2.16,1.003,2.976,1.78c0.912,0.824,1.574,1.699,2.022,2.679
		c0.445,0.973,0.671,2.005,0.671,3.069v0.977c-0.774-0.441-1.575-0.821-2.393-1.135c-2.212-0.854-4.631-1.288-7.193-1.288
		c-4.507,0-8.378,1.155-11.497,3.427c-1.527,1.057-2.739,2.391-3.601,3.962c-0.896,1.612-1.35,3.306-1.35,5.033
		c0,1.738,0.454,3.432,1.347,5.029c0.871,1.595,2.075,2.922,3.562,3.933c3.131,2.302,7.013,3.47,11.539,3.47
		c2.561,0,4.981-0.434,7.192-1.287c0.82-0.313,1.621-0.693,2.395-1.137v1.83h6.85v-22.813c0-2.049-0.428-4.047-1.27-5.938
		C353.238,333.271,352.044,331.623,350.533,330.264 M329.313,352.08c0-1.309,0.854-2.48,2.609-3.587
		c0.849-0.542,1.872-0.977,3.123-1.323c1.211-0.324,2.523-0.487,3.845-0.487c1.323,0,2.657,0.163,3.909,0.487
		c1.255,0.34,2.281,0.767,3.128,1.301c1.73,1.146,2.57,2.326,2.57,3.609c0,1.288-0.826,2.462-2.522,3.586
		c-0.905,0.561-1.968,1.004-3.159,1.315c-2.498,0.649-5.333,0.651-7.779,0.007c-1.183-0.315-2.234-0.758-3.122-1.312
		C330.164,354.562,329.313,353.386,329.313,352.08"/>
	<rect x="362.962" y="304.943" fill="#4A5FCC" width="6.851" height="58.975"/>
</g>
</svg>
