<svg xmlns="http://www.w3.org/2000/svg" xmlns:xlink="http://www.w3.org/1999/xlink" width="780.695" height="569.445" viewBox="0 0 780.695 569.445"><defs><style>.a{fill:none;}.b{fill:#5a0883;}.c{fill:#24126a;}.d{fill:url(#a);}.e{fill:url(#b);}.f{fill:url(#c);}.g{fill:url(#d);}.h{fill:url(#e);}.i{fill:url(#f);}.j{fill:#5351af;}.k{fill:url(#g);}.l{fill:#515151;}.m{fill:url(#h);}.ae,.n{fill:#2d2d2d;}.o{fill:#160a5b;}.p{fill:#453c9e;}.q{fill:#fcd1c5;}.r{fill:#f0f6ff;}.s{fill:#c4ccd6;}.t{fill:#e2b1a6;}.u{fill:#aa8383;}.v{fill:#936d6d;}.w{fill:#263649;}.x{clip-path:url(#i);}.y{fill:#334659;}.z{opacity:0.5;fill:url(#k);}.aa{fill:url(#l);}.ab{fill:#fff;}.ac{fill:#180d5b;opacity:0.3;}.ad{fill:#4846a5;}.ae{opacity:0.63;}.af{fill:url(#n);}.ag{fill:url(#o);}.ah{fill:#adb1f2;}.ai{fill:#9198db;}.aj{fill:url(#p);}.ak{fill:url(#q);}.al{fill:url(#r);}.am{opacity:0.6;}</style><linearGradient id="a" x1="0.031" y1="0.015" x2="1.554" y2="1.486" gradientUnits="objectBoundingBox"><stop offset="0" stop-color="#5761d7"/><stop offset="0.178" stop-color="#5b65d8"/><stop offset="0.388" stop-color="#6a72de"/><stop offset="0.613" stop-color="#8188e8"/><stop offset="0.849" stop-color="#a2a6f5"/><stop offset="1" stop-color="#bcbeff"/></linearGradient><linearGradient id="b" x1="1" y1="0.5" x2="-1.181" y2="0.5" xlink:href="#a"/><linearGradient id="c" x1="0.491" y1="0.541" x2="1.209" y2="-0.295" xlink:href="#a"/><linearGradient id="d" x1="1" y1="0.5" x2="-0.577" y2="0.5" xlink:href="#a"/><linearGradient id="e" x1="1" y1="0.5" x2="0" y2="0.5" xlink:href="#a"/><linearGradient id="f" x1="0.541" y1="0.5" x2="-0.459" y2="0.5" gradientUnits="objectBoundingBox"><stop offset="0" stop-color="#c0bff6"/><stop offset="0.294" stop-color="#c4c3f6"/><stop offset="0.64" stop-color="#d2d2f9"/><stop offset="1" stop-color="#e9e9fd"/></linearGradient><linearGradient id="g" x1="1" y1="0.5" x2="0" y2="0.5" gradientUnits="objectBoundingBox"><stop offset="0" stop-color="#e9e9fd"/><stop offset="0.36" stop-color="#d2d2f9"/><stop offset="0.706" stop-color="#c4c3f6"/><stop offset="1" stop-color="#c0bff6"/></linearGradient><linearGradient id="h" x1="0.17" y1="0.147" x2="0.533" y2="0.697" gradientUnits="objectBoundingBox"><stop offset="0.355" stop-color="#bcbeff"/><stop offset="0.444" stop-color="#b5b7fc"/><stop offset="0.57" stop-color="#a2a6f5"/><stop offset="0.698" stop-color="#898feb"/><stop offset="0.859" stop-color="#6069da"/><stop offset="0.892" stop-color="#5761d7"/></linearGradient><clipPath id="i"><path class="a" d="M503.086,216.239l1.533-.836c5.682-3.1,4.971-8.505-1.592-12.081l-46.255-25.205c-6.56-3.575-16.484-3.963-22.168-.869l-1.533.836c-5.682,3.1-4.971,8.505,1.592,12.081l46.255,25.205C487.478,218.946,497.4,219.336,503.086,216.239Z" transform="translate(-429.235 -175.16)"/></clipPath><linearGradient id="k" x1="1" y1="0.5" x2="0" y2="0.5" gradientUnits="objectBoundingBox"><stop offset="0" stop-color="#42e8e0"/><stop offset="0.151" stop-color="#42e3df"/><stop offset="0.328" stop-color="#44d4de"/><stop offset="0.52" stop-color="#48bddd"/><stop offset="0.721" stop-color="#4d9bda"/><stop offset="0.927" stop-color="#5471d8"/><stop offset="1" stop-color="#5761d7"/></linearGradient><linearGradient id="l" x1="1.148" y1="0.5" x2="0.148" y2="0.5" xlink:href="#h"/><linearGradient id="n" x1="0.841" y1="0.5" x2="-0.159" y2="0.5" xlink:href="#a"/><linearGradient id="o" x1="0.505" y1="0.5" x2="-0.495" y2="0.5" xlink:href="#f"/><linearGradient id="p" x1="1.166" y1="0.5" x2="0.166" y2="0.5" xlink:href="#f"/><linearGradient id="q" x1="0.365" y1="0.5" x2="-0.635" y2="0.5" xlink:href="#f"/><linearGradient id="r" x1="2.127" y1="0.5" x2="1.127" y2="0.5" xlink:href="#a"/></defs><g transform="translate(-196.673 -86.451)"><path class="b" d="M488.886,475.513a30.908,30.908,0,0,0,14.77-3.723L836.985,290.2a10.279,10.279,0,0,0,.024-18.29L631.971,159.552l-.276.15-347.866,189.5a10.277,10.277,0,0,0-.024,18.29L474.049,471.752A30.894,30.894,0,0,0,488.886,475.513Zm14.216-4.629a29.993,29.993,0,0,1-28.5-.035L284.359,366.593a9.263,9.263,0,0,1,.024-16.482L631.971,160.759l204.484,112.06a9.261,9.261,0,0,1-.024,16.48Z" transform="translate(-81.556 109.924)"/><g transform="translate(231.387 86.451)"><g transform="translate(0)"><g transform="translate(41.436 252.896)"><path class="c" d="M414.12,255.3a9.139,9.139,0,1,0,9.125-8.61A8.878,8.878,0,0,0,414.12,255.3Z" transform="translate(-304.639 -98.393)"/><path class="c" d="M447.992,216.875a9.139,9.139,0,1,0,9.123-8.61A8.879,8.879,0,0,0,447.992,216.875Z" transform="translate(-428.362 -156.172)"/><path class="c" d="M455.392,243.134a9.139,9.139,0,1,0,9.123-8.61A8.879,8.879,0,0,0,455.392,243.134Z" transform="translate(-455.392 -116.686)"/><g transform="translate(2.537)"><path class="c" d="M381.081,236.652a9.139,9.139,0,1,0,9.123-8.61A8.879,8.879,0,0,0,381.081,236.652Z" transform="translate(-186.496 -126.433)"/><path class="c" d="M402.343,213.418a9.139,9.139,0,1,0,9.125-8.61A8.879,8.879,0,0,0,402.343,213.418Z" transform="translate(-264.159 -161.371)"/><g transform="translate(0 37.46)"><path class="d" d="M384.6,220.985l100.3,18.232a12.373,12.373,0,0,1,1.231.178l-.088-.626,4.823-1.149v5.371l-.024,0a2.072,2.072,0,0,1-.066.633c-.61,2.1-4.231,3.535-8.091,3.2L382.383,228.6Z" transform="translate(-281.482 -174.505)"/><path class="e" d="M422.489,208.015l3.053,2.429a12.035,12.035,0,0,1,9.4.661l71.434,29.349-10,5.448L424.94,216.555c-1.677-.914-2.475-2.091-2.419-3.195l-.032.013Z" transform="translate(-403.383 -194.009)"/><path class="f" d="M449.393,207.478c1.775-1.9,6.032-2.651,9.512-1.685h0a9.328,9.328,0,0,1,1.143.4,4.1,4.1,0,0,1,.618-.764,14.008,14.008,0,0,1,2.1-1.417l.005,5.348-.026-.018a2.557,2.557,0,0,1-.748,1.63L415.89,250.7l-12.6-3.5Z" transform="translate(-308.848 -200.024)"/><path class="g" d="M423.328,253.938l1.693.563.971,1.905a9.393,9.393,0,0,1,1.2-.418l90.48-34.7,6.422,6.865-90.483,34.7c-3.48.966-7.738.213-9.51-1.683h0a2.484,2.484,0,0,1-.74-1.788l-.032.025Z" transform="translate(-423.327 -174.051)"/><path class="h" d="M428.918,222.693l14.858,60.085,1.111-.536,0,5.553-.024-.025c-.2,1.763-2.608,3.277-5.942,3.565-3.857.333-7.478-1.1-8.088-3.2L414.949,223.9Z" transform="translate(-321.897 -171.937)"/><path class="i" d="M386.247,279.008l83.917-32.183L403.94,219.617c-2.966-1.617-3.289-4.064-.719-5.463l.7-.378c2.57-1.4,7.059-1.224,10.024.393l66.224,27.208,42.764-36.852c1.775-1.9,6.032-2.649,9.512-1.683h0c3.478.966,4.862,3.285,3.088,5.183l-42.761,36.847L585.8,261.785c3.857.333,6.488,2.306,5.876,4.409s-4.231,3.535-8.091,3.2l-93.027-16.913,14.733,59.579c.613,2.1-2.021,4.074-5.878,4.407s-7.478-1.1-8.088-3.2L476.589,253.69l-83.923,32.185c-3.48.966-7.738.213-9.51-1.685S382.767,279.974,386.247,279.008Zm92.91-32.1,1.563,1.673,3.4-.3.539-1.853-3.069-.851Z" transform="translate(-382.384 -202.421)"/></g><path class="c" d="M428.3,274.331h0a7.12,7.12,0,0,0,7.316-6.905V187.459H420.984v79.967A7.121,7.121,0,0,0,428.3,274.331Z" transform="translate(-328.635 -187.459)"/></g></g><path class="j" d="M379.205,154.163l.034.01c.175-1.808,1.416-3.513,3.8-4.812l1.536-.836c5.682-3.1,15.606-2.709,22.166.866L453,174.6c3.483,1.9,5.3,4.309,5.406,6.62l.021.01v7.6l-.013,0c.005,1.97-1.244,3.853-3.823,5.258l-1.533.836c-5.682,3.095-15.608,2.707-22.168-.869l-46.255-25.205c-3.372-1.838-5.186-4.156-5.4-6.4l-.032-.012Z" transform="translate(-196.642 3.746)"/><g transform="translate(182.564 150.18)"><path class="k" d="M453.055,187.513l1.533-.836c5.682-3.1,4.971-8.505-1.592-12.08l-46.255-25.205c-6.56-3.575-16.484-3.963-22.166-.866l-1.536.836c-5.682,3.095-4.969,8.505,1.592,12.08l46.255,25.205C437.447,190.222,447.373,190.61,453.055,187.513Z" transform="translate(-379.205 -146.434)"/></g><g transform="translate(53.702)"><path class="l" d="M392.446,194.643l96.884,52.741c4.8,2.616,8.69-.16,8.69-6.2h0c0-6.041-3.892-13.057-8.69-15.673L378.347,165.084v4.134C378.347,179.017,384.658,190.4,392.446,194.643Z" transform="translate(-287.663 31.791)"/><g transform="translate(0)"><path class="m" d="M477.02,87.545l0,.005c3.366-1.708,7.7-1.485,12.43,1.094l2.891,1.577c10.714,5.836,19.4,21.5,19.4,34.977V306.043L486,292.02v5.744l30.874,23.743,70.131,44.381-98.573,52.6L431.76,377.314,399.482,351.3l-20.11-211.638Z" transform="translate(-379.372 -86.451)"/></g></g><path class="n" d="M434.209,231.7s2.621-6.55-2.557-11.437-32.434-15.713-34.405-16.878-11.77-7.972-11.77-7.972l-2.99-6.312s55.329,5.09,56.07,5.9,25.9,22.115,25.155,23.044-17.34,4.73-17.34,4.73l-3.2,4.144Z" transform="translate(-210.651 67.9)"/><path class="j" d="M434.737,109.554l2.894,1.575c10.711,5.839,19.4,21.5,19.4,34.98V326.933l69.3,37.729c4.8,2.614,8.69,9.632,8.69,15.673h0c0,6.042-3.892,8.818-8.69,6.2L429.44,333.8c-7.786-4.244-14.1-15.626-14.1-25.425V123.392C415.341,109.912,424.026,103.715,434.737,109.554Z" transform="translate(-369.091 -55.016)"/><g transform="translate(59.983 9.597)"><g transform="translate(0)"><path class="o" d="M410.923,231.214s14.271,8.64,19.1,13.738,14.388,15.521,10.454,20.488-17.218,7.744-31.493-4.664-10.223-13.147-22.378-19.3-15.508-12.844-14.043-16.672,7.473-10.593,10.749-9.136S410.923,231.214,410.923,231.214Z" transform="translate(-221.131 97.958)"/><path class="o" d="M436.992,248.136s5.125,10.643,7.764,14.174,15.447,23.893,8.762,28.578S434.157,294.273,424.14,284s-12.245-22.764-14.714-26.868-8.624-15.057-5.706-21.372,3.565-7.409,3.565-7.409Z" transform="translate(-316.619 117.339)"/><path class="c" d="M501.72,176.792s42.414,39.5,49.364,59.331c0,0,2.936,10.716-5.263,19.121s-25.606,35.881-25.606,35.881-13,14.835-29.771,2.972c0,0-7.587-11.44-2.923-19.046s17.07-31.9,17.07-31.9-27.2-17.664-40.62-22.123a191.907,191.907,0,0,1-20.59-7.912,59.17,59.17,0,0,0,12.263,23.618c9.817,11.665,26.261,30.4,20.789,43.445s-8.645,17.078-13.791,24.584-10.011,23.164-14.4,24.792-24.667,3.505-27.956-8.958S427.2,283.9,431.8,275.707c0,0-54.849-59.729-60.072-66.294S484.745,166.662,501.72,176.792Z" transform="translate(-329.516 37.128)"/><path class="o" d="M443.569,275.052c4.663-7.606,17.07-31.9,17.07-31.9s-27.2-17.664-40.62-22.123a191.908,191.908,0,0,1-20.59-7.912c-2.573-3.352-10.905-16.2-14.632-26.367,30.933-8.553,64.516-15,72.972-9.955-3,6.993-18.765,6.933-18.765,6.933s-5.892,13.53-9.794,15.258-13.258-.163-13.258-.163,1.509,2.228,8.176,6.77,48.406,36.817,48.406,36.817-2.377,1.277-13.491,20.238-12.55,31.452-12.55,31.452S438.905,282.658,443.569,275.052Z" transform="translate(-285.564 37.127)"/><path class="o" d="M435.312,184.8c24.524-2.208,53.083-2.406,46.653,9.75-10.9,20.616-32.835,21.537-32.835,21.537.141,7.574,33.792,44.153,33.792,44.153l-7.841,14.394c-7.841,14.394-6.86,40.6-6.86,40.6a11.794,11.794,0,0,1-6.382-7.591c-3.289-12.466,6.918-36.692,11.515-44.887,0,0-54.849-59.729-60.072-66.294C411.732,194.513,421.027,189.967,435.312,184.8Z" transform="translate(-371.069 50.082)"/><path class="p" d="M573.648,163.8l-6.523-4.78s-35.164-18.427-46.867-24.4c-6.335-3.232-12.908-9.013-17.606-13.638a25.209,25.209,0,0,0-17.545-7.053l-61.608-.288s-7.175,10.851-9.595,12.989c-1.777,1.57-18.5,14.795-30.49,25.683a48.577,48.577,0,0,0-13.972,21.943c-6.862,22.834-6.762,68.853-7.8,101.759,0,0,4.25,1.562,14.8,3.691,10.481,2.113,9.186.761,9.186.761s15.722,33.382,37.044,36.607,50.056-6.189,55.181-37.791c0,0,41.575-5.879,52.849-10.248a1.569,1.569,0,0,0,.729-2.461c-5.027-6.3-23.773-30.711-25.559-46.62-2.061-18.387-1.43-45.077.117-52.373,0,0,31.355,11.149,41.347,13.125,0,0,38.167,39.589,54.112,50.36,0,0-5.462-8.1,5.507-13.6Z" transform="translate(-358.561 -55.166)"/><path class="c" d="M414.786,186.458c-1.6-.323-3.037-.631-4.356-.924l2.215-4.106,57.839-5.779,33.779,1.647,11.616,10.418a49.816,49.816,0,0,1-2.748,9.374c-.058.007-14.361,1.95-21,.608s-58.117,5.8-58.221,5.816a110.331,110.331,0,0,1-9.889-16.194C424.065,187.587,423.439,188.2,414.786,186.458Z" transform="translate(-396.909 38.081)"/><path class="q" d="M402.336,175.371a.493.493,0,0,1,.47-.351c2.785-.065,20.858-.568,27.691-2.794,7.412-2.414,15.263-1.97,15.664-1.565s12.736,5.348,13.473,7.356c.655,1.783,1.838,7.962.2,10.245a32.672,32.672,0,0,0-2.409,3.811l-1.286.128a34.841,34.841,0,0,1-2.6,4.174,7.262,7.262,0,0,0-1.008,1.562c-.783,1.59-2.151,4.211-2.719,4.269-.82.08-4.639.8-5.61.558-.8-.193-1.509-2.481-1.183-3.49a.423.423,0,0,0-.358-.576,56.534,56.534,0,0,0-13.131-.27c-8.04.7-19.4-4.264-20.434-4.722a.564.564,0,0,0-.167-.043L397.6,192.7a.49.49,0,0,1-.448-.623Z" transform="translate(-306.401 30.099)"/><path class="r" d="M458.009,145.537s9.648,33.563-.552,68.051c0,0-37.116-65.352-41.143-75.958s-5.488-18.137-1.724-21.945,37.294,15.864,37.294,15.864Z" transform="translate(-348.423 -52.825)"/><path class="s" d="M442.279,178.3s-7.067-20.423-5.836-27.015a74.994,74.994,0,0,1,2.987-11.307l-6.374-5.551-2.812,5.5s-14.035-9.719-14.966-11.527c0,0,11.3,7.318,14.852,8.415a10.158,10.158,0,0,1,3.9-3.513c2.226-.894,7.754,6.254,7.754,6.254l1.034,12.391,5.547,28.9-1.928,4.294Z" transform="translate(-342.254 -32.962)"/><path class="c" d="M429.442,127.833s1.339,13.187.183,14.121-5.486.994-7.494-.07-7.146-6.8-7.146-6.8S421.261,124.628,429.442,127.833Z" transform="translate(-323.207 -34.74)"/><path class="c" d="M413.99,132.138s-3.78,9.154-.154,21.808a174.33,174.33,0,0,1,5.014,24.409l5.515,9.757s6.878-19.1,4.618-38.275c-1.016-8.615-7.974-16.244-7.974-16.244Z" transform="translate(-315.331 -27.348)"/><path class="q" d="M473.261,126.021s1.7,8.162,1.088,9.709-2.8,2.586-2.268,5.769-1.414,12.691-2.419,15.861c0,0,.735,3.385-.271,4.434s-2.31,1.012-3.252,2.611-1.263,9.832-4.8,12.584-8.138,3.325-10.51,2.724a17.47,17.47,0,0,1-4.809-2.308L440.7,179.5s-27.6-7.376-26.739-25.686l.021-1.935a20.625,20.625,0,0,1-2.531-4.284c-.568-1.7-5.141-9.306-2.828-12.586,0,0-10.693-39.839,22.293-42.243S468.871,112.18,473.261,126.021Z" transform="translate(-346.338 -86.831)"/><path class="t" d="M417.72,121.884l0-.22a6.325,6.325,0,0,1,3.793-1.089c3.772.628,2.9-6.76,2.9-6.76s.7,1.339,2.629,10.784,22.731,20.879,22.731,20.879l-5.321,2.093S416.858,140.193,417.72,121.884Z" transform="translate(-350.095 -54.902)"/><path class="u" d="M474.735,112.178c3.228,6.465,4.77,14.231-1.976,19.441,0,0-5.666,1.46-16.441-3.265-7.263-3.185-14.521-1.775-18.481-.518a4.164,4.164,0,0,0-2.982,4.046l.162,5.671a3.589,3.589,0,0,1-2.313,3.4l-5.008,2.01-.992,5.518a2.824,2.824,0,0,1-3.716,2.053l-1.268-.428s-.745-12.273-11.47-11.647c0,0-8.687-17.726.212-33.938s33.291-15.055,38.49-13.217c6.844,2.421,5.892,2.063,9.815,4.351A40.281,40.281,0,0,1,474.735,112.178Z" transform="translate(-347.961 -90.285)"/><path class="c" d="M437.31,148.957s5,34.752,7.048,44.589L460.5,201.58l-28.665-1.65Z" transform="translate(-398.31 -2.057)"/><path class="v" d="M426.1,118.064a44.208,44.208,0,0,1-3.642-14.216,40.705,40.705,0,0,0,28.248,7.639l.162,5.671a3.589,3.589,0,0,1-2.313,3.4l-5.008,2.01-.992,5.518a2.824,2.824,0,0,1-3.716,2.053l-1.268-.428S436.827,117.438,426.1,118.064Z" transform="translate(-363.815 -69.889)"/><path class="c" d="M414.517,121.72s8.544,27.694,10.324,33.032l6.873-.686-1.239,8.763L467.5,208.89,426.39,164.351l1.629-7.807-6.242.623Z" transform="translate(-359.367 -43.014)"/><path class="w" d="M511.69,244.655s-86.827-2.669-89.045-4.159-2.61-22.574-2.4-34.792c.143-8.573.04-42.11,7.791-65.635-6.091,19.92-2.886,90.37-.125,93.953s85.358,5.653,85.358,5.653h0C512.374,242.6,511.69,244.655,511.69,244.655Z" transform="translate(-420.193 -15.422)"/><path class="q" d="M366.129,158.907s.326,2.066,4.1,4.089,13.438,6.522,15,7.817,8.536,7.071,8.74,7.829,2.295,7.3,2.279,7.694-.679,3.415-.679,3.415l2.149,9.659s2.722,3.746-.236,4.765-4.645-1.878-4.692-2.321a50.186,50.186,0,0,1-7.764-4.412c-3.284-2.406-16.465-12.414-18.7-11.8s-.178,4.2.9,4.817,8.061,7.061,5.136,11.537-4.836-2.529-6.767-3.953-6.109-7.033-8.669-7.724-7.215-9.712-7.826-13.743-3.658-6.625-4.751-7.929,2.356-11.317,2.356-11.317l13.046-3.833,4.576,2.8Z" transform="translate(-104.026 4.773)"/></g></g><g transform="translate(49.849 222.102)"><g class="x" transform="translate(0)"><path class="y" d="M432.908,135.734c2.729-4.071,3.982-1.064,7.642,2.291,4.945,4.529,11.152,11.555,14.354,20.428,5.831,16.154,3.738,56.527,1.785,62.3,0,0,54.372,8.4,58.136,8.25s-4.666,25.122-4.666,25.122-86.827-2.669-89.045-4.159-2.61-22.574-2.4-34.792C418.889,204.7,418.682,156.94,432.908,135.734Z" transform="translate(-408.529 -237.397)"/><path class="w" d="M511.69,244.655s-86.827-2.669-89.045-4.159-2.61-22.574-2.4-34.792c.143-8.573.04-42.11,7.791-65.635-6.091,19.92-2.886,90.37-.125,93.953s85.358,5.653,85.358,5.653h0C512.374,242.6,511.69,244.655,511.69,244.655Z" transform="translate(-410.06 -227.927)"/></g></g><path class="j" d="M429.235,182.887l.034.013c.175-1.808,1.417-3.515,3.8-4.815l1.533-.836c5.682-3.095,15.608-2.707,22.168.869l46.255,25.205c3.483,1.9,5.3,4.309,5.406,6.62l.021.01v7.6l-.013.005c.005,1.97-1.244,3.851-3.823,5.255l-1.533.836c-5.682,3.1-15.608,2.709-22.168-.866l-46.255-25.205c-3.372-1.838-5.186-4.159-5.4-6.4l-.032-.015Z" transform="translate(-379.385 46.942)"/><g transform="translate(49.849 222.102)"><path class="k" d="M503.086,216.239l1.533-.836c5.682-3.1,4.971-8.505-1.592-12.081l-46.255-25.205c-6.56-3.575-16.484-3.963-22.168-.869l-1.533.836c-5.682,3.1-4.971,8.505,1.592,12.081l46.255,25.205C487.478,218.946,497.4,219.336,503.086,216.239Z" transform="translate(-429.235 -175.16)"/></g><g transform="translate(0 101.257)"><path class="z" d="M426.438,426.029l387.689-211.2L662.13,132,274.442,343.2Z" transform="translate(-274.442 -119.211)"/><path class="aa" d="M814.127,159.975v12.791l-387.689,211.2-152-82.828V288.346l152,82.828Z" transform="translate(-274.442 -77.147)"/><path class="k" d="M426.438,420.92l387.689-211.2-152-82.828-387.689,211.2Z" transform="translate(-274.442 -126.894)"/><path class="ab" d="M426.438,370.26l386.49-210.545,1.2.653-387.689,211.2-152-82.828,1.2-.653Z" transform="translate(-274.442 -77.54)"/></g><path class="ac" d="M470.32,190.1s-10.876,3.66-19.187,2.354-48.308-2.046-48.308-2.046l6.287-3.425,14.025-9.219,34.763,2.213,13.407,4.537Z" transform="translate(-272.18 50.857)"/><path class="q" d="M402.336,175.371a.493.493,0,0,1,.47-.351c2.785-.065,20.858-.568,27.691-2.794,7.412-2.414,15.263-1.97,15.664-1.565s12.736,5.348,13.473,7.356c.655,1.783,1.838,7.962.2,10.245a32.672,32.672,0,0,0-2.409,3.811l-1.286.128a34.841,34.841,0,0,1-2.6,4.174,7.262,7.262,0,0,0-1.008,1.562c-.783,1.59-2.151,4.211-2.719,4.269-.82.08-4.639.8-5.61.558-.8-.193-1.509-2.481-1.183-3.49a.423.423,0,0,0-.358-.576,56.534,56.534,0,0,0-13.131-.27c-8.04.7-19.4-4.264-20.434-4.722a.564.564,0,0,0-.167-.043L397.6,192.7a.49.49,0,0,1-.448-.623Z" transform="translate(-246.419 39.697)"/><path class="ad" d="M432.908,135.734c2.729-4.071,3.982-1.064,7.642,2.291,4.945,4.529,11.152,11.555,14.354,20.428,5.831,16.154,3.738,56.527,1.785,62.3,0,0,54.372,8.4,58.136,8.25s-4.666,25.122-4.666,25.122-86.827-2.669-89.045-4.159-2.61-22.574-2.4-34.792C418.889,204.7,418.682,156.94,432.908,135.734Z" transform="translate(-358.68 -15.295)"/><path class="c" d="M511.69,244.655s-86.827-2.669-89.045-4.159-2.61-22.574-2.4-34.792c.143-8.573.04-42.11,7.791-65.635-6.091,19.92-2.886,90.37-.125,93.953s85.358,5.653,85.358,5.653h0C512.374,242.6,511.69,244.655,511.69,244.655Z" transform="translate(-360.21 -5.825)"/><path class="ac" d="M387.922,185.906s-31.042-22.894-35.48-25.11a30.805,30.805,0,0,1-6.308-3.9l10.393-5.663,17.571,6.82,22.139,20.708,34.076,22.8v5.3S402.2,195.47,399.055,193.523,387.922,185.906,387.922,185.906Z" transform="translate(-80.805 10.969)"/><path class="ae" d="M376.625,191.494s-6.611-5.576-10.881-7.439-11.051-6.808-11.881-10.591-7.892-12.156-7.892-12.156l11.314,6.162,16.383,8.931,27.27,14.93s-1.663,1.8-5.117.7-9.926-5-12.948-5.355-8.016-1.222-8.016-1.222Z" transform="translate(-50.995 26.115)"/><path class="q" d="M366.129,158.907s.326,2.066,4.1,4.089,13.438,6.522,15,7.817,8.536,7.071,8.74,7.829,2.295,7.3,2.279,7.694-.679,3.415-.679,3.415l2.149,9.659s2.722,3.746-.236,4.765-4.645-1.878-4.692-2.321a50.186,50.186,0,0,1-7.764-4.412c-3.284-2.406-16.465-12.414-18.7-11.8s-.178,4.2.9,4.817,8.061,7.061,5.136,11.537-4.836-2.529-6.767-3.953-6.109-7.033-8.669-7.724-7.215-9.712-7.826-13.743-3.658-6.625-4.751-7.929,2.356-11.317,2.356-11.317l13.046-3.833,4.576,2.8Z" transform="translate(-44.043 14.371)"/><g transform="translate(201.482 73.246)"><path class="ad" d="M359.308,148.147s.478-18.357-2.836-32.441a23.693,23.693,0,0,1,2.592,2.166c4.7,4.624,11.271,10.406,17.606,13.638,11.7,5.971,46.867,24.4,46.867,24.4l6.523,4.78c20.625,15.26,43.668,48.465,47.016,55.05-1.616-2.033-5.759-5.373-13.712-1.385-10.969,5.5-5.743,13.768-5.743,13.768C441.676,217.35,403.745,177.6,403.745,177.6c-9.364-1.85-37.482-11.758-40.986-13A41.694,41.694,0,0,1,359.308,148.147Z" transform="translate(-356.472 -115.706)"/></g></g><g transform="translate(176.352 130.296)"><g transform="translate(0 53.977)"><g transform="translate(0)"><path class="af" d="M551.7,201.387l-7.534,3.713-75.532-41.159a5.764,5.764,0,0,0-4.929.193L333.429,235.123c-1.247-.656-6.931-3.237-6.931-3.237l2.759,6.78.011-.008a1.587,1.587,0,0,0,.772.809l79.548,43.35a5.779,5.779,0,0,0,4.931-.193l133.31-72.646a2.29,2.29,0,0,0,1.117-1.122l.011,0Z" transform="translate(-326.452 -154.899)"/><path class="ag" d="M550.551,207.708,413.925,282.159a5.9,5.9,0,0,1-5.051.2l-81.53-44.426c-1.295-.706-1.133-1.94.363-2.754l136.623-74.451a5.91,5.91,0,0,1,5.053-.2l81.53,44.429C552.209,205.66,552.047,206.894,550.551,207.708Z" transform="translate(-326.471 -160.051)"/><path class="ab" d="M550.543,179.495,413.918,253.946a5.9,5.9,0,0,1-5.051.2l-81.53-44.426a1.607,1.607,0,0,1-.791-.834c-.207.581.04,1.167.791,1.577l81.53,44.426a5.9,5.9,0,0,0,5.051-.2l136.626-74.451c1.005-.548,1.393-1.282,1.154-1.92A2.319,2.319,0,0,1,550.543,179.495Z" transform="translate(-326.463 -132.581)"/><g transform="translate(46.404 25.8)"><path class="ah" d="M335.062,232.535,448.6,170.665a2.568,2.568,0,0,1,2.446,0l40.429,22.078a.8.8,0,0,1,0,1.425L377.99,256.007a2.563,2.563,0,0,1-2.443,0l-40.485-22.048A.8.8,0,0,1,335.062,232.535Z" transform="translate(-334.626 -170.355)"/><path class="ai" d="M335.062,233.959l.406.22L448.6,172.533a2.568,2.568,0,0,1,2.446,0l40.024,21.858.406-.223a.8.8,0,0,0,0-1.425l-40.429-22.078a2.568,2.568,0,0,0-2.446,0l-113.534,61.87A.8.8,0,0,0,335.062,233.959Z" transform="translate(-334.626 -170.355)"/><g transform="translate(6.118 3.513)"><path class="c" d="M458.645,174.148l-104.58,56.989-5.185-1.954L454.26,171.758Z" transform="translate(-345.295 -171.758)"/><path class="c" d="M441.716,176.488l-92.5,50.408-4.385-2.39,92.5-50.408Z" transform="translate(-317.615 -168.24)"/><path class="c" d="M455.485,178.011l-108.912,59.35-4.385-2.39L451.1,175.622Z" transform="translate(-324.383 -165.948)"/><path class="c" d="M452.845,179.535,343.934,238.885l-4.385-2.39L448.46,177.146Z" transform="translate(-314.742 -163.657)"/><path class="c" d="M450.206,181.059,341.294,240.409l-4.385-2.39L445.821,178.67Z" transform="translate(-305.1 -161.365)"/><path class="c" d="M397.075,196.909l-4.385,2.39-4.385-2.39,4.385-2.39Z" transform="translate(-388.305 -137.531)"/><path class="c" d="M403.861,195.514l-21.782,11.869-4.385-2.39,21.939-11.956Z" transform="translate(-366.944 -139.758)"/></g></g><g transform="translate(61.094 29.313)"><path class="aj" d="M392.8,202.7l30.614-16.682c1.2-.653,1.2-1.71,0-2.361L402.48,172.248a5.031,5.031,0,0,0-4.332,0l-30.614,16.68c-1.2.653-1.2,1.71,0,2.361L388.469,202.7A5.048,5.048,0,0,0,392.8,202.7Z" transform="translate(-366.637 -171.758)"/><path class="ai" d="M367.525,189.895l30.615-16.682a5.048,5.048,0,0,1,4.332,0l20.935,11.41a1.824,1.824,0,0,1,.751.7c.318-.571.077-1.212-.751-1.663l-20.935-11.407a5.031,5.031,0,0,0-4.332,0l-30.615,16.68c-.825.451-1.066,1.094-.751,1.665A1.828,1.828,0,0,1,367.525,189.895Z" transform="translate(-366.628 -171.758)"/></g></g></g><g transform="translate(65.605)"><path class="ak" d="M485.992,237.047,468.72,140.335l1.39-.551-2.088-1.129,0,.01a1.581,1.581,0,0,0-1.607.105L328.391,213.987a3.613,3.613,0,0,0-1.793,3.307L344,314.775a1.229,1.229,0,0,0,.729.992l0,0,2.043,1.112.35-1.8-.117.033L484.2,240.357A3.619,3.619,0,0,0,485.992,237.047Z" transform="translate(-326.569 -138.492)"/><path class="al" d="M378.947,170.271l-2.271-.949a2.8,2.8,0,0,0-.292,1.612l17.407,97.48a1.229,1.229,0,0,0,.729.992l0,0,2.042,1.112.35-1.8-.117.033,6.942-3.783Z" transform="translate(-376.356 -92.132)"/><path class="p" d="M483.385,240.828,345.356,316.042c-1.066.581-1.979.245-2.165-.8l-17.409-97.478a3.622,3.622,0,0,1,1.793-3.31L465.6,139.241c1.066-.581,1.979-.245,2.167.8l17.407,97.48A3.622,3.622,0,0,1,483.385,240.828Z" transform="translate(-323.588 -137.791)"/></g></g></g><g transform="translate(515.869 403.629)"><g class="am" transform="translate(0 86.826)"><path class="b" d="M318.668,260.033,337.08,250l-4.015-2.188-18.412,10.033Z" transform="translate(-188.545 -247.812)"/><path class="b" d="M328.062,260.439l9.206-5.016-4.015-2.188-9.206,5.017Z" transform="translate(-213.651 -239.656)"/><path class="b" d="M321.152,259.806,329,255.531l-4.014-2.188-7.845,4.275Z" transform="translate(-187.048 -239.494)"/><path class="b" d="M325.592,263.111l9.206-5.016-4.015-2.188-9.206,5.017Z" transform="translate(-204.628 -235.639)"/><path class="b" d="M317.6,277.294,353.78,257.58l-4.014-2.188-36.178,19.714Z" transform="translate(-202.419 -236.413)"/><path class="b" d="M278.683,292.877l36.178-19.714-4.014-2.187-36.178,19.714Z" transform="translate(-60.259 -212.981)"/><path class="b" d="M294.1,287.078l9.206-5.017-4.015-2.187-9.206,5.017Z" transform="translate(-89.584 -199.6)"/><path class="b" d="M314.054,263.9l7.844-4.275-4.014-2.188-7.845,4.275Z" transform="translate(-161.124 -233.333)"/><path class="b" d="M318.495,267.209l9.206-5.017L323.686,260l-9.206,5.016Z" transform="translate(-178.704 -229.478)"/><path class="b" d="M310.505,272.515l19.889-10.838-4.015-2.188-19.888,10.838Z" transform="translate(-160.206 -230.252)"/><path class="b" d="M319.551,271.916l9.206-5.017-4.015-2.187-9.206,5.016Z" transform="translate(-182.565 -222.398)"/><path class="b" d="M324.6,274.829l9.206-5.017-4.014-2.188-9.206,5.017Z" transform="translate(-200.992 -218.019)"/><path class="b" d="M329.641,282.217l17.42-9.492-4.014-2.188-17.42,9.493Z" transform="translate(-227.632 -213.639)"/><path class="b" d="M321.7,281.354l9.206-5.016L326.9,274.15l-9.206,5.017Z" transform="translate(-190.429 -208.206)"/><path class="b" d="M326.749,288.743l17.42-9.493-4.015-2.187-17.42,9.493Z" transform="translate(-217.069 -203.826)"/><path class="b" d="M303.408,270.791l9.206-5.017-4.015-2.187-9.206,5.017Z" transform="translate(-123.6 -224.09)"/><path class="b" d="M308.453,273.7l9.206-5.017-4.015-2.188-9.206,5.016Z" transform="translate(-142.027 -219.71)"/><path class="b" d="M313.5,281.093l17.42-9.493-4.015-2.188L309.483,278.9Z" transform="translate(-168.667 -215.331)"/><path class="b" d="M330.18,282.15l9.206-5.017-4.015-2.187-9.206,5.017Z" transform="translate(-221.388 -207.009)"/><path class="b" d="M335.225,285.063l9.206-5.017-4.014-2.187-9.206,5.016Z" transform="translate(-239.815 -202.629)"/><path class="b" d="M340.269,292.452l17.42-9.493-4.015-2.188-17.42,9.492Z" transform="translate(-266.456 -198.249)"/><path class="b" d="M299.525,290.212l9.206-5.017-4.015-2.187-9.206,5.016Z" transform="translate(-109.416 -194.886)"/><path class="b" d="M304.57,297.6l17.42-9.493-4.014-2.188-17.42,9.493Z" transform="translate(-136.057 -190.506)"/><path class="b" d="M296.311,274.889l9.206-5.017-4.014-2.188L292.3,272.7Z" transform="translate(-97.676 -217.928)"/><path class="b" d="M301.356,282.277l17.42-9.493-4.014-2.187-17.42,9.492Z" transform="translate(-124.317 -213.549)"/><path class="b" d="M300.387,294.808l9.206-5.017-4.015-2.187-9.206,5.016Z" transform="translate(-112.566 -187.976)"/><path class="b" d="M305.432,302.2l17.42-9.493-4.014-2.187-17.42,9.492Z" transform="translate(-139.207 -183.596)"/><path class="b" d="M338.145,274.456l9.206-5.017-4.015-2.188-9.206,5.016Z" transform="translate(-250.481 -218.579)"/><path class="b" d="M332.9,271.427l9.206-5.017-4.015-2.188-9.206,5.017Z" transform="translate(-231.316 -223.134)"/><path class="b" d="M343.19,281.845l17.419-9.493-4.014-2.187-17.42,9.492Z" transform="translate(-277.122 -214.199)"/><path class="b" d="M306.957,268.252l8.306-4.526-4.015-2.188-8.306,4.526Z" transform="translate(-135.662 -227.171)"/><path class="b" d="M311.763,277.5l20.188-11-4.015-2.187-20.188,11Z" transform="translate(-165.098 -222.999)"/><path class="b" d="M321.047,282.863l20.188-11-4.015-2.188-20.188,11Z" transform="translate(-199.012 -214.938)"/><path class="b" d="M351.448,281.646l8.306-4.526-4.014-2.188-8.306,4.526Z" transform="translate(-298.174 -207.029)"/><path class="b" d="M356.254,290.9l20.189-11-4.015-2.188-20.189,11Z" transform="translate(-327.609 -202.857)"/><path class="b" d="M365.539,296.257l20.189-11-4.015-2.187-20.188,11Z" transform="translate(-361.524 -194.796)"/><path class="b" d="M299.927,278.864l20.188-11-4.015-2.188-20.189,11Z" transform="translate(-121.867 -220.951)"/><path class="b" d="M309.212,276.6l6.2-3.379-4.014-2.188-6.2,3.379Z" transform="translate(-141.794 -212.89)"/><path class="b" d="M313.233,278.924l6.2-3.379-4.015-2.188-6.2,3.379Z" transform="translate(-156.48 -209.399)"/><path class="b" d="M317.253,286.178l15.254-8.312-4.014-2.188-15.254,8.312Z" transform="translate(-180.219 -205.909)"/><path class="b" d="M318.816,287.08l15.254-8.312-4.015-2.188L314.8,284.892Z" transform="translate(-185.925 -204.552)"/><path class="b" d="M337.752,280.787l6.2-3.379-4.015-2.188-6.2,3.379Z" transform="translate(-246.039 -206.597)"/><path class="b" d="M341.772,288.041l15.254-8.312-4.014-2.188-15.254,8.312Z" transform="translate(-269.778 -203.107)"/><path class="b" d="M343.334,288.943l15.254-8.312-4.015-2.188-15.254,8.312Z" transform="translate(-275.485 -201.75)"/><path class="b" d="M283.876,295.194l19.889-10.838-4.014-2.188-19.888,10.838Z" transform="translate(-62.938 -196.149)"/><path class="b" d="M292.922,294.6l9.206-5.017-4.015-2.187-9.206,5.016Z" transform="translate(-85.297 -188.296)"/><path class="b" d="M297.967,297.508l9.206-5.017-4.015-2.187-9.206,5.016Z" transform="translate(-103.723 -183.916)"/><path class="b" d="M303.012,304.9l17.42-9.492-4.014-2.188L299,302.709Z" transform="translate(-130.364 -179.536)"/><path class="b" d="M311.316,305.215l9.206-5.017-4.015-2.187-9.206,5.016Z" transform="translate(-152.483 -172.326)"/><path class="b" d="M316.36,312.6l17.42-9.493-4.015-2.188-17.42,9.492Z" transform="translate(-179.124 -167.947)"/><path class="b" d="M288.647,300.322l9.206-5.016-4.015-2.188-9.206,5.017Z" transform="translate(-69.681 -179.684)"/><path class="b" d="M293.692,307.711l17.42-9.492L307.1,296.03l-17.419,9.493Z" transform="translate(-96.322 -175.304)"/><path class="b" d="M270.521,289.857l9.206-5.017-4.015-2.188-9.206,5.017Z" transform="translate(-3.472 -195.42)"/><path class="b" d="M275.565,292.77l9.206-5.016-4.015-2.188-9.206,5.017Z" transform="translate(-21.899 -191.041)"/><path class="b" d="M280.61,300.158l17.42-9.492-4.014-2.188L276.6,297.97Z" transform="translate(-48.54 -186.661)"/><path class="b" d="M280.327,290.931l8.306-4.526-4.015-2.188-8.306,4.526Z" transform="translate(-38.394 -193.068)"/><path class="b" d="M285.133,300.181l20.188-11-4.015-2.188-20.188,11Z" transform="translate(-67.829 -188.896)"/><path class="b" d="M294.418,305.541l20.188-11-4.015-2.188-20.188,11Z" transform="translate(-101.744 -180.835)"/><path class="b" d="M260.9,294.385l20.188-11-4.015-2.188-20.188,11Z" transform="translate(20.683 -197.611)"/><path class="b" d="M270.186,292.124l6.2-3.379-4.015-2.187-6.2,3.379Z" transform="translate(0.756 -189.549)"/><path class="b" d="M274.207,294.445l6.2-3.379-4.015-2.188-6.2,3.379Z" transform="translate(-13.93 -186.059)"/><path class="b" d="M278.227,301.7l15.254-8.312-4.014-2.188-15.254,8.312Z" transform="translate(-37.669 -182.568)"/><path class="b" d="M279.789,302.6l15.254-8.312-4.014-2.188-15.254,8.312Z" transform="translate(-43.375 -181.212)"/><path class="b" d="M281.273,282.134l6.2-3.379-4.015-2.187-6.2,3.379Z" transform="translate(-39.742 -204.571)"/><path class="b" d="M285.294,289.389l15.254-8.312-4.015-2.188L281.279,287.2Z" transform="translate(-63.48 -201.08)"/><path class="b" d="M292.888,293.774l15.254-8.312-4.015-2.188-15.254,8.312Z" transform="translate(-91.22 -194.487)"/><path class="b" d="M318.6,313.517,327.8,308.5l-4.015-2.188-9.206,5.017Z" transform="translate(-179.081 -159.843)"/><path class="b" d="M323.642,320.9l17.42-9.493-4.014-2.187-17.42,9.493Z" transform="translate(-205.722 -155.463)"/><path class="b" d="M303.5,308.1l15.254-8.312-4.015-2.188-15.254,8.312Z" transform="translate(-129.995 -172.947)"/><path class="b" d="M311.1,312.482l15.254-8.312-4.015-2.187-15.254,8.312Z" transform="translate(-157.735 -166.354)"/><path class="b" d="M286.8,271.856l6.2-3.379-4.015-2.187-6.2,3.379Z" transform="translate(-59.923 -220.026)"/><path class="b" d="M290.819,279.111l15.254-8.312-4.014-2.188L286.8,276.923Z" transform="translate(-83.662 -216.535)"/><path class="b" d="M298.413,283.5l15.254-8.312L309.652,273,294.4,281.308Z" transform="translate(-111.401 -209.942)"/></g><path class="b" d="M256.708,288.668a14.079,14.079,0,0,0,6.573-1.427l16.041-8.743c1.8-.979,2.788-2.358,2.788-3.883,0-1.8-1.4-3.6-3.828-4.92l-47.727-26.011c-4.438-2.419-11.194-2.674-15.054-.566l-16.043,8.743c-1.8.976-2.785,2.356-2.785,3.883,0,1.8,1.4,3.6,3.828,4.92l47.73,26.009A18.227,18.227,0,0,0,256.708,288.668ZM222.072,242.72A17.106,17.106,0,0,1,230,244.588L277.728,270.6c2.08,1.134,3.273,2.6,3.273,4.016,0,1.137-.793,2.2-2.234,2.979l-16.041,8.741c-3.555,1.933-9.81,1.682-13.942-.566l-47.73-26.009c-2.082-1.134-3.273-2.6-3.273-4.016,0-1.139.793-2.193,2.231-2.979l16.043-8.743A12.872,12.872,0,0,1,222.072,242.72Z" transform="translate(179.389 -170.193)"/><path class="b" d="M275.058,319.669a14.034,14.034,0,0,0,6.573-1.427l53.491-29.148c1.8-.979,2.788-2.358,2.788-3.886,0-1.8-1.4-3.6-3.828-4.917l-47.73-26.011c-4.44-2.416-11.192-2.676-15.054-.568l-53.491,29.151c-1.8.976-2.785,2.356-2.785,3.883,0,1.8,1.4,3.6,3.828,4.92l47.73,26.009A18.242,18.242,0,0,0,275.058,319.669Zm2.815-66.354a17.087,17.087,0,0,1,7.926,1.868l47.729,26.011c2.077,1.134,3.273,2.6,3.273,4.013,0,1.137-.793,2.2-2.234,2.982l-53.491,29.146c-3.555,1.94-9.812,1.688-13.942-.566l-47.73-26.009c-2.08-1.134-3.273-2.6-3.273-4.016,0-1.134.793-2.193,2.231-2.979l53.491-29.148A12.883,12.883,0,0,1,277.873,253.315Z" transform="translate(74.912 -154.261)"/><path class="b" d="M338.754,335.335a14.774,14.774,0,0,0,6.9-1.495l101.467-55.292c1.881-1.026,2.915-2.469,2.915-4.066,0-1.885-1.459-3.763-4.008-5.153l-99.276-54.1c-4.655-2.539-11.746-2.809-15.807-.6l-101.47,55.295c-1.881,1.024-2.915,2.469-2.915,4.061,0,1.888,1.462,3.766,4.011,5.155l99.276,54.1A19.17,19.17,0,0,0,338.754,335.335Zm6.348-2.4c-3.748,2.038-10.345,1.775-14.7-.6l-99.276-54.1c-2.2-1.2-3.459-2.744-3.459-4.249,0-1.2.841-2.323,2.364-3.157L331.5,215.539c3.748-2.046,10.34-1.773,14.7.6l99.276,54.1c2.2,1.2,3.456,2.747,3.456,4.249,0,1.207-.841,2.328-2.364,3.16Z" transform="translate(-67.826 -213.133)"/></g></g></svg>