<svg xmlns="http://www.w3.org/2000/svg" width="100" height="100" viewBox="0 0 100 100"><defs><style>.a{fill:#f2f9ff;}.b{fill:#28b2fc;}</style></defs><g transform="translate(-478 -4663)"><circle class="a" cx="50" cy="50" r="50" transform="translate(478 4663)"/><g transform="translate(458.909 4689)"><g transform="translate(51.091 10.949)"><g transform="translate(0)"><path class="b" d="M78.719,153.61H52.477V119.423a.693.693,0,0,0-1.386,0v34.418A1.156,1.156,0,0,0,52.246,155H78.719a.693.693,0,0,0,0-1.386Z" transform="translate(-51.091 -118.73)"/></g></g><g transform="translate(51.091)"><g transform="translate(0)"><path class="b" d="M86.559,6.266,81,.21A.636.636,0,0,0,80.533,0H52.181a1.125,1.125,0,0,0-1.09,1.155V6.56a.655.655,0,1,0,1.308,0V1.386H80.257l5.179,5.645v38.8H81.731a.694.694,0,0,0,0,1.386h3.923a1.125,1.125,0,0,0,1.09-1.155V6.749A.715.715,0,0,0,86.559,6.266Z" transform="translate(-51.091 0)"/></g></g><g transform="translate(79.467 0)"><path class="b" d="M389.084,6.267,383.194.21A.693.693,0,0,0,382,.694V6.75a.693.693,0,0,0,.693.693h5.89a.693.693,0,0,0,.5-1.176Zm-5.694-.21V2.4l3.557,3.657H383.39Z" transform="translate(-382.004 -0.001)"/></g><g transform="translate(55.342 3.679)"><path class="b" d="M115.041,39.9h-16.7a1.156,1.156,0,0,0-1.155,1.155v3.83a1.156,1.156,0,0,0,1.155,1.155h16.7a1.156,1.156,0,0,0,1.155-1.155v-3.83A1.156,1.156,0,0,0,115.041,39.9Zm-.231,4.754H98.575V41.285H114.81Z" transform="translate(-97.189 -39.899)"/></g><g transform="translate(56.162 13.305)"><path class="b" d="M112.181,144.421a.693.693,0,0,0-.971.132l-3.062,4.029-.92-.8a.693.693,0,0,0-.913,1.043l1.478,1.294a.694.694,0,0,0,.456.171c.023,0,.047,0,.07,0a.693.693,0,0,0,.482-.27l3.511-4.62A.693.693,0,0,0,112.181,144.421Z" transform="translate(-106.079 -144.28)"/></g><g transform="translate(62.833 13.305)"><g transform="translate(0)"><path class="b" d="M219.768,144.277H202.314a.693.693,0,1,0,0,1.386h17.454a.693.693,0,1,0,0-1.386Z" transform="translate(-201.621 -144.277)"/></g></g><g transform="translate(63.788 15.615)"><g transform="translate(0)"><path class="b" d="M213.646,169.326H202.314a.693.693,0,1,0,0,1.386h11.332a.693.693,0,1,0,0-1.386Z" transform="translate(-201.621 -169.326)"/></g></g><g transform="translate(63.652 17.925)"><g transform="translate(0)"><path class="b" d="M216.233,194.376H202.314a.693.693,0,0,0,0,1.386h13.919a.693.693,0,0,0,0-1.386Z" transform="translate(-201.621 -194.376)"/></g></g><g transform="translate(56.162 22.73)"><path class="b" d="M112.181,246.623a.693.693,0,0,0-.971.132l-3.062,4.029-.92-.8a.693.693,0,0,0-.913,1.043l1.478,1.294a.694.694,0,0,0,.456.171c.023,0,.047,0,.07,0a.693.693,0,0,0,.482-.27l3.511-4.62A.693.693,0,0,0,112.181,246.623Z" transform="translate(-106.079 -246.482)"/></g><g transform="translate(62.833 22.73)"><g transform="translate(0)"><path class="b" d="M219.768,246.481H202.314a.693.693,0,1,0,0,1.386h17.454a.693.693,0,1,0,0-1.386Z" transform="translate(-201.621 -246.481)"/></g></g><g transform="translate(63.788 25.039)"><g transform="translate(0)"><path class="b" d="M213.646,271.53H202.314a.693.693,0,1,0,0,1.386h11.332a.693.693,0,1,0,0-1.386Z" transform="translate(-201.621 -271.53)"/></g></g><g transform="translate(63.652 27.349)"><g transform="translate(0)"><path class="b" d="M216.233,296.579H202.314a.693.693,0,0,0,0,1.386h13.919a.693.693,0,0,0,0-1.386Z" transform="translate(-201.621 -296.579)"/></g></g><g transform="translate(62.833 32.154)"><g transform="translate(0)"><path class="b" d="M219.768,348.685H202.314a.693.693,0,1,0,0,1.386h17.454a.693.693,0,1,0,0-1.386Z" transform="translate(-201.621 -348.685)"/></g></g><g transform="translate(63.788 34.464)"><g transform="translate(0)"><path class="b" d="M213.646,373.734H202.314a.693.693,0,1,0,0,1.386h11.332a.693.693,0,0,0,0-1.386Z" transform="translate(-201.621 -373.734)"/></g></g><g transform="translate(63.652 36.774)"><g transform="translate(0)"><path class="b" d="M216.233,398.783H202.314a.693.693,0,0,0,0,1.386h13.919a.693.693,0,0,0,0-1.386Z" transform="translate(-201.621 -398.783)"/></g></g><g transform="translate(56.162 32.154)"><g transform="translate(0)"><path class="b" d="M110.928,348.685h-3.7a1.156,1.156,0,0,0-1.155,1.155v3.7a1.156,1.156,0,0,0,1.155,1.155h3.7a1.156,1.156,0,0,0,1.155-1.155v-3.7A1.156,1.156,0,0,0,110.928,348.685Zm-.231,4.62h-3.234v-3.234H110.7Z" transform="translate(-106.077 -348.685)"/></g></g></g></g></svg>