<svg xmlns="http://www.w3.org/2000/svg" width="60" height="60" viewBox="0 0 60 60">
  <g id="_003-rank" data-name="003-rank" transform="translate(0 -0.099)">
    <g id="Grupo_35" data-name="Grupo 35" transform="translate(3.999 12.086)">
      <g id="Grupo_34" data-name="Grupo 34">
        <rect id="Rectángulo_298" data-name="Rectángulo 298" width="2" height="2" fill="#8c0baa"/>
      </g>
    </g>
    <g id="Grupo_37" data-name="Grupo 37" transform="translate(7.999 12.086)">
      <g id="Grupo_36" data-name="Grupo 36">
        <rect id="Rectángulo_299" data-name="Rectángulo 299" width="2" height="2" fill="#8c0baa"/>
      </g>
    </g>
    <g id="Grupo_39" data-name="Grupo 39" transform="translate(11.998 12.086)">
      <g id="Grupo_38" data-name="Grupo 38">
        <rect id="Rectángulo_300" data-name="Rectángulo 300" width="2" height="2" fill="#8c0baa"/>
      </g>
    </g>
    <g id="Grupo_41" data-name="Grupo 41" transform="translate(0 0.099)">
      <g id="Grupo_40" data-name="Grupo 40">
        <path id="Trazado_184" data-name="Trazado 184" d="M59.806,13.494a1,1,0,0,0-.214-.214l-4.2-3.089.784-5.149A1,1,0,0,0,55.038,3.9l-5.15.781L46.8.482a1.039,1.039,0,0,0-1.612,0L42.1,4.683,36.953,3.9a1,1,0,0,0-1.139,1.139l.463,3.046H4a4,4,0,0,0-4,4V56.1a4,4,0,0,0,4,4H51.993a4,4,0,0,0,4-4V23.861a1,1,0,0,0,.181-.73l-.781-5.149,4.2-3.089A1,1,0,0,0,59.806,13.494ZM2,12.086a2,2,0,0,1,2-2H36.581l.017.106L32.4,13.28a1,1,0,0,0,0,1.612l1.627,1.194H2ZM53.993,56.1a2,2,0,0,1-2,2H4a2,2,0,0,1-2-2V18.087H36.581l-.767,5.043a1,1,0,0,0,1.139,1.139l3.042-.463V35.092a1,1,0,0,0,1.625.781l4.374-3.5,4.374,3.5a1,1,0,0,0,1.625-.78V23.807l2,.3Zm-12-23.087V23.5l.106-.017,3.088,4.2a1,1,0,0,0,1.612,0l3.088-4.2.106.017v9.5l-3.375-2.7a1,1,0,0,0-1.25,0ZM53.718,16.728a1,1,0,0,0-.4.956l.675,4.4-4.4-.67a1,1,0,0,0-.956.4L45.994,25.4l-2.641-3.588a1,1,0,0,0-.8-.408.953.953,0,0,0-.151.012l-4.407.671.67-4.4a1,1,0,0,0-.4-.956l-3.582-2.645,3.587-2.642a1,1,0,0,0,.4-.956l-.675-4.4,4.4.67a1,1,0,0,0,.956-.4l2.644-3.583,2.641,3.588a1,1,0,0,0,.956.4l4.4-.675-.67,4.4a1,1,0,0,0,.4.956L57.3,14.086Z" transform="translate(0 -0.099)" fill="#8c0baa"/>
      </g>
    </g>
    <g id="Grupo_43" data-name="Grupo 43" transform="translate(44.994 13.086)">
      <g id="Grupo_42" data-name="Grupo 42">
        <rect id="Rectángulo_301" data-name="Rectángulo 301" width="2" height="2" fill="#8c0baa"/>
      </g>
    </g>
    <g id="Grupo_45" data-name="Grupo 45" transform="translate(39.995 8.081)">
      <g id="Grupo_44" data-name="Grupo 44">
        <path id="Trazado_185" data-name="Trazado 185" d="M326,63.966a6,6,0,1,0,6,6A6,6,0,0,0,326,63.966Zm0,10a4,4,0,1,1,4-4A4,4,0,0,1,326,73.965Z" transform="translate(-320 -63.966)" fill="#8c0baa"/>
      </g>
    </g>
    <g id="Grupo_47" data-name="Grupo 47" transform="translate(4.999 31.103)">
      <g id="Grupo_46" data-name="Grupo 46">
        <path id="Trazado_186" data-name="Trazado 186" d="M69,269.963v-21a1,1,0,0,0-1-1H63a1,1,0,0,0-1,1v21H59v-16a1,1,0,0,0-1-1H53a1,1,0,0,0-1,1v16H49v-11a1,1,0,0,0-1-1H43a1,1,0,0,0-1,1v11H40v2H71v-2Zm-22,0H44v-10h3Zm10,0H54v-15h3Zm10,0H64v-20h3Z" transform="translate(-40 -247.966)" fill="#8c0baa"/>
      </g>
    </g>
    <g id="Grupo_49" data-name="Grupo 49" transform="translate(8.999 21.088)">
      <g id="Grupo_48" data-name="Grupo 48">
        <rect id="Rectángulo_302" data-name="Rectángulo 302" width="2" height="2" fill="#8c0baa"/>
      </g>
    </g>
    <g id="Grupo_51" data-name="Grupo 51" transform="translate(12.998 21.088)">
      <g id="Grupo_50" data-name="Grupo 50">
        <rect id="Rectángulo_303" data-name="Rectángulo 303" width="19.997" height="2" fill="#8c0baa"/>
      </g>
    </g>
    <g id="Grupo_53" data-name="Grupo 53" transform="translate(4.999 25.089)">
      <g id="Grupo_52" data-name="Grupo 52">
        <rect id="Rectángulo_304" data-name="Rectángulo 304" width="27.996" height="2" fill="#8c0baa"/>
      </g>
    </g>
    <g id="Grupo_55" data-name="Grupo 55" transform="translate(4.999 29.091)">
      <g id="Grupo_54" data-name="Grupo 54">
        <rect id="Rectángulo_305" data-name="Rectángulo 305" width="18.997" height="2" fill="#8c0baa"/>
      </g>
    </g>
    <g id="Grupo_57" data-name="Grupo 57" transform="translate(38.995 41.094)">
      <g id="Grupo_56" data-name="Grupo 56">
        <rect id="Rectángulo_306" data-name="Rectángulo 306" width="2" height="2" fill="#8c0baa"/>
      </g>
    </g>
    <g id="Grupo_59" data-name="Grupo 59" transform="translate(42.994 41.094)">
      <g id="Grupo_58" data-name="Grupo 58">
        <rect id="Rectángulo_307" data-name="Rectángulo 307" width="7.999" height="2" fill="#8c0baa"/>
      </g>
    </g>
    <g id="Grupo_61" data-name="Grupo 61" transform="translate(38.995 45.095)">
      <g id="Grupo_60" data-name="Grupo 60">
        <rect id="Rectángulo_308" data-name="Rectángulo 308" width="11.998" height="2" fill="#8c0baa"/>
      </g>
    </g>
    <g id="Grupo_63" data-name="Grupo 63" transform="translate(38.995 49.1)">
      <g id="Grupo_62" data-name="Grupo 62">
        <rect id="Rectángulo_309" data-name="Rectángulo 309" width="11.998" height="2" fill="#8c0baa"/>
      </g>
    </g>
    <g id="Grupo_65" data-name="Grupo 65" transform="translate(38.995 53.1)">
      <g id="Grupo_64" data-name="Grupo 64">
        <rect id="Rectángulo_310" data-name="Rectángulo 310" width="11.998" height="2" fill="#8c0baa"/>
      </g>
    </g>
  </g>
</svg>
