<?xml version="1.0" encoding="utf-8"?>
<!-- Generator: Adobe Illustrator 16.0.0, SVG Export Plug-In . SVG Version: 6.00 Build 0)  -->
<!DOCTYPE svg PUBLIC "-//W3C//DTD SVG 1.1//EN" "http://www.w3.org/Graphics/SVG/1.1/DTD/svg11.dtd">
<svg version="1.1" xmlns="http://www.w3.org/2000/svg" xmlns:xlink="http://www.w3.org/1999/xlink" x="0px" y="0px" width="30px"
	 height="30px" viewBox="0 0 30 30" enable-background="new 0 0 30 30" xml:space="preserve">
<g id="Layer_2">
	<path d="M15,0C6.716,0,0,6.715,0,15c0,8.283,6.716,15,15,15s15-6.717,15-15C30,6.715,23.284,0,15,0z M9.92,23.894H5.931V11.892
		H9.92V23.894z M7.926,10.253H7.9c-1.338,0-2.204-0.921-2.204-2.074c0-1.178,0.892-2.073,2.257-2.073
		c1.364,0,2.204,0.896,2.23,2.073C10.183,9.332,9.317,10.253,7.926,10.253z M24.305,23.894h-3.99v-6.42
		c0-1.613-0.576-2.714-2.02-2.714c-1.102,0-1.758,0.743-2.047,1.459c-0.105,0.256-0.131,0.614-0.131,0.974v6.701h-3.99
		c0,0,0.053-10.875,0.001-12.001h3.989v1.7c0.53-0.818,1.477-1.981,3.596-1.981c2.623,0,4.592,1.715,4.592,5.401V23.894z"/>
</g>
<g id="Layer_3" display="none">
	<g display="inline">
		<path d="M18.791,6.948h-7.582c-2.209,0-4.007,1.798-4.007,4.007v8.088c0,2.211,1.797,4.009,4.007,4.009h7.582
			c2.208,0,4.007-1.798,4.007-4.009v-8.088C22.798,8.746,20.999,6.948,18.791,6.948z M18.528,18.515
			c-0.941,0.948-2.194,1.473-3.529,1.473c-2.764,0-5.013-2.25-5.013-5.014c0-1.319,0.505-2.569,1.421-3.52
			c0.929-0.964,2.164-1.495,3.476-1.495c0.046,0,0.094,0.001,0.142,0.003c1.56,0.045,2.855,0.571,3.744,1.521
			c0.845,0.899,1.273,2.113,1.243,3.509C19.983,16.328,19.456,17.579,18.528,18.515z M20.134,10.989
			c-0.646,0-1.169-0.523-1.169-1.17c0-0.646,0.523-1.168,1.169-1.168s1.17,0.522,1.17,1.168
			C21.304,10.466,20.779,10.989,20.134,10.989z"/>
		<path d="M14.975,11.649c-0.03,0-0.061-0.001-0.091-0.001c-0.85,0-1.652,0.347-2.262,0.978c-0.61,0.634-0.945,1.468-0.945,2.348
			c0,1.833,1.49,3.323,3.322,3.323c1.823,0,3.284-1.468,3.325-3.343c0.02-0.943-0.251-1.745-0.786-2.316
			C16.963,12.023,16.076,11.683,14.975,11.649z"/>
		<path d="M15,0C6.716,0,0,6.715,0,15c0,8.283,6.716,15,15,15s15-6.717,15-15C30,6.715,23.284,0,15,0z M24.18,19.043
			c0,2.973-2.417,5.391-5.389,5.391h-7.582c-2.972,0-5.389-2.418-5.389-5.391v-8.088c0-2.972,2.417-5.389,5.389-5.389h7.582
			c2.972,0,5.389,2.417,5.389,5.389V19.043z"/>
	</g>
</g>
</svg>
