<?xml version="1.0" encoding="utf-8"?>
<!-- Generator: Adobe Illustrator 25.4.1, SVG Export Plug-In . SVG Version: 6.00 Build 0)  -->
<svg version="1.1" id="Capa_1" xmlns="http://www.w3.org/2000/svg" xmlns:xlink="http://www.w3.org/1999/xlink" x="0px" y="0px"
	 viewBox="0 0 151.2 175.4" style="enable-background:new 0 0 151.2 175.4;" xml:space="preserve">
<style type="text/css">
	.st0{fill:#E20613;}
	.st1{fill:#FFFFFF;}
	.st2{fill:#1D1D1B;}
	.st3{fill:#93CAEE;}
	.st4{fill:#12100B;}
</style>
<g>
	<path d="M14.1,17.3l129.8,20.9c0,0,1.1,0.1,1.2,1.6c0.1,2.2,4.4,100,4.4,100c0,1.1-1.1,2.1-1.5,2.3c0,0,0.2,0.3,0.2,0.8
		c0,2.4-0.4,12.5-0.3,13.6c0.1,2.6-1.5,5.5-4.8,5.5c-2.4,0-133.8,0-134.8,0c-1.9,0-6.2-1.1-6.2-7.7c0.1-2.9,1.2-130.3,1.2-130.3
		s0-0.9,0-2.3c0-1.4,1.4-2,4.9-3.6c1.6-0.7,3.4-1.3,4.5-1.4C13.7,16.6,13.5,16.8,14.1,17.3z"/>
	<path class="st0" d="M15.1,128.4l132.4,3.3l0.4,7.9l-13.7,0.7c0,0-0.6,0-0.9,0.4c-0.3,0.3-0.2,0.8-0.2,0.8l0,12.1l-118-0.8V128.4z"
		/>
	<polygon class="st1" points="135.1,152.6 135.1,142.4 146.5,141.8 	"/>
	<polygon class="st1" points="15.2,18.4 15.1,128.4 147.5,131.7 143.2,39.8 	"/>
	<path d="M103.4,42.3c-1,1.4-2.9,1.4-4.4,0.6c-1.8-0.9-2.5-2.9-1.8-4.3c0.7-1.4,2.7-1.7,4.5-0.8C103.4,38.7,104.2,41.1,103.4,42.3z"
		/>
	<path d="M59.2,31.5c1,1.7,0.9,3.5-0.5,4.4c-1.4,0.9-4,0.3-5-1.3c-1-1.7-0.8-3.6,0.6-4.6C55.7,29.1,58.1,29.8,59.2,31.5z"/>
	<polygon points="36.1,70.6 57.7,72.8 57.7,79.6 44.4,78.2 44.5,84.5 57,85.5 57.1,91.8 44.5,91 44.6,103.3 36.5,103.2 	"/>
	<polygon points="60,73 68.2,73.8 68.9,104.3 60.6,103.9 	"/>
	<polygon points="72.2,74.2 81.3,75 94.8,94.9 94.2,76.3 101.6,77.1 102.7,105.7 93.2,105.4 80.1,85.8 80.6,104.8 73,104.5 	"/>
	<path class="st0" d="M113.7,87c-0.3,1.7-1.9,2.8-4,2.5c-2.1-0.3-3.6-2.2-3.3-3.9c0.3-1.7,2-2.6,4-2.2C112.5,83.7,114,85.3,113.7,87
		z"/>
	<path class="st0" d="M114.3,99.7c-0.3,1.7-1.9,2.9-4,2.5c-2.1-0.3-3.6-2.2-3.3-3.9c0.3-1.7,2-2.6,4-2.2
		C113.1,96.4,114.6,98,114.3,99.7z"/>
	<path d="M54,59.6c-0.5-0.8-2.2-2.1-3.4-2.4c-0.4-0.1-0.5-0.1-0.7-0.3c0.8-0.1,2.5-0.9,3-1.6c0.8-1.1,1-1.9,1-3.4
		c0-4.2-3.1-6.1-5.9-6.6c-2.7-0.5-12.4-1.8-12.4-1.8l0.1,25.4c0,0,8,1,12,1c5.5,0,7.2-3.5,7.2-6C55,62.1,54.7,60.7,54,59.6z
		 M41.9,49.2l2.6,0.3c1.9,0.3,2.5,1.5,2.5,2.3c0,0.8,0,1.3-0.4,1.8c-0.3,0.5-0.8,0.9-1.8,0.8c-0.8,0-2.8-0.3-2.8-0.3L41.9,49.2z
		 M47.6,64.1c-0.5,0.5-1.5,0.7-2.3,0.6c-1.1-0.1-3.2-0.4-3.2-0.4l0-5.3l3.1,0.3c1.2,0.2,1.8,0.6,2.2,1C48.7,61.6,48,63.6,47.6,64.1z
		"/>
	<path d="M72.2,48.7l6.2,0.9L78.9,62c0,1.5,0.1,3-0.1,4.4c-0.2,1.4-0.8,2.8-1.8,3.8c-1,1-2.4,2.5-8,2.5c-3.5,0-7.2-1.2-9.4-3.1
		c-2.7-2.3-2.9-6.5-2.9-7.8l-0.1-15.3l6,0.9l0.4,15.2c0,3.4,3,4.8,5,4.8c1.7,0,2.9-0.2,3.6-1c0.7-0.8,0.9-1.6,0.9-3.1L72.2,48.7z"/>
	<path d="M81.7,50l17.1,2.5l0.2,4.8l-10.8-1.4l0,4.1l10.3,1.3l0.1,4.7l-10.2-1.2l0,4.3l11.2,1.1l0.1,4.9l-17.3-1.7L81.7,50z"/>
	<path d="M101.4,53l7.1,1l10.6,15.5l-0.6-14l5.8,0.9l1.1,21.4l-7.3-0.7l-10.5-15.3l0.5,14.3l-5.7-0.6L101.4,53z"/>
	<path class="st0" d="M117.1,80.9c0,0,1.6-0.4,2.9,1.2c1.3,1.6,5.1,6.2,5.1,12.9c0,4.5-3.3,10-5,10.6c0,0-2.6,0.4-2-0.5
		c0.4-0.5,1.3-2.3,1.5-3.2c0.5-1.4,1.4-2.5,1.4-9c0-2.9-1.8-7.9-3.7-10.8C117.2,82.1,116.4,81.1,117.1,80.9z"/>
	<g>
		<path class="st2" d="M29.3,115.1l0.1-4.7l0.9,0c0.4,0,0.8,0.1,1.1,0.2c0.3,0.1,0.5,0.3,0.7,0.5c0.4,0.5,0.7,1,0.6,1.8
			c0,0.7-0.3,1.3-0.8,1.7c-0.2,0.2-0.5,0.4-0.8,0.4c-0.2,0.1-0.6,0.1-1,0.1L29.3,115.1z M30,114.5l0.3,0c0.3,0,0.6,0,0.8-0.1
			c0.2-0.1,0.4-0.2,0.5-0.3c0.3-0.3,0.5-0.7,0.5-1.2c0-0.5-0.1-0.9-0.5-1.3c-0.3-0.3-0.7-0.4-1.3-0.5l-0.3,0L30,114.5z"/>
		<path class="st2" d="M34.3,110.6l-0.1,4.7l-0.7,0l0.1-4.7L34.3,110.6z"/>
		<path class="st2" d="M37.9,111.4l-0.6,0.3c-0.1-0.2-0.2-0.3-0.3-0.4c-0.1-0.1-0.2-0.1-0.4-0.1c-0.2,0-0.3,0-0.5,0.2
			c-0.1,0.1-0.2,0.2-0.2,0.4c0,0.2,0.2,0.4,0.5,0.6l0.4,0.2c0.4,0.2,0.6,0.4,0.8,0.6c0.2,0.2,0.2,0.5,0.2,0.8c0,0.4-0.2,0.8-0.4,1.1
			c-0.3,0.3-0.6,0.4-1,0.4c-0.4,0-0.7-0.1-0.9-0.4c-0.2-0.2-0.4-0.6-0.4-1l0.7-0.1c0,0.3,0.1,0.5,0.1,0.6c0.1,0.2,0.3,0.3,0.6,0.3
			c0.2,0,0.4-0.1,0.5-0.2c0.1-0.1,0.2-0.3,0.2-0.6c0-0.1,0-0.2,0-0.3c0-0.1-0.1-0.1-0.1-0.2c0-0.1-0.1-0.1-0.2-0.2
			c-0.1-0.1-0.2-0.1-0.3-0.2l-0.4-0.2c-0.6-0.3-0.9-0.7-0.9-1.2c0-0.4,0.1-0.6,0.4-0.9c0.3-0.2,0.6-0.3,1-0.3
			C37.2,110.6,37.6,110.8,37.9,111.4z"/>
		<path class="st2" d="M41,111.4l-1.5,0l0,1.1l1.5,0l0,0.7l-1.5,0l-0.1,2.2l-0.7,0l0.1-4.7l2.2,0.1L41,111.4z"/>
		<path class="st2" d="M43.3,113.5l1.3,2l-0.8,0l-1.2-1.9l-0.1,0l0,1.9l-0.7,0l0.1-4.7l0.8,0c0.6,0,1,0.1,1.3,0.4
			c0.3,0.3,0.4,0.6,0.4,1c0,0.3-0.1,0.6-0.3,0.8C43.8,113.3,43.6,113.4,43.3,113.5z M42.5,112.9l0.2,0c0.6,0,1-0.2,1-0.7
			c0-0.5-0.3-0.7-0.9-0.7l-0.2,0L42.5,112.9z"/>
		<path class="st2" d="M46,110.9l-0.1,2.8c0,0.4,0,0.7,0.2,0.9c0.2,0.3,0.4,0.4,0.8,0.4c0.3,0,0.6-0.1,0.8-0.4
			c0.1-0.2,0.2-0.5,0.2-0.9l0.1-2.8l0.7,0l-0.1,3c0,0.5-0.2,0.9-0.5,1.2c-0.3,0.3-0.7,0.5-1.2,0.5c-0.5,0-0.9-0.2-1.2-0.6
			c-0.3-0.3-0.4-0.7-0.4-1.2l0.1-3L46,110.9z"/>
		<path class="st2" d="M50.9,111.7l-0.1,4l-0.7,0l0.1-4l-1,0l0-0.7l2.7,0.1l0,0.7L50.9,111.7z"/>
		<path class="st2" d="M54.8,114.6l-1.9,0l-0.5,1.1l-0.7,0l2.3-4.9l2,5l-0.7,0L54.8,114.6z M54.6,114l-0.6-1.6l-0.7,1.6L54.6,114z"
			/>
		<path class="st2" d="M59.1,111.2l-0.1,4l1.3,0l0,0.7l-2,0l0.1-4.7L59.1,111.2z"/>
		<path class="st2" d="M60.6,113.6c0-0.7,0.3-1.2,0.7-1.7c0.5-0.5,1-0.7,1.7-0.7c0.6,0,1.2,0.3,1.6,0.8c0.4,0.5,0.7,1.1,0.6,1.7
			c0,0.7-0.3,1.2-0.7,1.7c-0.5,0.5-1,0.7-1.7,0.7c-0.6,0-1.1-0.2-1.5-0.7C60.8,114.9,60.6,114.3,60.6,113.6z M61.3,113.6
			c0,0.5,0.1,0.9,0.5,1.3c0.3,0.3,0.7,0.5,1.1,0.5c0.5,0,0.9-0.1,1.2-0.5c0.3-0.3,0.5-0.7,0.5-1.2c0-0.5-0.1-0.9-0.4-1.3
			c-0.3-0.3-0.7-0.5-1.2-0.5c-0.5,0-0.9,0.1-1.2,0.5C61.5,112.7,61.3,113.1,61.3,113.6z"/>
		<path class="st2" d="M67.7,116.1l1.1-5l1.4,3.7l1.7-3.6l0.7,5l-0.7,0l-0.4-2.8l-1.4,3l-1.2-3.1l-0.5,2.8L67.7,116.1z"/>
		<path class="st2" d="M76.2,115.2l-1.9,0l-0.5,1.1l-0.7,0l2.3-4.9l2,5l-0.7,0L76.2,115.2z M75.9,114.5l-0.6-1.6l-0.7,1.6
			L75.9,114.5z M76.4,110.4l-1.2,0.8l-0.3-0.3l0.9-1L76.4,110.4z"/>
		<path class="st2" d="M80.5,112.4l-0.6,0.3c-0.1-0.2-0.2-0.3-0.3-0.4c-0.1-0.1-0.2-0.1-0.4-0.1c-0.2,0-0.3,0-0.5,0.2
			c-0.1,0.1-0.2,0.2-0.2,0.4c0,0.2,0.2,0.4,0.5,0.6l0.4,0.2c0.4,0.2,0.6,0.4,0.8,0.6c0.2,0.2,0.2,0.5,0.2,0.8c0,0.4-0.2,0.8-0.4,1.1
			c-0.3,0.3-0.6,0.4-1,0.4c-0.4,0-0.7-0.1-0.9-0.4c-0.2-0.2-0.4-0.6-0.4-1l0.7-0.1c0,0.3,0.1,0.5,0.1,0.6c0.1,0.2,0.3,0.3,0.6,0.3
			c0.2,0,0.4-0.1,0.5-0.2c0.1-0.1,0.2-0.3,0.2-0.6c0-0.1,0-0.2,0-0.3c0-0.1-0.1-0.1-0.1-0.2c0-0.1-0.1-0.1-0.2-0.2
			c-0.1-0.1-0.2-0.1-0.3-0.2l-0.4-0.2c-0.6-0.3-0.9-0.7-0.9-1.2c0-0.4,0.1-0.6,0.4-0.9c0.3-0.2,0.6-0.3,1-0.3
			C79.9,111.6,80.3,111.9,80.5,112.4z"/>
		<path class="st2" d="M83.2,116.5l0.1-4.7l0.7,0c0.3,0,0.5,0,0.7,0.1c0.2,0.1,0.3,0.1,0.4,0.3c0.1,0.1,0.2,0.3,0.3,0.5
			c0.1,0.2,0.1,0.4,0.1,0.5c0,0.3-0.1,0.6-0.4,0.8c0.2,0.1,0.4,0.2,0.5,0.5c0.1,0.2,0.2,0.5,0.2,0.7c0,0.4-0.1,0.7-0.4,0.9
			c-0.2,0.2-0.3,0.3-0.5,0.3c-0.2,0.1-0.5,0.1-0.8,0.1L83.2,116.5z M83.9,115.8l0.4,0c0.3,0,0.5,0,0.7-0.2c0.2-0.1,0.2-0.3,0.2-0.5
			c0-0.2-0.1-0.4-0.2-0.5c-0.1-0.1-0.4-0.2-0.7-0.2l-0.3,0L83.9,115.8z M83.9,113.8l0.2,0c0.2,0,0.4,0,0.6-0.2
			c0.1-0.1,0.2-0.3,0.2-0.5c0-0.2,0-0.4-0.2-0.5c-0.1-0.1-0.3-0.2-0.5-0.2l-0.2,0L83.9,113.8z"/>
		<path class="st2" d="M89.2,115.5l-1.9,0l-0.5,1.1l-0.7,0l2.3-4.9l2,5l-0.7,0L89.2,115.5z M89,114.8l-0.6-1.6l-0.7,1.6L89,114.8z"
			/>
		<path class="st2" d="M92.5,114.7l1.3,2l-0.8,0l-1.2-1.9l-0.1,0l0,1.9l-0.7,0l0.1-4.7l0.8,0c0.6,0,1,0.1,1.3,0.4
			c0.3,0.3,0.4,0.6,0.4,1c0,0.3-0.1,0.6-0.3,0.8C93.1,114.5,92.8,114.7,92.5,114.7z M91.7,114.2l0.2,0c0.6,0,1-0.2,1-0.7
			c0-0.5-0.3-0.7-0.9-0.7l-0.2,0L91.7,114.2z"/>
		<path class="st2" d="M97.2,115.7l-1.9,0l-0.5,1.1l-0.7,0l2.3-4.9l2,5l-0.7,0L97.2,115.7z M96.9,115l-0.6-1.6l-0.7,1.6L96.9,115z"
			/>
		<path class="st2" d="M100,112.9l-0.1,4l-0.7,0l0.1-4l-1,0l0-0.7l2.7,0.1l0,0.7L100,112.9z"/>
		<path class="st2" d="M101.2,114.6c0-0.7,0.3-1.2,0.7-1.7c0.5-0.5,1-0.7,1.7-0.7c0.6,0,1.2,0.3,1.6,0.8c0.4,0.5,0.7,1.1,0.6,1.7
			c0,0.7-0.3,1.2-0.7,1.7c-0.5,0.5-1,0.7-1.7,0.7c-0.6,0-1.1-0.2-1.5-0.7C101.4,115.9,101.2,115.3,101.2,114.6z M101.9,114.6
			c0,0.5,0.1,0.9,0.5,1.3c0.3,0.3,0.7,0.5,1.1,0.5c0.5,0,0.9-0.1,1.2-0.5c0.3-0.3,0.5-0.7,0.5-1.2c0-0.5-0.1-0.9-0.4-1.3
			c-0.3-0.3-0.7-0.5-1.2-0.5c-0.5,0-0.9,0.1-1.2,0.5C102,113.7,101.9,114.1,101.9,114.6z"/>
		<path class="st2" d="M108.4,117.1l0.1-4.7l0.9,0c0.4,0,0.8,0.1,1.1,0.2c0.3,0.1,0.5,0.3,0.7,0.5c0.4,0.5,0.7,1,0.6,1.8
			c0,0.7-0.3,1.3-0.8,1.7c-0.2,0.2-0.5,0.4-0.8,0.4c-0.2,0.1-0.6,0.1-1,0.1L108.4,117.1z M109.1,116.5l0.3,0c0.3,0,0.6,0,0.8-0.1
			c0.2-0.1,0.4-0.2,0.6-0.3c0.3-0.3,0.5-0.7,0.5-1.2c0-0.5-0.1-0.9-0.5-1.3c-0.3-0.3-0.7-0.4-1.3-0.5l-0.3,0L109.1,116.5z"/>
		<path class="st2" d="M115.3,113.3l-1.8,0l0,1.1l1.7,0l0,0.7l-1.7,0l0,1.6l1.8,0l0,0.7l-2.5-0.1l0.1-4.7l2.5,0.1L115.3,113.3z"/>
		<path class="st2" d="M116.8,112.7l-0.1,4l1.3,0l0,0.7l-2,0l0.1-4.7L116.8,112.7z"/>
		<path class="st2" d="M123.1,116.4l-1.9,0l-0.5,1.1l-0.7,0l2.3-4.9l2,5l-0.7,0L123.1,116.4z M122.9,115.7l-0.6-1.6l-0.7,1.6
			L122.9,115.7z"/>
		<path class="st2" d="M124.9,117.5l0.1-5l3.2,3.6l0.1-3.2l0.7,0l-0.1,5l-3.2-3.6l-0.1,3.3L124.9,117.5z M126.1,112.4l-0.4-0.3
			l0.1-0.1c0.1-0.1,0.1-0.1,0.2-0.2c0.1-0.1,0.1-0.1,0.2-0.1c0.1,0,0.1-0.1,0.2-0.1c0.1,0,0.1,0,0.2,0c0.2,0,0.3,0.1,0.5,0.2
			c0.2,0.1,0.3,0.2,0.4,0.2c0.1,0,0.2-0.1,0.4-0.3l0.4,0.3c-0.2,0.4-0.4,0.6-0.8,0.6c-0.1,0-0.3-0.1-0.5-0.2
			c-0.2-0.1-0.3-0.1-0.4-0.1C126.3,112.1,126.2,112.2,126.1,112.4z"/>
		<path class="st2" d="M129.7,115.3c0-0.7,0.3-1.2,0.7-1.7c0.5-0.5,1-0.7,1.7-0.7c0.6,0,1.2,0.3,1.6,0.8c0.4,0.5,0.7,1.1,0.6,1.7
			c0,0.7-0.3,1.2-0.7,1.7c-0.5,0.5-1,0.7-1.7,0.7c-0.6,0-1.1-0.2-1.5-0.7C129.9,116.7,129.7,116.1,129.7,115.3z M130.4,115.3
			c0,0.5,0.1,0.9,0.5,1.3c0.3,0.3,0.7,0.5,1.1,0.5c0.5,0,0.9-0.1,1.2-0.5c0.3-0.3,0.5-0.7,0.5-1.2c0-0.5-0.1-0.9-0.4-1.3
			c-0.3-0.3-0.7-0.5-1.2-0.5c-0.5,0-0.9,0.1-1.2,0.5C130.6,114.4,130.4,114.8,130.4,115.3z"/>
		<path class="st2" d="M40.6,118.8l-1.8,0l0,1.1l1.7,0l0,0.7l-1.7,0l0,1.6l1.8,0l0,0.7l-2.5-0.1l0.1-4.7l2.5,0.1L40.6,118.8z"/>
		<path class="st2" d="M41.4,122.9l0.1-5l3.2,3.6l0.1-3.2l0.7,0l-0.1,5l-3.2-3.6l-0.1,3.3L41.4,122.9z"/>
		<path class="st2" d="M49.5,119.1l-0.1,4l-0.7,0l0.1-4l-1,0l0-0.7l2.7,0.1l0,0.7L49.5,119.1z"/>
		<path class="st2" d="M51.8,118.5l-0.1,4.7l-0.7,0l0.1-4.7L51.8,118.5z"/>
		<path class="st2" d="M55.4,119.2l-1.8,0l0,1.1l1.7,0l0,0.7l-1.7,0l0,1.6l1.8,0l0,0.7l-2.5-0.1l0.1-4.7l2.5,0.1L55.4,119.2z"/>
		<path class="st2" d="M56.1,123.2l0.1-5l3.2,3.6l0.1-3.2l0.7,0l-0.1,5l-3.2-3.6l-0.1,3.3L56.1,123.2z"/>
		<path class="st2" d="M61.1,123.4l0.1-4.7l0.9,0c0.4,0,0.8,0.1,1.1,0.2c0.3,0.1,0.5,0.3,0.7,0.5c0.4,0.5,0.7,1,0.6,1.8
			c0,0.7-0.3,1.3-0.8,1.7c-0.2,0.2-0.5,0.4-0.8,0.4c-0.2,0.1-0.6,0.1-1,0.1L61.1,123.4z M61.8,122.7l0.3,0c0.3,0,0.6,0,0.8-0.1
			c0.2-0.1,0.4-0.2,0.6-0.3c0.3-0.3,0.5-0.7,0.5-1.2c0-0.5-0.1-0.9-0.5-1.3c-0.3-0.3-0.7-0.4-1.3-0.5l-0.3,0L61.8,122.7z"/>
		<path class="st2" d="M67.8,122.4l-1.9,0l-0.5,1.1l-0.7,0l2.3-4.9l2,5l-0.7,0L67.8,122.4z M67.6,121.7l-0.6-1.6l-0.7,1.6
			L67.6,121.7z"/>
		<path class="st2" d="M73.7,119.7l-1.5,0l0,1.1l1.5,0l0,0.7l-1.5,0l-0.1,2.2l-0.7,0l0.1-4.7l2.2,0.1L73.7,119.7z"/>
		<path class="st2" d="M75.1,119.1l-0.1,4.7l-0.7,0l0.1-4.7L75.1,119.1z M75.9,117.8l-1.1,0.8l-0.3-0.3l0.9-1L75.9,117.8z"/>
		<path class="st2" d="M78.7,119.8l-0.6,0.3c-0.1-0.2-0.2-0.3-0.3-0.4c-0.1-0.1-0.2-0.1-0.4-0.1c-0.2,0-0.3,0-0.5,0.2
			c-0.1,0.1-0.2,0.2-0.2,0.4c0,0.2,0.2,0.4,0.5,0.6l0.4,0.2c0.4,0.2,0.6,0.4,0.8,0.6c0.2,0.2,0.2,0.5,0.2,0.8c0,0.4-0.2,0.8-0.4,1.1
			c-0.3,0.3-0.6,0.4-1,0.4c-0.4,0-0.7-0.1-0.9-0.4c-0.2-0.2-0.4-0.6-0.4-1l0.7-0.1c0,0.3,0.1,0.5,0.1,0.6c0.1,0.2,0.3,0.3,0.6,0.3
			c0.2,0,0.4-0.1,0.5-0.2c0.1-0.1,0.2-0.3,0.2-0.6c0-0.1,0-0.2,0-0.3c0-0.1-0.1-0.1-0.1-0.2c0-0.1-0.1-0.1-0.2-0.2
			c-0.1-0.1-0.2-0.1-0.3-0.2l-0.4-0.2c-0.6-0.3-0.9-0.7-0.9-1.2c0-0.3,0.1-0.6,0.4-0.9c0.3-0.2,0.6-0.3,1-0.3
			C78,119,78.4,119.3,78.7,119.8z"/>
		<path class="st2" d="M80.3,119.2l-0.1,4.7l-0.7,0l0.1-4.7L80.3,119.2z"/>
		<path class="st2" d="M84.7,119.5l0,0.8c-0.4-0.4-0.8-0.5-1.2-0.5c-0.5,0-0.8,0.2-1.2,0.5c-0.3,0.3-0.5,0.8-0.5,1.2
			c0,0.5,0.1,0.9,0.4,1.3c0.3,0.3,0.7,0.5,1.1,0.5c0.2,0,0.4,0,0.6-0.1c0.1,0,0.2-0.1,0.3-0.2c0.1-0.1,0.2-0.1,0.3-0.2l0,0.8
			c-0.4,0.2-0.8,0.3-1.2,0.3c-0.6,0-1.2-0.3-1.6-0.7c-0.4-0.5-0.6-1.1-0.6-1.7c0-0.6,0.2-1.1,0.6-1.6c0.5-0.6,1.1-0.8,1.8-0.8
			C83.9,119.2,84.3,119.3,84.7,119.5z"/>
		<path class="st2" d="M88.2,122.9l-1.9,0l-0.5,1.1l-0.7,0l2.3-4.9l2,5l-0.7,0L88.2,122.9z M87.9,122.2l-0.6-1.6l-0.7,1.6
			L87.9,122.2z"/>
		<path class="st2" d="M91.5,121.8c0-0.7,0.3-1.2,0.7-1.7c0.5-0.5,1-0.7,1.7-0.7c0.6,0,1.2,0.3,1.6,0.8c0.4,0.5,0.7,1.1,0.6,1.7
			c0,0.7-0.3,1.2-0.7,1.7c-0.5,0.5-1,0.7-1.7,0.7c-0.6,0-1.1-0.2-1.5-0.7C91.8,123.1,91.5,122.5,91.5,121.8z M92.2,121.8
			c0,0.5,0.1,0.9,0.5,1.3c0.3,0.3,0.7,0.5,1.1,0.5c0.5,0,0.9-0.1,1.2-0.5c0.3-0.3,0.5-0.7,0.5-1.2c0-0.5-0.1-0.9-0.4-1.3
			c-0.3-0.3-0.7-0.5-1.2-0.5c-0.5,0-0.9,0.1-1.2,0.5C92.4,120.9,92.2,121.3,92.2,121.8z"/>
		<path class="st2" d="M101.3,120.4l-1.8,0l0,1.1l1.7,0l0,0.7l-1.7,0l0,1.6l1.8,0l0,0.7l-2.5-0.1l0.1-4.7l2.5,0.1L101.3,120.4z"/>
		<path class="st2" d="M102.1,124.4l0.1-5l3.2,3.6l0.1-3.2l0.7,0l-0.1,5l-3.2-3.6l-0.1,3.3L102.1,124.4z"/>
		<path class="st2" d="M109.7,119.9l-0.1,4l1.3,0l0,0.7l-2,0l0.1-4.7L109.7,119.9z"/>
		<path class="st2" d="M112.3,120l-0.1,4.7l-0.7,0l0.1-4.7L112.3,120z M113.1,118.8l-1.1,0.8l-0.3-0.3l0.9-1L113.1,118.8z"/>
		<path class="st2" d="M113.3,124.7l0.1-5l3.2,3.6l0.1-3.2l0.7,0l-0.1,5l-3.2-3.6l-0.1,3.3L113.3,124.7z"/>
		<path class="st2" d="M120.8,120.9l-1.8,0l0,1.1l1.7,0l0,0.7l-1.7,0l0,1.6l1.8,0l0,0.7l-2.5-0.1l0.1-4.7l2.5,0.1L120.8,120.9z"/>
		<path class="st2" d="M124.2,123.8l-1.9,0l-0.5,1.1l-0.7,0l2.3-4.9l2,5l-0.7,0L124.2,123.8z M124,123.2l-0.6-1.6l-0.7,1.6
			L124,123.2z"/>
	</g>
	<g>
		<path class="st3" d="M124.7,105.3c-0.7,0-1.4-0.3-1.8-0.9l-7-9.4c-0.6-0.8-0.6-1.9,0-2.7l7-9.4c0.4-0.6,1.1-0.9,1.8-0.9
			s1.4,0.3,1.8,0.9l5.2,7.1c1.6,2.2,1.6,5.2,0,7.4l-5.2,7.1C126.1,105,125.4,105.3,124.7,105.3z"/>
		<path class="st4" d="M124.7,82.9c0.4,0,0.8,0.2,1,0.5l5.2,7.1c1.4,1.8,1.4,4.4,0,6.2l-5.2,7.1c-0.2,0.3-0.6,0.5-1,0.5
			s-0.8-0.2-1-0.5l-7-9.4c-0.3-0.4-0.3-1,0-1.5l7-9.4C124,83.1,124.3,82.9,124.7,82.9 M124.7,80.9c-1,0-2,0.5-2.6,1.3l-7,9.4
			c-0.9,1.2-0.9,2.7,0,3.9l7,9.4c0.6,0.8,1.6,1.3,2.6,1.3c1,0,2-0.5,2.6-1.3l5.2-7.1c1.9-2.6,1.9-6,0-8.6l-5.2-7.1
			C126.7,81.4,125.7,80.9,124.7,80.9L124.7,80.9z"/>
	</g>
	<g>
		<g>
			<path class="st1" d="M32.6,137.5l-1.2,0l0.6-1.2l1.6,0.1l0,8.1l-1,0L32.6,137.5z"/>
			<path class="st1" d="M35.6,140.5c0-1.3,0.3-2.4,0.8-3.1c0.4-0.7,1-1,1.6-1c0.6,0,1.2,0.4,1.6,1.1c0.5,0.8,0.7,1.9,0.7,3.2
				c0,1.3-0.3,2.1-0.8,2.9c-0.4,0.7-1,1-1.6,1c-0.6,0-1.2-0.4-1.6-1.1C35.8,142.7,35.6,141.9,35.6,140.5z M36.6,140.5
				c0,0.9,0.1,1.4,0.4,2c0.3,0.6,0.6,0.9,1,0.9c0.4,0,0.7-0.3,1-0.9c0.3-0.6,0.4-1,0.4-1.9c0-0.9-0.1-1.6-0.4-2.2
				c-0.3-0.6-0.6-0.9-1-0.9c-0.4,0-0.7,0.3-1,0.9C36.7,138.9,36.6,139.6,36.6,140.5z"/>
			<path class="st1" d="M43.5,141.6l1.9,0l0,1l-1.9,0L43.5,141.6z"/>
			<path class="st1" d="M50.6,138l-1.2,0l0.6-1.1l1.6,0.1l0,7.8l-1,0L50.6,138z"/>
			<path class="st1" d="M56.4,136.8l0.7,0.7l-1.6,2.5c0.1,0,0.2,0,0.2,0c0.1,0,0.1,0,0.1,0c0.5,0,1,0.3,1.4,0.8
				c0.4,0.5,0.6,1,0.6,1.7c0,0.7-0.2,1.3-0.7,1.8c-0.4,0.5-1,0.7-1.6,0.7c-0.6,0-1.1-0.3-1.6-0.8c-0.4-0.5-0.7-1.1-0.7-1.8
				c0-0.6,0.2-1.3,0.7-1.9L56.4,136.8z M56.9,142.4c0-0.4-0.1-0.8-0.4-1c-0.2-0.3-0.5-0.4-0.9-0.4c-0.4,0-0.7,0.1-0.9,0.4
				c-0.2,0.3-0.4,0.6-0.4,1c0,0.4,0.1,0.8,0.4,1c0.2,0.3,0.5,0.4,0.9,0.4c0.3,0,0.6-0.1,0.9-0.4C56.8,143.2,56.9,142.8,56.9,142.4z"
				/>
			<path class="st1" d="M61.9,144.8l0-7.6l1.4,0c0.7,0,1.2,0.1,1.6,0.3c0.4,0.2,0.8,0.4,1.1,0.8c0.7,0.7,1,1.6,1,2.8
				c0,1.1-0.4,2.1-1.1,2.8c-0.4,0.4-0.7,0.6-1.1,0.7c-0.4,0.1-0.9,0.2-1.6,0.2L61.9,144.8z M63,143.8l0.5,0c0.5,0,0.8,0,1.1-0.1
				c0.3-0.1,0.6-0.3,0.8-0.5c0.5-0.5,0.8-1.2,0.8-2c0-0.8-0.2-1.5-0.7-2c-0.4-0.5-1.1-0.7-2-0.7l-0.5,0L63,143.8z"/>
			<path class="st1" d="M72.1,138.7l-2.7-0.1l0,1.8l2.6,0.1l0,1l-2.6,0l0,2.5l2.7,0l0,1l-3.7,0l0-7.4l3.7,0.1L72.1,138.7z"/>
			<path class="st1" d="M76.2,144.9l0-7.6l4.9,5.5l0-4.9l1,0l0,7.4l-4.9-5.4l0,5L76.2,144.9z"/>
			<path class="st1" d="M83.5,141.5c0-1,0.4-1.8,1-2.5c0.7-0.7,1.5-1,2.5-1c1,0,1.8,0.4,2.5,1.1c0.7,0.7,1,1.5,1,2.5
				c0,1-0.3,1.8-1,2.5c-0.7,0.7-1.5,1-2.5,1c-0.9,0-1.6-0.3-2.3-0.9C83.9,143.5,83.5,142.6,83.5,141.5z M84.5,141.5
				c0,0.8,0.2,1.4,0.7,1.9c0.5,0.5,1.1,0.7,1.7,0.8c0.7,0,1.3-0.2,1.8-0.7c0.5-0.5,0.7-1.1,0.7-1.8c0-0.7-0.2-1.3-0.7-1.8
				c-0.5-0.5-1.1-0.8-1.8-0.8c-0.7,0-1.3,0.2-1.8,0.7C84.8,140.1,84.5,140.8,84.5,141.5z"/>
			<path class="st1" d="M91.9,138.3l1.9,4.7l1.9-4.6l1.1,0l-3,7.1l-2.9-7.3L91.9,138.3z"/>
			<path class="st1" d="M98.6,138.5l0,6.5l-1,0l0-6.6L98.6,138.5z"/>
			<path class="st1" d="M103.9,139.6l-2.7-0.1l0,1.6l2.6,0.1l0,0.9l-2.6,0l0,2.2l2.7,0l0,0.9l-3.7,0l0-6.5l3.7,0.1L103.9,139.6z"/>
			<path class="st1" d="M105,145.1l1.4-6.8l2.3,4.9l2.4-4.8l1.3,6.6l-1,0l-0.6-3.7l-2,4l-1.9-4.1l-0.7,3.8L105,145.1z"/>
			<path class="st1" d="M113.8,145.1l0-6.3l1,0c0.5,0,0.8,0.1,1.1,0.1c0.3,0.1,0.5,0.2,0.7,0.3c0.2,0.2,0.3,0.4,0.5,0.6
				c0.1,0.2,0.2,0.5,0.2,0.7c0,0.4-0.2,0.8-0.6,1.1c0.4,0.1,0.7,0.3,0.9,0.6c0.2,0.3,0.3,0.6,0.3,1c0,0.5-0.2,0.9-0.6,1.2
				c-0.2,0.2-0.5,0.3-0.8,0.4c-0.3,0.1-0.7,0.1-1.2,0.1L113.8,145.1z M114.9,141.6l0.3,0c0.4,0,0.7-0.1,0.9-0.2
				c0.2-0.2,0.3-0.4,0.3-0.7c0-0.3-0.1-0.5-0.3-0.7c-0.2-0.2-0.5-0.2-0.8-0.3l-0.4,0L114.9,141.6z M114.8,144.3l0.6,0
				c0.5,0,0.8-0.1,1-0.2c0.2-0.2,0.4-0.4,0.4-0.7c0-0.3-0.1-0.5-0.3-0.7c-0.2-0.2-0.6-0.3-1.2-0.3l-0.5,0L114.8,144.3z"/>
			<path class="st1" d="M121.6,142.6l2.2,2.7l-1.3,0l-2-2.6l-0.2,0l0,2.6l-1.1,0l0-6.3l1.2,0c0.9,0,1.6,0.2,2,0.5
				c0.5,0.4,0.7,0.8,0.7,1.4c0,0.4-0.1,0.8-0.4,1.1C122.5,142.3,122.1,142.5,121.6,142.6z M120.3,141.8l0.3,0c1,0,1.5-0.3,1.5-1
				c0-0.6-0.5-1-1.5-1l-0.4,0L120.3,141.8z"/>
			<path class="st1" d="M128.9,140l-2.9-0.1l0,1.5l2.8,0.1l0,0.9l-2.8-0.1l0,2.1l2.9,0l0,0.9l-3.9,0l0-6.2l3.9,0.1L128.9,140z"/>
		</g>
	</g>
</g>
</svg>
