<?xml version="1.0" encoding="utf-8"?>
<!-- Generator: Adobe Illustrator 16.0.0, SVG Export Plug-In . SVG Version: 6.00 Build 0)  -->
<!DOCTYPE svg PUBLIC "-//W3C//DTD SVG 1.1//EN" "http://www.w3.org/Graphics/SVG/1.1/DTD/svg11.dtd">
<svg version="1.1" id="Layer_2" xmlns="http://www.w3.org/2000/svg" xmlns:xlink="http://www.w3.org/1999/xlink" x="0px" y="0px"
	 width="172px" height="404px" viewBox="0 0 172 404" enable-background="new 0 0 172 404" xml:space="preserve">
<g opacity="0.25">
	<image overflow="visible" width="233" height="465" xlink:href="480F2B4AF4A7E87B.png"  transform="matrix(1 0 0 1 -28 -29)">
	</image>
</g>
<g>
	<path fill="#231F20" d="M34.634,281.024v-4.145h0.912v4.145H34.634z"/>
	<path fill="#231F20" d="M36.453,281.024v-0.947h0.959v0.947H36.453z"/>
	<path fill="#231F20" d="M41.362,281.024l-0.379-0.93H39.23l-0.379,0.93h-0.93l1.776-4.174h0.841l1.776,4.174H41.362z
		 M40.106,277.946l-0.55,1.344h1.101L40.106,277.946z"/>
	<path fill="#231F20" d="M42.827,281.024v-0.947h0.959v0.947H42.827z"/>
</g>
<g>
	<defs>
		<path id="SVGID_1_" d="M50.984,284.96c-3.933,0-7.119,3.187-7.119,7.119v5.609c0,3.932,3.187,7.118,7.119,7.118h49.187
			c3.932,0,7.12-3.187,7.12-7.118v-5.609c0-3.933-3.188-7.119-7.12-7.119H50.984z"/>
	</defs>
	<clipPath id="SVGID_2_">
		<use xlink:href="#SVGID_1_"  overflow="visible"/>
	</clipPath>
	
		<linearGradient id="SVGID_3_" gradientUnits="userSpaceOnUse" x1="-251.3369" y1="452.665" x2="-250.1524" y2="452.665" gradientTransform="matrix(-50.5 -22 -22 50.5 -2628.1875 -28081)">
		<stop  offset="0" style="stop-color:#285AA8"/>
		<stop  offset="0.1597" style="stop-color:#2B60AB"/>
		<stop  offset="0.3734" style="stop-color:#3271B4"/>
		<stop  offset="0.6178" style="stop-color:#3E8DC2"/>
		<stop  offset="0.8829" style="stop-color:#4FB4D5"/>
		<stop  offset="1" style="stop-color:#57C7DF"/>
	</linearGradient>
	<polygon clip-path="url(#SVGID_2_)" fill="url(#SVGID_3_)" points="97.174,328.031 36.598,301.642 53.982,261.736 114.558,288.126 
			"/>
</g>
<g>
	<path fill="#FFFFFF" d="M53.986,299.007c-1.851,0-3.226-1.429-3.226-3.235v-0.018c0-1.789,1.348-3.254,3.28-3.254
		c1.186,0,1.896,0.396,2.48,0.971l-0.881,1.016c-0.485-0.44-0.979-0.71-1.609-0.71c-1.061,0-1.824,0.881-1.824,1.959v0.019
		c0,1.078,0.746,1.978,1.824,1.978c0.719,0,1.16-0.288,1.654-0.737l0.881,0.89C55.919,298.576,55.2,299.007,53.986,299.007z"/>
	<path fill="#FFFFFF" d="M61.085,299.007c-1.941,0-3.334-1.446-3.334-3.235v-0.018c0-1.789,1.411-3.254,3.352-3.254
		s3.334,1.447,3.334,3.235v0.019C64.438,297.542,63.026,299.007,61.085,299.007z M62.99,295.754c0-1.078-0.791-1.978-1.905-1.978
		c-1.114,0-1.887,0.881-1.887,1.959v0.019c0,1.078,0.791,1.978,1.905,1.978s1.887-0.881,1.887-1.96V295.754z"/>
	<path fill="#FFFFFF" d="M71.122,298.899v-4.107l-1.771,2.688h-0.036l-1.753-2.66v4.08h-1.357v-6.291h1.492l1.653,2.66l1.654-2.66
		h1.492v6.291H71.122z"/>
	<path fill="#FFFFFF" d="M76.971,297.012H75.92v1.888h-1.384v-6.291h2.57c1.501,0,2.409,0.89,2.409,2.175v0.018
		C79.515,296.257,78.382,297.012,76.971,297.012z M78.113,294.811c0-0.62-0.432-0.953-1.124-0.953H75.92v1.924h1.096
		c0.692,0,1.097-0.414,1.097-0.953V294.811z"/>
	<path fill="#FFFFFF" d="M84.888,298.899l-1.348-2.014h-1.087v2.014h-1.384v-6.291h2.876c1.483,0,2.373,0.781,2.373,2.076v0.018
		c0,1.016-0.548,1.654-1.348,1.95l1.537,2.247H84.888z M84.915,294.756c0-0.593-0.414-0.898-1.087-0.898h-1.375v1.807h1.402
		c0.674,0,1.061-0.359,1.061-0.89V294.756z"/>
	<path fill="#FFFFFF" d="M92.787,298.899l-0.576-1.411h-2.66l-0.574,1.411h-1.412l2.697-6.336h1.275l2.696,6.336H92.787z
		 M90.881,294.226l-0.836,2.04h1.672L90.881,294.226z"/>
	<path fill="#FFFFFF" d="M99.562,298.899l-1.349-2.014h-1.087v2.014h-1.384v-6.291h2.875c1.483,0,2.373,0.781,2.373,2.076v0.018
		c0,1.016-0.548,1.654-1.348,1.95l1.537,2.247H99.562z M99.588,294.756c0-0.593-0.413-0.898-1.087-0.898h-1.375v1.807h1.401
		c0.675,0,1.061-0.359,1.061-0.89V294.756z"/>
</g>
<path fill="#FFFFFF" d="M150.57,395.789l-127.293,0.153c-10.999,0-19.916-8.155-19.916-19.448V70.683h163.388l-0.245,308.747
	c0,9.036-6.286,16.513-15.087,16.513"/>
<g>
	<defs>
		<path id="SVGID_4_" d="M15.122,4.024c-6.525,0-11.815,4.686-11.815,10.465v56.277h163.175V14.489
			c0-5.779-5.289-10.465-11.815-10.465H15.122z"/>
	</defs>
	<clipPath id="SVGID_5_">
		<use xlink:href="#SVGID_4_"  overflow="visible"/>
	</clipPath>
	
		<linearGradient id="SVGID_6_" gradientUnits="userSpaceOnUse" x1="-250.5845" y1="452.5371" x2="-249.2301" y2="452.5371" gradientTransform="matrix(-122.8585 -62.2944 -62.2944 122.8585 -2430.75 -71129.9688)">
		<stop  offset="0" style="stop-color:#285AA8"/>
		<stop  offset="0.16" style="stop-color:#2B60AB"/>
		<stop  offset="0.373" style="stop-color:#3271B3"/>
		<stop  offset="0.6157" style="stop-color:#3E8CC1"/>
		<stop  offset="0.8787" style="stop-color:#4EB3D5"/>
		<stop  offset="1" style="stop-color:#57C7DF"/>
	</linearGradient>
	<polygon clip-path="url(#SVGID_5_)" fill="url(#SVGID_6_)" points="133.11,129.067 -27.084,57.117 36.678,-54.276 196.872,17.674 	
		"/>
</g>
<g>
	<path fill="#FFFFFF" d="M58.203,46.399H49.88V28.903h8.123c3.574,0,5.773,1.774,5.773,4.524v0.05c0,1.975-1.05,3.074-2.299,3.774
		c2.024,0.775,3.274,1.95,3.274,4.299v0.05C64.751,44.799,62.152,46.399,58.203,46.399z M59.953,34.077c0-1.15-0.899-1.8-2.524-1.8
		h-3.799v3.699h3.549c1.7,0,2.774-0.55,2.774-1.85V34.077z M60.928,41.075c0-1.175-0.875-1.899-2.85-1.899h-4.449v3.849h4.574
		c1.7,0,2.725-0.6,2.725-1.9V41.075z"/>
	<path fill="#FFFFFF" d="M69.405,46.399V28.903h3.849V42.9h8.723v3.499H69.405z"/>
	<path fill="#FFFFFF" d="M93.178,46.674c-4.699,0-7.573-2.625-7.573-7.773v-9.998h3.849v9.897c0,2.849,1.425,4.324,3.774,4.324
		s3.773-1.424,3.773-4.199V28.903h3.85v9.873C100.852,44.075,97.877,46.674,93.178,46.674z"/>
	<path fill="#FFFFFF" d="M106.279,46.399V28.903h13.197v3.424h-9.373v3.549h8.248v3.424h-8.248v3.674h9.498v3.424H106.279z"/>
</g>
<g>
	<defs>
		<path id="SVGID_7_" d="M14.66,210.369c0,2.617,2.121,4.739,4.739,4.739c2.617,0,4.739-2.122,4.739-4.739
			c0-2.618-2.122-4.739-4.739-4.739C16.781,205.63,14.66,207.751,14.66,210.369"/>
	</defs>
	<clipPath id="SVGID_8_">
		<use xlink:href="#SVGID_7_"  overflow="visible"/>
	</clipPath>
</g>
<path fill="#FFFFFF" d="M18.553,260.999l-1.316-1.336c-0.049-0.05-0.048-0.13,0.001-0.178l0.693-0.683
	c0.049-0.049,0.128-0.048,0.177,0.002l0.452,0.46c0.049,0.05,0.128,0.05,0.178,0l1.958-1.957c0.049-0.049,0.128-0.049,0.177,0
	l0.688,0.688c0.049,0.048,0.049,0.127,0,0.176L18.73,261C18.682,261.049,18.603,261.049,18.553,260.999"/>
<g>
	<g>
		<path d="M30.917,96.037v2.178h-2.288v-2.222c-1.893-0.242-3.741-0.99-5.193-2.09l1.716-2.508c1.188,0.902,2.288,1.518,3.586,1.782
			v-3.499c-3.168-0.858-4.731-2.09-4.731-4.687c0-2.442,1.849-4.049,4.621-4.335v-1.276h2.288v1.32
			c1.562,0.22,2.904,0.792,4.093,1.628l-1.475,2.574c-0.88-0.594-1.804-1.056-2.728-1.298v3.322
			c3.344,0.902,4.774,2.289,4.774,4.753C35.581,94.123,33.711,95.729,30.917,96.037z M28.738,83.407
			c-1.056,0.154-1.518,0.682-1.518,1.386c0,0.682,0.308,1.144,1.518,1.584V83.407z M30.807,90.206v3.081
			c1.034-0.154,1.562-0.638,1.562-1.43C32.369,91.108,31.995,90.646,30.807,90.206z"/>
		<path d="M38.175,80.657h11.09v2.552l-6.909,12.85h-3.829l6.887-12.476h-7.239V80.657z"/>
		<path d="M52.717,80.657h9.461v2.971h-6.557l-0.176,2.662c0.616-0.154,1.166-0.264,2.024-0.264c3.037,0,5.391,1.453,5.391,4.951
			c0,3.278-2.311,5.347-5.853,5.347c-2.464,0-4.269-0.88-5.765-2.311l2.046-2.442c1.166,1.056,2.31,1.672,3.674,1.672
			c1.584,0,2.574-0.77,2.574-2.156c0-1.342-1.078-2.112-2.728-2.112c-0.968,0-1.849,0.264-2.575,0.572l-1.958-1.298L52.717,80.657z"
			/>
		<path d="M72.166,96.323c-4.115,0-6.821-3.455-6.821-7.943s2.75-7.987,6.865-7.987s6.821,3.455,6.821,7.943
			S76.28,96.323,72.166,96.323z M72.166,83.451c-2.046,0-3.345,2.046-3.345,4.885s1.342,4.929,3.389,4.929s3.344-2.068,3.344-4.885
			S74.212,83.451,72.166,83.451z"/>
	</g>
	<g>
		<path d="M91.207,95.513v-3.586c0-0.864-0.384-1.307-1.067-1.307s-1.104,0.443-1.104,1.307v3.586h-1.823v-3.586
			c0-0.864-0.383-1.307-1.067-1.307c-0.684,0-1.104,0.443-1.104,1.307v3.586h-1.823v-6.428h1.823v0.911
			c0.419-0.54,0.971-1.031,1.895-1.031c0.84,0,1.475,0.372,1.811,1.02c0.564-0.66,1.236-1.02,2.111-1.02
			c1.355,0,2.17,0.815,2.17,2.363v4.186H91.207z"/>
		<path d="M100.592,92.934h-4.473c0.18,0.828,0.755,1.259,1.57,1.259c0.611,0,1.056-0.192,1.559-0.66l1.044,0.924
			c-0.6,0.743-1.463,1.199-2.626,1.199c-1.932,0-3.358-1.355-3.358-3.322v-0.024c0-1.835,1.308-3.346,3.179-3.346
			c2.146,0,3.129,1.667,3.129,3.49v0.024C100.615,92.658,100.604,92.766,100.592,92.934z M97.486,90.427
			c-0.756,0-1.248,0.54-1.393,1.368h2.747C98.732,90.979,98.254,90.427,97.486,90.427z"/>
		<path d="M106.041,95.513v-3.586c0-0.864-0.408-1.307-1.104-1.307s-1.139,0.443-1.139,1.307v3.586h-1.824v-6.428h1.824v0.911
			c0.419-0.54,0.959-1.031,1.883-1.031c1.379,0,2.182,0.912,2.182,2.387v4.162H106.041z"/>
		<path d="M111.705,95.633c-0.898,0-1.906-0.3-2.758-0.972l0.779-1.199c0.695,0.503,1.428,0.768,2.027,0.768
			c0.527,0,0.768-0.192,0.768-0.48v-0.024c0-0.396-0.624-0.528-1.332-0.744c-0.898-0.264-1.918-0.684-1.918-1.931v-0.024
			c0-1.308,1.055-2.039,2.35-2.039c0.816,0,1.703,0.276,2.399,0.744l-0.696,1.259c-0.635-0.372-1.271-0.6-1.738-0.6
			c-0.443,0-0.672,0.192-0.672,0.444v0.024c0,0.36,0.611,0.528,1.307,0.768c0.9,0.3,1.943,0.731,1.943,1.907v0.024
			C114.164,94.985,113.097,95.633,111.705,95.633z"/>
		<path d="M119.492,95.513v-0.912c-0.42,0.54-0.959,1.032-1.883,1.032c-1.379,0-2.183-0.912-2.183-2.387v-4.162h1.823v3.586
			c0,0.863,0.408,1.307,1.104,1.307s1.139-0.444,1.139-1.307v-3.586h1.823v6.428H119.492z"/>
		<path d="M126.717,95.513v-0.696c-0.443,0.492-1.056,0.816-1.943,0.816c-1.211,0-2.207-0.696-2.207-1.967v-0.024
			c0-1.403,1.068-2.051,2.592-2.051c0.646,0,1.115,0.108,1.57,0.264v-0.108c0-0.755-0.467-1.175-1.379-1.175
			c-0.695,0-1.188,0.132-1.775,0.348l-0.455-1.392c0.707-0.312,1.402-0.516,2.494-0.516c1.99,0,2.867,1.031,2.867,2.771v3.73
			H126.717z M126.753,92.922c-0.312-0.144-0.72-0.24-1.163-0.24c-0.78,0-1.26,0.312-1.26,0.888v0.024c0,0.492,0.408,0.78,0.996,0.78
			c0.852,0,1.427-0.468,1.427-1.127V92.922z"/>
		<path d="M130.139,95.513v-8.755h1.823v8.755H130.139z"/>
		<path d="M139.651,92.934h-4.474c0.18,0.828,0.756,1.259,1.571,1.259c0.612,0,1.056-0.192,1.56-0.66l1.043,0.924
			c-0.6,0.743-1.463,1.199-2.627,1.199c-1.93,0-3.357-1.355-3.357-3.322v-0.024c0-1.835,1.307-3.346,3.178-3.346
			c2.146,0,3.131,1.667,3.131,3.49v0.024C139.676,92.658,139.664,92.766,139.651,92.934z M136.545,90.427
			c-0.756,0-1.247,0.54-1.391,1.368h2.746C137.793,90.979,137.312,90.427,136.545,90.427z"/>
		<path d="M143.289,95.633c-0.898,0-1.906-0.3-2.758-0.972l0.779-1.199c0.695,0.503,1.428,0.768,2.027,0.768
			c0.527,0,0.768-0.192,0.768-0.48v-0.024c0-0.396-0.624-0.528-1.332-0.744c-0.898-0.264-1.918-0.684-1.918-1.931v-0.024
			c0-1.308,1.055-2.039,2.35-2.039c0.816,0,1.703,0.276,2.399,0.744l-0.696,1.259c-0.635-0.372-1.271-0.6-1.738-0.6
			c-0.443,0-0.672,0.192-0.672,0.444v0.024c0,0.36,0.611,0.528,1.307,0.768c0.9,0.3,1.943,0.731,1.943,1.907v0.024
			C145.748,94.985,144.681,95.633,143.289,95.633z"/>
	</g>
</g>
<g>
	<g>
		<linearGradient id="SVGID_9_" gradientUnits="userSpaceOnUse" x1="13.9482" y1="296.9043" x2="23.4268" y2="296.9043">
			<stop  offset="0" style="stop-color:#285AA8"/>
			<stop  offset="0.1597" style="stop-color:#2B60AB"/>
			<stop  offset="0.3734" style="stop-color:#3271B4"/>
			<stop  offset="0.6178" style="stop-color:#3E8DC2"/>
			<stop  offset="0.8829" style="stop-color:#4FB4D5"/>
			<stop  offset="1" style="stop-color:#57C7DF"/>
		</linearGradient>
		<path fill="url(#SVGID_9_)" d="M23.427,296.904c0,2.617-2.122,4.738-4.739,4.738s-4.739-2.121-4.739-4.738
			c0-2.619,2.122-4.738,4.739-4.738S23.427,294.285,23.427,296.904"/>
		<path fill="#FFFFFF" d="M17.84,298.959l-1.315-1.338c-0.049-0.049-0.048-0.129,0.001-0.178l0.692-0.682
			c0.049-0.049,0.129-0.047,0.178,0.002l0.452,0.459c0.048,0.051,0.129,0.051,0.178,0l1.958-1.957c0.049-0.049,0.128-0.049,0.177,0
			l0.688,0.688c0.048,0.049,0.048,0.129,0,0.178l-2.83,2.828C17.97,299.008,17.89,299.008,17.84,298.959"/>
	</g>
	<g>
		<path fill="#231F20" d="M31.271,299.357c-1.443,0-2.515-1.113-2.515-2.521v-0.014c0-1.393,1.051-2.535,2.557-2.535
			c0.924,0,1.478,0.309,1.933,0.756l-0.687,0.793c-0.378-0.344-0.764-0.555-1.254-0.555c-0.826,0-1.421,0.688-1.421,1.527v0.014
			c0,0.84,0.581,1.541,1.421,1.541c0.561,0,0.904-0.225,1.289-0.574l0.686,0.693C32.777,299.021,32.217,299.357,31.271,299.357z"/>
		<path fill="#231F20" d="M35.8,299.357c-1.163,0-2.024-0.861-2.024-1.939v-0.014c0-1.078,0.869-1.955,2.038-1.955
			c1.163,0,2.024,0.861,2.024,1.941v0.014C37.838,298.482,36.97,299.357,35.8,299.357z M36.788,297.404
			c0-0.553-0.399-1.037-0.987-1.037c-0.609,0-0.974,0.469-0.974,1.023v0.014c0,0.553,0.399,1.037,0.987,1.037
			c0.609,0,0.974-0.471,0.974-1.023V297.404z"/>
		<path fill="#231F20" d="M40.98,299.273v-2.094c0-0.504-0.238-0.764-0.645-0.764s-0.665,0.26-0.665,0.764v2.094h-1.065v-3.754
			h1.065v0.533c0.245-0.316,0.56-0.604,1.1-0.604c0.805,0,1.274,0.533,1.274,1.395v2.43H40.98z"/>
		<path fill="#231F20" d="M44.284,299.344c-0.525,0-1.114-0.176-1.611-0.566l0.455-0.701c0.406,0.295,0.833,0.449,1.184,0.449
			c0.309,0,0.448-0.113,0.448-0.281v-0.014c0-0.23-0.364-0.309-0.777-0.434c-0.525-0.154-1.121-0.4-1.121-1.129v-0.014
			c0-0.764,0.616-1.191,1.373-1.191c0.476,0,0.994,0.162,1.4,0.436l-0.406,0.734c-0.371-0.217-0.742-0.35-1.015-0.35
			c-0.259,0-0.393,0.111-0.393,0.26v0.014c0,0.209,0.357,0.309,0.764,0.447c0.525,0.176,1.134,0.428,1.134,1.115v0.014
			C45.719,298.965,45.096,299.344,44.284,299.344z"/>
		<path fill="#231F20" d="M47.679,299.338c-0.651,0-1.093-0.26-1.093-1.129v-1.779h-0.448v-0.91h0.448v-0.959h1.064v0.959h0.883
			v0.91H47.65v1.605c0,0.244,0.105,0.363,0.343,0.363c0.196,0,0.371-0.049,0.525-0.133v0.854
			C48.295,299.252,48.036,299.338,47.679,299.338z"/>
		<path fill="#231F20" d="M51.515,299.273v-0.406c-0.259,0.287-0.616,0.477-1.134,0.477c-0.708,0-1.289-0.406-1.289-1.148v-0.014
			c0-0.82,0.624-1.197,1.513-1.197c0.378,0,0.651,0.062,0.917,0.154v-0.064c0-0.441-0.273-0.686-0.806-0.686
			c-0.406,0-0.693,0.076-1.037,0.203l-0.266-0.812c0.413-0.182,0.819-0.301,1.457-0.301c1.163,0,1.674,0.602,1.674,1.617v2.178
			H51.515z M51.536,297.762c-0.182-0.084-0.42-0.141-0.679-0.141c-0.455,0-0.735,0.182-0.735,0.518v0.014
			c0,0.289,0.238,0.457,0.581,0.457c0.498,0,0.833-0.273,0.833-0.658V297.762z"/>
		<path fill="#231F20" d="M55.834,299.273v-2.094c0-0.504-0.238-0.764-0.645-0.764s-0.665,0.26-0.665,0.764v2.094h-1.065v-3.754
			h1.065v0.533c0.245-0.316,0.56-0.604,1.1-0.604c0.805,0,1.274,0.533,1.274,1.395v2.43H55.834z"/>
		<path fill="#231F20" d="M59.592,299.357c-1.127,0-1.954-0.867-1.954-1.939v-0.014c0-1.072,0.82-1.955,1.968-1.955
			c0.708,0,1.148,0.238,1.499,0.631l-0.651,0.701c-0.238-0.252-0.477-0.414-0.854-0.414c-0.532,0-0.911,0.469-0.911,1.023v0.014
			c0,0.574,0.371,1.037,0.953,1.037c0.357,0,0.602-0.154,0.861-0.4l0.624,0.631C60.762,299.07,60.342,299.357,59.592,299.357z"/>
		<path fill="#231F20" d="M61.838,295.107v-0.945h1.121v0.945H61.838z M61.867,299.273v-3.754h1.064v3.754H61.867z"/>
		<path fill="#231F20" d="M66.13,299.273v-0.406c-0.259,0.287-0.616,0.477-1.134,0.477c-0.708,0-1.289-0.406-1.289-1.148v-0.014
			c0-0.82,0.624-1.197,1.513-1.197c0.378,0,0.651,0.062,0.917,0.154v-0.064c0-0.441-0.273-0.686-0.806-0.686
			c-0.406,0-0.693,0.076-1.037,0.203l-0.266-0.812c0.413-0.182,0.819-0.301,1.457-0.301c1.163,0,1.674,0.602,1.674,1.617v2.178
			H66.13z M66.151,297.762c-0.182-0.084-0.42-0.141-0.679-0.141c-0.455,0-0.735,0.182-0.735,0.518v0.014
			c0,0.289,0.238,0.457,0.581,0.457c0.498,0,0.833-0.273,0.833-0.658V297.762z"/>
		<path fill="#231F20" d="M69.392,299.344c-0.525,0-1.114-0.176-1.611-0.566l0.455-0.701c0.406,0.295,0.833,0.449,1.184,0.449
			c0.309,0,0.448-0.113,0.448-0.281v-0.014c0-0.23-0.364-0.309-0.777-0.434c-0.525-0.154-1.121-0.4-1.121-1.129v-0.014
			c0-0.764,0.616-1.191,1.373-1.191c0.476,0,0.994,0.162,1.4,0.436l-0.406,0.734c-0.371-0.217-0.742-0.35-1.015-0.35
			c-0.259,0-0.393,0.111-0.393,0.26v0.014c0,0.209,0.357,0.309,0.764,0.447c0.525,0.176,1.134,0.428,1.134,1.115v0.014
			C70.828,298.965,70.205,299.344,69.392,299.344z"/>
		<path fill="#231F20" d="M77.241,299.273l-2.375-3.115v3.115h-1.064v-4.902h0.995l2.297,3.02v-3.02h1.065v4.902H77.241z"/>
		<path fill="#231F20" d="M81.713,299.357c-1.513,0-2.599-1.127-2.599-2.521v-0.014c0-1.393,1.1-2.535,2.612-2.535
			c1.513,0,2.599,1.127,2.599,2.521v0.014C84.325,298.217,83.226,299.357,81.713,299.357z M83.198,296.822
			c0-0.84-0.617-1.541-1.485-1.541c-0.869,0-1.471,0.688-1.471,1.527v0.014c0,0.84,0.616,1.541,1.484,1.541
			c0.869,0,1.471-0.686,1.471-1.527V296.822z"/>
		<path fill="#231F20" d="M89.112,299.273v-3.201l-1.38,2.096h-0.027l-1.366-2.074v3.18h-1.058v-4.902h1.163l1.289,2.074
			l1.289-2.074h1.162v4.902H89.112z"/>
		<path fill="#231F20" d="M91.119,297.613v-1.021h2.157v1.021H91.119z"/>
		<path fill="#231F20" d="M94.99,294.336h0.736v4.938h-1.064v-3.844l-0.855,0.209l-0.224-0.883L94.99,294.336z"/>
		<path fill="#231F20" d="M97.14,294.371h3.012v0.945h-2.087l-0.057,0.848c0.196-0.049,0.371-0.084,0.645-0.084
			c0.967,0,1.716,0.463,1.716,1.576c0,1.043-0.735,1.701-1.862,1.701c-0.785,0-1.359-0.279-1.836-0.734l0.652-0.777
			c0.371,0.336,0.734,0.531,1.169,0.531c0.505,0,0.819-0.244,0.819-0.686c0-0.428-0.343-0.672-0.868-0.672
			c-0.308,0-0.589,0.084-0.819,0.182L97,296.787L97.14,294.371z"/>
		<path fill="#231F20" d="M102.355,294.336h0.734v4.938h-1.064v-3.844l-0.854,0.209l-0.225-0.883L102.355,294.336z"/>
		<path fill="#231F20" d="M109.644,293.686l-3.103,6.484h-0.904l3.104-6.484H109.644z"/>
		<path fill="#231F20" d="M113.219,294.336h0.736v4.938h-1.064v-3.844l-0.855,0.209l-0.224-0.883L113.219,294.336z"/>
		<path fill="#231F20" d="M115.368,294.371h3.012v0.945h-2.087l-0.057,0.848c0.196-0.049,0.371-0.084,0.645-0.084
			c0.967,0,1.716,0.463,1.716,1.576c0,1.043-0.735,1.701-1.862,1.701c-0.785,0-1.359-0.279-1.836-0.734l0.652-0.777
			c0.371,0.336,0.734,0.531,1.169,0.531c0.505,0,0.819-0.244,0.819-0.686c0-0.428-0.343-0.672-0.868-0.672
			c-0.308,0-0.589,0.084-0.819,0.182l-0.623-0.414L115.368,294.371z"/>
	</g>
</g>
<g>
	<g>
		<linearGradient id="SVGID_10_" gradientUnits="userSpaceOnUse" x1="13.2861" y1="118.3623" x2="22.7646" y2="118.3623">
			<stop  offset="0" style="stop-color:#285AA8"/>
			<stop  offset="0.1597" style="stop-color:#2B60AB"/>
			<stop  offset="0.3734" style="stop-color:#3271B4"/>
			<stop  offset="0.6178" style="stop-color:#3E8DC2"/>
			<stop  offset="0.8829" style="stop-color:#4FB4D5"/>
			<stop  offset="1" style="stop-color:#57C7DF"/>
		</linearGradient>
		<path fill="url(#SVGID_10_)" d="M22.765,118.362c0,2.617-2.122,4.739-4.739,4.739s-4.739-2.122-4.739-4.739
			c0-2.618,2.122-4.739,4.739-4.739S22.765,115.744,22.765,118.362"/>
		<path fill="#FFFFFF" d="M17.178,120.416l-1.316-1.336c-0.048-0.05-0.047-0.13,0.002-0.178l0.692-0.683
			c0.049-0.049,0.128-0.048,0.178,0.002l0.452,0.46c0.048,0.05,0.129,0.05,0.178,0l1.958-1.957c0.049-0.049,0.128-0.049,0.177,0
			l0.687,0.687c0.049,0.049,0.049,0.128,0,0.177l-2.829,2.829C17.308,120.466,17.228,120.466,17.178,120.416"/>
	</g>
	<g>
		<path fill="#231F20" d="M30.718,120.802c-0.742,0-1.492-0.259-2.08-0.784l0.638-0.764c0.441,0.364,0.903,0.596,1.464,0.596
			c0.441,0,0.707-0.175,0.707-0.462v-0.014c0-0.273-0.168-0.413-0.987-0.623c-0.988-0.252-1.625-0.525-1.625-1.499v-0.014
			c0-0.889,0.714-1.478,1.716-1.478c0.714,0,1.324,0.224,1.821,0.624l-0.561,0.812c-0.434-0.301-0.861-0.483-1.274-0.483
			c-0.414,0-0.63,0.189-0.63,0.427v0.014c0,0.322,0.21,0.427,1.057,0.645c0.995,0.259,1.555,0.616,1.555,1.471v0.014
			C32.518,120.256,31.775,120.802,30.718,120.802z"/>
		<path fill="#231F20" d="M35.688,120.732V120.2c-0.245,0.315-0.561,0.602-1.1,0.602c-0.806,0-1.275-0.532-1.275-1.394v-2.43h1.064
			v2.094c0,0.504,0.238,0.763,0.645,0.763s0.666-0.259,0.666-0.763v-2.094h1.064v3.754H35.688z"/>
		<path fill="#231F20" d="M39.937,120.802c-0.567,0-0.917-0.259-1.169-0.56v0.49h-1.065v-5.113h1.065v1.898
			c0.259-0.35,0.616-0.609,1.169-0.609c0.875,0,1.709,0.687,1.709,1.94v0.014C41.646,120.116,40.827,120.802,39.937,120.802z
			 M40.582,118.848c0-0.624-0.42-1.037-0.917-1.037c-0.498,0-0.911,0.413-0.911,1.037v0.014c0,0.624,0.413,1.037,0.911,1.037
			c0.497,0,0.917-0.406,0.917-1.037V118.848z"/>
		<path fill="#231F20" d="M45.916,119.226h-2.613c0.105,0.483,0.441,0.735,0.917,0.735c0.357,0,0.617-0.112,0.911-0.385l0.609,0.54
			c-0.35,0.434-0.854,0.7-1.534,0.7c-1.128,0-1.961-0.792-1.961-1.94v-0.014c0-1.071,0.764-1.954,1.856-1.954
			c1.253,0,1.828,0.974,1.828,2.038v0.014C45.93,119.065,45.923,119.128,45.916,119.226z M44.102,117.762
			c-0.441,0-0.729,0.315-0.812,0.798h1.604C44.83,118.084,44.55,117.762,44.102,117.762z"/>
		<path fill="#231F20" d="M50.948,120.823c-0.287,0.764-0.595,1.051-1.233,1.051c-0.385,0-0.672-0.098-0.945-0.259l0.357-0.77
			c0.14,0.084,0.315,0.147,0.456,0.147c0.182,0,0.28-0.056,0.371-0.245l-1.471-3.768h1.127l0.854,2.556l0.819-2.556h1.107
			L50.948,120.823z"/>
		<path fill="#231F20" d="M56.31,116.81v1.043h2.339v0.98H56.31v1.898h-1.079v-4.903h3.733v0.981H56.31z"/>
		<path fill="#231F20" d="M59.731,116.564v-0.945h1.121v0.945H59.731z M59.76,120.732v-3.754h1.064v3.754H59.76z"/>
		<path fill="#231F20" d="M64.031,118.021c-0.708,0-1.142,0.427-1.142,1.324v1.387h-1.065v-3.754h1.065v0.756
			c0.217-0.519,0.567-0.854,1.197-0.827v1.114H64.031z"/>
		<path fill="#231F20" d="M69.415,120.732v-2.094c0-0.504-0.224-0.763-0.623-0.763c-0.399,0-0.645,0.259-0.645,0.763v2.094h-1.064
			v-2.094c0-0.504-0.224-0.763-0.624-0.763c-0.399,0-0.644,0.259-0.644,0.763v2.094H64.75v-3.754h1.065v0.532
			c0.245-0.315,0.567-0.603,1.106-0.603c0.49,0,0.861,0.217,1.058,0.596c0.329-0.385,0.721-0.596,1.232-0.596
			c0.792,0,1.268,0.477,1.268,1.38v2.444H69.415z"/>
		<path fill="#231F20" d="M73.599,120.732v-0.406c-0.259,0.287-0.616,0.476-1.134,0.476c-0.708,0-1.289-0.406-1.289-1.148v-0.014
			c0-0.819,0.624-1.197,1.513-1.197c0.378,0,0.651,0.063,0.917,0.154v-0.063c0-0.441-0.273-0.687-0.806-0.687
			c-0.406,0-0.693,0.077-1.037,0.203l-0.266-0.812c0.413-0.182,0.819-0.301,1.457-0.301c1.163,0,1.674,0.602,1.674,1.618v2.178
			H73.599z M73.62,119.219c-0.182-0.084-0.42-0.14-0.679-0.14c-0.455,0-0.735,0.182-0.735,0.518v0.014
			c0,0.287,0.238,0.455,0.581,0.455c0.498,0,0.833-0.273,0.833-0.658V119.219z"/>
	</g>
</g>
<g>
	<g>
		<linearGradient id="SVGID_11_" gradientUnits="userSpaceOnUse" x1="13.9482" y1="137.4082" x2="23.4268" y2="137.4082">
			<stop  offset="0" style="stop-color:#285AA8"/>
			<stop  offset="0.1597" style="stop-color:#2B60AB"/>
			<stop  offset="0.3734" style="stop-color:#3271B4"/>
			<stop  offset="0.6178" style="stop-color:#3E8DC2"/>
			<stop  offset="0.8829" style="stop-color:#4FB4D5"/>
			<stop  offset="1" style="stop-color:#57C7DF"/>
		</linearGradient>
		<path fill="url(#SVGID_11_)" d="M23.427,137.408c0,2.617-2.122,4.739-4.739,4.739s-4.739-2.122-4.739-4.739
			c0-2.618,2.122-4.739,4.739-4.739S23.427,134.79,23.427,137.408"/>
		<path fill="#FFFFFF" d="M17.84,139.462l-1.315-1.336c-0.049-0.05-0.048-0.129,0.001-0.178l0.692-0.683
			c0.049-0.049,0.129-0.048,0.178,0.002l0.452,0.46c0.048,0.05,0.129,0.05,0.178,0l1.958-1.957c0.049-0.049,0.128-0.049,0.177,0
			l0.688,0.688c0.048,0.048,0.048,0.128,0,0.176l-2.83,2.829C17.97,139.512,17.89,139.512,17.84,139.462"/>
	</g>
	<g>
		<path fill="#231F20" d="M30.053,135.855v1.044h2.339v0.98h-2.339v1.898h-1.079v-4.903h3.733v0.98H30.053z"/>
		<path fill="#231F20" d="M33.475,135.61v-0.945h1.121v0.945H33.475z M33.503,139.778v-3.754h1.064v3.754H33.503z"/>
		<path fill="#231F20" d="M37.774,137.067c-0.708,0-1.142,0.427-1.142,1.324v1.387h-1.065v-3.754h1.065v0.756
			c0.217-0.519,0.567-0.854,1.197-0.827v1.114H37.774z"/>
		<path fill="#231F20" d="M43.158,139.778v-2.094c0-0.504-0.224-0.763-0.623-0.763c-0.399,0-0.645,0.259-0.645,0.763v2.094h-1.064
			v-2.094c0-0.504-0.224-0.763-0.624-0.763c-0.399,0-0.644,0.259-0.644,0.763v2.094h-1.065v-3.754h1.065v0.532
			c0.245-0.315,0.567-0.603,1.106-0.603c0.49,0,0.861,0.217,1.058,0.596c0.329-0.385,0.721-0.596,1.232-0.596
			c0.792,0,1.268,0.477,1.268,1.38v2.444H43.158z"/>
		<path fill="#231F20" d="M47.342,139.778v-0.406c-0.259,0.287-0.616,0.476-1.134,0.476c-0.708,0-1.289-0.406-1.289-1.148v-0.014
			c0-0.819,0.624-1.197,1.513-1.197c0.378,0,0.651,0.063,0.917,0.154v-0.063c0-0.441-0.273-0.687-0.806-0.687
			c-0.406,0-0.693,0.077-1.037,0.203l-0.266-0.812c0.413-0.182,0.819-0.301,1.457-0.301c1.163,0,1.674,0.602,1.674,1.618v2.178
			H47.342z M47.363,138.265c-0.182-0.084-0.42-0.14-0.679-0.14c-0.455,0-0.735,0.182-0.735,0.518v0.014
			c0,0.287,0.238,0.455,0.581,0.455c0.498,0,0.833-0.273,0.833-0.658V138.265z"/>
		<path fill="#231F20" d="M54.721,134.189l-3.103,6.485h-0.904l3.103-6.485H54.721z"/>
		<path fill="#231F20" d="M59.544,139.778v-0.532c-0.245,0.315-0.561,0.602-1.1,0.602c-0.806,0-1.275-0.532-1.275-1.394v-2.43h1.064
			v2.094c0,0.504,0.238,0.763,0.645,0.763s0.666-0.259,0.666-0.763v-2.094h1.064v3.754H59.544z"/>
		<path fill="#231F20" d="M62.875,139.848c-0.525,0-1.114-0.175-1.611-0.567l0.455-0.701c0.406,0.294,0.833,0.448,1.184,0.448
			c0.308,0,0.448-0.112,0.448-0.28v-0.014c0-0.231-0.364-0.308-0.777-0.435c-0.525-0.154-1.121-0.399-1.121-1.127v-0.014
			c0-0.763,0.616-1.19,1.373-1.19c0.476,0,0.994,0.161,1.4,0.434l-0.406,0.735c-0.371-0.217-0.742-0.35-1.015-0.35
			c-0.259,0-0.393,0.112-0.393,0.259v0.014c0,0.21,0.357,0.308,0.764,0.448c0.525,0.175,1.134,0.427,1.134,1.113v0.014
			C64.311,139.47,63.688,139.848,62.875,139.848z"/>
		<path fill="#231F20" d="M67.419,139.778v-0.532c-0.245,0.315-0.561,0.602-1.1,0.602c-0.806,0-1.275-0.532-1.275-1.394v-2.43h1.064
			v2.094c0,0.504,0.238,0.763,0.645,0.763s0.666-0.259,0.666-0.763v-2.094h1.064v3.754H67.419z"/>
		<path fill="#231F20" d="M71.632,139.778v-0.406c-0.259,0.287-0.616,0.476-1.134,0.476c-0.708,0-1.289-0.406-1.289-1.148v-0.014
			c0-0.819,0.624-1.197,1.513-1.197c0.378,0,0.651,0.063,0.917,0.154v-0.063c0-0.441-0.273-0.687-0.806-0.687
			c-0.406,0-0.693,0.077-1.037,0.203l-0.266-0.812c0.413-0.182,0.819-0.301,1.457-0.301c1.163,0,1.674,0.602,1.674,1.618v2.178
			H71.632z M71.653,138.265c-0.182-0.084-0.42-0.14-0.679-0.14c-0.455,0-0.735,0.182-0.735,0.518v0.014
			c0,0.287,0.238,0.455,0.581,0.455c0.498,0,0.833-0.273,0.833-0.658V138.265z"/>
		<path fill="#231F20" d="M75.784,137.067c-0.708,0-1.142,0.427-1.142,1.324v1.387h-1.065v-3.754h1.065v0.756
			c0.217-0.519,0.567-0.854,1.197-0.827v1.114H75.784z"/>
		<path fill="#231F20" d="M76.524,135.61v-0.945h1.121v0.945H76.524z M76.552,139.778v-3.754h1.064v3.754H76.552z"/>
		<path fill="#231F20" d="M80.459,139.862c-1.163,0-2.024-0.861-2.024-1.94v-0.014c0-1.079,0.869-1.954,2.038-1.954
			c1.163,0,2.024,0.862,2.024,1.94v0.014C82.497,138.986,81.628,139.862,80.459,139.862z M81.446,137.908
			c0-0.553-0.399-1.037-0.987-1.037c-0.609,0-0.974,0.469-0.974,1.023v0.014c0,0.553,0.399,1.037,0.987,1.037
			c0.609,0,0.974-0.469,0.974-1.022V137.908z"/>
		<path fill="#231F20" d="M85.386,135.61v-0.945h1.121v0.945H85.386z M85.414,139.778v-3.754h1.064v3.754H85.414z"/>
		<path fill="#231F20" d="M89.854,139.778v-2.094c0-0.504-0.238-0.763-0.645-0.763s-0.666,0.259-0.666,0.763v2.094h-1.064v-3.754
			h1.064v0.532c0.246-0.315,0.561-0.603,1.1-0.603c0.806,0,1.275,0.532,1.275,1.394v2.43H89.854z"/>
		<path fill="#231F20" d="M93.808,139.806h-0.967l-1.478-3.782h1.127l0.841,2.514l0.848-2.514h1.106L93.808,139.806z"/>
		<path fill="#231F20" d="M95.92,135.61v-0.945h1.121v0.945H95.92z M95.948,139.778v-3.754h1.064v3.754H95.948z"/>
		<path fill="#231F20" d="M99.281,139.841c-0.652,0-1.094-0.259-1.094-1.127v-1.779H97.74v-0.91h0.447v-0.959h1.064v0.959h0.883
			v0.91h-0.883v1.604c0,0.245,0.105,0.364,0.344,0.364c0.196,0,0.371-0.049,0.525-0.133v0.854
			C99.896,139.757,99.638,139.841,99.281,139.841z"/>
		<path fill="#231F20" d="M103.117,139.778v-0.406c-0.26,0.287-0.617,0.476-1.135,0.476c-0.707,0-1.289-0.406-1.289-1.148v-0.014
			c0-0.819,0.623-1.197,1.514-1.197c0.377,0,0.65,0.063,0.917,0.154v-0.063c0-0.441-0.273-0.687-0.806-0.687
			c-0.406,0-0.693,0.077-1.037,0.203l-0.266-0.812c0.413-0.182,0.819-0.301,1.457-0.301c1.162,0,1.674,0.602,1.674,1.618v2.178
			H103.117z M103.138,138.265c-0.183-0.084-0.42-0.14-0.679-0.14c-0.455,0-0.736,0.182-0.736,0.518v0.014
			c0,0.287,0.238,0.455,0.582,0.455c0.497,0,0.833-0.273,0.833-0.658V138.265z"/>
		<path fill="#231F20" d="M107.771,139.778v-0.539c-0.258,0.35-0.615,0.609-1.169,0.609c-0.876,0-1.709-0.686-1.709-1.94v-0.014
			c0-1.254,0.819-1.94,1.709-1.94c0.567,0,0.917,0.259,1.169,0.561v-1.849h1.065v5.113H107.771z M107.786,137.894
			c0-0.624-0.413-1.037-0.911-1.037c-0.496,0-0.917,0.406-0.917,1.037v0.014c0,0.624,0.421,1.037,0.917,1.037
			c0.498,0,0.911-0.413,0.911-1.037V137.894z"/>
		<path fill="#231F20" d="M111.629,139.862c-1.162,0-2.024-0.861-2.024-1.94v-0.014c0-1.079,0.868-1.954,2.038-1.954
			c1.163,0,2.024,0.862,2.024,1.94v0.014C113.667,138.986,112.799,139.862,111.629,139.862z M112.616,137.908
			c0-0.553-0.399-1.037-0.987-1.037c-0.609,0-0.974,0.469-0.974,1.023v0.014c0,0.553,0.399,1.037,0.987,1.037
			c0.609,0,0.974-0.469,0.974-1.022V137.908z"/>
	</g>
</g>
<g>
	<g>
		<linearGradient id="SVGID_12_" gradientUnits="userSpaceOnUse" x1="13.748" y1="251.6846" x2="23.2266" y2="251.6846">
			<stop  offset="0" style="stop-color:#285AA8"/>
			<stop  offset="0.1597" style="stop-color:#2B60AB"/>
			<stop  offset="0.3734" style="stop-color:#3271B4"/>
			<stop  offset="0.6178" style="stop-color:#3E8DC2"/>
			<stop  offset="0.8829" style="stop-color:#4FB4D5"/>
			<stop  offset="1" style="stop-color:#57C7DF"/>
		</linearGradient>
		<path fill="url(#SVGID_12_)" d="M23.227,251.685c0,2.617-2.122,4.739-4.739,4.739s-4.739-2.122-4.739-4.739
			c0-2.618,2.122-4.739,4.739-4.739S23.227,249.066,23.227,251.685"/>
		<path fill="#FFFFFF" d="M17.641,253.738l-1.316-1.337c-0.049-0.05-0.047-0.129,0.001-0.178l0.693-0.682
			c0.049-0.049,0.128-0.048,0.178,0.002l0.451,0.46c0.049,0.05,0.13,0.05,0.178,0l1.959-1.957c0.048-0.049,0.128-0.049,0.176,0
			l0.688,0.687c0.049,0.049,0.049,0.128,0,0.177l-2.829,2.829C17.77,253.788,17.69,253.788,17.641,253.738"/>
	</g>
	<g>
		<path fill="#231F20" d="M31.194,250.145v3.908h-1.079v-3.908h-1.492v-0.994h4.062v0.994H31.194z"/>
		<path fill="#231F20" d="M34.505,254.137c-1.163,0-2.024-0.861-2.024-1.939v-0.014c0-1.078,0.869-1.955,2.038-1.955
			c1.163,0,2.024,0.861,2.024,1.941v0.014C36.543,253.262,35.675,254.137,34.505,254.137z M35.493,252.184
			c0-0.553-0.399-1.037-0.987-1.037c-0.609,0-0.974,0.469-0.974,1.023v0.014c0,0.553,0.399,1.037,0.987,1.037
			c0.609,0,0.974-0.471,0.974-1.023V252.184z"/>
		<path fill="#231F20" d="M39.728,254.053l-0.98-1.533l-0.371,0.393v1.141h-1.065v-5.111h1.065v2.723l1.247-1.365h1.274
			l-1.429,1.479l1.478,2.275H39.728z"/>
		<path fill="#231F20" d="M44.768,252.547h-2.613c0.105,0.484,0.441,0.736,0.917,0.736c0.357,0,0.617-0.113,0.911-0.385l0.609,0.539
			c-0.35,0.434-0.854,0.699-1.534,0.699c-1.128,0-1.961-0.791-1.961-1.939v-0.014c0-1.072,0.764-1.955,1.856-1.955
			c1.253,0,1.828,0.975,1.828,2.039v0.014C44.782,252.387,44.775,252.449,44.768,252.547z M42.954,251.084
			c-0.441,0-0.729,0.314-0.812,0.799h1.604C43.682,251.406,43.402,251.084,42.954,251.084z"/>
		<path fill="#231F20" d="M47.945,254.053v-2.094c0-0.504-0.238-0.764-0.645-0.764s-0.665,0.26-0.665,0.764v2.094h-1.065v-3.754
			h1.065v0.533c0.245-0.316,0.56-0.604,1.1-0.604c0.805,0,1.274,0.533,1.274,1.395v2.43H47.945z"/>
		<path fill="#231F20" d="M49.953,249.887v-0.945h1.121v0.945H49.953z M49.981,254.053v-3.754h1.064v3.754H49.981z"/>
		<path fill="#231F20" d="M51.919,254.053v-0.748l1.94-2.145h-1.877v-0.861h3.201v0.75l-1.947,2.143h1.947v0.861H51.919z"/>
		<path fill="#231F20" d="M58.186,254.053v-0.406c-0.259,0.287-0.616,0.477-1.134,0.477c-0.708,0-1.289-0.406-1.289-1.148v-0.014
			c0-0.82,0.624-1.197,1.513-1.197c0.378,0,0.651,0.062,0.917,0.154v-0.064c0-0.441-0.273-0.686-0.806-0.686
			c-0.406,0-0.693,0.076-1.037,0.203l-0.266-0.812c0.413-0.182,0.819-0.301,1.457-0.301c1.163,0,1.674,0.602,1.674,1.617v2.178
			H58.186z M58.207,252.541c-0.182-0.084-0.42-0.141-0.679-0.141c-0.455,0-0.735,0.182-0.735,0.518v0.014
			c0,0.289,0.238,0.457,0.581,0.457c0.498,0,0.833-0.273,0.833-0.658V252.541z"/>
		<path fill="#231F20" d="M62.337,251.342c-0.708,0-1.142,0.428-1.142,1.324v1.387H60.13v-3.754h1.065v0.756
			c0.217-0.518,0.567-0.854,1.197-0.826v1.113H62.337z"/>
		<path fill="#231F20" d="M65.269,254.053v-4.902h1.079v3.922h2.444v0.98H65.269z"/>
		<path fill="#231F20" d="M69.539,254.053v-5.111h1.064v5.111H69.539z"/>
		<path fill="#231F20" d="M73.802,254.053v-0.406c-0.259,0.287-0.616,0.477-1.134,0.477c-0.708,0-1.289-0.406-1.289-1.148v-0.014
			c0-0.82,0.624-1.197,1.513-1.197c0.378,0,0.651,0.062,0.917,0.154v-0.064c0-0.441-0.273-0.686-0.806-0.686
			c-0.406,0-0.693,0.076-1.037,0.203l-0.266-0.812c0.413-0.182,0.819-0.301,1.457-0.301c1.163,0,1.674,0.602,1.674,1.617v2.178
			H73.802z M73.823,252.541c-0.182-0.084-0.42-0.141-0.679-0.141c-0.455,0-0.735,0.182-0.735,0.518v0.014
			c0,0.289,0.238,0.457,0.581,0.457c0.498,0,0.833-0.273,0.833-0.658V252.541z"/>
		<path fill="#231F20" d="M77.716,254.082h-0.967l-1.478-3.783h1.127l0.84,2.516l0.848-2.516h1.106L77.716,254.082z"/>
		<path fill="#231F20" d="M83.085,252.547h-2.613c0.105,0.484,0.441,0.736,0.917,0.736c0.357,0,0.617-0.113,0.911-0.385l0.609,0.539
			c-0.35,0.434-0.854,0.699-1.534,0.699c-1.128,0-1.961-0.791-1.961-1.939v-0.014c0-1.072,0.764-1.955,1.856-1.955
			c1.253,0,1.828,0.975,1.828,2.039v0.014C83.099,252.387,83.092,252.449,83.085,252.547z M81.271,251.084
			c-0.441,0-0.729,0.314-0.812,0.799h1.604C82,251.406,81.72,251.084,81.271,251.084z"/>
		<path fill="#231F20" d="M85.205,254.123c-0.525,0-1.114-0.176-1.611-0.566l0.455-0.701c0.406,0.295,0.833,0.449,1.184,0.449
			c0.308,0,0.448-0.113,0.448-0.281v-0.014c0-0.23-0.364-0.309-0.777-0.434c-0.525-0.154-1.121-0.4-1.121-1.129v-0.014
			c0-0.764,0.616-1.191,1.373-1.191c0.476,0,0.994,0.162,1.4,0.436l-0.406,0.734c-0.371-0.217-0.742-0.35-1.015-0.35
			c-0.259,0-0.393,0.111-0.393,0.26v0.014c0,0.209,0.357,0.309,0.764,0.447c0.525,0.176,1.134,0.428,1.134,1.115v0.014
			C86.641,253.744,86.018,254.123,85.205,254.123z"/>
		<path fill="#231F20" d="M92.213,254.053v-0.539c-0.259,0.35-0.616,0.609-1.17,0.609c-0.875,0-1.709-0.686-1.709-1.939v-0.014
			c0-1.254,0.82-1.941,1.709-1.941c0.568,0,0.918,0.26,1.17,0.561v-1.848h1.064v5.111H92.213z M92.227,252.17
			c0-0.625-0.412-1.037-0.91-1.037c-0.497,0-0.918,0.406-0.918,1.037v0.014c0,0.623,0.421,1.037,0.918,1.037
			c0.498,0,0.91-0.414,0.91-1.037V252.17z"/>
		<path fill="#231F20" d="M97.716,252.547h-2.612c0.104,0.484,0.441,0.736,0.917,0.736c0.357,0,0.616-0.113,0.911-0.385l0.609,0.539
			c-0.351,0.434-0.855,0.699-1.534,0.699c-1.128,0-1.962-0.791-1.962-1.939v-0.014c0-1.072,0.764-1.955,1.857-1.955
			c1.253,0,1.827,0.975,1.827,2.039v0.014C97.729,252.387,97.723,252.449,97.716,252.547z M95.902,251.084
			c-0.441,0-0.729,0.314-0.812,0.799h1.604C96.63,251.406,96.35,251.084,95.902,251.084z"/>
		<path fill="#231F20" d="M98.568,254.053v-5.111h1.064v5.111H98.568z"/>
		<path fill="#231F20" d="M104.588,254.123c-0.742,0-1.491-0.26-2.08-0.785l0.639-0.762c0.44,0.363,0.902,0.594,1.463,0.594
			c0.441,0,0.707-0.174,0.707-0.461v-0.014c0-0.273-0.168-0.414-0.986-0.625c-0.988-0.252-1.625-0.525-1.625-1.498v-0.014
			c0-0.891,0.714-1.479,1.715-1.479c0.715,0,1.324,0.225,1.822,0.623l-0.561,0.812c-0.435-0.301-0.861-0.482-1.275-0.482
			c-0.413,0-0.63,0.189-0.63,0.428v0.014c0,0.322,0.21,0.428,1.058,0.645c0.994,0.258,1.555,0.615,1.555,1.471v0.014
			C106.389,253.576,105.646,254.123,104.588,254.123z"/>
		<path fill="#231F20" d="M110.869,254.053l-0.449-1.1h-2.072l-0.449,1.1h-1.1l2.102-4.938h0.994l2.102,4.938H110.869z
			 M109.384,250.412l-0.651,1.59h1.303L109.384,250.412z"/>
		<path fill="#231F20" d="M114.34,250.145v3.908h-1.078v-3.908h-1.492v-0.994h4.062v0.994H114.34z"/>
	</g>
</g>
<g>
	<g>
		<linearGradient id="SVGID_13_" gradientUnits="userSpaceOnUse" x1="14.0029" y1="213.5918" x2="23.4814" y2="213.5918">
			<stop  offset="0" style="stop-color:#285AA8"/>
			<stop  offset="0.1597" style="stop-color:#2B60AB"/>
			<stop  offset="0.3734" style="stop-color:#3271B4"/>
			<stop  offset="0.6178" style="stop-color:#3E8DC2"/>
			<stop  offset="0.8829" style="stop-color:#4FB4D5"/>
			<stop  offset="1" style="stop-color:#57C7DF"/>
		</linearGradient>
		<path fill="url(#SVGID_13_)" d="M23.481,213.593c0,2.617-2.122,4.738-4.739,4.738s-4.739-2.121-4.739-4.738
			c0-2.619,2.122-4.74,4.739-4.74S23.481,210.974,23.481,213.593"/>
		<path fill="#FFFFFF" d="M17.895,215.646l-1.315-1.336c-0.049-0.051-0.048-0.129,0.001-0.178l0.693-0.684
			c0.048-0.047,0.128-0.047,0.178,0.004l0.451,0.459c0.049,0.049,0.129,0.049,0.178,0l1.958-1.957c0.049-0.049,0.128-0.049,0.177,0
			l0.688,0.688c0.048,0.049,0.048,0.127,0,0.176l-2.83,2.83C18.024,215.696,17.944,215.696,17.895,215.646"/>
	</g>
	<g>
		<path fill="#231F20" d="M32.623,215.961l-0.448-1.1h-2.073l-0.448,1.1h-1.1l2.101-4.938h0.995l2.101,4.938H32.623z M31.138,212.32
			l-0.651,1.59h1.303L31.138,212.32z"/>
		<path fill="#231F20" d="M34.441,215.961v-5.111h1.064v5.111H34.441z"/>
		<path fill="#231F20" d="M41.17,215.961v-2.094c0-0.504-0.224-0.764-0.623-0.764c-0.399,0-0.645,0.26-0.645,0.764v2.094h-1.064
			v-2.094c0-0.504-0.224-0.764-0.624-0.764c-0.399,0-0.644,0.26-0.644,0.764v2.094h-1.065v-3.754h1.065v0.533
			c0.245-0.316,0.567-0.604,1.106-0.604c0.49,0,0.861,0.217,1.058,0.596c0.329-0.385,0.721-0.596,1.232-0.596
			c0.792,0,1.268,0.477,1.268,1.381v2.443H41.17z"/>
		<path fill="#231F20" d="M45.354,215.961v-0.406c-0.259,0.287-0.616,0.477-1.134,0.477c-0.708,0-1.289-0.406-1.289-1.148v-0.014
			c0-0.82,0.624-1.197,1.513-1.197c0.378,0,0.651,0.062,0.917,0.154v-0.064c0-0.441-0.273-0.686-0.806-0.686
			c-0.406,0-0.693,0.076-1.037,0.203l-0.266-0.812c0.413-0.182,0.819-0.301,1.457-0.301c1.163,0,1.674,0.602,1.674,1.617v2.178
			H45.354z M45.375,214.449c-0.182-0.084-0.42-0.141-0.679-0.141c-0.455,0-0.735,0.182-0.735,0.518v0.014
			c0,0.289,0.238,0.457,0.581,0.457c0.498,0,0.833-0.273,0.833-0.658V214.449z"/>
		<path fill="#231F20" d="M49.071,216.045c-1.127,0-1.954-0.867-1.954-1.939v-0.014c0-1.072,0.82-1.955,1.968-1.955
			c0.708,0,1.148,0.238,1.499,0.631l-0.651,0.701c-0.238-0.252-0.477-0.414-0.854-0.414c-0.532,0-0.911,0.469-0.911,1.023v0.014
			c0,0.574,0.371,1.037,0.953,1.037c0.357,0,0.602-0.154,0.861-0.4l0.624,0.631C50.241,215.758,49.821,216.045,49.071,216.045z"/>
		<path fill="#231F20" d="M54.68,214.455h-2.613c0.105,0.484,0.441,0.736,0.917,0.736c0.357,0,0.617-0.113,0.911-0.385l0.609,0.539
			c-0.35,0.434-0.854,0.699-1.534,0.699c-1.128,0-1.961-0.791-1.961-1.939v-0.014c0-1.072,0.764-1.955,1.856-1.955
			c1.253,0,1.828,0.975,1.828,2.039v0.014C54.693,214.295,54.687,214.357,54.68,214.455z M52.866,212.992
			c-0.441,0-0.729,0.314-0.812,0.799h1.604C53.594,213.314,53.314,212.992,52.866,212.992z"/>
		<path fill="#231F20" d="M57.857,215.961v-2.094c0-0.504-0.238-0.764-0.645-0.764s-0.665,0.26-0.665,0.764v2.094h-1.065v-3.754
			h1.065v0.533c0.245-0.316,0.56-0.604,1.1-0.604c0.805,0,1.274,0.533,1.274,1.395v2.43H57.857z"/>
		<path fill="#231F20" d="M62.042,215.961v-0.406c-0.259,0.287-0.616,0.477-1.134,0.477c-0.708,0-1.289-0.406-1.289-1.148v-0.014
			c0-0.82,0.624-1.197,1.513-1.197c0.378,0,0.651,0.062,0.917,0.154v-0.064c0-0.441-0.273-0.686-0.806-0.686
			c-0.406,0-0.693,0.076-1.037,0.203l-0.266-0.812c0.413-0.182,0.819-0.301,1.457-0.301c1.163,0,1.674,0.602,1.674,1.617v2.178
			H62.042z M62.063,214.449c-0.182-0.084-0.42-0.141-0.679-0.141c-0.455,0-0.735,0.182-0.735,0.518v0.014
			c0,0.289,0.238,0.457,0.581,0.457c0.498,0,0.833-0.273,0.833-0.658V214.449z"/>
		<path fill="#231F20" d="M68.652,215.961v-2.094c0-0.504-0.224-0.764-0.623-0.764c-0.399,0-0.645,0.26-0.645,0.764v2.094H66.32
			v-2.094c0-0.504-0.224-0.764-0.624-0.764c-0.399,0-0.644,0.26-0.644,0.764v2.094h-1.065v-3.754h1.065v0.533
			c0.245-0.316,0.567-0.604,1.106-0.604c0.49,0,0.861,0.217,1.058,0.596c0.329-0.385,0.721-0.596,1.232-0.596
			c0.792,0,1.268,0.477,1.268,1.381v2.443H68.652z"/>
		<path fill="#231F20" d="M70.658,211.795v-0.945h1.121v0.945H70.658z M70.687,215.961v-3.754h1.064v3.754H70.687z"/>
		<path fill="#231F20" d="M76.239,214.455h-2.613c0.105,0.484,0.441,0.736,0.917,0.736c0.357,0,0.617-0.113,0.911-0.385l0.609,0.539
			c-0.35,0.434-0.854,0.699-1.534,0.699c-1.128,0-1.961-0.791-1.961-1.939v-0.014c0-1.072,0.764-1.955,1.856-1.955
			c1.253,0,1.828,0.975,1.828,2.039v0.014C76.253,214.295,76.246,214.357,76.239,214.455z M74.425,212.992
			c-0.441,0-0.729,0.314-0.812,0.799h1.604C75.153,213.314,74.874,212.992,74.425,212.992z"/>
		<path fill="#231F20" d="M79.417,215.961v-2.094c0-0.504-0.238-0.764-0.645-0.764s-0.665,0.26-0.665,0.764v2.094h-1.065v-3.754
			h1.065v0.533c0.245-0.316,0.56-0.604,1.1-0.604c0.805,0,1.274,0.533,1.274,1.395v2.43H79.417z"/>
		<path fill="#231F20" d="M82.671,216.025c-0.651,0-1.093-0.26-1.093-1.129v-1.779H81.13v-0.91h0.448v-0.959h1.064v0.959h0.883v0.91
			h-0.883v1.605c0,0.244,0.105,0.363,0.343,0.363c0.196,0,0.371-0.049,0.525-0.133v0.854
			C83.287,215.939,83.028,216.025,82.671,216.025z"/>
		<path fill="#231F20" d="M86.045,216.045c-1.163,0-2.024-0.861-2.024-1.939v-0.014c0-1.078,0.869-1.955,2.038-1.955
			c1.163,0,2.024,0.861,2.024,1.941v0.014C88.083,215.17,87.215,216.045,86.045,216.045z M87.032,214.092
			c0-0.553-0.399-1.037-0.987-1.037c-0.609,0-0.974,0.469-0.974,1.023v0.014c0,0.553,0.399,1.037,0.987,1.037
			c0.609,0,0.974-0.471,0.974-1.023V214.092z"/>
		<path fill="#231F20" d="M91.637,212.613l-0.756-0.609c0.483-0.658,0.953-1.016,1.828-1.016c1.043,0,1.688,0.604,1.688,1.52
			c0,0.82-0.42,1.234-1.289,1.906l-0.798,0.615h2.136v0.932h-3.627v-0.854l1.631-1.338c0.609-0.504,0.848-0.771,0.848-1.178
			c0-0.412-0.273-0.637-0.658-0.637C92.261,211.955,92.002,212.166,91.637,212.613z"/>
		<path fill="#231F20" d="M97.385,216.045c-1.31,0-2.171-1.1-2.171-2.527c0-1.43,0.876-2.543,2.185-2.543
			c1.311,0,2.172,1.1,2.172,2.529C99.57,214.932,98.694,216.045,97.385,216.045z M97.385,211.949c-0.651,0-1.064,0.65-1.064,1.555
			c0,0.902,0.428,1.568,1.078,1.568c0.652,0,1.064-0.658,1.064-1.555S98.036,211.949,97.385,211.949z"/>
		<path fill="#231F20" d="M102.494,216.045c-1.309,0-2.17-1.1-2.17-2.527c0-1.43,0.875-2.543,2.185-2.543s2.171,1.1,2.171,2.529
			C104.68,214.932,103.805,216.045,102.494,216.045z M102.494,211.949c-0.65,0-1.064,0.65-1.064,1.555
			c0,0.902,0.428,1.568,1.079,1.568s1.064-0.658,1.064-1.555S103.146,211.949,102.494,211.949z"/>
		<path fill="#231F20" d="M108.62,210.373l-3.103,6.484h-0.904l3.104-6.484H108.62z"/>
		<path fill="#231F20" d="M112.939,215.961v-3.201l-1.38,2.096h-0.028l-1.365-2.074v3.18h-1.058v-4.902h1.163l1.288,2.074
			l1.288-2.074h1.163v4.902H112.939z"/>
		<path fill="#231F20" d="M117.517,215.961h-2.332v-4.902h2.276c1.002,0,1.617,0.498,1.617,1.268v0.014
			c0,0.555-0.293,0.861-0.645,1.059c0.568,0.217,0.918,0.545,0.918,1.205v0.014C119.352,215.514,118.623,215.961,117.517,215.961z
			 M118.007,212.508c0-0.322-0.252-0.504-0.707-0.504h-1.065v1.037h0.995c0.477,0,0.777-0.154,0.777-0.518V212.508z M118.28,214.469
			c0-0.328-0.245-0.531-0.798-0.531h-1.248v1.078h1.282c0.477,0,0.764-0.168,0.764-0.531V214.469z"/>
	</g>
</g>
<g>
	<g>
		<linearGradient id="SVGID_14_" gradientUnits="userSpaceOnUse" x1="13.9453" y1="175.501" x2="23.4238" y2="175.501">
			<stop  offset="0" style="stop-color:#285AA8"/>
			<stop  offset="0.1597" style="stop-color:#2B60AB"/>
			<stop  offset="0.3734" style="stop-color:#3271B4"/>
			<stop  offset="0.6178" style="stop-color:#3E8DC2"/>
			<stop  offset="0.8829" style="stop-color:#4FB4D5"/>
			<stop  offset="1" style="stop-color:#57C7DF"/>
		</linearGradient>
		<path fill="url(#SVGID_14_)" d="M23.424,175.5c0,2.617-2.122,4.74-4.739,4.74s-4.739-2.123-4.739-4.74s2.122-4.738,4.739-4.738
			S23.424,172.883,23.424,175.5"/>
		<path fill="#FFFFFF" d="M17.838,177.555l-1.316-1.337c-0.049-0.05-0.048-0.129,0.001-0.178l0.693-0.683
			c0.048-0.049,0.128-0.047,0.178,0.002l0.451,0.461c0.049,0.049,0.129,0.049,0.178,0l1.958-1.958c0.049-0.048,0.128-0.048,0.177,0
			l0.688,0.688c0.048,0.048,0.048,0.128,0,0.177l-2.829,2.828C17.967,177.604,17.888,177.604,17.838,177.555"/>
	</g>
	<g>
		<path fill="#231F20" d="M31.194,173.962v3.908h-1.079v-3.908h-1.492v-0.995h4.062v0.995H31.194z"/>
		<path fill="#231F20" d="M36.151,176.364h-2.613c0.105,0.483,0.441,0.735,0.917,0.735c0.357,0,0.617-0.112,0.911-0.385l0.609,0.54
			c-0.35,0.434-0.854,0.7-1.534,0.7c-1.128,0-1.961-0.792-1.961-1.94V176c0-1.071,0.764-1.954,1.856-1.954
			c1.253,0,1.828,0.974,1.828,2.038v0.014C36.165,176.203,36.158,176.266,36.151,176.364z M34.337,174.9
			c-0.441,0-0.729,0.315-0.812,0.798h1.604C35.065,175.223,34.786,174.9,34.337,174.9z"/>
		<path fill="#231F20" d="M38.271,177.94c-0.525,0-1.114-0.175-1.611-0.567l0.455-0.701c0.406,0.294,0.833,0.448,1.184,0.448
			c0.309,0,0.448-0.112,0.448-0.28v-0.014c0-0.231-0.364-0.308-0.777-0.435c-0.525-0.154-1.121-0.399-1.121-1.127v-0.014
			c0-0.763,0.616-1.19,1.373-1.19c0.476,0,0.994,0.161,1.4,0.434l-0.406,0.735c-0.371-0.217-0.742-0.35-1.015-0.35
			c-0.259,0-0.393,0.112-0.393,0.259v0.014c0,0.21,0.357,0.308,0.764,0.448c0.525,0.175,1.134,0.427,1.134,1.113v0.014
			C39.707,177.562,39.083,177.94,38.271,177.94z"/>
		<path fill="#231F20" d="M41.666,177.933c-0.651,0-1.093-0.259-1.093-1.127v-1.779h-0.448v-0.91h0.448v-0.959h1.064v0.959h0.883
			v0.91h-0.883v1.604c0,0.245,0.105,0.364,0.343,0.364c0.196,0,0.371-0.049,0.525-0.133v0.854
			C42.282,177.849,42.023,177.933,41.666,177.933z"/>
		<path fill="#231F20" d="M43.324,173.703v-0.945h1.121v0.945H43.324z M43.353,177.87v-3.754h1.064v3.754H43.353z"/>
		<path fill="#231F20" d="M47.098,179.005c-0.609,0-1.184-0.14-1.66-0.393l0.364-0.798c0.385,0.217,0.771,0.343,1.268,0.343
			c0.729,0,1.072-0.35,1.072-1.022v-0.182c-0.315,0.378-0.658,0.609-1.226,0.609c-0.875,0-1.667-0.637-1.667-1.751v-0.014
			c0-1.121,0.806-1.751,1.667-1.751c0.581,0,0.924,0.245,1.211,0.561v-0.49h1.065v2.906
			C49.192,178.438,48.491,179.005,47.098,179.005z M48.141,175.797c0-0.511-0.399-0.868-0.917-0.868
			c-0.518,0-0.911,0.357-0.911,0.868v0.014c0,0.518,0.393,0.869,0.911,0.869c0.519,0,0.917-0.357,0.917-0.869V175.797z"/>
		<path fill="#231F20" d="M51.984,177.954c-1.163,0-2.024-0.861-2.024-1.94V176c0-1.079,0.869-1.954,2.038-1.954
			c1.163,0,2.024,0.862,2.024,1.94V176C54.022,177.079,53.154,177.954,51.984,177.954z M52.972,176c0-0.553-0.399-1.037-0.987-1.037
			c-0.609,0-0.974,0.469-0.974,1.023V176c0,0.553,0.399,1.037,0.987,1.037c0.609,0,0.974-0.469,0.974-1.022V176z"/>
		<path fill="#231F20" d="M56.106,177.94c-0.525,0-1.114-0.175-1.611-0.567l0.455-0.701c0.406,0.294,0.833,0.448,1.184,0.448
			c0.308,0,0.448-0.112,0.448-0.28v-0.014c0-0.231-0.364-0.308-0.777-0.435c-0.525-0.154-1.121-0.399-1.121-1.127v-0.014
			c0-0.763,0.616-1.19,1.373-1.19c0.476,0,0.994,0.161,1.4,0.434l-0.406,0.735c-0.371-0.217-0.742-0.35-1.015-0.35
			c-0.259,0-0.393,0.112-0.393,0.259v0.014c0,0.21,0.357,0.308,0.764,0.448c0.525,0.175,1.134,0.427,1.134,1.113v0.014
			C57.542,177.562,56.919,177.94,56.106,177.94z"/>
		<path fill="#231F20" d="M63.738,172.281l-3.103,6.485h-0.904l3.103-6.485H63.738z"/>
		<path fill="#231F20" d="M71.655,172.933v3.004h0.659v0.875h-0.659v1.058h-1.029v-1.058H68.23l-0.175-0.763l2.689-3.117H71.655z
			 M70.625,174.41l-1.303,1.527h1.303V174.41z"/>
	</g>
</g>
<g>
	<g>
		<linearGradient id="SVGID_15_" gradientUnits="userSpaceOnUse" x1="13.9463" y1="156.4551" x2="23.4248" y2="156.4551">
			<stop  offset="0" style="stop-color:#285AA8"/>
			<stop  offset="0.1597" style="stop-color:#2B60AB"/>
			<stop  offset="0.3734" style="stop-color:#3271B4"/>
			<stop  offset="0.6178" style="stop-color:#3E8DC2"/>
			<stop  offset="0.8829" style="stop-color:#4FB4D5"/>
			<stop  offset="1" style="stop-color:#57C7DF"/>
		</linearGradient>
		<path fill="url(#SVGID_15_)" d="M23.425,156.455c0,2.617-2.122,4.739-4.739,4.739s-4.739-2.122-4.739-4.739
			c0-2.618,2.122-4.739,4.739-4.739S23.425,153.837,23.425,156.455"/>
		<path fill="#FFFFFF" d="M17.839,158.509l-1.316-1.336c-0.049-0.05-0.047-0.13,0.001-0.178l0.693-0.683
			c0.049-0.049,0.128-0.048,0.178,0.002l0.451,0.46c0.049,0.05,0.13,0.05,0.178,0l1.959-1.957c0.048-0.049,0.128-0.049,0.177,0
			l0.687,0.687c0.049,0.049,0.049,0.128,0,0.177l-2.829,2.829C17.968,158.559,17.889,158.559,17.839,158.509"/>
	</g>
	<g>
		<path fill="#231F20" d="M30.053,154.902v1.043h2.339v0.98h-2.339v1.898h-1.079v-4.903h3.733v0.981H30.053z"/>
		<path fill="#231F20" d="M33.475,154.656v-0.945h1.121v0.945H33.475z M33.503,158.824v-3.754h1.064v3.754H33.503z"/>
		<path fill="#231F20" d="M37.774,156.113c-0.708,0-1.142,0.427-1.142,1.324v1.387h-1.065v-3.754h1.065v0.756
			c0.217-0.519,0.567-0.854,1.197-0.827v1.114H37.774z"/>
		<path fill="#231F20" d="M43.158,158.824v-2.094c0-0.504-0.224-0.763-0.623-0.763c-0.399,0-0.645,0.259-0.645,0.763v2.094h-1.064
			v-2.094c0-0.504-0.224-0.763-0.624-0.763c-0.399,0-0.644,0.259-0.644,0.763v2.094h-1.065v-3.754h1.065v0.532
			c0.245-0.315,0.567-0.603,1.106-0.603c0.49,0,0.861,0.217,1.058,0.596c0.329-0.385,0.721-0.596,1.232-0.596
			c0.792,0,1.268,0.477,1.268,1.38v2.444H43.158z"/>
		<path fill="#231F20" d="M47.342,158.824v-0.406c-0.259,0.287-0.616,0.476-1.134,0.476c-0.708,0-1.289-0.406-1.289-1.148v-0.014
			c0-0.819,0.624-1.197,1.513-1.197c0.378,0,0.651,0.063,0.917,0.154v-0.063c0-0.441-0.273-0.687-0.806-0.687
			c-0.406,0-0.693,0.077-1.037,0.203l-0.266-0.812c0.413-0.182,0.819-0.301,1.457-0.301c1.163,0,1.674,0.602,1.674,1.618v2.178
			H47.342z M47.363,157.311c-0.182-0.084-0.42-0.14-0.679-0.14c-0.455,0-0.735,0.182-0.735,0.518v0.014
			c0,0.287,0.238,0.455,0.581,0.455c0.498,0,0.833-0.273,0.833-0.658V157.311z"/>
		<path fill="#231F20" d="M51.662,158.824v-2.094c0-0.504-0.238-0.763-0.645-0.763s-0.665,0.259-0.665,0.763v2.094h-1.065v-3.754
			h1.065v0.532c0.245-0.315,0.56-0.603,1.1-0.603c0.805,0,1.274,0.532,1.274,1.394v2.43H51.662z"/>
		<path fill="#231F20" d="M54.916,158.887c-0.651,0-1.093-0.259-1.093-1.127v-1.779h-0.448v-0.91h0.448v-0.959h1.064v0.959h0.883
			v0.91h-0.883v1.604c0,0.245,0.105,0.364,0.343,0.364c0.196,0,0.371-0.049,0.525-0.133v0.854
			C55.532,158.803,55.273,158.887,54.916,158.887z"/>
		<path fill="#231F20" d="M59.936,157.318h-2.613c0.105,0.483,0.441,0.735,0.917,0.735c0.357,0,0.617-0.112,0.911-0.385l0.609,0.54
			c-0.35,0.434-0.854,0.7-1.534,0.7c-1.128,0-1.961-0.792-1.961-1.94v-0.014c0-1.071,0.764-1.954,1.856-1.954
			c1.253,0,1.828,0.974,1.828,2.038v0.014C59.95,157.157,59.943,157.22,59.936,157.318z M58.122,155.854
			c-0.441,0-0.729,0.315-0.812,0.798h1.604C58.85,156.176,58.57,155.854,58.122,155.854z"/>
		<path fill="#231F20" d="M62.056,158.894c-0.525,0-1.114-0.175-1.611-0.567l0.455-0.701c0.406,0.294,0.833,0.448,1.184,0.448
			c0.308,0,0.448-0.112,0.448-0.28v-0.014c0-0.231-0.364-0.308-0.777-0.435c-0.525-0.154-1.121-0.399-1.121-1.127v-0.014
			c0-0.763,0.616-1.19,1.373-1.19c0.476,0,0.994,0.161,1.4,0.434l-0.406,0.735c-0.371-0.217-0.742-0.35-1.015-0.35
			c-0.259,0-0.393,0.112-0.393,0.259v0.014c0,0.21,0.357,0.308,0.764,0.448c0.525,0.175,1.134,0.427,1.134,1.113v0.014
			C63.491,158.516,62.868,158.894,62.056,158.894z"/>
		<path fill="#231F20" d="M69.687,153.235l-3.103,6.485h-0.904l3.103-6.485H69.687z"/>
		<path fill="#231F20" d="M72.184,154.656v-0.945h1.121v0.945H72.184z M72.212,158.824v-3.754h1.064v3.754H72.212z"/>
		<path fill="#231F20" d="M74.326,158.824v-5.113h1.064v5.113H74.326z"/>
		<path fill="#231F20" d="M76.412,154.656v-0.945h1.121v0.945H76.412z M76.44,158.824v-3.754h1.064v3.754H76.44z"/>
		<path fill="#231F20" d="M83.169,158.824v-2.094c0-0.504-0.224-0.763-0.623-0.763c-0.399,0-0.645,0.259-0.645,0.763v2.094h-1.064
			v-2.094c0-0.504-0.224-0.763-0.624-0.763c-0.399,0-0.644,0.259-0.644,0.763v2.094h-1.065v-3.754h1.065v0.532
			c0.245-0.315,0.567-0.603,1.106-0.603c0.49,0,0.861,0.217,1.058,0.596c0.329-0.385,0.721-0.596,1.232-0.596
			c0.792,0,1.268,0.477,1.268,1.38v2.444H83.169z"/>
		<path fill="#231F20" d="M85.175,154.656v-0.945h1.121v0.945H85.175z M85.204,158.824v-3.754h1.064v3.754H85.204z"/>
		<path fill="#231F20" d="M88.536,158.887c-0.651,0-1.093-0.259-1.093-1.127v-1.779h-0.448v-0.91h0.448v-0.959h1.064v0.959h0.883
			v0.91h-0.883v1.604c0,0.245,0.105,0.364,0.344,0.364c0.195,0,0.371-0.049,0.525-0.133v0.854
			C89.152,158.803,88.893,158.887,88.536,158.887z"/>
		<path fill="#231F20" d="M92.372,158.824v-0.406c-0.259,0.287-0.616,0.476-1.134,0.476c-0.708,0-1.289-0.406-1.289-1.148v-0.014
			c0-0.819,0.623-1.197,1.513-1.197c0.378,0,0.651,0.063,0.917,0.154v-0.063c0-0.441-0.273-0.687-0.805-0.687
			c-0.406,0-0.693,0.077-1.037,0.203l-0.266-0.812c0.412-0.182,0.818-0.301,1.457-0.301c1.162,0,1.674,0.602,1.674,1.618v2.178
			H92.372z M92.393,157.311c-0.182-0.084-0.42-0.14-0.679-0.14c-0.455,0-0.735,0.182-0.735,0.518v0.014
			c0,0.287,0.238,0.455,0.581,0.455c0.497,0,0.833-0.273,0.833-0.658V157.311z"/>
		<path fill="#231F20" d="M97.027,158.824v-0.539c-0.259,0.35-0.616,0.609-1.17,0.609c-0.875,0-1.709-0.686-1.709-1.94v-0.014
			c0-1.254,0.82-1.94,1.709-1.94c0.568,0,0.918,0.259,1.17,0.561v-1.849h1.064v5.113H97.027z M97.041,156.94
			c0-0.624-0.412-1.037-0.91-1.037c-0.497,0-0.918,0.406-0.918,1.037v0.014c0,0.624,0.421,1.037,0.918,1.037
			c0.498,0,0.91-0.413,0.91-1.037V156.94z"/>
		<path fill="#231F20" d="M100.885,158.908c-1.163,0-2.025-0.861-2.025-1.94v-0.014c0-1.079,0.869-1.954,2.039-1.954
			c1.162,0,2.023,0.862,2.023,1.94v0.014C102.922,158.032,102.054,158.908,100.885,158.908z M101.871,156.954
			c0-0.553-0.398-1.037-0.986-1.037c-0.609,0-0.975,0.469-0.975,1.023v0.014c0,0.553,0.4,1.037,0.988,1.037
			c0.609,0,0.973-0.469,0.973-1.022V156.954z"/>
		<path fill="#231F20" d="M105.007,158.894c-0.525,0-1.114-0.175-1.61-0.567l0.455-0.701c0.406,0.294,0.833,0.448,1.184,0.448
			c0.308,0,0.447-0.112,0.447-0.28v-0.014c0-0.231-0.363-0.308-0.777-0.435c-0.525-0.154-1.12-0.399-1.12-1.127v-0.014
			c0-0.763,0.616-1.19,1.373-1.19c0.476,0,0.994,0.161,1.4,0.434l-0.406,0.735c-0.371-0.217-0.742-0.35-1.015-0.35
			c-0.26,0-0.393,0.112-0.393,0.259v0.014c0,0.21,0.357,0.308,0.764,0.448c0.525,0.175,1.134,0.427,1.134,1.113v0.014
			C106.442,158.516,105.819,158.894,105.007,158.894z"/>
	</g>
</g>
<g>
	<g>
		<linearGradient id="SVGID_16_" gradientUnits="userSpaceOnUse" x1="14.0029" y1="194.5459" x2="23.4814" y2="194.5459">
			<stop  offset="0" style="stop-color:#285AA8"/>
			<stop  offset="0.1597" style="stop-color:#2B60AB"/>
			<stop  offset="0.3734" style="stop-color:#3271B4"/>
			<stop  offset="0.6178" style="stop-color:#3E8DC2"/>
			<stop  offset="0.8829" style="stop-color:#4FB4D5"/>
			<stop  offset="1" style="stop-color:#57C7DF"/>
		</linearGradient>
		<path fill="url(#SVGID_16_)" d="M23.481,194.547c0,2.617-2.122,4.738-4.739,4.738s-4.739-2.121-4.739-4.738
			c0-2.619,2.122-4.74,4.739-4.74S23.481,191.928,23.481,194.547"/>
		<path fill="#FFFFFF" d="M17.895,196.6l-1.315-1.336c-0.049-0.05-0.048-0.129,0.001-0.178l0.693-0.683
			c0.048-0.048,0.128-0.048,0.178,0.003l0.451,0.459c0.049,0.051,0.129,0.051,0.178,0l1.958-1.957c0.049-0.049,0.128-0.049,0.177,0
			l0.688,0.688c0.048,0.049,0.048,0.128,0,0.176l-2.83,2.83C18.024,196.65,17.944,196.65,17.895,196.6"/>
	</g>
	<g>
		<path fill="#231F20" d="M31.271,197c-1.443,0-2.515-1.114-2.515-2.521v-0.014c0-1.394,1.051-2.536,2.557-2.536
			c0.924,0,1.478,0.308,1.933,0.756l-0.687,0.792c-0.378-0.343-0.764-0.553-1.254-0.553c-0.826,0-1.421,0.687-1.421,1.527v0.014
			c0,0.84,0.581,1.541,1.421,1.541c0.561,0,0.904-0.224,1.289-0.574l0.686,0.693C32.777,196.664,32.217,197,31.271,197z"/>
		<path fill="#231F20" d="M36.227,196.916v-0.406c-0.259,0.287-0.616,0.476-1.134,0.476c-0.708,0-1.289-0.406-1.289-1.148v-0.014
			c0-0.819,0.624-1.197,1.513-1.197c0.378,0,0.651,0.063,0.917,0.154v-0.063c0-0.441-0.273-0.687-0.806-0.687
			c-0.406,0-0.693,0.077-1.037,0.203l-0.266-0.812c0.413-0.182,0.819-0.301,1.457-0.301c1.163,0,1.674,0.602,1.674,1.618v2.178
			H36.227z M36.248,195.403c-0.182-0.084-0.42-0.14-0.679-0.14c-0.455,0-0.735,0.182-0.735,0.518v0.014
			c0,0.287,0.238,0.455,0.581,0.455c0.498,0,0.833-0.273,0.833-0.658V195.403z"/>
		<path fill="#231F20" d="M38.221,196.916v-5.113h1.064v5.113H38.221z"/>
		<path fill="#231F20" d="M43.774,195.41h-2.613c0.105,0.483,0.441,0.735,0.917,0.735c0.357,0,0.617-0.112,0.911-0.385l0.609,0.54
			c-0.35,0.434-0.854,0.7-1.534,0.7c-1.128,0-1.961-0.792-1.961-1.94v-0.014c0-1.071,0.764-1.954,1.856-1.954
			c1.253,0,1.828,0.974,1.828,2.038v0.014C43.788,195.249,43.781,195.312,43.774,195.41z M41.96,193.946
			c-0.441,0-0.729,0.315-0.812,0.798h1.604C42.688,194.268,42.408,193.946,41.96,193.946z"/>
		<path fill="#231F20" d="M46.951,196.916v-2.094c0-0.504-0.238-0.763-0.645-0.763s-0.665,0.259-0.665,0.763v2.094h-1.065v-3.754
			h1.065v0.532c0.245-0.315,0.56-0.603,1.1-0.603c0.805,0,1.274,0.532,1.274,1.394v2.43H46.951z"/>
		<path fill="#231F20" d="M51.648,196.916v-0.539c-0.259,0.35-0.616,0.609-1.169,0.609c-0.875,0-1.709-0.686-1.709-1.94v-0.014
			c0-1.254,0.819-1.94,1.709-1.94c0.567,0,0.917,0.259,1.169,0.561v-1.849h1.065v5.113H51.648z M51.662,195.032
			c0-0.624-0.413-1.037-0.911-1.037c-0.497,0-0.917,0.406-0.917,1.037v0.014c0,0.624,0.42,1.037,0.917,1.037
			c0.498,0,0.911-0.413,0.911-1.037V195.032z"/>
		<path fill="#231F20" d="M55.862,196.916v-0.406c-0.259,0.287-0.616,0.476-1.134,0.476c-0.708,0-1.289-0.406-1.289-1.148v-0.014
			c0-0.819,0.624-1.197,1.513-1.197c0.378,0,0.651,0.063,0.917,0.154v-0.063c0-0.441-0.273-0.687-0.806-0.687
			c-0.406,0-0.693,0.077-1.037,0.203l-0.266-0.812c0.413-0.182,0.819-0.301,1.457-0.301c1.163,0,1.674,0.602,1.674,1.618v2.178
			H55.862z M55.883,195.403c-0.182-0.084-0.42-0.14-0.679-0.14c-0.455,0-0.735,0.182-0.735,0.518v0.014
			c0,0.287,0.238,0.455,0.581,0.455c0.498,0,0.833-0.273,0.833-0.658V195.403z"/>
		<path fill="#231F20" d="M60.013,194.205c-0.708,0-1.142,0.427-1.142,1.324v1.387h-1.065v-3.754h1.065v0.756
			c0.217-0.519,0.567-0.854,1.197-0.827v1.114H60.013z"/>
		<path fill="#231F20" d="M60.753,192.748v-0.945h1.121v0.945H60.753z M60.782,196.916v-3.754h1.064v3.754H60.782z"/>
		<path fill="#231F20" d="M64.688,197c-1.163,0-2.024-0.861-2.024-1.94v-0.014c0-1.079,0.869-1.954,2.038-1.954
			c1.163,0,2.024,0.862,2.024,1.94v0.014C66.727,196.124,65.858,197,64.688,197z M65.676,195.045c0-0.553-0.399-1.037-0.987-1.037
			c-0.609,0-0.974,0.469-0.974,1.023v0.014c0,0.553,0.399,1.037,0.987,1.037c0.609,0,0.974-0.469,0.974-1.022V195.045z"/>
	</g>
</g>
<g>
	<g>
		<linearGradient id="SVGID_17_" gradientUnits="userSpaceOnUse" x1="13.2861" y1="232.6387" x2="22.7646" y2="232.6387">
			<stop  offset="0" style="stop-color:#285AA8"/>
			<stop  offset="0.1597" style="stop-color:#2B60AB"/>
			<stop  offset="0.3734" style="stop-color:#3271B4"/>
			<stop  offset="0.6178" style="stop-color:#3E8DC2"/>
			<stop  offset="0.8829" style="stop-color:#4FB4D5"/>
			<stop  offset="1" style="stop-color:#57C7DF"/>
		</linearGradient>
		<path fill="url(#SVGID_17_)" d="M22.765,232.639c0,2.617-2.122,4.739-4.739,4.739s-4.739-2.122-4.739-4.739
			c0-2.618,2.122-4.739,4.739-4.739S22.765,230.021,22.765,232.639"/>
		<path fill="#FFFFFF" d="M17.178,234.692l-1.316-1.337c-0.048-0.049-0.047-0.129,0.002-0.178l0.692-0.682
			c0.049-0.049,0.128-0.048,0.178,0.002l0.452,0.46c0.048,0.05,0.129,0.05,0.178,0l1.958-1.957c0.049-0.049,0.128-0.049,0.177,0
			l0.687,0.687c0.049,0.049,0.049,0.128,0,0.177l-2.829,2.829C17.308,234.742,17.228,234.742,17.178,234.692"/>
	</g>
	<g>
		<path fill="#231F20" d="M29.023,235.008v-4.902h1.079v4.902H29.023z"/>
		<path fill="#231F20" d="M31.172,235.008v-1.12h1.135v1.12H31.172z"/>
		<path fill="#231F20" d="M36.977,235.008l-0.448-1.1h-2.073l-0.448,1.1h-1.1l2.101-4.938h0.995l2.101,4.938H36.977z
			 M35.492,231.366l-0.651,1.59h1.303L35.492,231.366z"/>
		<path fill="#231F20" d="M38.704,235.008v-1.12h1.135v1.12H38.704z"/>
	</g>
</g>
<g>
	<g>
		<linearGradient id="SVGID_18_" gradientUnits="userSpaceOnUse" x1="13.2861" y1="272.1104" x2="22.7646" y2="272.1104">
			<stop  offset="0" style="stop-color:#285AA8"/>
			<stop  offset="0.1597" style="stop-color:#2B60AB"/>
			<stop  offset="0.3734" style="stop-color:#3271B4"/>
			<stop  offset="0.6178" style="stop-color:#3E8DC2"/>
			<stop  offset="0.8829" style="stop-color:#4FB4D5"/>
			<stop  offset="1" style="stop-color:#57C7DF"/>
		</linearGradient>
		<path fill="url(#SVGID_18_)" d="M22.765,272.11c0,2.617-2.122,4.739-4.739,4.739s-4.739-2.122-4.739-4.739
			c0-2.618,2.122-4.739,4.739-4.739S22.765,269.492,22.765,272.11"/>
		<path fill="#FFFFFF" d="M17.178,274.164l-1.316-1.336c-0.048-0.05-0.047-0.13,0.002-0.178l0.692-0.683
			c0.049-0.049,0.128-0.048,0.178,0.002l0.452,0.46c0.048,0.05,0.129,0.05,0.178,0l1.958-1.957c0.049-0.049,0.128-0.049,0.177,0
			l0.687,0.687c0.049,0.049,0.049,0.129,0,0.177l-2.829,2.829C17.308,274.214,17.228,274.214,17.178,274.164"/>
	</g>
	<g>
		<path fill="#231F20" d="M31.488,273.355h-0.952l-1.982-4.938h1.191l1.282,3.453l1.281-3.453h1.163L31.488,273.355z"/>
		<path fill="#231F20" d="M37.11,271.814h-2.613c0.105,0.484,0.441,0.736,0.917,0.736c0.357,0,0.617-0.113,0.911-0.385l0.609,0.539
			c-0.35,0.434-0.854,0.699-1.534,0.699c-1.128,0-1.961-0.791-1.961-1.939v-0.014c0-1.072,0.764-1.955,1.856-1.955
			c1.253,0,1.828,0.975,1.828,2.039v0.014C37.124,271.654,37.117,271.717,37.11,271.814z M35.296,270.352
			c-0.441,0-0.729,0.314-0.812,0.799h1.604C36.024,270.674,35.745,270.352,35.296,270.352z"/>
		<path fill="#231F20" d="M40.12,270.609c-0.708,0-1.142,0.428-1.142,1.324v1.387h-1.065v-3.754h1.065v0.756
			c0.217-0.518,0.567-0.854,1.197-0.826v1.113H40.12z"/>
		<path fill="#231F20" d="M40.86,269.154v-0.945h1.121v0.945H40.86z M40.888,273.32v-3.754h1.064v3.754H40.888z"/>
		<path fill="#231F20" d="M44.571,269.055c-0.245,0-0.385,0.127-0.385,0.406v0.148h0.861v0.867H44.2v2.844h-1.065v-2.844h-0.441
			v-0.875h0.441v-0.238c0-0.826,0.414-1.205,1.163-1.205c0.336,0,0.561,0.043,0.756,0.105v0.883
			C44.9,269.09,44.753,269.055,44.571,269.055z"/>
		<path fill="#231F20" d="M45.647,269.154v-0.945h1.121v0.945H45.647z M45.676,273.32v-3.754h1.064v3.754H45.676z"/>
		<path fill="#231F20" d="M49.512,273.404c-1.127,0-1.954-0.867-1.954-1.939v-0.014c0-1.072,0.82-1.955,1.968-1.955
			c0.708,0,1.148,0.238,1.499,0.631l-0.651,0.701c-0.238-0.252-0.477-0.414-0.854-0.414c-0.532,0-0.911,0.469-0.911,1.023v0.014
			c0,0.574,0.371,1.037,0.953,1.037c0.357,0,0.602-0.154,0.861-0.4l0.624,0.631C50.682,273.117,50.262,273.404,49.512,273.404z"/>
		<path fill="#231F20" d="M53.937,273.32v-0.406c-0.259,0.287-0.616,0.477-1.134,0.477c-0.708,0-1.289-0.406-1.289-1.148v-0.014
			c0-0.82,0.624-1.197,1.513-1.197c0.378,0,0.651,0.062,0.917,0.154v-0.064c0-0.441-0.273-0.686-0.806-0.686
			c-0.406,0-0.693,0.076-1.037,0.203l-0.266-0.812c0.413-0.182,0.819-0.301,1.457-0.301c1.163,0,1.674,0.602,1.674,1.617v2.178
			H53.937z M53.958,271.809c-0.182-0.084-0.42-0.141-0.679-0.141c-0.455,0-0.735,0.182-0.735,0.518v0.014
			c0,0.289,0.238,0.457,0.581,0.457c0.498,0,0.833-0.273,0.833-0.658V271.809z"/>
		<path fill="#231F20" d="M57.653,273.404c-1.127,0-1.954-0.867-1.954-1.939v-0.014c0-1.072,0.82-1.955,1.968-1.955
			c0.708,0,1.148,0.238,1.499,0.631l-0.651,0.701c-0.238-0.252-0.477-0.414-0.854-0.414c-0.532,0-0.911,0.469-0.911,1.023v0.014
			c0,0.574,0.371,1.037,0.953,1.037c0.357,0,0.602-0.154,0.861-0.4l0.624,0.631C58.823,273.117,58.403,273.404,57.653,273.404z"/>
		<path fill="#231F20" d="M59.899,269.154v-0.945h1.121v0.945H59.899z M59.928,273.32v-3.754h1.064v3.754H59.928z"/>
		<path fill="#231F20" d="M63.834,273.404c-1.163,0-2.024-0.861-2.024-1.939v-0.014c0-1.078,0.869-1.955,2.038-1.955
			c1.163,0,2.024,0.861,2.024,1.941v0.014C65.873,272.529,65.004,273.404,63.834,273.404z M64.822,271.451
			c0-0.553-0.399-1.037-0.987-1.037c-0.609,0-0.974,0.469-0.974,1.023v0.014c0,0.553,0.399,1.037,0.987,1.037
			c0.609,0,0.974-0.471,0.974-1.023V271.451z M63.435,269.154l0.792-1.24l0.917,0.398l-0.896,0.842H63.435z"/>
		<path fill="#231F20" d="M69.015,273.32v-2.094c0-0.504-0.238-0.764-0.645-0.764s-0.665,0.26-0.665,0.764v2.094H66.64v-3.754h1.065
			v0.533c0.245-0.316,0.56-0.604,1.1-0.604c0.805,0,1.274,0.533,1.274,1.395v2.43H69.015z"/>
		<path fill="#231F20" d="M75.335,273.391c-0.567,0-0.917-0.26-1.169-0.561v0.49h-1.065v-5.111h1.065v1.896
			c0.259-0.35,0.616-0.609,1.169-0.609c0.875,0,1.709,0.688,1.709,1.941v0.014C77.044,272.705,76.225,273.391,75.335,273.391z
			 M75.98,271.438c0-0.625-0.42-1.037-0.917-1.037c-0.498,0-0.911,0.412-0.911,1.037v0.014c0,0.623,0.413,1.037,0.911,1.037
			c0.497,0,0.917-0.406,0.917-1.037V271.438z"/>
		<path fill="#231F20" d="M77.847,269.154v-0.945h1.121v0.945H77.847z M77.875,273.32v-3.754h1.064v3.754H77.875z"/>
		<path fill="#231F20" d="M81.782,273.404c-1.163,0-2.024-0.861-2.024-1.939v-0.014c0-1.078,0.869-1.955,2.038-1.955
			c1.163,0,2.024,0.861,2.024,1.941v0.014C83.82,272.529,82.952,273.404,81.782,273.404z M82.77,271.451
			c0-0.553-0.399-1.037-0.987-1.037c-0.609,0-0.974,0.469-0.974,1.023v0.014c0,0.553,0.399,1.037,0.987,1.037
			c0.609,0,0.974-0.471,0.974-1.023V271.451z"/>
		<path fill="#231F20" d="M89.252,273.32v-2.094c0-0.504-0.224-0.764-0.623-0.764c-0.398,0-0.645,0.26-0.645,0.764v2.094H86.92
			v-2.094c0-0.504-0.224-0.764-0.624-0.764c-0.399,0-0.644,0.26-0.644,0.764v2.094h-1.065v-3.754h1.065v0.533
			c0.245-0.316,0.567-0.604,1.106-0.604c0.491,0,0.862,0.217,1.057,0.596c0.33-0.385,0.722-0.596,1.232-0.596
			c0.792,0,1.269,0.477,1.269,1.381v2.443H89.252z"/>
		<path fill="#231F20" d="M94.727,271.814h-2.613c0.105,0.484,0.441,0.736,0.918,0.736c0.357,0,0.616-0.113,0.91-0.385l0.609,0.539
			c-0.35,0.434-0.854,0.699-1.533,0.699c-1.129,0-1.962-0.791-1.962-1.939v-0.014c0-1.072,0.764-1.955,1.856-1.955
			c1.254,0,1.828,0.975,1.828,2.039v0.014C94.74,271.654,94.732,271.717,94.727,271.814z M92.912,270.352
			c-0.441,0-0.729,0.314-0.812,0.799h1.604C93.641,270.674,93.36,270.352,92.912,270.352z M92.484,269.154l0.791-1.24l0.918,0.398
			l-0.896,0.842H92.484z"/>
		<path fill="#231F20" d="M96.797,273.385c-0.651,0-1.093-0.26-1.093-1.129v-1.779h-0.448v-0.91h0.448v-0.959h1.064v0.959h0.883
			v0.91h-0.883v1.605c0,0.244,0.104,0.363,0.343,0.363c0.197,0,0.371-0.049,0.525-0.133v0.854
			C97.413,273.299,97.154,273.385,96.797,273.385z"/>
		<path fill="#231F20" d="M100.641,270.609c-0.708,0-1.143,0.428-1.143,1.324v1.387h-1.064v-3.754h1.064v0.756
			c0.217-0.518,0.567-0.854,1.197-0.826v1.113H100.641z"/>
		<path fill="#231F20" d="M101.381,269.154v-0.945h1.12v0.945H101.381z M101.408,273.32v-3.754h1.064v3.754H101.408z"/>
		<path fill="#231F20" d="M105.245,273.404c-1.128,0-1.954-0.867-1.954-1.939v-0.014c0-1.072,0.82-1.955,1.969-1.955
			c0.707,0,1.148,0.238,1.498,0.631l-0.65,0.701c-0.238-0.252-0.477-0.414-0.855-0.414c-0.531,0-0.91,0.469-0.91,1.023v0.014
			c0,0.574,0.371,1.037,0.953,1.037c0.356,0,0.602-0.154,0.861-0.4l0.623,0.631C106.415,273.117,105.994,273.404,105.245,273.404z"
			/>
		<path fill="#231F20" d="M109.67,273.32v-0.406c-0.26,0.287-0.617,0.477-1.135,0.477c-0.707,0-1.289-0.406-1.289-1.148v-0.014
			c0-0.82,0.623-1.197,1.514-1.197c0.377,0,0.65,0.062,0.917,0.154v-0.064c0-0.441-0.273-0.686-0.806-0.686
			c-0.406,0-0.693,0.076-1.037,0.203l-0.266-0.812c0.413-0.182,0.819-0.301,1.457-0.301c1.162,0,1.674,0.602,1.674,1.617v2.178
			H109.67z M109.69,271.809c-0.183-0.084-0.42-0.141-0.679-0.141c-0.455,0-0.736,0.182-0.736,0.518v0.014
			c0,0.289,0.238,0.457,0.582,0.457c0.497,0,0.833-0.273,0.833-0.658V271.809z"/>
		<path fill="#231F20" d="M116.425,273.32v-0.539c-0.259,0.35-0.616,0.609-1.169,0.609c-0.876,0-1.709-0.686-1.709-1.939v-0.014
			c0-1.254,0.818-1.941,1.709-1.941c0.566,0,0.917,0.26,1.169,0.561v-1.848h1.065v5.111H116.425z M116.439,271.438
			c0-0.625-0.414-1.037-0.911-1.037s-0.917,0.406-0.917,1.037v0.014c0,0.623,0.42,1.037,0.917,1.037s0.911-0.414,0.911-1.037
			V271.438z"/>
		<path fill="#231F20" d="M121.928,271.814h-2.613c0.105,0.484,0.441,0.736,0.918,0.736c0.357,0,0.617-0.113,0.91-0.385l0.609,0.539
			c-0.35,0.434-0.854,0.699-1.533,0.699c-1.128,0-1.961-0.791-1.961-1.939v-0.014c0-1.072,0.764-1.955,1.855-1.955
			c1.254,0,1.828,0.975,1.828,2.039v0.014C121.941,271.654,121.935,271.717,121.928,271.814z M120.113,270.352
			c-0.441,0-0.729,0.314-0.812,0.799h1.604C120.842,270.674,120.562,270.352,120.113,270.352z"/>
		<path fill="#231F20" d="M128.318,271.814h-2.612c0.105,0.484,0.441,0.736,0.917,0.736c0.357,0,0.617-0.113,0.911-0.385
			l0.609,0.539c-0.351,0.434-0.854,0.699-1.534,0.699c-1.127,0-1.961-0.791-1.961-1.939v-0.014c0-1.072,0.764-1.955,1.856-1.955
			c1.253,0,1.827,0.975,1.827,2.039v0.014C128.332,271.654,128.326,271.717,128.318,271.814z M126.505,270.352
			c-0.441,0-0.729,0.314-0.812,0.799h1.604C127.232,270.674,126.953,270.352,126.505,270.352z"/>
		<path fill="#231F20" d="M129.01,273.32v-1.121h1.135v1.121H129.01z"/>
		<path fill="#231F20" d="M132.566,269.055c-0.245,0-0.385,0.127-0.385,0.406v0.148h0.861v0.867h-0.848v2.844h-1.064v-2.844h-0.441
			v-0.875h0.441v-0.238c0-0.826,0.413-1.205,1.162-1.205c0.336,0,0.561,0.043,0.757,0.105v0.883
			C132.896,269.09,132.748,269.055,132.566,269.055z"/>
		<path fill="#231F20" d="M133.643,269.154v-0.945h1.121v0.945H133.643z M133.672,273.32v-3.754h1.064v3.754H133.672z"/>
		<path fill="#231F20" d="M137.942,270.609c-0.708,0-1.142,0.428-1.142,1.324v1.387h-1.064v-3.754h1.064v0.756
			c0.217-0.518,0.566-0.854,1.197-0.826v1.113H137.942z"/>
		<path fill="#231F20" d="M143.326,273.32v-2.094c0-0.504-0.225-0.764-0.623-0.764c-0.399,0-0.645,0.26-0.645,0.764v2.094h-1.064
			v-2.094c0-0.504-0.225-0.764-0.623-0.764c-0.399,0-0.645,0.26-0.645,0.764v2.094h-1.064v-3.754h1.064v0.533
			c0.245-0.316,0.566-0.604,1.106-0.604c0.49,0,0.861,0.217,1.058,0.596c0.329-0.385,0.721-0.596,1.232-0.596
			c0.791,0,1.268,0.477,1.268,1.381v2.443H143.326z"/>
		<path fill="#231F20" d="M147.511,273.32v-0.406c-0.259,0.287-0.616,0.477-1.134,0.477c-0.708,0-1.289-0.406-1.289-1.148v-0.014
			c0-0.82,0.623-1.197,1.513-1.197c0.378,0,0.651,0.062,0.917,0.154v-0.064c0-0.441-0.273-0.686-0.805-0.686
			c-0.406,0-0.693,0.076-1.037,0.203l-0.266-0.812c0.412-0.182,0.818-0.301,1.457-0.301c1.162,0,1.674,0.602,1.674,1.617v2.178
			H147.511z M147.531,271.809c-0.182-0.084-0.42-0.141-0.679-0.141c-0.455,0-0.735,0.182-0.735,0.518v0.014
			c0,0.289,0.238,0.457,0.581,0.457c0.497,0,0.833-0.273,0.833-0.658V271.809z"/>
		<path fill="#231F20" d="M31.061,281.721v-0.406c-0.259,0.287-0.616,0.477-1.134,0.477c-0.708,0-1.289-0.406-1.289-1.148v-0.014
			c0-0.82,0.624-1.197,1.513-1.197c0.378,0,0.651,0.062,0.917,0.154v-0.064c0-0.441-0.273-0.686-0.806-0.686
			c-0.406,0-0.693,0.076-1.037,0.203l-0.266-0.812c0.413-0.182,0.819-0.301,1.457-0.301c1.163,0,1.674,0.602,1.674,1.617v2.178
			H31.061z M31.082,280.209c-0.182-0.084-0.42-0.141-0.679-0.141c-0.455,0-0.735,0.182-0.735,0.518v0.014
			c0,0.289,0.238,0.457,0.581,0.457c0.498,0,0.833-0.273,0.833-0.658V280.209z"/>
		<path fill="#231F20" d="M35.38,281.721v-2.094c0-0.504-0.238-0.764-0.645-0.764s-0.665,0.26-0.665,0.764v2.094h-1.065v-3.754
			h1.065v0.533c0.245-0.316,0.56-0.604,1.1-0.604c0.805,0,1.274,0.533,1.274,1.395v2.43H35.38z"/>
		<path fill="#231F20" d="M38.635,281.785c-0.651,0-1.093-0.26-1.093-1.129v-1.779h-0.448v-0.91h0.448v-0.959h1.064v0.959h0.883
			v0.91h-0.883v1.605c0,0.244,0.105,0.363,0.343,0.363c0.196,0,0.371-0.049,0.525-0.133v0.854
			C39.251,281.699,38.992,281.785,38.635,281.785z"/>
		<path fill="#231F20" d="M43.655,280.215h-2.613c0.105,0.484,0.441,0.736,0.917,0.736c0.357,0,0.617-0.113,0.911-0.385l0.609,0.539
			c-0.35,0.434-0.854,0.699-1.534,0.699c-1.128,0-1.961-0.791-1.961-1.939v-0.014c0-1.072,0.764-1.955,1.856-1.955
			c1.253,0,1.828,0.975,1.828,2.039v0.014C43.668,280.055,43.662,280.117,43.655,280.215z M41.841,278.752
			c-0.441,0-0.729,0.314-0.812,0.799h1.604C42.569,279.074,42.289,278.752,41.841,278.752z"/>
		<path fill="#231F20" d="M50.046,280.215h-2.613c0.105,0.484,0.441,0.736,0.917,0.736c0.357,0,0.617-0.113,0.911-0.385l0.609,0.539
			c-0.35,0.434-0.854,0.699-1.534,0.699c-1.128,0-1.961-0.791-1.961-1.939v-0.014c0-1.072,0.764-1.955,1.856-1.955
			c1.253,0,1.828,0.975,1.828,2.039v0.014C50.06,280.055,50.053,280.117,50.046,280.215z M48.232,278.752
			c-0.441,0-0.729,0.314-0.812,0.799h1.604C48.96,279.074,48.68,278.752,48.232,278.752z"/>
		<path fill="#231F20" d="M50.898,281.721v-5.111h1.064v5.111H50.898z"/>
		<path fill="#231F20" d="M56.918,281.791c-0.742,0-1.492-0.26-2.08-0.785l0.638-0.762c0.441,0.363,0.903,0.594,1.463,0.594
			c0.441,0,0.708-0.174,0.708-0.461v-0.014c0-0.273-0.168-0.414-0.987-0.625c-0.988-0.252-1.625-0.525-1.625-1.498v-0.014
			c0-0.891,0.714-1.479,1.716-1.479c0.714,0,1.324,0.225,1.821,0.623l-0.561,0.812c-0.434-0.301-0.861-0.482-1.274-0.482
			c-0.414,0-0.63,0.189-0.63,0.428v0.014c0,0.322,0.21,0.428,1.058,0.645c0.994,0.258,1.555,0.615,1.555,1.471v0.014
			C58.719,281.244,57.976,281.791,56.918,281.791z"/>
		<path fill="#231F20" d="M63.199,281.721l-0.448-1.1h-2.073l-0.448,1.1h-1.1l2.101-4.938h0.995l2.101,4.938H63.199z M61.714,278.08
			l-0.651,1.59h1.303L61.714,278.08z"/>
		<path fill="#231F20" d="M66.67,277.812v3.908h-1.079v-3.908H64.1v-0.994h4.062v0.994H66.67z"/>
	</g>
</g>
<g>
	<g>
		<linearGradient id="SVGID_19_" gradientUnits="userSpaceOnUse" x1="14.0029" y1="315.9492" x2="23.4814" y2="315.9492">
			<stop  offset="0" style="stop-color:#285AA8"/>
			<stop  offset="0.1597" style="stop-color:#2B60AB"/>
			<stop  offset="0.3734" style="stop-color:#3271B4"/>
			<stop  offset="0.6178" style="stop-color:#3E8DC2"/>
			<stop  offset="0.8829" style="stop-color:#4FB4D5"/>
			<stop  offset="1" style="stop-color:#57C7DF"/>
		</linearGradient>
		<path fill="url(#SVGID_19_)" d="M23.481,315.948c0,2.617-2.122,4.739-4.739,4.739s-4.739-2.122-4.739-4.739
			c0-2.618,2.122-4.738,4.739-4.738S23.481,313.33,23.481,315.948"/>
		<path fill="#FFFFFF" d="M17.895,318.002l-1.315-1.336c-0.049-0.05-0.048-0.129,0.001-0.178l0.693-0.683
			c0.048-0.049,0.128-0.047,0.178,0.003l0.451,0.459c0.049,0.05,0.129,0.05,0.178,0l1.958-1.957c0.049-0.049,0.128-0.049,0.177,0
			l0.688,0.688c0.048,0.048,0.048,0.128,0,0.176l-2.83,2.83C18.024,318.052,17.944,318.052,17.895,318.002"/>
	</g>
	<g>
		<path fill="#231F20" d="M32.623,317.16l-0.448-1.1h-2.073l-0.448,1.1h-1.1l2.101-4.938h0.995l2.101,4.938H32.623z M31.138,313.52
			l-0.651,1.59h1.303L31.138,313.52z"/>
		<path fill="#231F20" d="M35.989,317.244c-1.127,0-1.954-0.867-1.954-1.939v-0.014c0-1.072,0.82-1.955,1.968-1.955
			c0.708,0,1.148,0.238,1.499,0.631l-0.651,0.701c-0.238-0.252-0.477-0.414-0.854-0.414c-0.532,0-0.911,0.469-0.911,1.023v0.014
			c0,0.574,0.371,1.037,0.953,1.037c0.357,0,0.602-0.154,0.861-0.4l0.624,0.631C37.159,316.957,36.738,317.244,35.989,317.244z"/>
		<path fill="#231F20" d="M39.881,317.244c-1.127,0-1.954-0.867-1.954-1.939v-0.014c0-1.072,0.82-1.955,1.968-1.955
			c0.708,0,1.148,0.238,1.499,0.631l-0.651,0.701c-0.238-0.252-0.477-0.414-0.854-0.414c-0.532,0-0.911,0.469-0.911,1.023v0.014
			c0,0.574,0.371,1.037,0.953,1.037c0.357,0,0.602-0.154,0.861-0.4l0.624,0.631C41.051,316.957,40.63,317.244,39.881,317.244z"/>
		<path fill="#231F20" d="M45.489,315.654h-2.613c0.105,0.484,0.441,0.736,0.917,0.736c0.357,0,0.617-0.113,0.911-0.385l0.609,0.539
			c-0.35,0.434-0.854,0.699-1.534,0.699c-1.128,0-1.961-0.791-1.961-1.939v-0.014c0-1.072,0.764-1.955,1.856-1.955
			c1.253,0,1.828,0.975,1.828,2.039v0.014C45.503,315.494,45.496,315.557,45.489,315.654z M43.675,314.191
			c-0.441,0-0.729,0.314-0.812,0.799h1.604C44.403,314.514,44.124,314.191,43.675,314.191z"/>
		<path fill="#231F20" d="M47.609,317.23c-0.525,0-1.114-0.176-1.611-0.566l0.455-0.701c0.406,0.295,0.833,0.449,1.184,0.449
			c0.309,0,0.448-0.113,0.448-0.281v-0.014c0-0.23-0.364-0.309-0.777-0.434c-0.525-0.154-1.121-0.4-1.121-1.129v-0.014
			c0-0.764,0.616-1.191,1.373-1.191c0.476,0,0.994,0.162,1.4,0.436l-0.406,0.734c-0.371-0.217-0.742-0.35-1.015-0.35
			c-0.259,0-0.393,0.111-0.393,0.26v0.014c0,0.209,0.357,0.309,0.764,0.447c0.525,0.176,1.134,0.428,1.134,1.115v0.014
			C49.044,316.852,48.421,317.23,47.609,317.23z"/>
		<path fill="#231F20" d="M51.648,317.244c-1.163,0-2.024-0.861-2.024-1.939v-0.014c0-1.078,0.869-1.955,2.038-1.955
			c1.163,0,2.024,0.861,2.024,1.941v0.014C53.687,316.369,52.818,317.244,51.648,317.244z M52.636,315.291
			c0-0.553-0.399-1.037-0.987-1.037c-0.609,0-0.974,0.469-0.974,1.023v0.014c0,0.553,0.399,1.037,0.987,1.037
			c0.609,0,0.974-0.471,0.974-1.023V315.291z"/>
		<path fill="#231F20" d="M58.753,317.16v-0.406c-0.259,0.287-0.616,0.477-1.134,0.477c-0.708,0-1.289-0.406-1.289-1.148v-0.014
			c0-0.82,0.624-1.197,1.513-1.197c0.378,0,0.651,0.062,0.917,0.154v-0.064c0-0.441-0.273-0.686-0.806-0.686
			c-0.406,0-0.693,0.076-1.037,0.203l-0.266-0.812c0.413-0.182,0.819-0.301,1.457-0.301c1.163,0,1.674,0.602,1.674,1.617v2.178
			H58.753z M58.774,315.648c-0.182-0.084-0.42-0.141-0.679-0.141c-0.455,0-0.735,0.182-0.735,0.518v0.014
			c0,0.289,0.238,0.457,0.581,0.457c0.498,0,0.833-0.273,0.833-0.658V315.648z"/>
		<path fill="#231F20" d="M64.809,315.689h-0.819v1.471h-1.079v-4.902h2.003c1.17,0,1.877,0.693,1.877,1.695v0.014
			C66.791,315.102,65.908,315.689,64.809,315.689z M65.698,313.975c0-0.484-0.336-0.742-0.875-0.742h-0.833v1.498h0.854
			c0.539,0,0.854-0.322,0.854-0.742V313.975z"/>
		<path fill="#231F20" d="M69.603,317.16v-0.406c-0.259,0.287-0.616,0.477-1.134,0.477c-0.708,0-1.289-0.406-1.289-1.148v-0.014
			c0-0.82,0.624-1.197,1.513-1.197c0.378,0,0.651,0.062,0.917,0.154v-0.064c0-0.441-0.273-0.686-0.806-0.686
			c-0.406,0-0.693,0.076-1.037,0.203l-0.266-0.812c0.413-0.182,0.819-0.301,1.457-0.301c1.163,0,1.674,0.602,1.674,1.617v2.178
			H69.603z M69.624,315.648c-0.182-0.084-0.42-0.141-0.679-0.141c-0.455,0-0.735,0.182-0.735,0.518v0.014
			c0,0.289,0.238,0.457,0.581,0.457c0.498,0,0.833-0.273,0.833-0.658V315.648z"/>
		<path fill="#231F20" d="M74.258,318.281v-1.66c-0.259,0.35-0.616,0.609-1.169,0.609c-0.875,0-1.709-0.686-1.709-1.939v-0.014
			c0-1.254,0.819-1.941,1.709-1.941c0.567,0,0.917,0.26,1.169,0.561v-0.49h1.065v4.875H74.258z M74.272,315.277
			c0-0.625-0.413-1.037-0.911-1.037c-0.497,0-0.917,0.406-0.917,1.037v0.014c0,0.623,0.42,1.037,0.917,1.037
			c0.498,0,0.911-0.414,0.911-1.037V315.277z"/>
		<path fill="#231F20" d="M78.62,317.16v-0.531c-0.246,0.314-0.561,0.602-1.1,0.602c-0.806,0-1.275-0.531-1.275-1.393v-2.432h1.064
			v2.094c0,0.506,0.238,0.764,0.645,0.764s0.666-0.258,0.666-0.764v-2.094h1.064v3.754H78.62z"/>
		<path fill="#231F20" d="M84.122,315.654h-2.613c0.105,0.484,0.441,0.736,0.917,0.736c0.357,0,0.617-0.113,0.911-0.385l0.609,0.539
			c-0.35,0.434-0.854,0.699-1.534,0.699c-1.128,0-1.961-0.791-1.961-1.939v-0.014c0-1.072,0.764-1.955,1.856-1.955
			c1.253,0,1.828,0.975,1.828,2.039v0.014C84.136,315.494,84.129,315.557,84.122,315.654z M82.308,314.191
			c-0.441,0-0.729,0.314-0.812,0.799h1.604C83.036,314.514,82.756,314.191,82.308,314.191z"/>
		<path fill="#231F20" d="M86.193,317.225c-0.651,0-1.093-0.26-1.093-1.129v-1.779h-0.448v-0.91H85.1v-0.959h1.064v0.959h0.882v0.91
			h-0.882v1.605c0,0.244,0.105,0.363,0.343,0.363c0.196,0,0.371-0.049,0.525-0.133v0.854
			C86.809,317.139,86.55,317.225,86.193,317.225z"/>
		<path fill="#231F20" d="M91.213,315.654H88.6c0.105,0.484,0.441,0.736,0.918,0.736c0.357,0,0.617-0.113,0.91-0.385l0.609,0.539
			c-0.35,0.434-0.854,0.699-1.533,0.699c-1.128,0-1.961-0.791-1.961-1.939v-0.014c0-1.072,0.764-1.955,1.855-1.955
			c1.254,0,1.828,0.975,1.828,2.039v0.014C91.227,315.494,91.22,315.557,91.213,315.654z M89.398,314.191
			c-0.441,0-0.729,0.314-0.812,0.799h1.604C90.127,314.514,89.848,314.191,89.398,314.191z"/>
		<path fill="#231F20" d="M93.332,317.23c-0.525,0-1.113-0.176-1.61-0.566l0.455-0.701c0.406,0.295,0.833,0.449,1.184,0.449
			c0.309,0,0.448-0.113,0.448-0.281v-0.014c0-0.23-0.364-0.309-0.777-0.434c-0.525-0.154-1.121-0.4-1.121-1.129v-0.014
			c0-0.764,0.617-1.191,1.373-1.191c0.477,0,0.994,0.162,1.4,0.436l-0.406,0.734c-0.371-0.217-0.742-0.35-1.015-0.35
			c-0.259,0-0.393,0.111-0.393,0.26v0.014c0,0.209,0.357,0.309,0.764,0.447c0.525,0.176,1.134,0.428,1.134,1.115v0.014
			C94.768,316.852,94.145,317.23,93.332,317.23z"/>
		<path fill="#231F20" d="M100.34,317.16v-0.539c-0.258,0.35-0.615,0.609-1.169,0.609c-0.876,0-1.709-0.686-1.709-1.939v-0.014
			c0-1.254,0.819-1.941,1.709-1.941c0.567,0,0.917,0.26,1.169,0.561v-1.848h1.065v5.111H100.34z M100.354,315.277
			c0-0.625-0.413-1.037-0.911-1.037c-0.496,0-0.917,0.406-0.917,1.037v0.014c0,0.623,0.421,1.037,0.917,1.037
			c0.498,0,0.911-0.414,0.911-1.037V315.277z"/>
		<path fill="#231F20" d="M105.844,315.654h-2.613c0.105,0.484,0.441,0.736,0.918,0.736c0.357,0,0.616-0.113,0.91-0.385l0.609,0.539
			c-0.35,0.434-0.854,0.699-1.533,0.699c-1.129,0-1.962-0.791-1.962-1.939v-0.014c0-1.072,0.764-1.955,1.856-1.955
			c1.254,0,1.828,0.975,1.828,2.039v0.014C105.857,315.494,105.85,315.557,105.844,315.654z M104.029,314.191
			c-0.441,0-0.729,0.314-0.812,0.799h1.604C104.758,314.514,104.478,314.191,104.029,314.191z"/>
		<path fill="#231F20" d="M111.156,317.244c-1.443,0-2.516-1.113-2.516-2.521v-0.014c0-1.393,1.051-2.535,2.557-2.535
			c0.925,0,1.479,0.309,1.934,0.756l-0.687,0.793c-0.378-0.344-0.764-0.555-1.254-0.555c-0.826,0-1.421,0.688-1.421,1.527v0.014
			c0,0.84,0.58,1.541,1.421,1.541c0.561,0,0.903-0.225,1.289-0.574l0.687,0.693C112.662,316.908,112.102,317.244,111.156,317.244z"
			/>
		<path fill="#231F20" d="M115.685,317.244c-1.163,0-2.024-0.861-2.024-1.939v-0.014c0-1.078,0.869-1.955,2.038-1.955
			c1.163,0,2.024,0.861,2.024,1.941v0.014C117.723,316.369,116.854,317.244,115.685,317.244z M116.672,315.291
			c0-0.553-0.398-1.037-0.987-1.037c-0.609,0-0.974,0.469-0.974,1.023v0.014c0,0.553,0.399,1.037,0.987,1.037
			c0.609,0,0.974-0.471,0.974-1.023V315.291z"/>
		<path fill="#231F20" d="M120.865,317.16v-2.094c0-0.504-0.238-0.764-0.645-0.764s-0.666,0.26-0.666,0.764v2.094h-1.064v-3.754
			h1.064v0.533c0.246-0.316,0.561-0.604,1.1-0.604c0.806,0,1.275,0.533,1.275,1.395v2.43H120.865z"/>
		<path fill="#231F20" d="M124.168,317.23c-0.525,0-1.113-0.176-1.611-0.566l0.455-0.701c0.406,0.295,0.834,0.449,1.184,0.449
			c0.309,0,0.449-0.113,0.449-0.281v-0.014c0-0.23-0.364-0.309-0.777-0.434c-0.525-0.154-1.121-0.4-1.121-1.129v-0.014
			c0-0.764,0.616-1.191,1.373-1.191c0.477,0,0.994,0.162,1.4,0.436l-0.406,0.734c-0.371-0.217-0.742-0.35-1.016-0.35
			c-0.259,0-0.393,0.111-0.393,0.26v0.014c0,0.209,0.357,0.309,0.764,0.447c0.525,0.176,1.135,0.428,1.135,1.115v0.014
			C125.604,316.852,124.98,317.23,124.168,317.23z"/>
		<path fill="#231F20" d="M127.563,317.225c-0.651,0-1.093-0.26-1.093-1.129v-1.779h-0.448v-0.91h0.448v-0.959h1.064v0.959h0.883
			v0.91h-0.883v1.605c0,0.244,0.105,0.363,0.344,0.363c0.195,0,0.371-0.049,0.525-0.133v0.854
			C128.18,317.139,127.92,317.225,127.563,317.225z"/>
		<path fill="#231F20" d="M131.399,317.16v-0.406c-0.259,0.287-0.616,0.477-1.134,0.477c-0.708,0-1.289-0.406-1.289-1.148v-0.014
			c0-0.82,0.623-1.197,1.513-1.197c0.378,0,0.651,0.062,0.917,0.154v-0.064c0-0.441-0.273-0.686-0.805-0.686
			c-0.406,0-0.693,0.076-1.037,0.203l-0.266-0.812c0.412-0.182,0.818-0.301,1.457-0.301c1.162,0,1.674,0.602,1.674,1.617v2.178
			H131.399z M131.42,315.648c-0.182-0.084-0.42-0.141-0.679-0.141c-0.455,0-0.735,0.182-0.735,0.518v0.014
			c0,0.289,0.238,0.457,0.581,0.457c0.497,0,0.833-0.273,0.833-0.658V315.648z"/>
		<path fill="#231F20" d="M135.719,317.16v-2.094c0-0.504-0.238-0.764-0.645-0.764s-0.665,0.26-0.665,0.764v2.094h-1.065v-3.754
			h1.065v0.533c0.245-0.316,0.56-0.604,1.1-0.604c0.806,0,1.274,0.533,1.274,1.395v2.43H135.719z"/>
		<path fill="#231F20" d="M139.477,317.244c-1.127,0-1.953-0.867-1.953-1.939v-0.014c0-1.072,0.819-1.955,1.968-1.955
			c0.708,0,1.148,0.238,1.499,0.631l-0.651,0.701c-0.238-0.252-0.477-0.414-0.854-0.414c-0.532,0-0.91,0.469-0.91,1.023v0.014
			c0,0.574,0.371,1.037,0.952,1.037c0.356,0,0.603-0.154,0.861-0.4l0.624,0.631C140.646,316.957,140.227,317.244,139.477,317.244z"
			/>
		<path fill="#231F20" d="M141.723,312.994v-0.945h1.121v0.945H141.723z M141.752,317.16v-3.754h1.064v3.754H141.752z"/>
		<path fill="#231F20" d="M146.016,317.16v-0.406c-0.26,0.287-0.617,0.477-1.135,0.477c-0.707,0-1.289-0.406-1.289-1.148v-0.014
			c0-0.82,0.623-1.197,1.514-1.197c0.377,0,0.65,0.062,0.917,0.154v-0.064c0-0.441-0.273-0.686-0.806-0.686
			c-0.406,0-0.693,0.076-1.037,0.203l-0.266-0.812c0.413-0.182,0.819-0.301,1.457-0.301c1.162,0,1.674,0.602,1.674,1.617v2.178
			H146.016z M146.036,315.648c-0.183-0.084-0.42-0.141-0.679-0.141c-0.455,0-0.736,0.182-0.736,0.518v0.014
			c0,0.289,0.238,0.457,0.582,0.457c0.497,0,0.833-0.273,0.833-0.658V315.648z"/>
		<path fill="#231F20" d="M149.277,317.23c-0.525,0-1.114-0.176-1.611-0.566l0.455-0.701c0.406,0.295,0.834,0.449,1.184,0.449
			c0.309,0,0.448-0.113,0.448-0.281v-0.014c0-0.23-0.364-0.309-0.777-0.434c-0.525-0.154-1.12-0.4-1.12-1.129v-0.014
			c0-0.764,0.615-1.191,1.373-1.191c0.476,0,0.994,0.162,1.4,0.436l-0.406,0.734c-0.371-0.217-0.742-0.35-1.016-0.35
			c-0.26,0-0.393,0.111-0.393,0.26v0.014c0,0.209,0.357,0.309,0.764,0.447c0.525,0.176,1.135,0.428,1.135,1.115v0.014
			C150.713,316.852,150.09,317.23,149.277,317.23z"/>
		<path fill="#231F20" d="M32.413,325.561l-2.375-3.115v3.115h-1.064v-4.902h0.995l2.297,3.02v-3.02h1.065v4.902H32.413z"/>
		<path fill="#231F20" d="M36.885,325.645c-1.513,0-2.599-1.127-2.599-2.521v-0.014c0-1.393,1.1-2.535,2.612-2.535
			c1.513,0,2.599,1.127,2.599,2.521v0.014C39.498,324.504,38.398,325.645,36.885,325.645z M38.37,323.109
			c0-0.84-0.617-1.541-1.485-1.541c-0.869,0-1.471,0.688-1.471,1.527v0.014c0,0.84,0.616,1.541,1.484,1.541
			c0.869,0,1.471-0.686,1.471-1.527V323.109z"/>
		<path fill="#231F20" d="M44.285,325.561v-3.201l-1.38,2.096h-0.028l-1.366-2.074v3.18h-1.058v-4.902h1.163l1.289,2.074
			l1.289-2.074h1.163v4.902H44.285z"/>
		<path fill="#231F20" d="M46.292,323.9v-1.021h2.157v1.021H46.292z"/>
		<path fill="#231F20" d="M50.163,320.623h0.735v4.938h-1.064v-3.844l-0.854,0.209l-0.224-0.883L50.163,320.623z"/>
		<path fill="#231F20" d="M52.312,320.658h3.012v0.945h-2.087l-0.056,0.848c0.196-0.049,0.372-0.084,0.645-0.084
			c0.966,0,1.716,0.463,1.716,1.576c0,1.043-0.735,1.701-1.863,1.701c-0.785,0-1.359-0.279-1.835-0.734l0.651-0.777
			c0.371,0.336,0.735,0.531,1.169,0.531c0.504,0,0.819-0.244,0.819-0.686c0-0.428-0.343-0.672-0.868-0.672
			c-0.308,0-0.588,0.084-0.819,0.182l-0.624-0.414L52.312,320.658z"/>
		<path fill="#231F20" d="M57.527,320.623h0.735v4.938h-1.064v-3.844l-0.854,0.209l-0.224-0.883L57.527,320.623z"/>
	</g>
</g>
<path fill="none" stroke="#006195" stroke-width="0.5" stroke-miterlimit="10" d="M166.488,70.642V14.448
	c0-5.779-5.178-10.465-11.563-10.465H14.861c-6.387,0-11.565,4.685-11.565,10.465v56.194v0.083v305.171
	c0,11.149,8.801,20.19,19.658,20.19h127.954c8.686,0,15.727-7.229,15.727-16.152V70.642H166.488z"/>
</svg>
