<?xml version="1.0" encoding="utf-8"?>
<!-- Generator: Adobe Illustrator 16.0.0, SVG Export Plug-In . SVG Version: 6.00 Build 0)  -->
<!DOCTYPE svg PUBLIC "-//W3C//DTD SVG 1.1//EN" "http://www.w3.org/Graphics/SVG/1.1/DTD/svg11.dtd">
<svg version="1.1" id="Layer_1" xmlns="http://www.w3.org/2000/svg" xmlns:xlink="http://www.w3.org/1999/xlink" x="0px" y="0px"
	 width="172px" height="404px" viewBox="0 0 172 404" enable-background="new 0 0 172 404" xml:space="preserve">
<g id="Layer_1_1_">
	<g opacity="0.25">
		
			<image overflow="visible" enable-background="new    " width="233" height="465" xlink:href="37E97E7D948D0408.png"  transform="matrix(1 0 0 1 -28 -29)">
		</image>
	</g>
	<path fill="#FFFFFF" d="M166.775,70.683V14.489c0-5.779-5.178-10.465-11.563-10.465H15.605C9.218,4.024,4.04,8.709,4.04,14.489
		v56.194v0.083v305.17c0,11.154,8.801,20.195,19.658,20.195h127.497c8.686,0,15.727-7.233,15.727-16.156V70.683H166.775z"/>
	<g enable-background="new    ">
		<path fill="#585B5C" d="M58.345,46.525h-3.349l-3.949-11.447l-3.949,11.447h-3.35l-5.973-17.621h4.124l3.624,11.848l3.924-11.897
			h3.299l3.924,11.897l3.625-11.848h4.024L58.345,46.525z"/>
		<path fill="#585B5C" d="M79.122,46.4v-7.023h-7.098V46.4h-3.849V28.904h3.849v6.924h7.098v-6.924h3.849V46.4H79.122z"/>
	</g>
	<g enable-background="new    ">
		<path fill="#585B5C" d="M89.35,46.4V28.904h3.85V46.4H89.35z"/>
	</g>
	<g enable-background="new    ">
		<path fill="#585B5C" d="M106.973,32.454V46.4h-3.85V32.454H97.8v-3.55h14.497v3.55H106.973z"/>
	</g>
	<g enable-background="new    ">
		<path fill="#585B5C" d="M116.75,46.4V28.904h13.197v3.425h-9.373v3.549h8.248v3.424h-8.248v3.675h9.498V46.4H116.75z"/>
	</g>
	<g enable-background="new    ">
		<path d="M50.505,96.928c-4.361,0-7.362-3.061-7.362-7.202v-0.04c0-3.98,3.101-7.241,7.342-7.241c2.521,0,4.041,0.681,5.501,1.921
			l-1.94,2.34c-1.08-0.9-2.041-1.42-3.661-1.42c-2.24,0-4.021,1.98-4.021,4.361v0.039c0,2.561,1.761,4.441,4.241,4.441
			c1.12,0,2.12-0.28,2.9-0.84v-2.001h-3.101v-2.66h6.082v6.081C55.046,95.928,53.066,96.928,50.505,96.928z"/>
		<path d="M65.425,88.946c-2.021,0-3.261,1.22-3.261,3.78v3.961h-3.041V85.965h3.041v2.161c0.62-1.48,1.621-2.44,3.421-2.36v3.181
			H65.425z"/>
		<path d="M73.265,96.688v-1.16c-0.74,0.82-1.76,1.36-3.241,1.36c-2.021,0-3.681-1.16-3.681-3.281v-0.04
			c0-2.34,1.78-3.42,4.321-3.42c1.08,0,1.86,0.18,2.621,0.439v-0.18c0-1.261-0.78-1.961-2.3-1.961c-1.161,0-1.98,0.221-2.961,0.58
			l-0.76-2.32c1.181-0.52,2.341-0.86,4.161-0.86c3.321,0,4.781,1.721,4.781,4.621v6.222H73.265z M73.325,92.366
			c-0.52-0.239-1.2-0.399-1.94-0.399c-1.3,0-2.101,0.52-2.101,1.48v0.039c0,0.82,0.68,1.301,1.661,1.301
			c1.42,0,2.38-0.78,2.38-1.881V92.366z"/>
		<path d="M82.345,96.867c-1.86,0-3.121-0.74-3.121-3.221v-5.081h-1.28v-2.601h1.28v-2.74h3.041v2.74h2.521v2.601h-2.521v4.581
			c0,0.7,0.3,1.04,0.98,1.04c0.56,0,1.06-0.14,1.5-0.38v2.44C84.105,96.628,83.365,96.867,82.345,96.867z"/>
		<path d="M93.725,96.688v-1.521c-0.699,0.9-1.6,1.721-3.141,1.721c-2.3,0-3.641-1.521-3.641-3.981v-6.941h3.041v5.981
			c0,1.44,0.68,2.181,1.84,2.181c1.161,0,1.9-0.74,1.9-2.181v-5.981h3.041v10.723H93.725z"/>
		<path d="M99.543,84.785v-2.701h3.201v2.701H99.543z M99.623,96.688V85.965h3.041v10.723H99.623z"/>
		<path d="M109.145,96.867c-1.861,0-3.121-0.74-3.121-3.221v-5.081h-1.28v-2.601h1.28v-2.74h3.041v2.74h2.52v2.601h-2.52v4.581
			c0,0.7,0.3,1.04,0.98,1.04c0.56,0,1.06-0.14,1.5-0.38v2.44C110.904,96.628,110.164,96.867,109.145,96.867z"/>
		<path d="M118.784,96.928c-3.321,0-5.781-2.461-5.781-5.541v-0.04c0-3.081,2.48-5.581,5.821-5.581c3.32,0,5.781,2.46,5.781,5.541
			v0.04C124.605,94.427,122.125,96.928,118.784,96.928z M121.604,91.347c0-1.581-1.14-2.961-2.82-2.961
			c-1.741,0-2.78,1.34-2.78,2.921v0.04c0,1.58,1.14,2.96,2.82,2.96c1.74,0,2.78-1.34,2.78-2.92V91.347z"/>
	</g>
	<g>
		<g>
			<path fill="#696C6D" d="M24.289,175.126c0,2.618-2.122,4.739-4.739,4.739c-2.617,0-4.739-2.122-4.739-4.739
				c0-2.618,2.122-4.739,4.739-4.739C22.167,170.387,24.289,172.508,24.289,175.126"/>
			<path fill="#FFFFFF" d="M18.703,177.18l-1.316-1.336c-0.049-0.05-0.047-0.129,0.001-0.178l0.693-0.683
				c0.048-0.048,0.128-0.047,0.178,0.002l0.451,0.459c0.049,0.05,0.129,0.05,0.178,0l1.958-1.957c0.049-0.049,0.128-0.049,0.177,0
				l0.687,0.687c0.048,0.049,0.048,0.128,0,0.177l-2.829,2.829C18.832,177.23,18.753,177.23,18.703,177.18"/>
		</g>
		<g enable-background="new    ">
			<path fill="#231F20" d="M31.981,173.588v3.908h-1.079v-3.908h-1.492v-0.994h4.062v0.994H31.981z"/>
			<path fill="#231F20" d="M36.938,175.99h-2.613c0.105,0.483,0.441,0.735,0.917,0.735c0.357,0,0.617-0.112,0.911-0.385l0.609,0.539
				c-0.35,0.435-0.854,0.7-1.534,0.7c-1.128,0-1.961-0.791-1.961-1.94v-0.014c0-1.071,0.764-1.954,1.856-1.954
				c1.253,0,1.828,0.974,1.828,2.038v0.015C36.952,175.829,36.945,175.893,36.938,175.99z M35.124,174.526
				c-0.441,0-0.729,0.315-0.812,0.799h1.604C35.852,174.849,35.572,174.526,35.124,174.526z"/>
			<path fill="#231F20" d="M39.058,177.566c-0.525,0-1.114-0.176-1.611-0.567l0.455-0.7c0.406,0.294,0.833,0.448,1.184,0.448
				c0.308,0,0.448-0.112,0.448-0.28v-0.015c0-0.23-0.364-0.308-0.777-0.434c-0.525-0.154-1.121-0.399-1.121-1.128v-0.014
				c0-0.764,0.616-1.191,1.373-1.191c0.476,0,0.994,0.161,1.4,0.435l-0.406,0.735c-0.371-0.217-0.742-0.35-1.015-0.35
				c-0.259,0-0.393,0.111-0.393,0.259v0.014c0,0.21,0.357,0.309,0.764,0.448c0.525,0.176,1.134,0.428,1.134,1.114v0.014
				C40.493,177.188,39.87,177.566,39.058,177.566z"/>
			<path fill="#231F20" d="M42.453,177.56c-0.651,0-1.093-0.26-1.093-1.128v-1.779h-0.448v-0.91h0.448v-0.96h1.064v0.96h0.883v0.91
				h-0.883v1.604c0,0.245,0.105,0.364,0.343,0.364c0.196,0,0.371-0.05,0.525-0.134v0.854C43.069,177.475,42.81,177.56,42.453,177.56
				z"/>
			<path fill="#231F20" d="M44.111,173.329v-0.945h1.121v0.945H44.111z M44.139,177.496v-3.754h1.064v3.754H44.139z"/>
			<path fill="#231F20" d="M47.885,178.631c-0.609,0-1.184-0.141-1.66-0.393l0.364-0.798c0.385,0.217,0.771,0.343,1.268,0.343
				c0.729,0,1.072-0.351,1.072-1.022v-0.183c-0.315,0.379-0.658,0.609-1.226,0.609c-0.875,0-1.667-0.637-1.667-1.751v-0.014
				c0-1.12,0.806-1.751,1.667-1.751c0.581,0,0.924,0.245,1.211,0.561v-0.49h1.065v2.906
				C49.979,178.063,49.278,178.631,47.885,178.631z M48.928,175.423c0-0.511-0.399-0.868-0.917-0.868
				c-0.518,0-0.911,0.357-0.911,0.868v0.014c0,0.519,0.393,0.869,0.911,0.869c0.519,0,0.917-0.357,0.917-0.869V175.423z"/>
			<path fill="#231F20" d="M52.771,177.58c-1.163,0-2.024-0.861-2.024-1.94v-0.014c0-1.078,0.869-1.954,2.038-1.954
				c1.163,0,2.024,0.861,2.024,1.94v0.014C54.809,176.705,53.94,177.58,52.771,177.58z M53.758,175.626
				c0-0.553-0.399-1.036-0.987-1.036c-0.609,0-0.974,0.469-0.974,1.022v0.014c0,0.554,0.399,1.037,0.987,1.037
				c0.609,0,0.974-0.47,0.974-1.023V175.626z"/>
			<path fill="#231F20" d="M56.894,177.566c-0.525,0-1.114-0.176-1.611-0.567l0.455-0.7c0.406,0.294,0.833,0.448,1.184,0.448
				c0.308,0,0.448-0.112,0.448-0.28v-0.015c0-0.23-0.364-0.308-0.777-0.434c-0.525-0.154-1.121-0.399-1.121-1.128v-0.014
				c0-0.764,0.616-1.191,1.373-1.191c0.476,0,0.994,0.161,1.4,0.435l-0.406,0.735c-0.371-0.217-0.742-0.35-1.015-0.35
				c-0.259,0-0.393,0.111-0.393,0.259v0.014c0,0.21,0.357,0.309,0.764,0.448c0.525,0.176,1.134,0.428,1.134,1.114v0.014
				C58.329,177.188,57.706,177.566,56.894,177.566z"/>
			<path fill="#231F20" d="M66.625,171.907l-3.103,6.485h-0.904l3.103-6.485H66.625z"/>
			<path fill="#231F20" d="M73.987,174.148l-0.756-0.609c0.483-0.658,0.953-1.016,1.828-1.016c1.043,0,1.688,0.603,1.688,1.52
				c0,0.819-0.42,1.233-1.289,1.905l-0.798,0.616h2.136v0.932h-3.628v-0.854l1.632-1.338c0.609-0.504,0.848-0.771,0.848-1.177
				c0-0.413-0.273-0.637-0.659-0.637C74.61,173.49,74.351,173.7,73.987,174.148z"/>
		</g>
	</g>
	<g>
		<g>
			<path fill="#696C6D" d="M24.289,118.174c0,2.617-2.122,4.739-4.739,4.739c-2.617,0-4.739-2.122-4.739-4.739
				c0-2.618,2.122-4.739,4.739-4.739C22.167,113.435,24.289,115.556,24.289,118.174"/>
			<path fill="#FFFFFF" d="M18.703,120.228l-1.316-1.337c-0.049-0.05-0.047-0.129,0.001-0.177l0.693-0.683
				c0.048-0.049,0.128-0.048,0.178,0.002l0.451,0.46c0.049,0.05,0.129,0.05,0.178,0l1.958-1.957c0.049-0.049,0.128-0.049,0.177,0
				l0.687,0.687c0.048,0.049,0.048,0.128,0,0.177l-2.829,2.829C18.832,120.277,18.753,120.277,18.703,120.228"/>
		</g>
		<g enable-background="new    ">
			<path fill="#231F20" d="M31.505,120.613c-0.742,0-1.492-0.26-2.08-0.785l0.638-0.763c0.441,0.364,0.903,0.595,1.464,0.595
				c0.441,0,0.707-0.175,0.707-0.462v-0.014c0-0.273-0.168-0.413-0.987-0.624c-0.988-0.252-1.625-0.525-1.625-1.498v-0.015
				c0-0.89,0.714-1.478,1.716-1.478c0.714,0,1.324,0.224,1.821,0.623l-0.561,0.812c-0.434-0.301-0.861-0.483-1.274-0.483
				c-0.414,0-0.63,0.189-0.63,0.428v0.014c0,0.322,0.21,0.428,1.057,0.645c0.995,0.259,1.555,0.616,1.555,1.471v0.014
				C33.305,120.066,32.562,120.613,31.505,120.613z"/>
			<path fill="#231F20" d="M36.476,120.543v-0.532c-0.245,0.315-0.561,0.603-1.1,0.603c-0.806,0-1.275-0.532-1.275-1.394v-2.431
				h1.064v2.094c0,0.505,0.238,0.764,0.645,0.764s0.666-0.259,0.666-0.764v-2.094h1.064v3.754H36.476z"/>
			<path fill="#231F20" d="M40.724,120.613c-0.567,0-0.917-0.26-1.169-0.561v0.49H38.49v-5.112h1.065v1.897
				c0.259-0.35,0.616-0.609,1.169-0.609c0.875,0,1.709,0.687,1.709,1.94v0.014C42.433,119.927,41.614,120.613,40.724,120.613z
				 M41.369,118.659c0-0.624-0.42-1.037-0.917-1.037c-0.498,0-0.911,0.413-0.911,1.037v0.014c0,0.623,0.413,1.037,0.911,1.037
				c0.497,0,0.917-0.406,0.917-1.037V118.659z"/>
			<path fill="#231F20" d="M46.703,119.037H44.09c0.105,0.483,0.441,0.735,0.917,0.735c0.357,0,0.617-0.112,0.911-0.385l0.609,0.539
				c-0.35,0.435-0.854,0.7-1.534,0.7c-1.128,0-1.961-0.791-1.961-1.94v-0.014c0-1.071,0.764-1.954,1.856-1.954
				c1.253,0,1.828,0.974,1.828,2.038v0.015C46.717,118.876,46.71,118.939,46.703,119.037z M44.889,117.573
				c-0.441,0-0.729,0.315-0.812,0.799h1.604C45.617,117.896,45.337,117.573,44.889,117.573z"/>
			<path fill="#231F20" d="M51.735,120.634c-0.287,0.764-0.595,1.051-1.233,1.051c-0.385,0-0.672-0.098-0.945-0.259l0.357-0.771
				c0.14,0.084,0.315,0.146,0.455,0.146c0.182,0,0.28-0.056,0.371-0.245l-1.471-3.768h1.127l0.854,2.557l0.819-2.557h1.107
				L51.735,120.634z"/>
			<path fill="#231F20" d="M57.096,116.621v1.043h2.339v0.98h-2.339v1.898h-1.079v-4.902h3.733v0.98H57.096z"/>
			<path fill="#231F20" d="M60.519,116.376v-0.945h1.121v0.945H60.519z M60.547,120.543v-3.754h1.064v3.754H60.547z"/>
			<path fill="#231F20" d="M64.818,117.832c-0.708,0-1.142,0.428-1.142,1.324v1.387h-1.065v-3.754h1.065v0.756
				c0.217-0.518,0.567-0.854,1.197-0.826v1.113H64.818z"/>
			<path fill="#231F20" d="M70.202,120.543v-2.094c0-0.505-0.224-0.764-0.623-0.764c-0.399,0-0.645,0.259-0.645,0.764v2.094H67.87
				v-2.094c0-0.505-0.224-0.764-0.624-0.764c-0.399,0-0.644,0.259-0.644,0.764v2.094h-1.065v-3.754h1.065v0.532
				c0.245-0.315,0.567-0.603,1.106-0.603c0.49,0,0.861,0.217,1.058,0.596c0.329-0.386,0.721-0.596,1.232-0.596
				c0.792,0,1.268,0.477,1.268,1.38v2.444H70.202z"/>
			<path fill="#231F20" d="M74.386,120.543v-0.406c-0.259,0.287-0.616,0.477-1.134,0.477c-0.708,0-1.289-0.406-1.289-1.148v-0.015
				c0-0.819,0.624-1.197,1.513-1.197c0.378,0,0.651,0.062,0.917,0.154v-0.063c0-0.441-0.273-0.687-0.806-0.687
				c-0.406,0-0.693,0.077-1.037,0.203l-0.266-0.812c0.413-0.182,0.819-0.301,1.457-0.301c1.163,0,1.674,0.603,1.674,1.618v2.178
				H74.386z M74.407,119.03c-0.182-0.084-0.42-0.141-0.679-0.141c-0.455,0-0.735,0.183-0.735,0.519v0.014
				c0,0.288,0.238,0.456,0.581,0.456c0.498,0,0.833-0.273,0.833-0.658V119.03z"/>
		</g>
	</g>
	<g>
		<g>
			<path fill="#696C6D" d="M24.289,136.88c0,2.617-2.122,4.739-4.739,4.739c-2.617,0-4.739-2.122-4.739-4.739
				c0-2.618,2.122-4.739,4.739-4.739C22.167,132.141,24.289,134.262,24.289,136.88"/>
			<path fill="#FFFFFF" d="M18.703,138.934l-1.316-1.336c-0.049-0.05-0.047-0.129,0.001-0.178l0.693-0.682
				c0.048-0.049,0.128-0.047,0.178,0.002l0.451,0.46c0.049,0.05,0.129,0.05,0.178,0l1.958-1.958c0.049-0.048,0.128-0.048,0.177,0
				l0.687,0.688c0.048,0.048,0.048,0.128,0,0.176l-2.829,2.83C18.832,138.984,18.753,138.984,18.703,138.934"/>
		</g>
		<g enable-background="new    ">
			<path fill="#231F20" d="M30.84,135.328v1.043h2.339v0.98H30.84v1.898h-1.079v-4.902h3.733v0.98H30.84z"/>
			<path fill="#231F20" d="M34.262,135.083v-0.945h1.121v0.945H34.262z M34.29,139.25v-3.754h1.064v3.754H34.29z"/>
			<path fill="#231F20" d="M38.562,136.539c-0.708,0-1.142,0.428-1.142,1.324v1.387h-1.065v-3.754h1.065v0.756
				c0.217-0.518,0.567-0.854,1.197-0.826v1.113H38.562z"/>
			<path fill="#231F20" d="M43.945,139.25v-2.094c0-0.505-0.224-0.764-0.623-0.764c-0.399,0-0.645,0.259-0.645,0.764v2.094h-1.064
				v-2.094c0-0.505-0.224-0.764-0.624-0.764c-0.399,0-0.644,0.259-0.644,0.764v2.094h-1.065v-3.754h1.065v0.532
				c0.245-0.315,0.567-0.603,1.106-0.603c0.49,0,0.861,0.217,1.058,0.596c0.329-0.386,0.721-0.596,1.232-0.596
				c0.792,0,1.268,0.477,1.268,1.38v2.444H43.945z"/>
			<path fill="#231F20" d="M48.13,139.25v-0.406c-0.259,0.287-0.616,0.477-1.134,0.477c-0.708,0-1.289-0.406-1.289-1.148v-0.015
				c0-0.819,0.624-1.197,1.513-1.197c0.378,0,0.651,0.062,0.917,0.154v-0.063c0-0.441-0.273-0.687-0.806-0.687
				c-0.406,0-0.693,0.077-1.037,0.203l-0.266-0.812c0.413-0.182,0.819-0.301,1.457-0.301c1.163,0,1.674,0.603,1.674,1.618v2.178
				H48.13z M48.151,137.737c-0.182-0.084-0.42-0.141-0.679-0.141c-0.455,0-0.735,0.183-0.735,0.519v0.014
				c0,0.288,0.238,0.456,0.581,0.456c0.498,0,0.833-0.273,0.833-0.658V137.737z"/>
			<path fill="#231F20" d="M55.509,133.661l-3.103,6.485h-0.904l3.103-6.485H55.509z"/>
			<path fill="#231F20" d="M60.331,139.25v-0.532c-0.245,0.315-0.561,0.603-1.1,0.603c-0.806,0-1.275-0.532-1.275-1.394v-2.431
				h1.064v2.094c0,0.505,0.238,0.764,0.645,0.764s0.666-0.259,0.666-0.764v-2.094h1.064v3.754H60.331z"/>
			<path fill="#231F20" d="M63.662,139.32c-0.525,0-1.114-0.176-1.611-0.567l0.455-0.7c0.406,0.294,0.833,0.448,1.184,0.448
				c0.308,0,0.448-0.112,0.448-0.28v-0.015c0-0.23-0.364-0.308-0.777-0.434c-0.525-0.154-1.121-0.399-1.121-1.128v-0.014
				c0-0.764,0.616-1.191,1.373-1.191c0.476,0,0.994,0.161,1.4,0.435l-0.406,0.735c-0.371-0.217-0.742-0.35-1.015-0.35
				c-0.259,0-0.393,0.111-0.393,0.259v0.014c0,0.21,0.357,0.309,0.764,0.448c0.525,0.176,1.134,0.428,1.134,1.114v0.014
				C65.098,138.941,64.475,139.32,63.662,139.32z"/>
			<path fill="#231F20" d="M68.206,139.25v-0.532c-0.245,0.315-0.561,0.603-1.1,0.603c-0.806,0-1.275-0.532-1.275-1.394v-2.431
				h1.064v2.094c0,0.505,0.238,0.764,0.645,0.764s0.666-0.259,0.666-0.764v-2.094h1.064v3.754H68.206z"/>
			<path fill="#231F20" d="M72.419,139.25v-0.406c-0.259,0.287-0.616,0.477-1.134,0.477c-0.708,0-1.289-0.406-1.289-1.148v-0.015
				c0-0.819,0.624-1.197,1.513-1.197c0.378,0,0.651,0.062,0.917,0.154v-0.063c0-0.441-0.273-0.687-0.806-0.687
				c-0.406,0-0.693,0.077-1.037,0.203l-0.266-0.812c0.413-0.182,0.819-0.301,1.457-0.301c1.163,0,1.674,0.603,1.674,1.618v2.178
				H72.419z M72.44,137.737c-0.182-0.084-0.42-0.141-0.679-0.141c-0.455,0-0.735,0.183-0.735,0.519v0.014
				c0,0.288,0.238,0.456,0.581,0.456c0.498,0,0.833-0.273,0.833-0.658V137.737z"/>
			<path fill="#231F20" d="M76.571,136.539c-0.708,0-1.142,0.428-1.142,1.324v1.387h-1.065v-3.754h1.065v0.756
				c0.217-0.518,0.567-0.854,1.197-0.826v1.113H76.571z"/>
			<path fill="#231F20" d="M77.312,135.083v-0.945h1.121v0.945H77.312z M77.34,139.25v-3.754h1.064v3.754H77.34z"/>
			<path fill="#231F20" d="M81.247,139.334c-1.163,0-2.024-0.861-2.024-1.94v-0.014c0-1.078,0.869-1.954,2.038-1.954
				c1.163,0,2.024,0.861,2.024,1.94v0.014C83.285,138.459,82.416,139.334,81.247,139.334z M82.234,137.38
				c0-0.553-0.399-1.036-0.987-1.036c-0.609,0-0.974,0.469-0.974,1.022v0.014c0,0.554,0.399,1.037,0.987,1.037
				c0.609,0,0.974-0.47,0.974-1.023V137.38z"/>
			<path fill="#231F20" d="M86.173,135.083v-0.945h1.12v0.945H86.173z M86.201,139.25v-3.754h1.064v3.754H86.201z"/>
			<path fill="#231F20" d="M90.641,139.25v-2.094c0-0.505-0.238-0.764-0.645-0.764s-0.665,0.259-0.665,0.764v2.094h-1.065v-3.754
				h1.065v0.532c0.245-0.315,0.56-0.603,1.1-0.603c0.806,0,1.274,0.532,1.274,1.394v2.431H90.641z"/>
			<path fill="#231F20" d="M94.596,139.278h-0.967l-1.479-3.782h1.128l0.841,2.515l0.848-2.515h1.105L94.596,139.278z"/>
			<path fill="#231F20" d="M96.708,135.083v-0.945h1.12v0.945H96.708z M96.736,139.25v-3.754h1.064v3.754H96.736z"/>
			<path fill="#231F20" d="M100.068,139.313c-0.65,0-1.092-0.26-1.092-1.128v-1.779h-0.449v-0.91h0.449v-0.96h1.064v0.96h0.883v0.91
				h-0.883v1.604c0,0.245,0.104,0.364,0.343,0.364c0.196,0,0.371-0.05,0.525-0.134v0.854
				C100.686,139.229,100.426,139.313,100.068,139.313z"/>
			<path fill="#231F20" d="M103.904,139.25v-0.406c-0.258,0.287-0.615,0.477-1.134,0.477c-0.708,0-1.289-0.406-1.289-1.148v-0.015
				c0-0.819,0.624-1.197,1.513-1.197c0.379,0,0.652,0.062,0.918,0.154v-0.063c0-0.441-0.273-0.687-0.806-0.687
				c-0.406,0-0.693,0.077-1.036,0.203l-0.267-0.812c0.413-0.182,0.819-0.301,1.457-0.301c1.163,0,1.674,0.603,1.674,1.618v2.178
				H103.904z M103.926,137.737c-0.182-0.084-0.42-0.141-0.68-0.141c-0.455,0-0.734,0.183-0.734,0.519v0.014
				c0,0.288,0.238,0.456,0.58,0.456c0.498,0,0.834-0.273,0.834-0.658V137.737z"/>
			<path fill="#231F20" d="M108.561,139.25v-0.539c-0.26,0.35-0.617,0.609-1.17,0.609c-0.875,0-1.709-0.687-1.709-1.94v-0.014
				c0-1.254,0.819-1.94,1.709-1.94c0.567,0,0.918,0.26,1.17,0.561v-1.849h1.064v5.112H108.561z M108.574,137.366
				c0-0.624-0.413-1.037-0.91-1.037c-0.498,0-0.918,0.406-0.918,1.037v0.014c0,0.623,0.42,1.037,0.918,1.037
				c0.497,0,0.91-0.414,0.91-1.037V137.366z"/>
			<path fill="#231F20" d="M112.417,139.334c-1.163,0-2.024-0.861-2.024-1.94v-0.014c0-1.078,0.869-1.954,2.038-1.954
				c1.163,0,2.024,0.861,2.024,1.94v0.014C114.455,138.459,113.586,139.334,112.417,139.334z M113.404,137.38
				c0-0.553-0.398-1.036-0.987-1.036c-0.609,0-0.974,0.469-0.974,1.022v0.014c0,0.554,0.399,1.037,0.987,1.037
				c0.609,0,0.974-0.47,0.974-1.023V137.38z"/>
		</g>
	</g>
	<g>
		<g>
			<path fill="#696C6D" d="M24.288,194.563c0,2.617-2.122,4.739-4.739,4.739c-2.617,0-4.739-2.122-4.739-4.739
				c0-2.618,2.122-4.738,4.739-4.738C22.166,189.825,24.288,191.945,24.288,194.563"/>
			<path fill="#FFFFFF" d="M18.702,196.617l-1.316-1.336c-0.048-0.05-0.047-0.129,0.001-0.178l0.693-0.683
				c0.048-0.049,0.128-0.047,0.178,0.003l0.451,0.459c0.049,0.05,0.129,0.05,0.178,0l1.958-1.957c0.049-0.049,0.128-0.049,0.177,0
				l0.687,0.688c0.049,0.048,0.049,0.128,0,0.176l-2.829,2.83C18.831,196.667,18.751,196.667,18.702,196.617"/>
		</g>
		<g enable-background="new    ">
			<path fill="#231F20" d="M33.41,196.934l-0.448-1.1h-2.073l-0.448,1.1h-1.1l2.101-4.938h0.995l2.101,4.938H33.41z M31.925,193.292
				l-0.651,1.59h1.303L31.925,193.292z"/>
			<path fill="#231F20" d="M36.776,197.018c-1.127,0-1.954-0.868-1.954-1.94v-0.014c0-1.071,0.82-1.954,1.968-1.954
				c0.708,0,1.148,0.238,1.499,0.631l-0.651,0.7c-0.238-0.252-0.477-0.413-0.854-0.413c-0.532,0-0.911,0.469-0.911,1.022v0.014
				c0,0.574,0.371,1.037,0.953,1.037c0.357,0,0.602-0.154,0.861-0.399l0.624,0.63C37.946,196.73,37.525,197.018,36.776,197.018z"/>
			<path fill="#231F20" d="M40.668,197.018c-1.127,0-1.954-0.868-1.954-1.94v-0.014c0-1.071,0.82-1.954,1.968-1.954
				c0.708,0,1.148,0.238,1.499,0.631l-0.651,0.7c-0.238-0.252-0.477-0.413-0.854-0.413c-0.532,0-0.911,0.469-0.911,1.022v0.014
				c0,0.574,0.371,1.037,0.953,1.037c0.357,0,0.602-0.154,0.861-0.399l0.624,0.63C41.838,196.73,41.417,197.018,40.668,197.018z"/>
			<path fill="#231F20" d="M46.276,195.428h-2.613c0.105,0.483,0.441,0.735,0.917,0.735c0.357,0,0.617-0.112,0.911-0.385
				l0.609,0.539c-0.35,0.435-0.854,0.7-1.534,0.7c-1.128,0-1.961-0.791-1.961-1.94v-0.014c0-1.071,0.764-1.954,1.856-1.954
				c1.253,0,1.828,0.974,1.828,2.038v0.015C46.29,195.267,46.283,195.33,46.276,195.428z M44.462,193.964
				c-0.441,0-0.729,0.315-0.812,0.799h1.604C45.19,194.286,44.911,193.964,44.462,193.964z"/>
			<path fill="#231F20" d="M48.396,197.004c-0.525,0-1.114-0.176-1.611-0.567l0.455-0.7c0.406,0.294,0.833,0.448,1.184,0.448
				c0.308,0,0.448-0.112,0.448-0.28v-0.015c0-0.23-0.364-0.308-0.777-0.434c-0.525-0.154-1.121-0.399-1.121-1.128v-0.014
				c0-0.764,0.616-1.191,1.373-1.191c0.476,0,0.994,0.161,1.4,0.435l-0.406,0.735c-0.371-0.217-0.742-0.35-1.015-0.35
				c-0.259,0-0.393,0.111-0.393,0.259v0.014c0,0.21,0.357,0.309,0.764,0.448c0.525,0.176,1.134,0.428,1.134,1.114v0.014
				C49.831,196.625,49.208,197.004,48.396,197.004z"/>
			<path fill="#231F20" d="M52.435,197.018c-1.163,0-2.024-0.861-2.024-1.94v-0.014c0-1.078,0.869-1.954,2.038-1.954
				c1.163,0,2.024,0.861,2.024,1.94v0.014C54.473,196.143,53.604,197.018,52.435,197.018z M53.422,195.063
				c0-0.553-0.399-1.036-0.987-1.036c-0.609,0-0.974,0.469-0.974,1.022v0.014c0,0.554,0.399,1.037,0.987,1.037
				c0.609,0,0.974-0.47,0.974-1.023V195.063z"/>
			<path fill="#231F20" d="M59.54,196.934v-0.406c-0.259,0.287-0.616,0.477-1.134,0.477c-0.708,0-1.289-0.406-1.289-1.148v-0.015
				c0-0.819,0.624-1.197,1.513-1.197c0.378,0,0.651,0.062,0.917,0.154v-0.063c0-0.441-0.273-0.687-0.806-0.687
				c-0.406,0-0.693,0.077-1.037,0.203l-0.266-0.812c0.413-0.182,0.819-0.301,1.457-0.301c1.163,0,1.674,0.603,1.674,1.618v2.178
				H59.54z M59.561,195.421c-0.182-0.084-0.42-0.141-0.679-0.141c-0.455,0-0.735,0.183-0.735,0.519v0.014
				c0,0.288,0.238,0.456,0.581,0.456c0.498,0,0.833-0.273,0.833-0.658V195.421z"/>
			<path fill="#231F20" d="M65.994,197.018c-1.443,0-2.515-1.113-2.515-2.521v-0.014c0-1.394,1.051-2.535,2.557-2.535
				c0.924,0,1.478,0.308,1.933,0.756l-0.687,0.792c-0.378-0.344-0.764-0.554-1.254-0.554c-0.826,0-1.421,0.687-1.421,1.527v0.014
				c0,0.84,0.581,1.541,1.421,1.541c0.561,0,0.904-0.225,1.289-0.574l0.686,0.693C67.5,196.682,66.939,197.018,65.994,197.018z"/>
			<path fill="#231F20" d="M70.95,196.934v-0.406c-0.259,0.287-0.616,0.477-1.134,0.477c-0.708,0-1.289-0.406-1.289-1.148v-0.015
				c0-0.819,0.624-1.197,1.513-1.197c0.378,0,0.651,0.062,0.917,0.154v-0.063c0-0.441-0.273-0.687-0.806-0.687
				c-0.406,0-0.693,0.077-1.037,0.203l-0.266-0.812c0.413-0.182,0.819-0.301,1.457-0.301c1.163,0,1.674,0.603,1.674,1.618v2.178
				H70.95z M70.971,195.421c-0.182-0.084-0.42-0.141-0.679-0.141c-0.455,0-0.735,0.183-0.735,0.519v0.014
				c0,0.288,0.238,0.456,0.581,0.456c0.498,0,0.833-0.273,0.833-0.658V195.421z"/>
			<path fill="#231F20" d="M74.127,196.997c-0.651,0-1.093-0.26-1.093-1.128v-1.779h-0.448v-0.91h0.448v-0.96h1.064v0.96h0.883v0.91
				h-0.883v1.604c0,0.245,0.105,0.364,0.343,0.364c0.196,0,0.371-0.05,0.525-0.134v0.854
				C74.744,196.912,74.484,196.997,74.127,196.997z"/>
			<path fill="#231F20" d="M77.964,196.934v-0.406c-0.259,0.287-0.616,0.477-1.134,0.477c-0.708,0-1.289-0.406-1.289-1.148v-0.015
				c0-0.819,0.624-1.197,1.513-1.197c0.378,0,0.651,0.062,0.917,0.154v-0.063c0-0.441-0.273-0.687-0.806-0.687
				c-0.406,0-0.693,0.077-1.037,0.203l-0.266-0.812c0.413-0.182,0.819-0.301,1.457-0.301c1.163,0,1.674,0.603,1.674,1.618v2.178
				H77.964z M77.985,195.421c-0.182-0.084-0.42-0.141-0.679-0.141c-0.455,0-0.735,0.183-0.735,0.519v0.014
				c0,0.288,0.238,0.456,0.581,0.456c0.498,0,0.833-0.273,0.833-0.658V195.421z M76.878,192.767l0.792-1.24l0.917,0.399
				l-0.896,0.841H76.878z"/>
			<path fill="#231F20" d="M79.958,196.934v-5.112h1.064v5.112H79.958z"/>
			<path fill="#231F20" d="M83.865,197.018c-1.163,0-2.024-0.861-2.024-1.94v-0.014c0-1.078,0.869-1.954,2.038-1.954
				c1.163,0,2.024,0.861,2.024,1.94v0.014C85.903,196.143,85.034,197.018,83.865,197.018z M84.852,195.063
				c0-0.553-0.399-1.036-0.987-1.036c-0.609,0-0.974,0.469-0.974,1.022v0.014c0,0.554,0.399,1.037,0.987,1.037
				c0.609,0,0.974-0.47,0.974-1.023V195.063z"/>
			<path fill="#231F20" d="M88.352,198.068c-0.609,0-1.184-0.141-1.66-0.393l0.364-0.798c0.386,0.217,0.771,0.343,1.268,0.343
				c0.729,0,1.071-0.351,1.071-1.022v-0.183c-0.314,0.379-0.658,0.609-1.225,0.609c-0.876,0-1.668-0.637-1.668-1.751v-0.014
				c0-1.12,0.807-1.751,1.668-1.751c0.58,0,0.924,0.245,1.211,0.561v-0.49h1.064v2.906
				C90.445,197.501,89.745,198.068,88.352,198.068z M89.395,194.86c0-0.511-0.398-0.868-0.917-0.868s-0.911,0.357-0.911,0.868v0.014
				c0,0.519,0.393,0.869,0.911,0.869s0.917-0.357,0.917-0.869V194.86z"/>
			<path fill="#231F20" d="M93.237,197.018c-1.163,0-2.024-0.861-2.024-1.94v-0.014c0-1.078,0.869-1.954,2.038-1.954
				c1.163,0,2.024,0.861,2.024,1.94v0.014C95.275,196.143,94.406,197.018,93.237,197.018z M94.225,195.063
				c0-0.553-0.398-1.036-0.987-1.036c-0.609,0-0.974,0.469-0.974,1.022v0.014c0,0.554,0.399,1.037,0.987,1.037
				c0.609,0,0.974-0.47,0.974-1.023V195.063z"/>
		</g>
	</g>
	<g>
		<g>
			<path fill="#696C6D" d="M24.289,156.266c0,2.617-2.122,4.739-4.739,4.739c-2.617,0-4.739-2.122-4.739-4.739
				c0-2.618,2.122-4.739,4.739-4.739C22.167,151.527,24.289,153.648,24.289,156.266"/>
			<path fill="#FFFFFF" d="M18.703,158.32l-1.316-1.336c-0.049-0.05-0.047-0.129,0.001-0.178l0.693-0.683
				c0.048-0.048,0.128-0.047,0.178,0.002l0.451,0.46c0.049,0.05,0.129,0.05,0.178,0l1.958-1.958c0.049-0.048,0.128-0.048,0.177,0
				l0.687,0.687c0.048,0.049,0.048,0.128,0,0.177l-2.829,2.829C18.832,158.37,18.753,158.37,18.703,158.32"/>
		</g>
		<g enable-background="new    ">
			<path fill="#231F20" d="M30.84,154.714v1.043h2.339v0.98H30.84v1.898h-1.079v-4.902h3.733v0.98H30.84z"/>
			<path fill="#231F20" d="M34.262,154.469v-0.945h1.121v0.945H34.262z M34.29,158.636v-3.754h1.064v3.754H34.29z"/>
			<path fill="#231F20" d="M38.562,155.925c-0.708,0-1.142,0.428-1.142,1.324v1.387h-1.065v-3.754h1.065v0.756
				c0.217-0.518,0.567-0.854,1.197-0.826v1.113H38.562z"/>
			<path fill="#231F20" d="M43.945,158.636v-2.094c0-0.505-0.224-0.764-0.623-0.764c-0.399,0-0.645,0.259-0.645,0.764v2.094h-1.064
				v-2.094c0-0.505-0.224-0.764-0.624-0.764c-0.399,0-0.644,0.259-0.644,0.764v2.094h-1.065v-3.754h1.065v0.532
				c0.245-0.315,0.567-0.603,1.106-0.603c0.49,0,0.861,0.217,1.058,0.596c0.329-0.386,0.721-0.596,1.232-0.596
				c0.792,0,1.268,0.477,1.268,1.38v2.444H43.945z"/>
			<path fill="#231F20" d="M48.13,158.636v-0.406c-0.259,0.287-0.616,0.477-1.134,0.477c-0.708,0-1.289-0.406-1.289-1.148v-0.015
				c0-0.819,0.624-1.197,1.513-1.197c0.378,0,0.651,0.062,0.917,0.154v-0.063c0-0.441-0.273-0.687-0.806-0.687
				c-0.406,0-0.693,0.077-1.037,0.203l-0.266-0.812c0.413-0.182,0.819-0.301,1.457-0.301c1.163,0,1.674,0.603,1.674,1.618v2.178
				H48.13z M48.151,157.123c-0.182-0.084-0.42-0.141-0.679-0.141c-0.455,0-0.735,0.183-0.735,0.519v0.014
				c0,0.288,0.238,0.456,0.581,0.456c0.498,0,0.833-0.273,0.833-0.658V157.123z"/>
			<path fill="#231F20" d="M52.449,158.636v-2.094c0-0.505-0.238-0.764-0.645-0.764s-0.665,0.259-0.665,0.764v2.094h-1.065v-3.754
				h1.065v0.532c0.245-0.315,0.56-0.603,1.1-0.603c0.805,0,1.274,0.532,1.274,1.394v2.431H52.449z"/>
			<path fill="#231F20" d="M55.704,158.699c-0.651,0-1.093-0.26-1.093-1.128v-1.779h-0.448v-0.91h0.448v-0.96h1.064v0.96h0.883v0.91
				h-0.883v1.604c0,0.245,0.105,0.364,0.343,0.364c0.196,0,0.371-0.05,0.525-0.134v0.854
				C56.32,158.614,56.061,158.699,55.704,158.699z"/>
			<path fill="#231F20" d="M60.724,157.13h-2.613c0.105,0.483,0.441,0.735,0.917,0.735c0.357,0,0.617-0.112,0.911-0.385l0.609,0.539
				c-0.35,0.435-0.854,0.7-1.534,0.7c-1.128,0-1.961-0.791-1.961-1.94v-0.014c0-1.071,0.764-1.954,1.856-1.954
				c1.253,0,1.828,0.974,1.828,2.038v0.015C60.737,156.969,60.73,157.032,60.724,157.13z M58.91,155.666
				c-0.441,0-0.729,0.315-0.812,0.799h1.604C59.638,155.988,59.358,155.666,58.91,155.666z"/>
			<path fill="#231F20" d="M62.843,158.706c-0.525,0-1.114-0.176-1.611-0.567l0.455-0.7c0.406,0.294,0.833,0.448,1.184,0.448
				c0.309,0,0.448-0.112,0.448-0.28v-0.015c0-0.23-0.364-0.308-0.777-0.434c-0.525-0.154-1.121-0.399-1.121-1.128v-0.014
				c0-0.764,0.616-1.191,1.373-1.191c0.476,0,0.994,0.161,1.4,0.435l-0.406,0.735c-0.371-0.217-0.742-0.35-1.015-0.35
				c-0.259,0-0.393,0.111-0.393,0.259v0.014c0,0.21,0.357,0.309,0.764,0.448c0.525,0.176,1.134,0.428,1.134,1.114v0.014
				C64.279,158.327,63.656,158.706,62.843,158.706z"/>
			<path fill="#231F20" d="M70.475,153.047l-3.103,6.485h-0.904l3.103-6.485H70.475z"/>
			<path fill="#231F20" d="M72.971,154.469v-0.945h1.121v0.945H72.971z M73,158.636v-3.754h1.064v3.754H73z"/>
			<path fill="#231F20" d="M75.114,158.636v-5.112h1.064v5.112H75.114z"/>
			<path fill="#231F20" d="M77.199,154.469v-0.945h1.121v0.945H77.199z M77.228,158.636v-3.754h1.064v3.754H77.228z"/>
			<path fill="#231F20" d="M83.957,158.636v-2.094c0-0.505-0.224-0.764-0.623-0.764c-0.399,0-0.645,0.259-0.645,0.764v2.094h-1.064
				v-2.094c0-0.505-0.224-0.764-0.624-0.764c-0.399,0-0.644,0.259-0.644,0.764v2.094h-1.065v-3.754h1.065v0.532
				c0.245-0.315,0.567-0.603,1.106-0.603c0.49,0,0.861,0.217,1.058,0.596c0.329-0.386,0.721-0.596,1.232-0.596
				c0.792,0,1.268,0.477,1.268,1.38v2.444H83.957z"/>
			<path fill="#231F20" d="M85.963,154.469v-0.945h1.121v0.945H85.963z M85.991,158.636v-3.754h1.064v3.754H85.991z"/>
			<path fill="#231F20" d="M89.324,158.699c-0.651,0-1.093-0.26-1.093-1.128v-1.779h-0.448v-0.91h0.448v-0.96h1.064v0.96h0.883v0.91
				h-0.883v1.604c0,0.245,0.104,0.364,0.343,0.364c0.197,0,0.371-0.05,0.525-0.134v0.854
				C89.94,158.614,89.682,158.699,89.324,158.699z"/>
			<path fill="#231F20" d="M93.16,158.636v-0.406c-0.259,0.287-0.616,0.477-1.135,0.477c-0.707,0-1.289-0.406-1.289-1.148v-0.015
				c0-0.819,0.624-1.197,1.514-1.197c0.378,0,0.651,0.062,0.918,0.154v-0.063c0-0.441-0.273-0.687-0.807-0.687
				c-0.406,0-0.693,0.077-1.036,0.203l-0.267-0.812c0.414-0.182,0.82-0.301,1.457-0.301c1.163,0,1.674,0.603,1.674,1.618v2.178
				H93.16z M93.182,157.123c-0.183-0.084-0.42-0.141-0.68-0.141c-0.455,0-0.735,0.183-0.735,0.519v0.014
				c0,0.288,0.238,0.456,0.581,0.456c0.498,0,0.834-0.273,0.834-0.658V157.123z"/>
			<path fill="#231F20" d="M97.815,158.636v-0.539c-0.259,0.35-0.616,0.609-1.169,0.609c-0.876,0-1.709-0.687-1.709-1.94v-0.014
				c0-1.254,0.818-1.94,1.709-1.94c0.566,0,0.917,0.26,1.169,0.561v-1.849h1.065v5.112H97.815z M97.83,156.752
				c0-0.624-0.414-1.037-0.911-1.037s-0.917,0.406-0.917,1.037v0.014c0,0.623,0.42,1.037,0.917,1.037s0.911-0.414,0.911-1.037
				V156.752z"/>
			<path fill="#231F20" d="M101.672,158.72c-1.162,0-2.024-0.861-2.024-1.94v-0.014c0-1.078,0.868-1.954,2.038-1.954
				c1.163,0,2.024,0.861,2.024,1.94v0.014C103.71,157.845,102.842,158.72,101.672,158.72z M102.659,156.766
				c0-0.553-0.399-1.036-0.987-1.036c-0.609,0-0.974,0.469-0.974,1.022v0.014c0,0.554,0.399,1.037,0.987,1.037
				c0.609,0,0.974-0.47,0.974-1.023V156.766z"/>
			<path fill="#231F20" d="M105.795,158.706c-0.525,0-1.114-0.176-1.611-0.567l0.455-0.7c0.406,0.294,0.834,0.448,1.184,0.448
				c0.309,0,0.448-0.112,0.448-0.28v-0.015c0-0.23-0.364-0.308-0.777-0.434c-0.525-0.154-1.12-0.399-1.12-1.128v-0.014
				c0-0.764,0.615-1.191,1.373-1.191c0.476,0,0.994,0.161,1.4,0.435l-0.406,0.735c-0.371-0.217-0.742-0.35-1.016-0.35
				c-0.26,0-0.393,0.111-0.393,0.259v0.014c0,0.21,0.357,0.309,0.764,0.448c0.525,0.176,1.135,0.428,1.135,1.114v0.014
				C107.23,158.327,106.607,158.706,105.795,158.706z"/>
		</g>
	</g>
	<g>
		<g>
			<path fill="#696C6D" d="M24.288,213.607c0,2.617-2.122,4.74-4.739,4.74c-2.617,0-4.739-2.123-4.739-4.74s2.122-4.738,4.739-4.738
				C22.166,208.869,24.288,210.99,24.288,213.607"/>
			<path fill="#FFFFFF" d="M18.702,215.662l-1.316-1.338c-0.048-0.049-0.047-0.129,0.001-0.178l0.693-0.683
				c0.048-0.049,0.128-0.047,0.178,0.002l0.451,0.461c0.049,0.05,0.129,0.05,0.178,0l1.958-1.959c0.049-0.047,0.128-0.047,0.177,0
				l0.687,0.688c0.049,0.049,0.049,0.129,0,0.178l-2.829,2.828C18.831,215.711,18.751,215.711,18.702,215.662"/>
		</g>
		<g enable-background="new    ">
			<path fill="#231F20" d="M33.41,215.977l-0.448-1.1h-2.073l-0.448,1.1h-1.1l2.101-4.938h0.995l2.101,4.938H33.41z M31.925,212.335
				l-0.651,1.59h1.303L31.925,212.335z"/>
			<path fill="#231F20" d="M35.228,215.977v-5.112h1.064v5.112H35.228z"/>
			<path fill="#231F20" d="M41.958,215.977v-2.094c0-0.505-0.224-0.764-0.623-0.764c-0.399,0-0.645,0.259-0.645,0.764v2.094h-1.064
				v-2.094c0-0.505-0.224-0.764-0.624-0.764c-0.399,0-0.644,0.259-0.644,0.764v2.094h-1.065v-3.754h1.065v0.532
				c0.245-0.315,0.567-0.603,1.106-0.603c0.49,0,0.861,0.217,1.058,0.596c0.329-0.386,0.721-0.596,1.232-0.596
				c0.792,0,1.268,0.477,1.268,1.38v2.444H41.958z"/>
			<path fill="#231F20" d="M46.142,215.977v-0.406c-0.259,0.287-0.616,0.477-1.134,0.477c-0.708,0-1.289-0.406-1.289-1.148v-0.015
				c0-0.819,0.624-1.197,1.513-1.197c0.378,0,0.651,0.062,0.917,0.154v-0.063c0-0.441-0.273-0.687-0.806-0.687
				c-0.406,0-0.693,0.077-1.037,0.203l-0.266-0.812c0.413-0.182,0.819-0.301,1.457-0.301c1.163,0,1.674,0.603,1.674,1.618v2.178
				H46.142z M46.163,214.464c-0.182-0.084-0.42-0.141-0.679-0.141c-0.455,0-0.735,0.183-0.735,0.519v0.014
				c0,0.288,0.238,0.456,0.581,0.456c0.498,0,0.833-0.273,0.833-0.658V214.464z"/>
			<path fill="#231F20" d="M49.859,216.061c-1.127,0-1.954-0.868-1.954-1.94v-0.014c0-1.071,0.82-1.954,1.968-1.954
				c0.708,0,1.148,0.238,1.499,0.631l-0.651,0.7c-0.238-0.252-0.477-0.413-0.854-0.413c-0.532,0-0.911,0.469-0.911,1.022v0.014
				c0,0.574,0.371,1.037,0.953,1.037c0.357,0,0.602-0.154,0.861-0.399l0.624,0.63C51.029,215.773,50.608,216.061,49.859,216.061z"/>
			<path fill="#231F20" d="M55.467,214.471h-2.613c0.105,0.483,0.441,0.735,0.917,0.735c0.357,0,0.617-0.112,0.911-0.385
				l0.609,0.539c-0.35,0.435-0.854,0.7-1.534,0.7c-1.128,0-1.961-0.791-1.961-1.94v-0.014c0-1.071,0.764-1.954,1.856-1.954
				c1.253,0,1.828,0.974,1.828,2.038v0.015C55.48,214.31,55.474,214.373,55.467,214.471z M53.653,213.007
				c-0.441,0-0.729,0.315-0.812,0.799h1.604C54.381,213.329,54.101,213.007,53.653,213.007z"/>
			<path fill="#231F20" d="M58.644,215.977v-2.094c0-0.505-0.238-0.764-0.645-0.764s-0.665,0.259-0.665,0.764v2.094H56.27v-3.754
				h1.065v0.532c0.245-0.315,0.56-0.603,1.1-0.603c0.805,0,1.274,0.532,1.274,1.394v2.431H58.644z"/>
			<path fill="#231F20" d="M62.83,215.977v-0.406c-0.259,0.287-0.616,0.477-1.134,0.477c-0.708,0-1.289-0.406-1.289-1.148v-0.015
				c0-0.819,0.624-1.197,1.513-1.197c0.378,0,0.651,0.062,0.917,0.154v-0.063c0-0.441-0.273-0.687-0.806-0.687
				c-0.406,0-0.693,0.077-1.037,0.203l-0.266-0.812c0.413-0.182,0.819-0.301,1.457-0.301c1.163,0,1.674,0.603,1.674,1.618v2.178
				H62.83z M62.851,214.464c-0.182-0.084-0.42-0.141-0.679-0.141c-0.455,0-0.735,0.183-0.735,0.519v0.014
				c0,0.288,0.238,0.456,0.581,0.456c0.498,0,0.833-0.273,0.833-0.658V214.464z"/>
			<path fill="#231F20" d="M69.439,215.977v-2.094c0-0.505-0.224-0.764-0.623-0.764c-0.399,0-0.645,0.259-0.645,0.764v2.094h-1.064
				v-2.094c0-0.505-0.224-0.764-0.624-0.764c-0.399,0-0.644,0.259-0.644,0.764v2.094h-1.065v-3.754h1.065v0.532
				c0.245-0.315,0.567-0.603,1.106-0.603c0.49,0,0.861,0.217,1.058,0.596c0.329-0.386,0.721-0.596,1.232-0.596
				c0.792,0,1.268,0.477,1.268,1.38v2.444H69.439z"/>
			<path fill="#231F20" d="M71.445,211.81v-0.945h1.121v0.945H71.445z M71.474,215.977v-3.754h1.064v3.754H71.474z"/>
			<path fill="#231F20" d="M77.027,214.471h-2.613c0.105,0.483,0.441,0.735,0.917,0.735c0.357,0,0.617-0.112,0.911-0.385
				l0.609,0.539c-0.35,0.435-0.854,0.7-1.534,0.7c-1.128,0-1.961-0.791-1.961-1.94v-0.014c0-1.071,0.764-1.954,1.856-1.954
				c1.253,0,1.828,0.974,1.828,2.038v0.015C77.041,214.31,77.034,214.373,77.027,214.471z M75.213,213.007
				c-0.441,0-0.729,0.315-0.812,0.799h1.604C75.941,213.329,75.661,213.007,75.213,213.007z"/>
			<path fill="#231F20" d="M80.204,215.977v-2.094c0-0.505-0.238-0.764-0.645-0.764s-0.665,0.259-0.665,0.764v2.094H77.83v-3.754
				h1.065v0.532c0.245-0.315,0.56-0.603,1.1-0.603c0.805,0,1.274,0.532,1.274,1.394v2.431H80.204z"/>
			<path fill="#231F20" d="M83.458,216.04c-0.651,0-1.093-0.26-1.093-1.128v-1.779h-0.448v-0.91h0.448v-0.96h1.064v0.96h0.883v0.91
				H83.43v1.604c0,0.245,0.105,0.364,0.343,0.364c0.196,0,0.371-0.05,0.525-0.134v0.854C84.075,215.955,83.815,216.04,83.458,216.04
				z"/>
			<path fill="#231F20" d="M86.832,216.061c-1.162,0-2.024-0.861-2.024-1.94v-0.014c0-1.078,0.869-1.954,2.038-1.954
				c1.164,0,2.025,0.861,2.025,1.94v0.014C88.871,215.186,88.002,216.061,86.832,216.061z M87.82,214.106
				c0-0.553-0.399-1.036-0.988-1.036c-0.609,0-0.973,0.469-0.973,1.022v0.014c0,0.554,0.399,1.037,0.987,1.037
				c0.609,0,0.975-0.47,0.975-1.023V214.106z"/>
			<path fill="#231F20" d="M92.424,212.629l-0.756-0.609c0.483-0.658,0.953-1.016,1.828-1.016c1.043,0,1.688,0.603,1.688,1.52
				c0,0.819-0.42,1.233-1.289,1.905l-0.798,0.616h2.136v0.932h-3.627v-0.854l1.631-1.338c0.609-0.504,0.848-0.771,0.848-1.177
				c0-0.413-0.273-0.637-0.658-0.637C93.048,211.971,92.789,212.181,92.424,212.629z"/>
			<path fill="#231F20" d="M96.394,211.074h3.012v0.945h-2.087l-0.057,0.848c0.196-0.05,0.371-0.084,0.645-0.084
				c0.967,0,1.716,0.462,1.716,1.575c0,1.044-0.735,1.702-1.862,1.702c-0.785,0-1.359-0.28-1.836-0.735l0.652-0.777
				c0.371,0.336,0.734,0.532,1.169,0.532c0.505,0,0.819-0.245,0.819-0.687c0-0.427-0.343-0.672-0.868-0.672
				c-0.308,0-0.589,0.084-0.819,0.182l-0.623-0.413L96.394,211.074z"/>
			<path fill="#231F20" d="M103.703,210.388l-3.103,6.485h-0.903l3.103-6.485H103.703z"/>
			<path fill="#231F20" d="M108.022,215.977v-3.201l-1.38,2.095h-0.027l-1.366-2.073v3.18h-1.058v-4.902h1.162l1.289,2.073
				l1.289-2.073h1.162v4.902H108.022z"/>
			<path fill="#231F20" d="M112.6,215.977h-2.332v-4.902h2.275c1.002,0,1.618,0.497,1.618,1.268v0.014
				c0,0.554-0.294,0.861-0.645,1.058c0.567,0.217,0.917,0.546,0.917,1.205v0.014C114.434,215.528,113.706,215.977,112.6,215.977z
				 M113.09,212.523c0-0.322-0.252-0.504-0.707-0.504h-1.065v1.036h0.995c0.477,0,0.777-0.153,0.777-0.518V212.523z
				 M113.363,214.484c0-0.329-0.246-0.532-0.799-0.532h-1.247v1.079h1.282c0.477,0,0.764-0.168,0.764-0.532V214.484z"/>
		</g>
	</g>
	<g>
		<g>
			<path fill="#696C6D" d="M24.288,232.439c0,2.617-2.122,4.737-4.739,4.737c-2.617,0-4.739-2.12-4.739-4.737
				c0-2.619,2.122-4.74,4.739-4.74C22.166,227.699,24.288,229.82,24.288,232.439"/>
			<path fill="#FFFFFF" d="M18.702,234.492l-1.316-1.336c-0.048-0.049-0.047-0.129,0.001-0.178l0.693-0.683
				c0.048-0.049,0.128-0.049,0.178,0.002l0.451,0.459c0.049,0.052,0.129,0.052,0.178,0l1.958-1.957c0.049-0.049,0.128-0.049,0.177,0
				l0.687,0.688c0.049,0.049,0.049,0.127,0,0.176l-2.829,2.83C18.831,234.543,18.751,234.543,18.702,234.492"/>
		</g>
		<g enable-background="new    ">
			<path fill="#231F20" d="M32.275,234.844h-0.952l-1.982-4.938h1.191l1.282,3.452l1.281-3.452h1.163L32.275,234.844z"/>
			<path fill="#231F20" d="M37.897,233.303h-2.613c0.105,0.483,0.441,0.735,0.917,0.735c0.357,0,0.617-0.112,0.911-0.385
				l0.609,0.539c-0.35,0.435-0.854,0.7-1.534,0.7c-1.128,0-1.961-0.791-1.961-1.94v-0.014c0-1.071,0.764-1.954,1.856-1.954
				c1.253,0,1.828,0.974,1.828,2.038v0.015C37.911,233.142,37.904,233.205,37.897,233.303z M36.083,231.839
				c-0.441,0-0.729,0.315-0.812,0.799h1.604C36.812,232.161,36.532,231.839,36.083,231.839z"/>
			<path fill="#231F20" d="M40.906,232.098c-0.708,0-1.142,0.428-1.142,1.324v1.387H38.7v-3.754h1.065v0.756
				c0.217-0.518,0.567-0.854,1.197-0.826v1.113H40.906z"/>
			<path fill="#231F20" d="M41.647,230.642v-0.945h1.121v0.945H41.647z M41.675,234.809v-3.754h1.064v3.754H41.675z"/>
			<path fill="#231F20" d="M45.358,230.543c-0.245,0-0.385,0.126-0.385,0.406v0.147h0.861v0.868h-0.847v2.844h-1.065v-2.844h-0.441
				v-0.875h0.441v-0.238c0-0.826,0.414-1.205,1.163-1.205c0.336,0,0.561,0.042,0.756,0.105v0.883
				C45.687,230.578,45.54,230.543,45.358,230.543z"/>
			<path fill="#231F20" d="M46.435,230.642v-0.945h1.121v0.945H46.435z M46.463,234.809v-3.754h1.064v3.754H46.463z"/>
			<path fill="#231F20" d="M50.3,234.893c-1.127,0-1.954-0.868-1.954-1.94v-0.014c0-1.071,0.82-1.954,1.968-1.954
				c0.708,0,1.148,0.238,1.499,0.631l-0.651,0.7c-0.238-0.252-0.477-0.413-0.854-0.413c-0.532,0-0.911,0.469-0.911,1.022v0.014
				c0,0.574,0.371,1.037,0.953,1.037c0.357,0,0.602-0.154,0.861-0.399l0.624,0.63C51.47,234.605,51.049,234.893,50.3,234.893z"/>
			<path fill="#231F20" d="M54.724,234.809v-0.406c-0.259,0.287-0.616,0.477-1.134,0.477c-0.708,0-1.289-0.406-1.289-1.148v-0.015
				c0-0.819,0.624-1.197,1.513-1.197c0.378,0,0.651,0.062,0.917,0.154v-0.063c0-0.441-0.273-0.687-0.806-0.687
				c-0.406,0-0.693,0.077-1.037,0.203l-0.266-0.812c0.413-0.182,0.819-0.301,1.457-0.301c1.163,0,1.674,0.603,1.674,1.618v2.178
				H54.724z M54.745,233.296c-0.182-0.084-0.42-0.141-0.679-0.141c-0.455,0-0.735,0.183-0.735,0.519v0.014
				c0,0.288,0.238,0.456,0.581,0.456c0.498,0,0.833-0.273,0.833-0.658V233.296z"/>
			<path fill="#231F20" d="M58.44,234.893c-1.127,0-1.954-0.868-1.954-1.94v-0.014c0-1.071,0.82-1.954,1.968-1.954
				c0.708,0,1.148,0.238,1.499,0.631l-0.651,0.7c-0.238-0.252-0.477-0.413-0.854-0.413c-0.532,0-0.911,0.469-0.911,1.022v0.014
				c0,0.574,0.371,1.037,0.953,1.037c0.357,0,0.602-0.154,0.861-0.399l0.624,0.63C59.61,234.605,59.19,234.893,58.44,234.893z"/>
			<path fill="#231F20" d="M60.687,230.642v-0.945h1.121v0.945H60.687z M60.715,234.809v-3.754h1.064v3.754H60.715z"/>
			<path fill="#231F20" d="M64.622,234.893c-1.163,0-2.024-0.861-2.024-1.94v-0.014c0-1.078,0.869-1.954,2.038-1.954
				c1.163,0,2.024,0.861,2.024,1.94v0.014C66.66,234.018,65.791,234.893,64.622,234.893z M65.609,232.938
				c0-0.553-0.399-1.036-0.987-1.036c-0.609,0-0.974,0.469-0.974,1.022v0.014c0,0.554,0.399,1.037,0.987,1.037
				c0.609,0,0.974-0.47,0.974-1.023V232.938z M64.222,230.642l0.792-1.24l0.917,0.399l-0.896,0.841H64.222z"/>
			<path fill="#231F20" d="M69.802,234.809v-2.094c0-0.505-0.238-0.764-0.645-0.764s-0.665,0.259-0.665,0.764v2.094h-1.065v-3.754
				h1.065v0.532c0.245-0.315,0.56-0.603,1.1-0.603c0.805,0,1.274,0.532,1.274,1.394v2.431H69.802z"/>
			<path fill="#231F20" d="M76.123,234.879c-0.567,0-0.917-0.26-1.169-0.561v0.49h-1.065v-5.112h1.065v1.897
				c0.259-0.35,0.616-0.609,1.169-0.609c0.875,0,1.709,0.687,1.709,1.94v0.014C77.832,234.192,77.012,234.879,76.123,234.879z
				 M76.767,232.925c0-0.624-0.42-1.037-0.917-1.037c-0.498,0-0.911,0.413-0.911,1.037v0.014c0,0.623,0.413,1.037,0.911,1.037
				c0.497,0,0.917-0.406,0.917-1.037V232.925z"/>
			<path fill="#231F20" d="M78.634,230.642v-0.945h1.121v0.945H78.634z M78.663,234.809v-3.754h1.064v3.754H78.663z"/>
			<path fill="#231F20" d="M82.569,234.893c-1.163,0-2.024-0.861-2.024-1.94v-0.014c0-1.078,0.869-1.954,2.038-1.954
				c1.163,0,2.024,0.861,2.024,1.94v0.014C84.607,234.018,83.739,234.893,82.569,234.893z M83.557,232.938
				c0-0.553-0.399-1.036-0.987-1.036c-0.609,0-0.974,0.469-0.974,1.022v0.014c0,0.554,0.399,1.037,0.987,1.037
				c0.609,0,0.974-0.47,0.974-1.023V232.938z"/>
			<path fill="#231F20" d="M90.039,234.809v-2.094c0-0.505-0.224-0.764-0.623-0.764c-0.398,0-0.645,0.259-0.645,0.764v2.094h-1.064
				v-2.094c0-0.505-0.224-0.764-0.623-0.764c-0.398,0-0.644,0.259-0.644,0.764v2.094h-1.065v-3.754h1.065v0.532
				c0.246-0.315,0.567-0.603,1.107-0.603c0.49,0,0.861,0.217,1.057,0.596c0.33-0.386,0.722-0.596,1.232-0.596
				c0.792,0,1.269,0.477,1.269,1.38v2.444H90.039z"/>
			<path fill="#231F20" d="M95.514,233.303H92.9c0.105,0.483,0.441,0.735,0.918,0.735c0.357,0,0.616-0.112,0.91-0.385l0.609,0.539
				c-0.35,0.435-0.854,0.7-1.533,0.7c-1.129,0-1.962-0.791-1.962-1.94v-0.014c0-1.071,0.764-1.954,1.856-1.954
				c1.254,0,1.828,0.974,1.828,2.038v0.015C95.527,233.142,95.52,233.205,95.514,233.303z M93.699,231.839
				c-0.441,0-0.729,0.315-0.812,0.799h1.604C94.428,232.161,94.147,231.839,93.699,231.839z M93.271,230.642l0.791-1.24l0.918,0.399
				l-0.896,0.841H93.271z"/>
			<path fill="#231F20" d="M97.584,234.872c-0.651,0-1.093-0.26-1.093-1.128v-1.779h-0.448v-0.91h0.448v-0.96h1.064v0.96h0.883v0.91
				h-0.883v1.604c0,0.245,0.104,0.364,0.343,0.364c0.197,0,0.371-0.05,0.525-0.134v0.854
				C98.2,234.787,97.941,234.872,97.584,234.872z"/>
			<path fill="#231F20" d="M101.428,232.098c-0.708,0-1.143,0.428-1.143,1.324v1.387h-1.064v-3.754h1.064v0.756
				c0.217-0.518,0.567-0.854,1.197-0.826v1.113H101.428z"/>
			<path fill="#231F20" d="M102.168,230.642v-0.945h1.121v0.945H102.168z M102.196,234.809v-3.754h1.064v3.754H102.196z"/>
			<path fill="#231F20" d="M106.033,234.893c-1.128,0-1.955-0.868-1.955-1.94v-0.014c0-1.071,0.82-1.954,1.969-1.954
				c0.707,0,1.148,0.238,1.499,0.631l-0.651,0.7c-0.238-0.252-0.477-0.413-0.854-0.413c-0.532,0-0.911,0.469-0.911,1.022v0.014
				c0,0.574,0.371,1.037,0.953,1.037c0.357,0,0.602-0.154,0.861-0.399l0.623,0.63C107.203,234.605,106.782,234.893,106.033,234.893z
				"/>
			<path fill="#231F20" d="M110.457,234.809v-0.406c-0.259,0.287-0.616,0.477-1.135,0.477c-0.707,0-1.289-0.406-1.289-1.148v-0.015
				c0-0.819,0.624-1.197,1.514-1.197c0.378,0,0.651,0.062,0.918,0.154v-0.063c0-0.441-0.273-0.687-0.807-0.687
				c-0.406,0-0.693,0.077-1.036,0.203l-0.267-0.812c0.414-0.182,0.82-0.301,1.457-0.301c1.163,0,1.674,0.603,1.674,1.618v2.178
				H110.457z M110.479,233.296c-0.183-0.084-0.42-0.141-0.68-0.141c-0.455,0-0.735,0.183-0.735,0.519v0.014
				c0,0.288,0.238,0.456,0.581,0.456c0.498,0,0.834-0.273,0.834-0.658V233.296z"/>
		</g>
		<g enable-background="new    ">
			<path fill="#231F20" d="M32.359,243.209v-0.539c-0.259,0.35-0.616,0.609-1.169,0.609c-0.875,0-1.709-0.687-1.709-1.94v-0.014
				c0-1.254,0.819-1.94,1.709-1.94c0.567,0,0.917,0.26,1.169,0.561v-1.849h1.065v5.112H32.359z M32.374,241.325
				c0-0.624-0.413-1.037-0.911-1.037c-0.497,0-0.917,0.406-0.917,1.037v0.014c0,0.623,0.42,1.037,0.917,1.037
				c0.498,0,0.911-0.414,0.911-1.037V241.325z"/>
			<path fill="#231F20" d="M37.862,241.703H35.25c0.105,0.483,0.441,0.735,0.917,0.735c0.357,0,0.617-0.112,0.911-0.385l0.609,0.539
				c-0.35,0.435-0.854,0.7-1.534,0.7c-1.128,0-1.961-0.791-1.961-1.94v-0.014c0-1.071,0.764-1.954,1.856-1.954
				c1.253,0,1.828,0.974,1.828,2.038v0.015C37.876,241.542,37.869,241.605,37.862,241.703z M36.048,240.239
				c-0.441,0-0.729,0.315-0.812,0.799h1.604C36.776,240.562,36.497,240.239,36.048,240.239z"/>
			<path fill="#231F20" d="M44.253,241.703H41.64c0.105,0.483,0.441,0.735,0.917,0.735c0.357,0,0.617-0.112,0.911-0.385l0.609,0.539
				c-0.35,0.435-0.854,0.7-1.534,0.7c-1.128,0-1.961-0.791-1.961-1.94v-0.014c0-1.071,0.764-1.954,1.856-1.954
				c1.253,0,1.828,0.974,1.828,2.038v0.015C44.267,241.542,44.26,241.605,44.253,241.703z M42.439,240.239
				c-0.441,0-0.729,0.315-0.812,0.799h1.604C43.167,240.562,42.887,240.239,42.439,240.239z"/>
			<path fill="#231F20" d="M44.944,243.209v-1.121h1.135v1.121H44.944z"/>
			<path fill="#231F20" d="M48.501,238.943c-0.245,0-0.385,0.126-0.385,0.406v0.147h0.861v0.868H48.13v2.844h-1.065v-2.844h-0.441
				v-0.875h0.441v-0.238c0-0.826,0.414-1.205,1.163-1.205c0.336,0,0.561,0.042,0.757,0.105v0.883
				C48.83,238.979,48.683,238.943,48.501,238.943z"/>
			<path fill="#231F20" d="M49.578,239.042v-0.945h1.121v0.945H49.578z M49.606,243.209v-3.754h1.064v3.754H49.606z"/>
			<path fill="#231F20" d="M53.877,240.498c-0.708,0-1.142,0.428-1.142,1.324v1.387H51.67v-3.754h1.065v0.756
				c0.217-0.518,0.567-0.854,1.197-0.826v1.113H53.877z"/>
			<path fill="#231F20" d="M59.261,243.209v-2.094c0-0.505-0.224-0.764-0.623-0.764c-0.399,0-0.645,0.259-0.645,0.764v2.094h-1.064
				v-2.094c0-0.505-0.224-0.764-0.624-0.764c-0.399,0-0.644,0.259-0.644,0.764v2.094h-1.065v-3.754h1.065v0.532
				c0.245-0.315,0.567-0.603,1.106-0.603c0.49,0,0.861,0.217,1.058,0.596c0.329-0.386,0.721-0.596,1.232-0.596
				c0.792,0,1.268,0.477,1.268,1.38v2.444H59.261z"/>
			<path fill="#231F20" d="M63.446,243.209v-0.406c-0.259,0.287-0.616,0.477-1.134,0.477c-0.708,0-1.289-0.406-1.289-1.148v-0.015
				c0-0.819,0.624-1.197,1.513-1.197c0.378,0,0.651,0.062,0.917,0.154v-0.063c0-0.441-0.273-0.687-0.806-0.687
				c-0.406,0-0.693,0.077-1.037,0.203l-0.266-0.812c0.413-0.182,0.819-0.301,1.457-0.301c1.163,0,1.674,0.603,1.674,1.618v2.178
				H63.446z M63.467,241.696c-0.182-0.084-0.42-0.141-0.679-0.141c-0.455,0-0.735,0.183-0.735,0.519v0.014
				c0,0.288,0.238,0.456,0.581,0.456c0.498,0,0.833-0.273,0.833-0.658V241.696z"/>
			<path fill="#231F20" d="M69.689,243.209v-0.406c-0.259,0.287-0.616,0.477-1.134,0.477c-0.708,0-1.289-0.406-1.289-1.148v-0.015
				c0-0.819,0.624-1.197,1.513-1.197c0.378,0,0.651,0.062,0.917,0.154v-0.063c0-0.441-0.273-0.687-0.806-0.687
				c-0.406,0-0.693,0.077-1.037,0.203l-0.266-0.812c0.413-0.182,0.819-0.301,1.457-0.301c1.163,0,1.674,0.603,1.674,1.618v2.178
				H69.689z M69.71,241.696c-0.182-0.084-0.42-0.141-0.679-0.141c-0.455,0-0.735,0.183-0.735,0.519v0.014
				c0,0.288,0.238,0.456,0.581,0.456c0.498,0,0.833-0.273,0.833-0.658V241.696z"/>
			<path fill="#231F20" d="M74.009,243.209v-2.094c0-0.505-0.238-0.764-0.645-0.764s-0.665,0.259-0.665,0.764v2.094h-1.065v-3.754
				h1.065v0.532c0.245-0.315,0.56-0.603,1.1-0.603c0.805,0,1.274,0.532,1.274,1.394v2.431H74.009z"/>
			<path fill="#231F20" d="M77.263,243.272c-0.651,0-1.093-0.26-1.093-1.128v-1.779h-0.448v-0.91h0.448v-0.96h1.064v0.96h0.883v0.91
				h-0.883v1.604c0,0.245,0.105,0.364,0.343,0.364c0.196,0,0.371-0.05,0.525-0.134v0.854
				C77.879,243.188,77.62,243.272,77.263,243.272z"/>
			<path fill="#231F20" d="M82.283,241.703H79.67c0.105,0.483,0.441,0.735,0.917,0.735c0.357,0,0.617-0.112,0.911-0.385l0.609,0.539
				c-0.35,0.435-0.854,0.7-1.534,0.7c-1.128,0-1.961-0.791-1.961-1.94v-0.014c0-1.071,0.764-1.954,1.856-1.954
				c1.253,0,1.828,0.974,1.828,2.038v0.015C82.297,241.542,82.29,241.605,82.283,241.703z M80.469,240.239
				c-0.441,0-0.729,0.315-0.812,0.799h1.604C81.197,240.562,80.917,240.239,80.469,240.239z"/>
			<path fill="#231F20" d="M88.674,241.703h-2.612c0.105,0.483,0.441,0.735,0.917,0.735c0.357,0,0.617-0.112,0.911-0.385
				l0.609,0.539c-0.351,0.435-0.854,0.7-1.534,0.7c-1.127,0-1.961-0.791-1.961-1.94v-0.014c0-1.071,0.764-1.954,1.856-1.954
				c1.253,0,1.827,0.974,1.827,2.038v0.015C88.688,241.542,88.682,241.605,88.674,241.703z M86.86,240.239
				c-0.441,0-0.729,0.315-0.812,0.799h1.604C87.588,240.562,87.309,240.239,86.86,240.239z"/>
			<path fill="#231F20" d="M89.526,243.209v-5.112h1.064v5.112H89.526z"/>
			<path fill="#231F20" d="M95.547,243.279c-0.742,0-1.492-0.26-2.08-0.785l0.638-0.763c0.44,0.364,0.903,0.595,1.464,0.595
				c0.441,0,0.707-0.175,0.707-0.462v-0.014c0-0.273-0.168-0.413-0.987-0.624c-0.987-0.252-1.625-0.525-1.625-1.498v-0.015
				c0-0.89,0.714-1.478,1.716-1.478c0.715,0,1.324,0.224,1.821,0.623l-0.561,0.812c-0.435-0.301-0.861-0.483-1.274-0.483
				c-0.414,0-0.631,0.189-0.631,0.428v0.014c0,0.322,0.211,0.428,1.058,0.645c0.995,0.259,1.556,0.616,1.556,1.471v0.014
				C97.348,242.732,96.604,243.279,95.547,243.279z"/>
			<path fill="#231F20" d="M101.827,243.209l-0.448-1.1h-2.073l-0.448,1.1h-1.1l2.102-4.938h0.994l2.102,4.938H101.827z
				 M100.342,239.567l-0.65,1.59h1.303L100.342,239.567z"/>
			<path fill="#231F20" d="M105.299,239.301v3.908h-1.079v-3.908h-1.491v-0.994h4.062v0.994H105.299z"/>
		</g>
	</g>
	<g>
		<g>
			<path fill="#696C6D" d="M24.284,259.072c0,2.617-2.122,4.738-4.739,4.738c-2.617,0-4.739-2.121-4.739-4.738
				c0-2.619,2.122-4.74,4.739-4.74C22.162,254.332,24.284,256.453,24.284,259.072"/>
			<path fill="#FFFFFF" d="M18.698,261.125l-1.316-1.336c-0.049-0.051-0.047-0.129,0.001-0.178l0.693-0.685
				c0.048-0.047,0.128-0.047,0.178,0.005l0.451,0.459c0.049,0.049,0.129,0.049,0.178,0l1.958-1.957c0.048-0.05,0.128-0.05,0.176,0
				l0.688,0.688c0.048,0.049,0.048,0.127,0,0.176l-2.83,2.83C18.827,261.176,18.747,261.176,18.698,261.125"/>
		</g>
		<g enable-background="new    ">
			<path fill="#231F20" d="M31.505,260.354c-0.742,0-1.492-0.26-2.08-0.785l0.638-0.763c0.441,0.364,0.903,0.595,1.464,0.595
				c0.441,0,0.707-0.175,0.707-0.462v-0.014c0-0.273-0.168-0.413-0.987-0.624c-0.988-0.252-1.625-0.525-1.625-1.498v-0.015
				c0-0.89,0.714-1.478,1.716-1.478c0.714,0,1.324,0.224,1.821,0.623l-0.561,0.812c-0.434-0.301-0.861-0.483-1.274-0.483
				c-0.414,0-0.63,0.189-0.63,0.428v0.014c0,0.322,0.21,0.428,1.057,0.645c0.995,0.259,1.555,0.616,1.555,1.471v0.014
				C33.305,259.807,32.562,260.354,31.505,260.354z"/>
			<path fill="#231F20" d="M35.971,260.367c-1.163,0-2.024-0.861-2.024-1.94v-0.014c0-1.078,0.869-1.954,2.038-1.954
				c1.163,0,2.024,0.861,2.024,1.94v0.014C38.009,259.492,37.141,260.367,35.971,260.367z M36.958,258.413
				c0-0.553-0.399-1.036-0.987-1.036c-0.609,0-0.974,0.469-0.974,1.022v0.014c0,0.554,0.399,1.037,0.987,1.037
				c0.609,0,0.974-0.47,0.974-1.023V258.413z"/>
			<path fill="#231F20" d="M41.011,260.354c-0.567,0-0.917-0.26-1.169-0.561v1.611h-1.065v-4.875h1.065v0.539
				c0.259-0.35,0.616-0.609,1.169-0.609c0.875,0,1.709,0.687,1.709,1.94v0.014C42.72,259.667,41.901,260.354,41.011,260.354z
				 M41.656,258.399c0-0.624-0.42-1.037-0.917-1.037c-0.498,0-0.911,0.413-0.911,1.037v0.014c0,0.623,0.413,1.037,0.911,1.037
				c0.497,0,0.917-0.406,0.917-1.037V258.399z"/>
			<path fill="#231F20" d="M45.344,260.367c-1.163,0-2.024-0.861-2.024-1.94v-0.014c0-1.078,0.869-1.954,2.038-1.954
				c1.163,0,2.024,0.861,2.024,1.94v0.014C47.382,259.492,46.514,260.367,45.344,260.367z M46.332,258.413
				c0-0.553-0.399-1.036-0.987-1.036c-0.609,0-0.974,0.469-0.974,1.022v0.014c0,0.554,0.399,1.037,0.987,1.037
				c0.609,0,0.974-0.47,0.974-1.023V258.413z"/>
			<path fill="#231F20" d="M50.356,257.572c-0.708,0-1.142,0.428-1.142,1.324v1.387h-1.065v-3.754h1.065v0.756
				c0.217-0.518,0.567-0.854,1.197-0.826v1.113H50.356z"/>
			<path fill="#231F20" d="M52.344,260.347c-0.651,0-1.093-0.26-1.093-1.128v-1.779h-0.448v-0.91h0.448v-0.96h1.064v0.96h0.883v0.91
				h-0.883v1.604c0,0.245,0.105,0.364,0.343,0.364c0.196,0,0.371-0.05,0.525-0.134v0.854
				C52.96,260.262,52.701,260.347,52.344,260.347z"/>
			<path fill="#231F20" d="M57.364,258.777h-2.613c0.105,0.483,0.441,0.735,0.917,0.735c0.357,0,0.617-0.112,0.911-0.385
				l0.609,0.539c-0.35,0.435-0.854,0.7-1.534,0.7c-1.128,0-1.961-0.791-1.961-1.94v-0.014c0-1.071,0.764-1.954,1.856-1.954
				c1.253,0,1.828,0.974,1.828,2.038v0.015C57.377,258.616,57.371,258.68,57.364,258.777z M55.55,257.313
				c-0.441,0-0.729,0.315-0.812,0.799h1.604C56.278,257.636,55.998,257.313,55.55,257.313z"/>
			<path fill="#231F20" d="M62.711,260.283h-2.332v-4.902h2.276c1.001,0,1.618,0.497,1.618,1.268v0.014
				c0,0.554-0.294,0.861-0.645,1.058c0.567,0.217,0.917,0.546,0.917,1.205v0.014C64.546,259.835,63.818,260.283,62.711,260.283z
				 M63.201,256.83c0-0.322-0.252-0.504-0.707-0.504h-1.065v1.036h0.995c0.477,0,0.777-0.153,0.777-0.518V256.83z M63.475,258.791
				c0-0.329-0.245-0.532-0.798-0.532h-1.247v1.079h1.282c0.477,0,0.764-0.168,0.764-0.532V258.791z"/>
			<path fill="#231F20" d="M67.52,260.283v-0.406c-0.259,0.287-0.616,0.477-1.134,0.477c-0.708,0-1.289-0.406-1.289-1.148v-0.015
				c0-0.819,0.624-1.197,1.513-1.197c0.378,0,0.651,0.062,0.917,0.154v-0.063c0-0.441-0.273-0.687-0.806-0.687
				c-0.406,0-0.693,0.077-1.037,0.203l-0.266-0.812c0.413-0.182,0.819-0.301,1.457-0.301c1.163,0,1.674,0.603,1.674,1.618v2.178
				H67.52z M67.541,258.771c-0.182-0.084-0.42-0.141-0.679-0.141c-0.455,0-0.735,0.183-0.735,0.519v0.014
				c0,0.288,0.238,0.456,0.581,0.456c0.498,0,0.833-0.273,0.833-0.658V258.771z"/>
			<path fill="#231F20" d="M70.781,260.354c-0.525,0-1.114-0.176-1.611-0.567l0.455-0.7c0.406,0.294,0.833,0.448,1.184,0.448
				c0.308,0,0.448-0.112,0.448-0.28v-0.015c0-0.23-0.364-0.308-0.777-0.434c-0.525-0.154-1.121-0.399-1.121-1.128v-0.014
				c0-0.764,0.616-1.191,1.373-1.191c0.476,0,0.994,0.161,1.4,0.435l-0.406,0.735c-0.371-0.217-0.742-0.35-1.015-0.35
				c-0.259,0-0.393,0.111-0.393,0.259v0.014c0,0.21,0.357,0.309,0.764,0.448c0.525,0.176,1.134,0.428,1.134,1.114v0.014
				C72.217,259.975,71.594,260.354,70.781,260.354z"/>
			<path fill="#231F20" d="M73,256.116v-0.945h1.121v0.945H73z M73.028,260.283v-3.754h1.064v3.754H73.028z"/>
			<path fill="#231F20" d="M76.864,260.367c-1.127,0-1.954-0.868-1.954-1.94v-0.014c0-1.071,0.82-1.954,1.968-1.954
				c0.708,0,1.148,0.238,1.499,0.631l-0.651,0.7c-0.238-0.252-0.477-0.413-0.854-0.413c-0.532,0-0.911,0.469-0.911,1.022v0.014
				c0,0.574,0.371,1.037,0.953,1.037c0.357,0,0.602-0.154,0.861-0.399l0.624,0.63C78.034,260.08,77.614,260.367,76.864,260.367z"/>
			<path fill="#231F20" d="M80.827,260.367c-1.163,0-2.024-0.861-2.024-1.94v-0.014c0-1.078,0.869-1.954,2.038-1.954
				c1.163,0,2.024,0.861,2.024,1.94v0.014C82.865,259.492,81.996,260.367,80.827,260.367z M81.814,258.413
				c0-0.553-0.399-1.036-0.987-1.036c-0.609,0-0.974,0.469-0.974,1.022v0.014c0,0.554,0.399,1.037,0.987,1.037
				c0.609,0,0.974-0.47,0.974-1.023V258.413z"/>
		</g>
	</g>
	<line fill="none" stroke="#585B5C" stroke-miterlimit="10" x1="3.22" y1="70.766" x2="166.543" y2="70.766"/>
	<path fill="none" stroke="#006195" stroke-width="0.5" stroke-miterlimit="10" d="M166.488,70.642V14.448
		c0-5.779-5.178-10.465-11.563-10.465H14.861c-6.387,0-11.565,4.685-11.565,10.465v56.194v0.083v305.171
		c0,11.148,8.801,20.189,19.658,20.189h127.954c8.686,0,15.727-7.229,15.727-16.152V70.642H166.488z"/>
</g>
<g id="Layer_2" display="none">
	<g display="inline" opacity="0.25">
		
			<image overflow="visible" enable-background="new    " width="233" height="465" xlink:href="37E97E7D948D0409.png"  transform="matrix(1 0 0 1 -28 -29)">
		</image>
	</g>
	
		<text transform="matrix(1 0 0 1 34.0952 281.0244)" display="inline" fill="#231F20" font-family="'Gotham-Bold'" font-size="5.9239">I.A. </text>
	<g display="inline">
		<g>
			<defs>
				<path id="SVGID_1_" d="M50.984,284.96c-3.933,0-7.119,3.187-7.119,7.119v5.608c0,3.933,3.187,7.119,7.119,7.119h49.187
					c3.933,0,7.12-3.188,7.12-7.119v-5.608c0-3.933-3.188-7.119-7.12-7.119H50.984z"/>
			</defs>
			<clipPath id="SVGID_2_">
				<use xlink:href="#SVGID_1_"  overflow="visible"/>
			</clipPath>
			
				<linearGradient id="SVGID_3_" gradientUnits="userSpaceOnUse" x1="-650.7388" y1="30.3564" x2="-649.5538" y2="30.3564" gradientTransform="matrix(-50.5 -22 22 -50.5 -33424.4375 -12475.25)">
				<stop  offset="0" style="stop-color:#285AA8"/>
				<stop  offset="0.1597" style="stop-color:#2B60AB"/>
				<stop  offset="0.3734" style="stop-color:#3271B4"/>
				<stop  offset="0.6178" style="stop-color:#3E8DC2"/>
				<stop  offset="0.8829" style="stop-color:#4FB4D5"/>
				<stop  offset="1" style="stop-color:#57C7DF"/>
			</linearGradient>
			<polygon clip-path="url(#SVGID_2_)" fill="url(#SVGID_3_)" points="97.174,328.031 36.598,301.643 53.982,261.736 
				114.559,288.126 			"/>
		</g>
	</g>
	
		<text transform="matrix(1 0 0 1 50.2837 298.8994)" display="inline" fill="#FFFFFF" font-family="'Gotham-Bold'" font-size="8.9854">C</text>
	
		<text transform="matrix(1 0 0 1 57.2749 298.8994)" display="inline" fill="#FFFFFF" font-family="'Gotham-Bold'" font-size="8.9854">O</text>
	
		<text transform="matrix(1 0 0 1 65.4507 298.8994)" display="inline" fill="#FFFFFF" font-family="'Gotham-Bold'" font-size="8.9854">MP</text>
	
		<text transform="matrix(1 0 0 1 80.3135 298.8994)" display="inline" fill="#FFFFFF" font-family="'Gotham-Bold'" font-size="8.9854">RA</text>
	
		<text transform="matrix(1 0 0 1 94.9863 298.8994)" display="inline" fill="#FFFFFF" font-family="'Gotham-Bold'" font-size="8.9854">R</text>
	<path display="inline" fill="#FFFFFF" d="M150.57,395.789l-127.293,0.153c-10.999,0-19.916-8.155-19.916-19.448V70.683h163.388
		l-0.245,308.747c0,9.036-6.286,16.514-15.087,16.514"/>
	<g display="inline">
		<g>
			<defs>
				<path id="SVGID_4_" d="M15.122,4.024c-6.525,0-11.815,4.686-11.815,10.465v56.277h163.175V14.489
					c0-5.779-5.289-10.465-11.815-10.465H15.122z"/>
			</defs>
			<clipPath id="SVGID_5_">
				<use xlink:href="#SVGID_4_"  overflow="visible"/>
			</clipPath>
			
				<linearGradient id="SVGID_6_" gradientUnits="userSpaceOnUse" x1="-646.4282" y1="30.3076" x2="-645.0739" y2="30.3076" gradientTransform="matrix(-122.8585 -62.2944 62.2944 -122.8585 -81142.1172 -36467.1172)">
				<stop  offset="0" style="stop-color:#285AA8"/>
				<stop  offset="0.16" style="stop-color:#2B60AB"/>
				<stop  offset="0.373" style="stop-color:#3271B3"/>
				<stop  offset="0.6157" style="stop-color:#3E8CC1"/>
				<stop  offset="0.8787" style="stop-color:#4EB3D5"/>
				<stop  offset="1" style="stop-color:#57C7DF"/>
			</linearGradient>
			<polygon clip-path="url(#SVGID_5_)" fill="url(#SVGID_6_)" points="133.109,129.067 -27.084,57.117 36.678,-54.276 
				196.872,17.674 			"/>
		</g>
	</g>
	
		<text transform="matrix(1 0 0 1 47.7808 46.3984)" display="inline" fill="#FFFFFF" font-family="'Gotham-Bold'" font-size="25" letter-spacing="1">B</text>
	
		<text transform="matrix(1 0 0 1 67.3057 46.3984)" display="inline" fill="#FFFFFF" font-family="'Gotham-Bold'" font-size="25" letter-spacing="1">L</text>
	
		<text transform="matrix(1 0 0 1 83.7808 46.3984)" display="inline" fill="#FFFFFF" font-family="'Gotham-Bold'" font-size="25" letter-spacing="1">U</text>
	<text transform="matrix(1 0 0 1 104.1797 46.3984)" display="inline" fill="#FFFFFF" font-family="'Gotham-Bold'" font-size="25">E</text>
	<path display="inline" fill="#FFFFFF" d="M18.553,260.999l-1.316-1.336c-0.049-0.05-0.048-0.13,0.001-0.179l0.693-0.683
		c0.049-0.049,0.128-0.048,0.177,0.003l0.452,0.459c0.049,0.051,0.128,0.051,0.178,0l1.958-1.957c0.049-0.049,0.128-0.049,0.177,0
		l0.688,0.688c0.049,0.048,0.049,0.127,0,0.176L18.73,261C18.682,261.049,18.603,261.049,18.553,260.999"/>
	<g display="inline">
		<text transform="matrix(1 0 0 1 22.4673 96.0586)" font-family="'Gotham-Bold'" font-size="22">$750</text>
		<text transform="matrix(1 0 0 1 82.4038 95.5127)" font-family="'Gotham-Bold'" font-size="12">mensuales</text>
	</g>
	<g display="inline">
		<g>
			
				<linearGradient id="SVGID_7_" gradientUnits="userSpaceOnUse" x1="-70.0508" y1="82.0957" x2="-60.5732" y2="82.0957" gradientTransform="matrix(1 0 0 -1 84 379)">
				<stop  offset="0" style="stop-color:#285AA8"/>
				<stop  offset="0.1597" style="stop-color:#2B60AB"/>
				<stop  offset="0.3734" style="stop-color:#3271B4"/>
				<stop  offset="0.6178" style="stop-color:#3E8DC2"/>
				<stop  offset="0.8829" style="stop-color:#4FB4D5"/>
				<stop  offset="1" style="stop-color:#57C7DF"/>
			</linearGradient>
			<path fill="url(#SVGID_7_)" d="M23.427,296.904c0,2.617-2.122,4.738-4.739,4.738s-4.739-2.121-4.739-4.738
				c0-2.619,2.122-4.738,4.739-4.738S23.427,294.285,23.427,296.904"/>
			<path fill="#FFFFFF" d="M17.84,298.959l-1.315-1.338c-0.049-0.049-0.048-0.129,0.001-0.178l0.692-0.683
				c0.049-0.049,0.129-0.047,0.178,0.003l0.452,0.459c0.048,0.051,0.129,0.051,0.178,0l1.958-1.957c0.049-0.05,0.128-0.05,0.177,0
				l0.688,0.688c0.048,0.049,0.048,0.129,0,0.178l-2.83,2.828C17.97,299.008,17.89,299.008,17.84,298.959"/>
		</g>
		<text transform="matrix(1 0 0 1 28.3857 299.2734)" fill="#231F20" font-family="'Gotham-Bold'" font-size="7">Constancias NOM-151 / 15</text>
	</g>
	
		<text transform="matrix(1 0 0 1 36.0034 236.6367)" display="inline" fill="#231F20" font-family="'Gotham-Bold'" font-size="5.9239"> </text>
	<g display="inline">
		<g>
			
				<linearGradient id="SVGID_8_" gradientUnits="userSpaceOnUse" x1="-70.7129" y1="260.6377" x2="-61.2349" y2="260.6377" gradientTransform="matrix(1 0 0 -1 84 379)">
				<stop  offset="0" style="stop-color:#285AA8"/>
				<stop  offset="0.1597" style="stop-color:#2B60AB"/>
				<stop  offset="0.3734" style="stop-color:#3271B4"/>
				<stop  offset="0.6178" style="stop-color:#3E8DC2"/>
				<stop  offset="0.8829" style="stop-color:#4FB4D5"/>
				<stop  offset="1" style="stop-color:#57C7DF"/>
			</linearGradient>
			<path fill="url(#SVGID_8_)" d="M22.765,118.362c0,2.617-2.122,4.739-4.739,4.739c-2.617,0-4.739-2.122-4.739-4.739
				c0-2.618,2.122-4.739,4.739-4.739C20.643,113.623,22.765,115.744,22.765,118.362"/>
			<path fill="#FFFFFF" d="M17.178,120.416l-1.316-1.336c-0.048-0.05-0.047-0.13,0.002-0.178l0.692-0.683
				c0.049-0.049,0.128-0.048,0.178,0.002l0.452,0.46c0.048,0.05,0.129,0.05,0.178,0l1.958-1.957c0.049-0.049,0.128-0.049,0.177,0
				l0.687,0.687c0.049,0.049,0.049,0.128,0,0.177l-2.829,2.829C17.308,120.466,17.228,120.466,17.178,120.416"/>
		</g>
		<text transform="matrix(1 0 0 1 28.3857 120.7314)" fill="#231F20" font-family="'Gotham-Bold'" font-size="7">Sube y Firma  </text>
	</g>
	<g display="inline">
		<g>
			
				<linearGradient id="SVGID_9_" gradientUnits="userSpaceOnUse" x1="-70.0508" y1="241.5918" x2="-60.5732" y2="241.5918" gradientTransform="matrix(1 0 0 -1 84 379)">
				<stop  offset="0" style="stop-color:#285AA8"/>
				<stop  offset="0.1597" style="stop-color:#2B60AB"/>
				<stop  offset="0.3734" style="stop-color:#3271B4"/>
				<stop  offset="0.6178" style="stop-color:#3E8DC2"/>
				<stop  offset="0.8829" style="stop-color:#4FB4D5"/>
				<stop  offset="1" style="stop-color:#57C7DF"/>
			</linearGradient>
			<path fill="url(#SVGID_9_)" d="M23.427,137.408c0,2.617-2.122,4.739-4.739,4.739s-4.739-2.122-4.739-4.739
				c0-2.618,2.122-4.739,4.739-4.739S23.427,134.79,23.427,137.408"/>
			<path fill="#FFFFFF" d="M17.84,139.462l-1.315-1.336c-0.049-0.05-0.048-0.129,0.001-0.178l0.692-0.683
				c0.049-0.049,0.129-0.048,0.178,0.002l0.452,0.46c0.048,0.05,0.129,0.05,0.178,0l1.958-1.957c0.049-0.049,0.128-0.049,0.177,0
				l0.688,0.688c0.048,0.048,0.048,0.128,0,0.176l-2.83,2.829C17.97,139.512,17.89,139.512,17.84,139.462"/>
		</g>
		<text transform="matrix(1 0 0 1 28.3857 139.7773)" fill="#231F20" font-family="'Gotham-Bold'" font-size="7">Firma / usuario invitado    </text>
	</g>
	<g display="inline">
		<g>
			
				<linearGradient id="SVGID_10_" gradientUnits="userSpaceOnUse" x1="-70.251" y1="127.3154" x2="-60.7729" y2="127.3154" gradientTransform="matrix(1 0 0 -1 84 379)">
				<stop  offset="0" style="stop-color:#285AA8"/>
				<stop  offset="0.1597" style="stop-color:#2B60AB"/>
				<stop  offset="0.3734" style="stop-color:#3271B4"/>
				<stop  offset="0.6178" style="stop-color:#3E8DC2"/>
				<stop  offset="0.8829" style="stop-color:#4FB4D5"/>
				<stop  offset="1" style="stop-color:#57C7DF"/>
			</linearGradient>
			<path fill="url(#SVGID_10_)" d="M23.227,251.686c0,2.616-2.122,4.738-4.739,4.738c-2.617,0-4.739-2.122-4.739-4.738
				c0-2.619,2.122-4.74,4.739-4.74C21.105,246.945,23.227,249.066,23.227,251.686"/>
			<path fill="#FFFFFF" d="M17.641,253.738l-1.316-1.338c-0.049-0.049-0.047-0.129,0.001-0.178l0.693-0.682
				c0.049-0.049,0.128-0.048,0.178,0.002l0.451,0.46c0.049,0.05,0.13,0.05,0.178,0l1.959-1.957c0.048-0.049,0.128-0.049,0.176,0
				l0.688,0.687c0.049,0.05,0.049,0.129,0,0.178l-2.829,2.829C17.77,253.788,17.69,253.788,17.641,253.738"/>
		</g>
		<text transform="matrix(1 0 0 1 28.3857 254.0527)" fill="#231F20" font-family="'Gotham-Bold'" font-size="7">Tokenizar Llaves del SAT </text>
	</g>
	<g display="inline">
		<g>
			
				<linearGradient id="SVGID_11_" gradientUnits="userSpaceOnUse" x1="-69.9971" y1="165.4077" x2="-60.519" y2="165.4077" gradientTransform="matrix(1 0 0 -1 84 379)">
				<stop  offset="0" style="stop-color:#285AA8"/>
				<stop  offset="0.1597" style="stop-color:#2B60AB"/>
				<stop  offset="0.3734" style="stop-color:#3271B4"/>
				<stop  offset="0.6178" style="stop-color:#3E8DC2"/>
				<stop  offset="0.8829" style="stop-color:#4FB4D5"/>
				<stop  offset="1" style="stop-color:#57C7DF"/>
			</linearGradient>
			<path fill="url(#SVGID_11_)" d="M23.481,213.593c0,2.617-2.122,4.738-4.739,4.738c-2.617,0-4.739-2.121-4.739-4.738
				c0-2.618,2.122-4.739,4.739-4.739C21.359,208.854,23.481,210.975,23.481,213.593"/>
			<path fill="#FFFFFF" d="M17.895,215.646l-1.315-1.336c-0.049-0.052-0.048-0.129,0.001-0.179l0.693-0.684
				c0.048-0.048,0.128-0.048,0.178,0.004l0.451,0.459c0.049,0.049,0.129,0.049,0.178,0l1.958-1.957c0.049-0.05,0.128-0.05,0.177,0
				l0.688,0.688c0.048,0.049,0.048,0.127,0,0.176l-2.83,2.83C18.024,215.695,17.944,215.695,17.895,215.646"/>
		</g>
		<text transform="matrix(1 0 0 1 28.3857 215.9609)" fill="#231F20" font-family="'Gotham-Bold'" font-size="7">Almacenamiento 200/MB </text>
	</g>
	<g display="inline">
		<g>
			
				<linearGradient id="SVGID_12_" gradientUnits="userSpaceOnUse" x1="-70.0542" y1="203.499" x2="-60.5762" y2="203.499" gradientTransform="matrix(1 0 0 -1 84 379)">
				<stop  offset="0" style="stop-color:#285AA8"/>
				<stop  offset="0.1597" style="stop-color:#2B60AB"/>
				<stop  offset="0.3734" style="stop-color:#3271B4"/>
				<stop  offset="0.6178" style="stop-color:#3E8DC2"/>
				<stop  offset="0.8829" style="stop-color:#4FB4D5"/>
				<stop  offset="1" style="stop-color:#57C7DF"/>
			</linearGradient>
			<path fill="url(#SVGID_12_)" d="M23.424,175.5c0,2.617-2.122,4.74-4.739,4.74c-2.617,0-4.739-2.123-4.739-4.74
				s2.122-4.738,4.739-4.738C21.302,170.762,23.424,172.883,23.424,175.5"/>
			<path fill="#FFFFFF" d="M17.838,177.555l-1.316-1.337c-0.049-0.05-0.048-0.129,0.001-0.178l0.693-0.683
				c0.048-0.049,0.128-0.047,0.178,0.002l0.451,0.461c0.049,0.049,0.129,0.049,0.178,0l1.958-1.958c0.049-0.048,0.128-0.048,0.177,0
				l0.688,0.688c0.048,0.048,0.048,0.128,0,0.177l-2.829,2.828C17.967,177.604,17.888,177.604,17.838,177.555"/>
		</g>
		<text transform="matrix(1 0 0 1 28.3857 177.8701)" fill="#231F20" font-family="'Gotham-Bold'" font-size="7">Testigos /  4 </text>
	</g>
	<g display="inline">
		<g>
			
				<linearGradient id="SVGID_13_" gradientUnits="userSpaceOnUse" x1="-70.0532" y1="222.5449" x2="-60.5752" y2="222.5449" gradientTransform="matrix(1 0 0 -1 84 379)">
				<stop  offset="0" style="stop-color:#285AA8"/>
				<stop  offset="0.1597" style="stop-color:#2B60AB"/>
				<stop  offset="0.3734" style="stop-color:#3271B4"/>
				<stop  offset="0.6178" style="stop-color:#3E8DC2"/>
				<stop  offset="0.8829" style="stop-color:#4FB4D5"/>
				<stop  offset="1" style="stop-color:#57C7DF"/>
			</linearGradient>
			<path fill="url(#SVGID_13_)" d="M23.425,156.455c0,2.617-2.122,4.739-4.739,4.739s-4.739-2.122-4.739-4.739
				c0-2.618,2.122-4.739,4.739-4.739S23.425,153.837,23.425,156.455"/>
			<path fill="#FFFFFF" d="M17.839,158.509l-1.316-1.336c-0.049-0.05-0.047-0.13,0.001-0.178l0.693-0.683
				c0.049-0.049,0.128-0.048,0.178,0.002l0.451,0.46c0.049,0.05,0.13,0.05,0.178,0l1.959-1.957c0.048-0.049,0.128-0.049,0.177,0
				l0.687,0.687c0.049,0.049,0.049,0.128,0,0.177l-2.829,2.829C17.968,158.559,17.889,158.559,17.839,158.509"/>
		</g>
		<text transform="matrix(1 0 0 1 28.3857 158.8232)" fill="#231F20" font-family="'Gotham-Bold'" font-size="7">Firmantes / ilimitados</text>
	</g>
	<g display="inline">
		<g>
			
				<linearGradient id="SVGID_14_" gradientUnits="userSpaceOnUse" x1="-69.9971" y1="184.4541" x2="-60.519" y2="184.4541" gradientTransform="matrix(1 0 0 -1 84 379)">
				<stop  offset="0" style="stop-color:#285AA8"/>
				<stop  offset="0.1597" style="stop-color:#2B60AB"/>
				<stop  offset="0.3734" style="stop-color:#3271B4"/>
				<stop  offset="0.6178" style="stop-color:#3E8DC2"/>
				<stop  offset="0.8829" style="stop-color:#4FB4D5"/>
				<stop  offset="1" style="stop-color:#57C7DF"/>
			</linearGradient>
			<path fill="url(#SVGID_14_)" d="M23.481,194.547c0,2.617-2.122,4.738-4.739,4.738c-2.617,0-4.739-2.121-4.739-4.738
				c0-2.619,2.122-4.74,4.739-4.74C21.359,189.807,23.481,191.928,23.481,194.547"/>
			<path fill="#FFFFFF" d="M17.895,196.6l-1.315-1.336c-0.049-0.05-0.048-0.129,0.001-0.178l0.693-0.683
				c0.048-0.048,0.128-0.048,0.178,0.003l0.451,0.459c0.049,0.051,0.129,0.051,0.178,0l1.958-1.957c0.049-0.049,0.128-0.049,0.177,0
				l0.688,0.688c0.048,0.049,0.048,0.128,0,0.176l-2.83,2.83C18.024,196.65,17.944,196.65,17.895,196.6"/>
		</g>
		<text transform="matrix(1 0 0 1 28.3857 196.915)" fill="#231F20" font-family="'Gotham-Bold'" font-size="7">Calendario</text>
	</g>
	<g display="inline">
		<g>
			
				<linearGradient id="SVGID_15_" gradientUnits="userSpaceOnUse" x1="-70.7129" y1="146.3608" x2="-61.2349" y2="146.3608" gradientTransform="matrix(1 0 0 -1 84 379)">
				<stop  offset="0" style="stop-color:#285AA8"/>
				<stop  offset="0.1597" style="stop-color:#2B60AB"/>
				<stop  offset="0.3734" style="stop-color:#3271B4"/>
				<stop  offset="0.6178" style="stop-color:#3E8DC2"/>
				<stop  offset="0.8829" style="stop-color:#4FB4D5"/>
				<stop  offset="1" style="stop-color:#57C7DF"/>
			</linearGradient>
			<path fill="url(#SVGID_15_)" d="M22.765,232.639c0,2.617-2.122,4.739-4.739,4.739c-2.617,0-4.739-2.122-4.739-4.739
				s2.122-4.738,4.739-4.738C20.643,227.9,22.765,230.021,22.765,232.639"/>
			<path fill="#FFFFFF" d="M17.178,234.691l-1.316-1.336c-0.048-0.049-0.047-0.129,0.002-0.179l0.692-0.682
				c0.049-0.05,0.128-0.048,0.178,0.002l0.452,0.46c0.048,0.05,0.129,0.05,0.178,0L19.322,231c0.049-0.049,0.128-0.049,0.177,0
				l0.687,0.688c0.049,0.049,0.049,0.127,0,0.177l-2.829,2.829C17.308,234.742,17.228,234.742,17.178,234.691"/>
		</g>
		<text transform="matrix(1 0 0 1 28.3857 235.0078)" fill="#231F20" font-family="'Gotham-Bold'" font-size="7">I.A.</text>
	</g>
	<g display="inline">
		<g>
			
				<linearGradient id="SVGID_16_" gradientUnits="userSpaceOnUse" x1="-70.7129" y1="106.8896" x2="-61.2349" y2="106.8896" gradientTransform="matrix(1 0 0 -1 84 379)">
				<stop  offset="0" style="stop-color:#285AA8"/>
				<stop  offset="0.1597" style="stop-color:#2B60AB"/>
				<stop  offset="0.3734" style="stop-color:#3271B4"/>
				<stop  offset="0.6178" style="stop-color:#3E8DC2"/>
				<stop  offset="0.8829" style="stop-color:#4FB4D5"/>
				<stop  offset="1" style="stop-color:#57C7DF"/>
			</linearGradient>
			<path fill="url(#SVGID_16_)" d="M22.765,272.109c0,2.617-2.122,4.74-4.739,4.74c-2.617,0-4.739-2.123-4.739-4.74
				s2.122-4.738,4.739-4.738C20.643,267.371,22.765,269.492,22.765,272.109"/>
			<path fill="#FFFFFF" d="M17.178,274.164l-1.316-1.336c-0.048-0.051-0.047-0.13,0.002-0.178l0.692-0.684
				c0.049-0.049,0.128-0.048,0.178,0.002l0.452,0.461c0.048,0.049,0.129,0.049,0.178,0l1.958-1.957c0.049-0.05,0.128-0.05,0.177,0
				l0.687,0.687c0.049,0.049,0.049,0.129,0,0.177l-2.829,2.829C17.308,274.214,17.228,274.214,17.178,274.164"/>
		</g>
		<text transform="matrix(1 0 0 1 28.3857 273.3203)" fill="#231F20" font-family="'Gotham-Bold'" font-size="7">Verificación biométrica de e.firma</text>
		<text transform="matrix(1 0 0 1 28.3857 281.7207)" fill="#231F20" font-family="'Gotham-Bold'" font-size="7">ante el SAT </text>
	</g>
	<g display="inline">
		<g>
			
				<linearGradient id="SVGID_17_" gradientUnits="userSpaceOnUse" x1="-69.9971" y1="63.0513" x2="-60.519" y2="63.0513" gradientTransform="matrix(1 0 0 -1 84 379)">
				<stop  offset="0" style="stop-color:#285AA8"/>
				<stop  offset="0.1597" style="stop-color:#2B60AB"/>
				<stop  offset="0.3734" style="stop-color:#3271B4"/>
				<stop  offset="0.6178" style="stop-color:#3E8DC2"/>
				<stop  offset="0.8829" style="stop-color:#4FB4D5"/>
				<stop  offset="1" style="stop-color:#57C7DF"/>
			</linearGradient>
			<path fill="url(#SVGID_17_)" d="M23.481,315.948c0,2.617-2.122,4.739-4.739,4.739c-2.617,0-4.739-2.122-4.739-4.739
				c0-2.618,2.122-4.738,4.739-4.738C21.359,311.21,23.481,313.33,23.481,315.948"/>
			<path fill="#FFFFFF" d="M17.895,318.002l-1.315-1.336c-0.049-0.05-0.048-0.129,0.001-0.178l0.693-0.684
				c0.048-0.049,0.128-0.047,0.178,0.003l0.451,0.459c0.049,0.051,0.129,0.051,0.178,0l1.958-1.957c0.049-0.049,0.128-0.049,0.177,0
				l0.688,0.688c0.048,0.048,0.048,0.128,0,0.176l-2.83,2.83C18.024,318.052,17.944,318.052,17.895,318.002"/>
		</g>
		<text transform="matrix(1 0 0 1 28.3857 317.1602)" fill="#231F20" font-family="'Gotham-Bold'" font-size="7">Acceso a Paquetes de Constancias</text>
		<text transform="matrix(1 0 0 1 28.3857 325.5605)" fill="#231F20" font-family="'Gotham-Bold'" font-size="7">NOM-151 </text>
	</g>
	<path display="inline" fill="none" stroke="#006195" stroke-width="0.5" stroke-miterlimit="10" d="M166.488,70.642V14.448
		c0-5.779-5.178-10.465-11.563-10.465H14.861c-6.387,0-11.565,4.685-11.565,10.465v56.194v0.083v305.171
		c0,11.148,8.801,20.189,19.658,20.189h127.954c8.686,0,15.727-7.229,15.727-16.152V70.642H166.488z"/>
</g>
</svg>
