<?xml version="1.0" encoding="utf-8"?>
<!-- Generator: Adobe Illustrator 16.0.0, SVG Export Plug-In . SVG Version: 6.00 Build 0)  -->
<!DOCTYPE svg PUBLIC "-//W3C//DTD SVG 1.1//EN" "http://www.w3.org/Graphics/SVG/1.1/DTD/svg11.dtd">
<svg version="1.1" id="Layer_1" xmlns="http://www.w3.org/2000/svg" xmlns:xlink="http://www.w3.org/1999/xlink" x="0px" y="0px"
	 width="172px" height="404px" viewBox="0 0 172 404" enable-background="new 0 0 172 404" xml:space="preserve">
<rect fill="#FFFFFF" width="172" height="404"/>
<path fill="#FFFFFF" stroke="#006195" stroke-width="0.5" stroke-miterlimit="10" d="M163.775,70.683V14.489
	c0-5.779-5.178-10.465-11.563-10.465H15.605C9.218,4.024,4.04,8.709,4.04,14.489v56.194v0.083v305.171
	c0,11.151,8.801,20.192,19.658,20.192h124.497c8.686,0,15.727-7.231,15.727-16.153V70.683H163.775z"/>
<g enable-background="new    ">
	<path fill="#585B5C" d="M58.345,46.525h-3.349l-3.949-11.447l-3.949,11.447h-3.35l-5.973-17.621h4.124l3.624,11.848l3.924-11.897
		h3.299l3.924,11.897l3.625-11.848h4.024L58.345,46.525z"/>
	<path fill="#585B5C" d="M79.122,46.4v-7.023h-7.098V46.4h-3.849V28.904h3.849v6.924h7.098v-6.924h3.849V46.4H79.122z"/>
</g>
<g enable-background="new    ">
	<path fill="#585B5C" d="M89.35,46.4V28.904H93.2V46.4H89.35z"/>
</g>
<g enable-background="new    ">
	<path fill="#585B5C" d="M106.973,32.454V46.4h-3.85V32.454H97.8v-3.55h14.497v3.55H106.973z"/>
</g>
<g enable-background="new    ">
	<path fill="#585B5C" d="M116.75,46.4V28.904h13.197v3.425h-9.373v3.549h8.248v3.424h-8.248v3.675h9.498V46.4H116.75z"/>
</g>
<g enable-background="new    ">
	<path d="M50.506,96.928c-4.361,0-7.362-3.061-7.362-7.202v-0.04c0-3.98,3.101-7.241,7.342-7.241c2.521,0,4.041,0.681,5.501,1.921
		l-1.94,2.34c-1.08-0.9-2.041-1.42-3.661-1.42c-2.24,0-4.021,1.98-4.021,4.361v0.039c0,2.561,1.761,4.441,4.241,4.441
		c1.12,0,2.12-0.28,2.9-0.84v-2.001h-3.101v-2.66h6.082v6.081C55.047,95.928,53.066,96.928,50.506,96.928z"/>
	<path d="M65.425,88.946c-2.021,0-3.261,1.22-3.261,3.78v3.961h-3.041V85.965h3.041v2.161c0.62-1.48,1.621-2.44,3.421-2.36v3.181
		L65.425,88.946L65.425,88.946z"/>
	<path d="M73.266,96.688v-1.16c-0.74,0.82-1.76,1.36-3.241,1.36c-2.021,0-3.681-1.16-3.681-3.281v-0.04c0-2.34,1.78-3.42,4.321-3.42
		c1.08,0,1.86,0.18,2.621,0.439v-0.18c0-1.261-0.78-1.961-2.3-1.961c-1.161,0-1.98,0.221-2.961,0.58l-0.76-2.32
		c1.181-0.52,2.341-0.86,4.161-0.86c3.321,0,4.781,1.721,4.781,4.621v6.222H73.266L73.266,96.688z M73.326,92.366
		c-0.52-0.239-1.2-0.399-1.94-0.399c-1.3,0-2.101,0.52-2.101,1.48v0.039c0,0.82,0.68,1.301,1.661,1.301c1.42,0,2.38-0.78,2.38-1.881
		V92.366z"/>
	<path d="M82.345,96.867c-1.86,0-3.121-0.74-3.121-3.221v-5.081h-1.28v-2.601h1.28v-2.74h3.041v2.74h2.521v2.601h-2.521v4.581
		c0,0.7,0.3,1.04,0.98,1.04c0.56,0,1.06-0.14,1.5-0.38v2.44C84.105,96.628,83.366,96.867,82.345,96.867z"/>
	<path d="M93.727,96.688v-1.521c-0.701,0.9-1.602,1.721-3.142,1.721c-2.3,0-3.642-1.521-3.642-3.981v-6.941h3.041v5.981
		c0,1.44,0.681,2.181,1.841,2.181c1.161,0,1.899-0.74,1.899-2.181v-5.981h3.041v10.723L93.727,96.688L93.727,96.688z"/>
	<path d="M99.544,84.785v-2.701h3.2v2.701H99.544z M99.624,96.688V85.965h3.04v10.723H99.624z"/>
	<path d="M109.145,96.867c-1.858,0-3.121-0.74-3.121-3.221v-5.081h-1.277v-2.601h1.277v-2.74h3.041v2.74h2.521v2.601h-2.521v4.581
		c0,0.7,0.303,1.04,0.98,1.04c0.561,0,1.061-0.14,1.5-0.38v2.44C110.904,96.628,110.165,96.867,109.145,96.867z"/>
	<path d="M118.785,96.928c-3.321,0-5.781-2.461-5.781-5.541v-0.04c0-3.081,2.48-5.581,5.82-5.581c3.32,0,5.781,2.46,5.781,5.541
		v0.04C124.605,94.427,122.125,96.928,118.785,96.928z M121.605,91.347c0-1.581-1.143-2.961-2.82-2.961
		c-1.741,0-2.781,1.34-2.781,2.921v0.04c0,1.58,1.141,2.96,2.82,2.96c1.74,0,2.781-1.34,2.781-2.92V91.347z"/>
</g>
<g>
	<g>
		<path fill="#696C6D" d="M24.289,175.126c0,2.618-2.122,4.739-4.739,4.739c-2.617,0-4.739-2.122-4.739-4.739
			c0-2.618,2.122-4.739,4.739-4.739C22.167,170.387,24.289,172.508,24.289,175.126"/>
		<path fill="#FFFFFF" d="M18.703,177.18l-1.316-1.336c-0.049-0.05-0.047-0.129,0.001-0.178l0.693-0.683
			c0.048-0.048,0.128-0.047,0.178,0.002l0.451,0.459c0.049,0.05,0.129,0.05,0.178,0l1.958-1.957c0.049-0.049,0.128-0.049,0.177,0
			l0.687,0.687c0.048,0.049,0.048,0.128,0,0.177l-2.829,2.829C18.832,177.23,18.753,177.23,18.703,177.18"/>
	</g>
	<g enable-background="new    ">
		<path fill="#231F20" d="M30.84,173.574v1.043h2.339v0.98H30.84v1.898h-1.079v-4.902h3.733v0.98L30.84,173.574L30.84,173.574z"/>
		<path fill="#231F20" d="M34.262,173.329v-0.945h1.121v0.945H34.262z M34.29,177.496v-3.754h1.064v3.754H34.29z"/>
		<path fill="#231F20" d="M38.562,174.785c-0.708,0-1.142,0.428-1.142,1.324v1.387h-1.065v-3.754h1.065v0.756
			c0.217-0.518,0.567-0.854,1.197-0.826v1.113H38.562z"/>
		<path fill="#231F20" d="M43.945,177.496v-2.094c0-0.505-0.224-0.764-0.623-0.764c-0.399,0-0.645,0.259-0.645,0.764v2.094h-1.064
			v-2.094c0-0.505-0.224-0.764-0.624-0.764c-0.399,0-0.644,0.259-0.644,0.764v2.094H39.28v-3.754h1.065v0.532
			c0.245-0.315,0.567-0.603,1.106-0.603c0.49,0,0.861,0.217,1.058,0.596c0.329-0.386,0.721-0.596,1.232-0.596
			c0.792,0,1.268,0.477,1.268,1.38v2.444L43.945,177.496L43.945,177.496z"/>
		<path fill="#231F20" d="M48.13,177.496v-0.406c-0.259,0.287-0.616,0.477-1.134,0.477c-0.708,0-1.289-0.406-1.289-1.148v-0.015
			c0-0.819,0.624-1.197,1.513-1.197c0.378,0,0.651,0.062,0.917,0.154v-0.063c0-0.441-0.273-0.687-0.806-0.687
			c-0.406,0-0.693,0.077-1.037,0.203l-0.266-0.812c0.413-0.182,0.819-0.301,1.457-0.301c1.163,0,1.674,0.603,1.674,1.618v2.178
			L48.13,177.496L48.13,177.496z M48.151,175.983c-0.182-0.084-0.42-0.141-0.679-0.141c-0.455,0-0.735,0.183-0.735,0.519v0.014
			c0,0.288,0.238,0.456,0.581,0.456c0.498,0,0.833-0.273,0.833-0.658V175.983z"/>
		<path fill="#231F20" d="M52.449,177.496v-2.094c0-0.505-0.238-0.764-0.645-0.764c-0.407,0-0.665,0.259-0.665,0.764v2.094h-1.065
			v-3.754h1.065v0.532c0.245-0.315,0.56-0.603,1.1-0.603c0.805,0,1.274,0.532,1.274,1.394v2.431H52.449z"/>
		<path fill="#231F20" d="M55.704,177.56c-0.651,0-1.093-0.26-1.093-1.128v-1.779h-0.448v-0.91h0.448v-0.96h1.064v0.96h0.883v0.91
			h-0.883v1.604c0,0.245,0.105,0.364,0.343,0.364c0.196,0,0.371-0.05,0.525-0.134v0.854C56.32,177.475,56.061,177.56,55.704,177.56z
			"/>
		<path fill="#231F20" d="M60.724,175.99h-2.613c0.105,0.483,0.441,0.735,0.917,0.735c0.357,0,0.617-0.112,0.911-0.385l0.609,0.539
			c-0.35,0.435-0.854,0.7-1.534,0.7c-1.128,0-1.961-0.791-1.961-1.94v-0.014c0-1.071,0.764-1.954,1.856-1.954
			c1.253,0,1.828,0.974,1.828,2.038v0.015C60.737,175.829,60.73,175.893,60.724,175.99z M58.91,174.526
			c-0.441,0-0.729,0.315-0.812,0.799h1.604C59.638,174.849,59.358,174.526,58.91,174.526z"/>
		<path fill="#231F20" d="M62.843,177.566c-0.525,0-1.114-0.176-1.611-0.567l0.455-0.7c0.406,0.294,0.833,0.448,1.184,0.448
			c0.309,0,0.448-0.112,0.448-0.28v-0.015c0-0.23-0.364-0.308-0.777-0.434c-0.525-0.154-1.121-0.399-1.121-1.128v-0.014
			c0-0.764,0.616-1.191,1.373-1.191c0.476,0,0.994,0.161,1.4,0.435l-0.406,0.735c-0.371-0.217-0.742-0.35-1.015-0.35
			c-0.259,0-0.393,0.111-0.393,0.259v0.014c0,0.21,0.357,0.309,0.764,0.448c0.525,0.176,1.134,0.428,1.134,1.114v0.014
			C64.279,177.188,63.656,177.566,62.843,177.566z"/>
		<path fill="#231F20" d="M70.475,171.907l-3.103,6.485h-0.904l3.103-6.485H70.475z"/>
		<path fill="#231F20" d="M72.971,173.329v-0.945h1.121v0.945H72.971z M73,177.496v-3.754h1.064v3.754H73z"/>
		<path fill="#231F20" d="M75.114,177.496v-5.112h1.064v5.112H75.114z"/>
		<path fill="#231F20" d="M77.199,173.329v-0.945h1.121v0.945H77.199z M77.228,177.496v-3.754h1.064v3.754H77.228z"/>
		<path fill="#231F20" d="M83.957,177.496v-2.094c0-0.505-0.224-0.764-0.623-0.764s-0.645,0.259-0.645,0.764v2.094h-1.064v-2.094
			c0-0.505-0.224-0.764-0.624-0.764c-0.399,0-0.644,0.259-0.644,0.764v2.094h-1.065v-3.754h1.065v0.532
			c0.245-0.315,0.567-0.603,1.106-0.603c0.49,0,0.861,0.217,1.058,0.596c0.329-0.386,0.721-0.596,1.232-0.596
			c0.792,0,1.268,0.477,1.268,1.38v2.444L83.957,177.496L83.957,177.496z"/>
		<path fill="#231F20" d="M85.963,173.329v-0.945h1.121v0.945H85.963z M85.991,177.496v-3.754h1.063v3.754H85.991z"/>
		<path fill="#231F20" d="M89.324,177.56c-0.651,0-1.094-0.26-1.094-1.128v-1.779h-0.447v-0.91h0.447v-0.96h1.063v0.96h0.883v0.91
			h-0.883v1.604c0,0.245,0.104,0.364,0.345,0.364c0.195,0,0.369-0.05,0.523-0.134v0.854C89.939,177.475,89.682,177.56,89.324,177.56
			z"/>
		<path fill="#231F20" d="M93.16,177.496v-0.406c-0.26,0.287-0.616,0.477-1.135,0.477c-0.707,0-1.289-0.406-1.289-1.148v-0.015
			c0-0.819,0.623-1.197,1.514-1.197c0.378,0,0.65,0.062,0.918,0.154v-0.063c0-0.441-0.273-0.687-0.807-0.687
			c-0.406,0-0.693,0.077-1.036,0.203l-0.267-0.812c0.414-0.182,0.818-0.301,1.457-0.301c1.161,0,1.674,0.603,1.674,1.618v2.178
			L93.16,177.496L93.16,177.496z M93.182,175.983c-0.183-0.084-0.42-0.141-0.68-0.141c-0.455,0-0.734,0.183-0.734,0.519v0.014
			c0,0.288,0.237,0.456,0.58,0.456c0.498,0,0.834-0.273,0.834-0.658V175.983z"/>
		<path fill="#231F20" d="M97.814,177.496v-0.539c-0.258,0.35-0.615,0.609-1.168,0.609c-0.877,0-1.709-0.687-1.709-1.94v-0.014
			c0-1.254,0.816-1.94,1.709-1.94c0.564,0,0.916,0.26,1.168,0.561v-1.849h1.064v5.112H97.814L97.814,177.496z M97.83,175.612
			c0-0.624-0.414-1.037-0.911-1.037s-0.917,0.406-0.917,1.037v0.014c0,0.623,0.42,1.037,0.917,1.037s0.911-0.414,0.911-1.037
			V175.612z"/>
		<path fill="#231F20" d="M101.672,177.58c-1.162,0-2.023-0.861-2.023-1.94v-0.014c0-1.078,0.867-1.954,2.037-1.954
			c1.164,0,2.024,0.861,2.024,1.94v0.014C103.71,176.705,102.842,177.58,101.672,177.58z M102.659,175.626
			c0-0.553-0.399-1.036-0.987-1.036c-0.609,0-0.974,0.469-0.974,1.022v0.014c0,0.554,0.399,1.037,0.987,1.037
			c0.607,0,0.974-0.47,0.974-1.023V175.626z"/>
		<path fill="#231F20" d="M105.795,177.566c-0.525,0-1.113-0.176-1.611-0.567l0.455-0.7c0.406,0.294,0.834,0.448,1.186,0.448
			c0.309,0,0.447-0.112,0.447-0.28v-0.015c0-0.23-0.363-0.308-0.776-0.434c-0.524-0.154-1.12-0.399-1.12-1.128v-0.014
			c0-0.764,0.613-1.191,1.373-1.191c0.477,0,0.994,0.161,1.398,0.435l-0.404,0.735c-0.371-0.217-0.742-0.35-1.018-0.35
			c-0.26,0-0.393,0.111-0.393,0.259v0.014c0,0.21,0.357,0.309,0.764,0.448c0.525,0.176,1.135,0.428,1.135,1.114v0.014
			C107.23,177.188,106.607,177.566,105.795,177.566z"/>
	</g>
</g>
<g>
	<g>
		<path fill="#696C6D" d="M24.289,118.174c0,2.617-2.122,4.739-4.739,4.739c-2.617,0-4.739-2.122-4.739-4.739
			c0-2.618,2.122-4.739,4.739-4.739C22.167,113.435,24.289,115.556,24.289,118.174"/>
		<path fill="#FFFFFF" d="M18.703,120.228l-1.316-1.337c-0.049-0.05-0.047-0.129,0.001-0.177l0.693-0.683
			c0.048-0.049,0.128-0.048,0.178,0.002l0.451,0.46c0.049,0.05,0.129,0.05,0.178,0l1.958-1.957c0.049-0.049,0.128-0.049,0.177,0
			l0.687,0.687c0.048,0.049,0.048,0.128,0,0.177l-2.829,2.829C18.832,120.277,18.753,120.277,18.703,120.228"/>
	</g>
	<g enable-background="new    ">
		<path fill="#231F20" d="M32.059,120.627c-1.443,0-2.515-1.113-2.515-2.521v-0.014c0-1.394,1.051-2.535,2.557-2.535
			c0.924,0,1.478,0.308,1.933,0.756l-0.687,0.792c-0.378-0.344-0.764-0.554-1.254-0.554c-0.826,0-1.421,0.687-1.421,1.527v0.014
			c0,0.84,0.581,1.541,1.421,1.541c0.561,0,0.904-0.225,1.289-0.574l0.686,0.693C33.564,120.291,33.004,120.627,32.059,120.627z"/>
		<path fill="#231F20" d="M37.021,117.832c-0.708,0-1.142,0.428-1.142,1.324v1.387h-1.065v-3.754h1.065v0.756
			c0.217-0.518,0.567-0.854,1.197-0.826v1.113H37.021z"/>
		<path fill="#231F20" d="M41.124,119.037h-2.613c0.105,0.483,0.441,0.735,0.917,0.735c0.357,0,0.617-0.112,0.911-0.385l0.609,0.539
			c-0.35,0.435-0.854,0.7-1.534,0.7c-1.128,0-1.961-0.791-1.961-1.94v-0.014c0-1.071,0.764-1.954,1.856-1.954
			c1.253,0,1.828,0.974,1.828,2.038v0.015C41.138,118.876,41.131,118.939,41.124,119.037z M39.31,117.573
			c-0.441,0-0.729,0.315-0.812,0.799h1.604C40.038,117.896,39.758,117.573,39.31,117.573z"/>
		<path fill="#231F20" d="M44.126,120.543v-0.406c-0.259,0.287-0.616,0.477-1.134,0.477c-0.708,0-1.289-0.406-1.289-1.148v-0.015
			c0-0.819,0.624-1.197,1.513-1.197c0.378,0,0.651,0.062,0.917,0.154v-0.063c0-0.441-0.273-0.687-0.806-0.687
			c-0.406,0-0.693,0.077-1.037,0.203l-0.266-0.812c0.413-0.182,0.819-0.301,1.457-0.301c1.163,0,1.674,0.603,1.674,1.618v2.178
			L44.126,120.543L44.126,120.543z M44.147,119.03c-0.182-0.084-0.42-0.141-0.679-0.141c-0.455,0-0.735,0.183-0.735,0.519v0.014
			c0,0.288,0.238,0.456,0.581,0.456c0.498,0,0.833-0.273,0.833-0.658V119.03z"/>
		<path fill="#231F20" d="M48.277,117.832c-0.708,0-1.142,0.428-1.142,1.324v1.387H46.07v-3.754h1.065v0.756
			c0.217-0.518,0.567-0.854,1.197-0.826v1.113H48.277z"/>
		<path fill="#231F20" d="M53.226,120.634c-0.287,0.764-0.595,1.051-1.233,1.051c-0.385,0-0.672-0.098-0.945-0.259l0.357-0.771
			c0.14,0.084,0.315,0.146,0.455,0.146c0.182,0,0.28-0.056,0.371-0.245l-1.471-3.768h1.127l0.854,2.557l0.819-2.557h1.107
			L53.226,120.634z"/>
		<path fill="#231F20" d="M58.587,116.621v1.043h2.339v0.98h-2.339v1.898h-1.079v-4.902h3.733v0.98L58.587,116.621L58.587,116.621z"
			/>
		<path fill="#231F20" d="M62.009,116.376v-0.945h1.121v0.945H62.009z M62.038,120.543v-3.754h1.064v3.754H62.038z"/>
		<path fill="#231F20" d="M66.309,117.832c-0.708,0-1.142,0.428-1.142,1.324v1.387h-1.065v-3.754h1.065v0.756
			c0.217-0.518,0.567-0.854,1.197-0.826v1.113H66.309z"/>
		<path fill="#231F20" d="M71.693,120.543v-2.094c0-0.505-0.224-0.764-0.623-0.764s-0.645,0.259-0.645,0.764v2.094h-1.064v-2.094
			c0-0.505-0.224-0.764-0.624-0.764c-0.399,0-0.644,0.259-0.644,0.764v2.094h-1.065v-3.754h1.065v0.532
			c0.245-0.315,0.567-0.603,1.106-0.603c0.49,0,0.861,0.217,1.058,0.596c0.329-0.386,0.721-0.596,1.232-0.596
			c0.792,0,1.268,0.477,1.268,1.38v2.444L71.693,120.543L71.693,120.543z"/>
		<path fill="#231F20" d="M75.877,120.543v-0.406c-0.259,0.287-0.616,0.477-1.134,0.477c-0.708,0-1.289-0.406-1.289-1.148v-0.015
			c0-0.819,0.624-1.197,1.513-1.197c0.378,0,0.651,0.062,0.917,0.154v-0.063c0-0.441-0.273-0.687-0.806-0.687
			c-0.406,0-0.693,0.077-1.037,0.203l-0.266-0.812c0.413-0.182,0.819-0.301,1.457-0.301c1.163,0,1.674,0.603,1.674,1.618v2.178
			L75.877,120.543L75.877,120.543z M75.898,119.03c-0.182-0.084-0.42-0.141-0.679-0.141c-0.455,0-0.735,0.183-0.735,0.519v0.014
			c0,0.288,0.238,0.456,0.581,0.456c0.498,0,0.833-0.273,0.833-0.658V119.03z"/>
		<path fill="#231F20" d="M80.029,117.832c-0.708,0-1.142,0.428-1.142,1.324v1.387h-1.065v-3.754h1.065v0.756
			c0.217-0.518,0.567-0.854,1.197-0.826v1.113H80.029z"/>
		<path fill="#231F20" d="M85.559,120.543v-0.539c-0.259,0.35-0.616,0.609-1.169,0.609c-0.875,0-1.709-0.687-1.709-1.94v-0.014
			c0-1.254,0.819-1.94,1.709-1.94c0.567,0,0.917,0.26,1.169,0.561v-1.849h1.064v5.112H85.559z M85.573,118.659
			c0-0.624-0.413-1.037-0.911-1.037c-0.497,0-0.917,0.406-0.917,1.037v0.014c0,0.623,0.42,1.037,0.917,1.037
			c0.498,0,0.911-0.414,0.911-1.037V118.659z"/>
		<path fill="#231F20" d="M91.062,119.037H88.45c0.104,0.483,0.44,0.735,0.917,0.735c0.357,0,0.615-0.112,0.91-0.385l0.609,0.539
			c-0.352,0.435-0.854,0.7-1.533,0.7c-1.129,0-1.963-0.791-1.963-1.94v-0.014c0-1.071,0.764-1.954,1.856-1.954
			c1.253,0,1.827,0.974,1.827,2.038v0.015C91.075,118.876,91.068,118.939,91.062,119.037z M89.248,117.573
			c-0.441,0-0.729,0.315-0.812,0.799h1.604C89.977,117.896,89.695,117.573,89.248,117.573z"/>
		<path fill="#231F20" d="M93.182,120.613c-0.523,0-1.113-0.176-1.611-0.567l0.455-0.7c0.406,0.294,0.834,0.448,1.186,0.448
			c0.311,0,0.448-0.112,0.448-0.28v-0.015c0-0.23-0.364-0.308-0.777-0.434c-0.524-0.154-1.12-0.399-1.12-1.128v-0.014
			c0-0.764,0.615-1.191,1.373-1.191c0.477,0,0.994,0.161,1.4,0.435l-0.406,0.735c-0.371-0.217-0.74-0.35-1.018-0.35
			c-0.26,0-0.393,0.111-0.393,0.259v0.014c0,0.21,0.357,0.309,0.764,0.448c0.525,0.176,1.137,0.428,1.137,1.114v0.014
			C94.617,120.234,93.994,120.613,93.182,120.613z"/>
		<path fill="#231F20" d="M98.088,120.543v-0.539c-0.258,0.35-0.615,0.609-1.169,0.609c-0.876,0-1.709-0.687-1.709-1.94v-0.014
			c0-1.254,0.819-1.94,1.709-1.94c0.567,0,0.917,0.26,1.169,0.561v-1.849h1.064v5.112H98.088z M98.104,118.659
			c0-0.624-0.414-1.037-0.912-1.037c-0.496,0-0.916,0.406-0.916,1.037v0.014c0,0.623,0.42,1.037,0.916,1.037
			c0.498,0,0.912-0.414,0.912-1.037V118.659z"/>
		<path fill="#231F20" d="M103.592,119.037h-2.613c0.105,0.483,0.441,0.735,0.918,0.735c0.357,0,0.617-0.112,0.91-0.385l0.609,0.539
			c-0.35,0.435-0.854,0.7-1.533,0.7c-1.129,0-1.962-0.791-1.962-1.94v-0.014c0-1.071,0.765-1.954,1.856-1.954
			c1.254,0,1.828,0.974,1.828,2.038v0.015C103.605,118.876,103.598,118.939,103.592,119.037z M101.777,117.573
			c-0.441,0-0.729,0.315-0.812,0.799h1.604C102.506,117.896,102.227,117.573,101.777,117.573z"/>
		<path fill="#231F20" d="M107.117,116.74h0.434v1.12h-1.134v-0.945c0-0.925,0.462-1.296,1.296-1.31l0.092,0.441
			C107.32,116.096,107.082,116.341,107.117,116.74z M108.896,116.74h0.434v1.12h-1.135v-0.945c0-0.925,0.463-1.296,1.296-1.31
			l0.091,0.441C109.1,116.096,108.861,116.341,108.896,116.74z"/>
		<path fill="#231F20" d="M112.348,120.627c-1.311,0-2.172-1.1-2.172-2.528c0-1.428,0.876-2.542,2.186-2.542
			c1.312,0,2.173,1.1,2.173,2.528C114.533,119.513,113.656,120.627,112.348,120.627z M112.348,116.53
			c-0.652,0-1.062,0.651-1.062,1.555c0,0.904,0.427,1.568,1.076,1.568c0.652,0,1.064-0.658,1.064-1.555
			S112.998,116.53,112.348,116.53z"/>
		<path fill="#231F20" d="M115.812,116.761h-0.437v-1.12h1.136v0.945c0,0.925-0.463,1.296-1.297,1.31l-0.091-0.441
			C115.607,117.405,115.848,117.16,115.812,116.761z M117.59,116.761h-0.434v-1.12h1.135v0.945c0,0.925-0.463,1.296-1.296,1.31
			l-0.093-0.441C117.387,117.405,117.625,117.16,117.59,116.761z"/>
	</g>
</g>
<g>
	<g>
		<path fill="#696C6D" d="M24.289,136.88c0,2.617-2.122,4.739-4.739,4.739c-2.617,0-4.739-2.122-4.739-4.739
			c0-2.618,2.122-4.739,4.739-4.739C22.167,132.141,24.289,134.262,24.289,136.88"/>
		<path fill="#FFFFFF" d="M18.703,138.934l-1.316-1.336c-0.049-0.05-0.047-0.129,0.001-0.178l0.693-0.682
			c0.048-0.049,0.128-0.047,0.178,0.002l0.451,0.46c0.049,0.05,0.129,0.05,0.178,0l1.958-1.958c0.049-0.048,0.128-0.048,0.177,0
			l0.687,0.688c0.048,0.048,0.048,0.128,0,0.176l-2.829,2.83C18.832,138.984,18.753,138.984,18.703,138.934"/>
	</g>
	<g enable-background="new    ">
		<path fill="#231F20" d="M31.505,139.32c-0.742,0-1.492-0.26-2.08-0.785l0.638-0.763c0.441,0.364,0.903,0.595,1.464,0.595
			c0.441,0,0.707-0.175,0.707-0.462v-0.014c0-0.273-0.168-0.413-0.987-0.624c-0.988-0.252-1.625-0.525-1.625-1.498v-0.015
			c0-0.89,0.714-1.478,1.716-1.478c0.714,0,1.324,0.224,1.821,0.623l-0.561,0.812c-0.434-0.301-0.861-0.483-1.274-0.483
			c-0.414,0-0.63,0.189-0.63,0.428v0.014c0,0.322,0.21,0.428,1.057,0.645c0.995,0.259,1.555,0.616,1.555,1.471v0.014
			C33.305,138.773,32.562,139.32,31.505,139.32z"/>
		<path fill="#231F20" d="M36.476,139.25v-0.532c-0.245,0.315-0.561,0.603-1.1,0.603c-0.806,0-1.275-0.532-1.275-1.394v-2.431h1.064
			v2.094c0,0.505,0.238,0.764,0.645,0.764c0.407,0,0.666-0.259,0.666-0.764v-2.094h1.064v3.754H36.476z"/>
		<path fill="#231F20" d="M40.724,139.32c-0.567,0-0.917-0.26-1.169-0.561v0.49H38.49v-5.112h1.065v1.897
			c0.259-0.35,0.616-0.609,1.169-0.609c0.875,0,1.709,0.687,1.709,1.94v0.014C42.433,138.634,41.614,139.32,40.724,139.32z
			 M41.369,137.366c0-0.624-0.42-1.037-0.917-1.037c-0.498,0-0.911,0.413-0.911,1.037v0.014c0,0.623,0.413,1.037,0.911,1.037
			c0.497,0,0.917-0.406,0.917-1.037V137.366z"/>
		<path fill="#231F20" d="M46.703,137.744H44.09c0.105,0.483,0.441,0.735,0.917,0.735c0.357,0,0.617-0.112,0.911-0.385l0.609,0.539
			c-0.35,0.435-0.854,0.7-1.534,0.7c-1.128,0-1.961-0.791-1.961-1.94v-0.014c0-1.071,0.764-1.954,1.856-1.954
			c1.253,0,1.828,0.974,1.828,2.038v0.015C46.717,137.583,46.71,137.646,46.703,137.744z M44.889,136.28
			c-0.441,0-0.729,0.315-0.812,0.799h1.604C45.617,136.603,45.337,136.28,44.889,136.28z"/>
		<path fill="#231F20" d="M51.735,139.341c-0.287,0.764-0.595,1.051-1.233,1.051c-0.385,0-0.672-0.098-0.945-0.259l0.357-0.771
			c0.14,0.084,0.315,0.146,0.455,0.146c0.182,0,0.28-0.056,0.371-0.245l-1.471-3.768h1.127l0.854,2.557l0.819-2.557h1.107
			L51.735,139.341z"/>
		<path fill="#231F20" d="M57.096,135.328v1.043h2.339v0.98h-2.339v1.898h-1.079v-4.902h3.733v0.98L57.096,135.328L57.096,135.328z"
			/>
		<path fill="#231F20" d="M60.519,135.083v-0.945h1.121v0.945H60.519z M60.547,139.25v-3.754h1.064v3.754H60.547z"/>
		<path fill="#231F20" d="M64.818,136.539c-0.708,0-1.142,0.428-1.142,1.324v1.387h-1.065v-3.754h1.065v0.756
			c0.217-0.518,0.567-0.854,1.197-0.826v1.113H64.818z"/>
		<path fill="#231F20" d="M70.202,139.25v-2.094c0-0.505-0.224-0.764-0.623-0.764s-0.645,0.259-0.645,0.764v2.094H67.87v-2.094
			c0-0.505-0.224-0.764-0.624-0.764c-0.399,0-0.644,0.259-0.644,0.764v2.094h-1.065v-3.754h1.065v0.532
			c0.245-0.315,0.567-0.603,1.106-0.603c0.49,0,0.861,0.217,1.058,0.596c0.329-0.386,0.721-0.596,1.232-0.596
			c0.792,0,1.268,0.477,1.268,1.38v2.444L70.202,139.25L70.202,139.25z"/>
		<path fill="#231F20" d="M74.386,139.25v-0.406c-0.259,0.287-0.616,0.477-1.134,0.477c-0.708,0-1.289-0.406-1.289-1.148v-0.015
			c0-0.819,0.624-1.197,1.513-1.197c0.378,0,0.651,0.062,0.917,0.154v-0.063c0-0.441-0.273-0.687-0.806-0.687
			c-0.406,0-0.693,0.077-1.037,0.203l-0.266-0.812c0.413-0.182,0.819-0.301,1.457-0.301c1.163,0,1.674,0.603,1.674,1.618v2.178
			L74.386,139.25L74.386,139.25z M74.407,137.737c-0.182-0.084-0.42-0.141-0.679-0.141c-0.455,0-0.735,0.183-0.735,0.519v0.014
			c0,0.288,0.238,0.456,0.581,0.456c0.498,0,0.833-0.273,0.833-0.658V137.737z"/>
	</g>
</g>
<g>
	<g>
		<path fill="#696C6D" d="M24.288,194.563c0,2.617-2.122,4.739-4.739,4.739c-2.617,0-4.739-2.122-4.739-4.739
			c0-2.618,2.122-4.738,4.739-4.738C22.166,189.825,24.288,191.945,24.288,194.563"/>
		<path fill="#FFFFFF" d="M18.702,196.617l-1.316-1.336c-0.048-0.05-0.047-0.129,0.001-0.178l0.693-0.683
			c0.048-0.049,0.128-0.047,0.178,0.003l0.451,0.459c0.049,0.05,0.129,0.05,0.178,0l1.958-1.957c0.049-0.049,0.128-0.049,0.177,0
			l0.687,0.688c0.049,0.048,0.049,0.128,0,0.176l-2.829,2.83C18.831,196.667,18.751,196.667,18.702,196.617"/>
	</g>
	<g enable-background="new    ">
		<path fill="#231F20" d="M31.981,193.025v3.908h-1.079v-3.908H29.41v-0.994h4.062v0.994H31.981z"/>
		<path fill="#231F20" d="M36.938,195.428h-2.613c0.105,0.483,0.441,0.735,0.917,0.735c0.357,0,0.617-0.112,0.911-0.385l0.609,0.539
			c-0.35,0.435-0.854,0.7-1.534,0.7c-1.128,0-1.961-0.791-1.961-1.94v-0.014c0-1.071,0.764-1.954,1.856-1.954
			c1.253,0,1.828,0.974,1.828,2.038v0.015C36.952,195.267,36.945,195.33,36.938,195.428z M35.124,193.964
			c-0.441,0-0.729,0.315-0.812,0.799h1.604C35.852,194.286,35.572,193.964,35.124,193.964z"/>
		<path fill="#231F20" d="M39.058,197.004c-0.525,0-1.114-0.176-1.611-0.567l0.455-0.7c0.406,0.294,0.833,0.448,1.184,0.448
			c0.308,0,0.448-0.112,0.448-0.28v-0.015c0-0.23-0.364-0.308-0.777-0.434c-0.525-0.154-1.121-0.399-1.121-1.128v-0.014
			c0-0.764,0.616-1.191,1.373-1.191c0.476,0,0.994,0.161,1.4,0.435l-0.406,0.735c-0.371-0.217-0.742-0.35-1.015-0.35
			c-0.259,0-0.393,0.111-0.393,0.259v0.014c0,0.21,0.357,0.309,0.764,0.448c0.525,0.176,1.134,0.428,1.134,1.114v0.014
			C40.493,196.625,39.87,197.004,39.058,197.004z"/>
		<path fill="#231F20" d="M42.453,196.997c-0.651,0-1.093-0.26-1.093-1.128v-1.779h-0.448v-0.91h0.448v-0.96h1.064v0.96h0.883v0.91
			h-0.883v1.604c0,0.245,0.105,0.364,0.343,0.364c0.196,0,0.371-0.05,0.525-0.134v0.854
			C43.069,196.912,42.81,196.997,42.453,196.997z"/>
		<path fill="#231F20" d="M44.111,192.767v-0.945h1.121v0.945H44.111z M44.139,196.934v-3.754h1.064v3.754H44.139z"/>
		<path fill="#231F20" d="M47.885,198.068c-0.609,0-1.184-0.141-1.66-0.393l0.364-0.798c0.385,0.217,0.771,0.343,1.268,0.343
			c0.729,0,1.072-0.351,1.072-1.021v-0.183c-0.315,0.379-0.658,0.609-1.226,0.609c-0.875,0-1.667-0.637-1.667-1.751v-0.014
			c0-1.12,0.806-1.751,1.667-1.751c0.581,0,0.924,0.245,1.211,0.561v-0.49h1.065v2.906
			C49.979,197.501,49.278,198.068,47.885,198.068z M48.928,194.86c0-0.511-0.399-0.868-0.917-0.868
			c-0.518,0-0.911,0.357-0.911,0.868v0.014c0,0.519,0.393,0.869,0.911,0.869c0.519,0,0.917-0.357,0.917-0.869V194.86z"/>
		<path fill="#231F20" d="M52.771,197.018c-1.163,0-2.024-0.861-2.024-1.94v-0.014c0-1.078,0.869-1.954,2.038-1.954
			c1.163,0,2.024,0.861,2.024,1.94v0.014C54.809,196.143,53.94,197.018,52.771,197.018z M53.758,195.063
			c0-0.553-0.399-1.036-0.987-1.036c-0.609,0-0.974,0.469-0.974,1.022v0.014c0,0.554,0.399,1.037,0.987,1.037
			c0.609,0,0.974-0.47,0.974-1.023V195.063z"/>
		<path fill="#231F20" d="M56.894,197.004c-0.525,0-1.114-0.176-1.611-0.567l0.455-0.7c0.406,0.294,0.833,0.448,1.184,0.448
			c0.308,0,0.448-0.112,0.448-0.28v-0.015c0-0.23-0.364-0.308-0.777-0.434c-0.525-0.154-1.121-0.399-1.121-1.128v-0.014
			c0-0.764,0.616-1.191,1.373-1.191c0.476,0,0.994,0.161,1.4,0.435l-0.406,0.735c-0.371-0.217-0.742-0.35-1.015-0.35
			c-0.259,0-0.393,0.111-0.393,0.259v0.014c0,0.21,0.357,0.309,0.764,0.448c0.525,0.176,1.134,0.428,1.134,1.114v0.014
			C58.329,196.625,57.706,197.004,56.894,197.004z"/>
		<path fill="#231F20" d="M66.625,191.345l-3.103,6.485h-0.904l3.103-6.485H66.625z"/>
		<path fill="#231F20" d="M73.987,193.586l-0.756-0.609c0.483-0.658,0.953-1.016,1.828-1.016c1.043,0,1.688,0.603,1.688,1.52
			c0,0.819-0.42,1.233-1.289,1.905l-0.798,0.616h2.136v0.932h-3.628v-0.854l1.632-1.338c0.609-0.504,0.848-0.771,0.848-1.177
			c0-0.413-0.273-0.637-0.659-0.637C74.61,192.928,74.351,193.138,73.987,193.586z"/>
	</g>
</g>
<g>
	<g>
		<path fill="#696C6D" d="M24.289,156.266c0,2.617-2.122,4.739-4.739,4.739c-2.617,0-4.739-2.122-4.739-4.739
			c0-2.618,2.122-4.739,4.739-4.739C22.167,151.527,24.289,153.648,24.289,156.266"/>
		<path fill="#FFFFFF" d="M18.703,158.32l-1.316-1.336c-0.049-0.05-0.047-0.129,0.001-0.178l0.693-0.683
			c0.048-0.048,0.128-0.047,0.178,0.002l0.451,0.46c0.049,0.05,0.129,0.05,0.178,0l1.958-1.958c0.049-0.048,0.128-0.048,0.177,0
			l0.687,0.687c0.048,0.049,0.048,0.128,0,0.177l-2.829,2.829C18.832,158.37,18.753,158.37,18.703,158.32"/>
	</g>
	<g enable-background="new    ">
		<path fill="#231F20" d="M30.84,154.714v1.043h2.339v0.98H30.84v1.898h-1.079v-4.902h3.733v0.98L30.84,154.714L30.84,154.714z"/>
		<path fill="#231F20" d="M34.262,154.469v-0.945h1.121v0.945H34.262z M34.29,158.636v-3.754h1.064v3.754H34.29z"/>
		<path fill="#231F20" d="M38.562,155.925c-0.708,0-1.142,0.428-1.142,1.324v1.387h-1.065v-3.754h1.065v0.756
			c0.217-0.518,0.567-0.854,1.197-0.826v1.113H38.562z"/>
		<path fill="#231F20" d="M43.945,158.636v-2.094c0-0.505-0.224-0.764-0.623-0.764c-0.399,0-0.645,0.259-0.645,0.764v2.094h-1.064
			v-2.094c0-0.505-0.224-0.764-0.624-0.764c-0.399,0-0.644,0.259-0.644,0.764v2.094H39.28v-3.754h1.065v0.532
			c0.245-0.315,0.567-0.603,1.106-0.603c0.49,0,0.861,0.217,1.058,0.596c0.329-0.386,0.721-0.596,1.232-0.596
			c0.792,0,1.268,0.477,1.268,1.38v2.444L43.945,158.636L43.945,158.636z"/>
		<path fill="#231F20" d="M48.13,158.636v-0.406c-0.259,0.287-0.616,0.477-1.134,0.477c-0.708,0-1.289-0.406-1.289-1.148v-0.015
			c0-0.819,0.624-1.197,1.513-1.197c0.378,0,0.651,0.062,0.917,0.154v-0.063c0-0.441-0.273-0.687-0.806-0.687
			c-0.406,0-0.693,0.077-1.037,0.203l-0.266-0.812c0.413-0.182,0.819-0.301,1.457-0.301c1.163,0,1.674,0.603,1.674,1.618v2.178
			H48.13V158.636z M48.151,157.123c-0.182-0.084-0.42-0.141-0.679-0.141c-0.455,0-0.735,0.183-0.735,0.519v0.014
			c0,0.288,0.238,0.456,0.581,0.456c0.498,0,0.833-0.273,0.833-0.658V157.123z"/>
		<path fill="#231F20" d="M55.509,153.047l-3.103,6.485h-0.904l3.103-6.485H55.509z"/>
		<path fill="#231F20" d="M60.331,158.636v-0.532c-0.245,0.315-0.561,0.603-1.1,0.603c-0.806,0-1.275-0.532-1.275-1.394v-2.431
			h1.064v2.094c0,0.505,0.238,0.764,0.645,0.764c0.407,0,0.666-0.259,0.666-0.764v-2.094h1.064v3.754H60.331z"/>
		<path fill="#231F20" d="M63.662,158.706c-0.525,0-1.114-0.176-1.611-0.567l0.455-0.7c0.406,0.294,0.833,0.448,1.184,0.448
			c0.308,0,0.448-0.112,0.448-0.28v-0.015c0-0.23-0.364-0.308-0.777-0.434c-0.525-0.154-1.121-0.399-1.121-1.128v-0.014
			c0-0.764,0.616-1.191,1.373-1.191c0.476,0,0.994,0.161,1.4,0.435l-0.406,0.735c-0.371-0.217-0.742-0.35-1.015-0.35
			c-0.259,0-0.393,0.111-0.393,0.259v0.014c0,0.21,0.357,0.309,0.764,0.448c0.525,0.176,1.134,0.428,1.134,1.114v0.014
			C65.098,158.327,64.475,158.706,63.662,158.706z"/>
		<path fill="#231F20" d="M68.206,158.636v-0.532c-0.245,0.315-0.561,0.603-1.1,0.603c-0.806,0-1.275-0.532-1.275-1.394v-2.431
			h1.064v2.094c0,0.505,0.238,0.764,0.645,0.764c0.407,0,0.666-0.259,0.666-0.764v-2.094h1.064v3.754H68.206z"/>
		<path fill="#231F20" d="M72.419,158.636v-0.406c-0.259,0.287-0.616,0.477-1.134,0.477c-0.708,0-1.289-0.406-1.289-1.148v-0.015
			c0-0.819,0.624-1.197,1.513-1.197c0.378,0,0.651,0.062,0.917,0.154v-0.063c0-0.441-0.273-0.687-0.806-0.687
			c-0.406,0-0.693,0.077-1.037,0.203l-0.266-0.812c0.413-0.182,0.819-0.301,1.457-0.301c1.163,0,1.674,0.603,1.674,1.618v2.178
			h-1.029V158.636z M72.44,157.123c-0.182-0.084-0.42-0.141-0.679-0.141c-0.455,0-0.735,0.183-0.735,0.519v0.014
			c0,0.288,0.238,0.456,0.581,0.456c0.498,0,0.833-0.273,0.833-0.658V157.123z"/>
		<path fill="#231F20" d="M76.571,155.925c-0.708,0-1.142,0.428-1.142,1.324v1.387h-1.065v-3.754h1.065v0.756
			c0.217-0.518,0.567-0.854,1.197-0.826v1.113H76.571z"/>
		<path fill="#231F20" d="M77.312,154.469v-0.945h1.121v0.945H77.312z M77.34,158.636v-3.754h1.064v3.754H77.34z"/>
		<path fill="#231F20" d="M81.247,158.72c-1.163,0-2.024-0.861-2.024-1.94v-0.014c0-1.078,0.869-1.954,2.038-1.954
			c1.163,0,2.024,0.861,2.024,1.94v0.014C83.285,157.845,82.416,158.72,81.247,158.72z M82.234,156.766
			c0-0.553-0.399-1.036-0.987-1.036c-0.609,0-0.974,0.469-0.974,1.022v0.014c0,0.554,0.399,1.037,0.987,1.037
			c0.609,0,0.974-0.47,0.974-1.023V156.766z"/>
		<path fill="#231F20" d="M86.173,154.469v-0.945h1.12v0.945H86.173z M86.201,158.636v-3.754h1.064v3.754H86.201z"/>
		<path fill="#231F20" d="M90.641,158.636v-2.094c0-0.505-0.238-0.764-0.645-0.764c-0.407,0-0.665,0.259-0.665,0.764v2.094h-1.065
			v-3.754h1.065v0.532c0.245-0.315,0.56-0.603,1.101-0.603c0.805,0,1.273,0.532,1.273,1.394v2.431H90.641z"/>
		<path fill="#231F20" d="M94.596,158.664h-0.967l-1.479-3.782h1.127l0.842,2.515l0.848-2.515h1.105L94.596,158.664z"/>
		<path fill="#231F20" d="M96.708,154.469v-0.945h1.12v0.945H96.708z M96.736,158.636v-3.754H97.8v3.754H96.736z"/>
		<path fill="#231F20" d="M100.068,158.699c-0.65,0-1.092-0.26-1.092-1.128v-1.779h-0.449v-0.91h0.449v-0.96h1.062v0.96h0.883v0.91
			h-0.883v1.604c0,0.245,0.104,0.364,0.343,0.364c0.196,0,0.371-0.05,0.525-0.134v0.854
			C100.686,158.614,100.426,158.699,100.068,158.699z"/>
		<path fill="#231F20" d="M103.904,158.636v-0.406c-0.258,0.287-0.615,0.477-1.135,0.477c-0.707,0-1.289-0.406-1.289-1.148v-0.015
			c0-0.819,0.625-1.197,1.514-1.197c0.379,0,0.652,0.062,0.918,0.154v-0.063c0-0.441-0.273-0.687-0.807-0.687
			c-0.405,0-0.692,0.077-1.035,0.203l-0.269-0.812c0.413-0.182,0.819-0.301,1.457-0.301c1.163,0,1.675,0.603,1.675,1.618v2.178
			h-1.029V158.636z M103.926,157.123c-0.182-0.084-0.42-0.141-0.68-0.141c-0.455,0-0.734,0.183-0.734,0.519v0.014
			c0,0.288,0.238,0.456,0.58,0.456c0.498,0,0.834-0.273,0.834-0.658V157.123z"/>
		<path fill="#231F20" d="M108.561,158.636v-0.539c-0.26,0.35-0.617,0.609-1.17,0.609c-0.875,0-1.709-0.687-1.709-1.94v-0.014
			c0-1.254,0.819-1.94,1.709-1.94c0.567,0,0.918,0.26,1.17,0.561v-1.849h1.064v5.112H108.561z M108.574,156.752
			c0-0.624-0.413-1.037-0.91-1.037c-0.498,0-0.918,0.406-0.918,1.037v0.014c0,0.623,0.42,1.037,0.918,1.037
			c0.497,0,0.91-0.414,0.91-1.037V156.752z"/>
		<path fill="#231F20" d="M112.417,158.72c-1.163,0-2.024-0.861-2.024-1.94v-0.014c0-1.078,0.869-1.954,2.039-1.954
			c1.162,0,2.023,0.861,2.023,1.94v0.014C114.455,157.845,113.586,158.72,112.417,158.72z M113.404,156.766
			c0-0.553-0.398-1.036-0.987-1.036c-0.608,0-0.974,0.469-0.974,1.022v0.014c0,0.554,0.397,1.037,0.986,1.037
			c0.608,0,0.975-0.47,0.975-1.023V156.766z"/>
	</g>
</g>
<g>
	<g>
		<path fill="#696C6D" d="M24.288,213.607c0,2.617-2.122,4.74-4.739,4.74c-2.617,0-4.739-2.123-4.739-4.74s2.122-4.738,4.739-4.738
			C22.166,208.869,24.288,210.99,24.288,213.607"/>
		<path fill="#FFFFFF" d="M18.702,215.662l-1.316-1.338c-0.048-0.049-0.047-0.129,0.001-0.178l0.693-0.685
			c0.048-0.049,0.128-0.047,0.178,0.002l0.451,0.461c0.049,0.052,0.129,0.052,0.178,0l1.958-1.959c0.049-0.047,0.128-0.047,0.177,0
			l0.687,0.688c0.049,0.049,0.049,0.129,0,0.178l-2.829,2.828C18.831,215.711,18.751,215.711,18.702,215.662"/>
	</g>
	<g enable-background="new    ">
		<path fill="#231F20" d="M33.41,215.977l-0.448-1.1h-2.073l-0.448,1.1h-1.1l2.101-4.938h0.995l2.101,4.938H33.41z M31.925,212.335
			l-0.651,1.59h1.303L31.925,212.335z"/>
		<path fill="#231F20" d="M36.776,216.061c-1.127,0-1.954-0.867-1.954-1.938v-0.015c0-1.07,0.82-1.955,1.968-1.955
			c0.708,0,1.148,0.238,1.499,0.633l-0.651,0.699c-0.238-0.252-0.477-0.414-0.854-0.414c-0.532,0-0.911,0.471-0.911,1.022v0.015
			c0,0.574,0.371,1.037,0.953,1.037c0.357,0,0.602-0.153,0.861-0.398l0.624,0.63C37.946,215.773,37.525,216.061,36.776,216.061z"/>
		<path fill="#231F20" d="M40.668,216.061c-1.127,0-1.954-0.867-1.954-1.938v-0.015c0-1.07,0.82-1.955,1.968-1.955
			c0.708,0,1.148,0.238,1.499,0.633l-0.651,0.699c-0.238-0.252-0.477-0.414-0.854-0.414c-0.532,0-0.911,0.471-0.911,1.022v0.015
			c0,0.574,0.371,1.037,0.953,1.037c0.357,0,0.602-0.153,0.861-0.398l0.624,0.63C41.838,215.773,41.417,216.061,40.668,216.061z"/>
		<path fill="#231F20" d="M46.276,214.471h-2.613c0.105,0.483,0.441,0.735,0.917,0.735c0.357,0,0.617-0.112,0.911-0.386l0.609,0.539
			c-0.35,0.436-0.854,0.701-1.534,0.701c-1.128,0-1.961-0.791-1.961-1.94v-0.015c0-1.07,0.764-1.953,1.856-1.953
			c1.253,0,1.828,0.974,1.828,2.037v0.016C46.29,214.311,46.283,214.373,46.276,214.471z M44.462,213.007
			c-0.441,0-0.729,0.315-0.812,0.8h1.604C45.19,213.329,44.911,213.007,44.462,213.007z"/>
		<path fill="#231F20" d="M48.396,216.047c-0.525,0-1.114-0.176-1.611-0.566l0.455-0.701c0.406,0.296,0.833,0.449,1.184,0.449
			c0.308,0,0.448-0.111,0.448-0.279v-0.016c0-0.229-0.364-0.309-0.777-0.435c-0.525-0.153-1.121-0.399-1.121-1.128v-0.014
			c0-0.766,0.616-1.191,1.373-1.191c0.476,0,0.994,0.161,1.4,0.436l-0.406,0.734c-0.371-0.217-0.742-0.35-1.015-0.35
			c-0.259,0-0.393,0.111-0.393,0.259v0.014c0,0.21,0.357,0.31,0.764,0.448c0.525,0.176,1.134,0.428,1.134,1.113v0.015
			C49.831,215.668,49.208,216.047,48.396,216.047z"/>
		<path fill="#231F20" d="M52.435,216.061c-1.163,0-2.024-0.859-2.024-1.938v-0.015c0-1.078,0.869-1.955,2.038-1.955
			c1.163,0,2.024,0.861,2.024,1.94v0.015C54.473,215.186,53.604,216.061,52.435,216.061z M53.422,214.105
			c0-0.554-0.399-1.035-0.987-1.035c-0.609,0-0.974,0.469-0.974,1.021v0.015c0,0.555,0.399,1.037,0.987,1.037
			c0.609,0,0.974-0.471,0.974-1.022V214.105z"/>
		<path fill="#231F20" d="M59.54,215.977v-0.406c-0.259,0.287-0.616,0.479-1.134,0.479c-0.708,0-1.289-0.404-1.289-1.146v-0.017
			c0-0.817,0.624-1.196,1.513-1.196c0.378,0,0.651,0.062,0.917,0.153v-0.062c0-0.441-0.273-0.688-0.806-0.688
			c-0.406,0-0.693,0.077-1.037,0.203l-0.266-0.812c0.413-0.183,0.819-0.301,1.457-0.301c1.163,0,1.674,0.604,1.674,1.617v2.18H59.54
			V215.977z M59.561,214.464c-0.182-0.084-0.42-0.141-0.679-0.141c-0.455,0-0.735,0.183-0.735,0.519v0.014
			c0,0.289,0.238,0.457,0.581,0.457c0.498,0,0.833-0.272,0.833-0.658V214.464z"/>
		<path fill="#231F20" d="M65.994,216.061c-1.443,0-2.515-1.111-2.515-2.521v-0.015c0-1.395,1.051-2.534,2.557-2.534
			c0.924,0,1.478,0.308,1.933,0.756l-0.687,0.792c-0.378-0.344-0.764-0.555-1.254-0.555c-0.826,0-1.421,0.688-1.421,1.527v0.014
			c0,0.841,0.581,1.541,1.421,1.541c0.561,0,0.904-0.226,1.289-0.573l0.686,0.692C67.5,215.725,66.939,216.061,65.994,216.061z"/>
		<path fill="#231F20" d="M70.95,215.977v-0.406c-0.259,0.287-0.616,0.479-1.134,0.479c-0.708,0-1.289-0.404-1.289-1.146v-0.017
			c0-0.817,0.624-1.196,1.513-1.196c0.378,0,0.651,0.062,0.917,0.153v-0.062c0-0.441-0.273-0.688-0.806-0.688
			c-0.406,0-0.693,0.077-1.037,0.203l-0.266-0.812c0.413-0.183,0.819-0.301,1.457-0.301c1.163,0,1.674,0.604,1.674,1.617v2.18H70.95
			V215.977z M70.971,214.464c-0.182-0.084-0.42-0.141-0.679-0.141c-0.455,0-0.735,0.183-0.735,0.519v0.014
			c0,0.289,0.238,0.457,0.581,0.457c0.498,0,0.833-0.272,0.833-0.658V214.464z"/>
		<path fill="#231F20" d="M74.127,216.04c-0.651,0-1.093-0.261-1.093-1.128v-1.779h-0.448v-0.91h0.448v-0.959h1.064v0.959h0.883
			v0.91h-0.883v1.604c0,0.246,0.105,0.365,0.343,0.365c0.196,0,0.371-0.051,0.525-0.135v0.854
			C74.744,215.955,74.484,216.04,74.127,216.04z"/>
		<path fill="#231F20" d="M77.964,215.977v-0.406c-0.259,0.287-0.616,0.479-1.134,0.479c-0.708,0-1.289-0.404-1.289-1.146v-0.017
			c0-0.817,0.624-1.196,1.513-1.196c0.378,0,0.651,0.062,0.917,0.153v-0.062c0-0.441-0.273-0.688-0.806-0.688
			c-0.406,0-0.693,0.077-1.037,0.203l-0.266-0.812c0.413-0.183,0.819-0.301,1.457-0.301c1.163,0,1.674,0.604,1.674,1.617v2.18
			h-1.029V215.977z M77.985,214.464c-0.182-0.084-0.42-0.141-0.679-0.141c-0.455,0-0.735,0.183-0.735,0.519v0.014
			c0,0.289,0.238,0.457,0.581,0.457c0.498,0,0.833-0.272,0.833-0.658V214.464z M76.878,211.811l0.792-1.24l0.917,0.398l-0.896,0.842
			H76.878L76.878,211.811z"/>
		<path fill="#231F20" d="M79.958,215.977v-5.11h1.064v5.11H79.958z"/>
		<path fill="#231F20" d="M83.865,216.061c-1.163,0-2.024-0.859-2.024-1.938v-0.015c0-1.078,0.869-1.955,2.038-1.955
			c1.163,0,2.024,0.861,2.024,1.94v0.015C85.903,215.186,85.034,216.061,83.865,216.061z M84.852,214.105
			c0-0.554-0.399-1.035-0.987-1.035c-0.609,0-0.974,0.469-0.974,1.021v0.015c0,0.555,0.399,1.037,0.987,1.037
			c0.609,0,0.974-0.471,0.974-1.022V214.105z"/>
		<path fill="#231F20" d="M88.352,217.111c-0.607,0-1.184-0.143-1.66-0.395l0.365-0.798c0.385,0.217,0.771,0.345,1.269,0.345
			c0.729,0,1.069-0.353,1.069-1.022v-0.183c-0.312,0.379-0.658,0.607-1.225,0.607c-0.876,0-1.668-0.639-1.668-1.751V213.9
			c0-1.119,0.807-1.752,1.668-1.752c0.58,0,0.924,0.246,1.211,0.562v-0.488h1.064v2.904
			C90.445,216.544,89.745,217.111,88.352,217.111z M89.395,213.902c0-0.51-0.396-0.867-0.916-0.867s-0.912,0.357-0.912,0.867v0.015
			c0,0.519,0.395,0.869,0.912,0.869c0.519,0,0.916-0.356,0.916-0.869V213.902z"/>
		<path fill="#231F20" d="M93.236,216.061c-1.162,0-2.023-0.859-2.023-1.938v-0.015c0-1.078,0.869-1.955,2.038-1.955
			c1.163,0,2.024,0.861,2.024,1.94v0.015C95.275,215.186,94.406,216.061,93.236,216.061z M94.225,214.105
			c0-0.554-0.396-1.035-0.986-1.035c-0.608,0-0.975,0.469-0.975,1.021v0.015c0,0.555,0.399,1.037,0.987,1.037
			c0.608,0,0.974-0.471,0.974-1.022V214.105z"/>
	</g>
</g>
<g>
	<g>
		<path fill="#696C6D" d="M24.288,232.439c0,2.617-2.122,4.735-4.739,4.735c-2.617,0-4.739-2.118-4.739-4.735
			c0-2.619,2.122-4.74,4.739-4.74C22.166,227.699,24.288,229.82,24.288,232.439"/>
		<path fill="#FFFFFF" d="M18.702,234.492l-1.316-1.336c-0.048-0.049-0.047-0.129,0.001-0.178l0.693-0.685
			c0.048-0.049,0.128-0.049,0.178,0.002l0.451,0.459c0.049,0.054,0.129,0.054,0.178,0l1.958-1.957c0.049-0.049,0.128-0.049,0.177,0
			l0.687,0.688c0.049,0.05,0.049,0.128,0,0.177l-2.829,2.83C18.831,234.543,18.751,234.543,18.702,234.492"/>
	</g>
	<g enable-background="new    ">
		<path fill="#231F20" d="M33.41,234.809l-0.448-1.1h-2.073l-0.448,1.1h-1.1l2.101-4.938h0.995l2.101,4.938H33.41z M31.925,231.167
			l-0.651,1.59h1.303L31.925,231.167z"/>
		<path fill="#231F20" d="M35.228,234.809v-5.11h1.064v5.11H35.228L35.228,234.809z"/>
		<path fill="#231F20" d="M41.958,234.809v-2.094c0-0.505-0.224-0.764-0.623-0.764s-0.645,0.259-0.645,0.764v2.094h-1.064v-2.094
			c0-0.505-0.224-0.764-0.624-0.764c-0.399,0-0.644,0.259-0.644,0.764v2.094h-1.065v-3.754h1.065v0.532
			c0.245-0.315,0.567-0.603,1.106-0.603c0.49,0,0.861,0.217,1.058,0.596c0.329-0.387,0.721-0.596,1.232-0.596
			c0.792,0,1.268,0.477,1.268,1.38v2.444H41.958L41.958,234.809z"/>
		<path fill="#231F20" d="M46.142,234.809v-0.406c-0.259,0.287-0.616,0.479-1.134,0.479c-0.708,0-1.289-0.404-1.289-1.146v-0.017
			c0-0.817,0.624-1.196,1.513-1.196c0.378,0,0.651,0.062,0.917,0.153v-0.062c0-0.441-0.273-0.688-0.806-0.688
			c-0.406,0-0.693,0.077-1.037,0.203l-0.266-0.812c0.413-0.183,0.819-0.301,1.457-0.301c1.163,0,1.674,0.604,1.674,1.617v2.18
			h-1.029V234.809z M46.163,233.296c-0.182-0.084-0.42-0.142-0.679-0.142c-0.455,0-0.735,0.184-0.735,0.52v0.014
			c0,0.289,0.238,0.457,0.581,0.457c0.498,0,0.833-0.272,0.833-0.658V233.296z"/>
		<path fill="#231F20" d="M49.859,234.893c-1.127,0-1.954-0.867-1.954-1.938v-0.015c0-1.07,0.82-1.955,1.968-1.955
			c0.708,0,1.148,0.238,1.499,0.633l-0.651,0.699c-0.238-0.252-0.477-0.414-0.854-0.414c-0.532,0-0.911,0.471-0.911,1.022v0.015
			c0,0.574,0.371,1.037,0.953,1.037c0.357,0,0.602-0.153,0.861-0.398l0.624,0.63C51.029,234.605,50.608,234.893,49.859,234.893z"/>
		<path fill="#231F20" d="M55.467,233.303h-2.613c0.105,0.483,0.441,0.735,0.917,0.735c0.357,0,0.617-0.112,0.911-0.386l0.609,0.539
			c-0.35,0.436-0.854,0.701-1.534,0.701c-1.128,0-1.961-0.791-1.961-1.94v-0.015c0-1.07,0.764-1.953,1.856-1.953
			c1.253,0,1.828,0.974,1.828,2.037v0.016C55.48,233.143,55.474,233.205,55.467,233.303z M53.653,231.839
			c-0.441,0-0.729,0.315-0.812,0.8h1.604C54.381,232.161,54.101,231.839,53.653,231.839z"/>
		<path fill="#231F20" d="M58.644,234.809v-2.094c0-0.505-0.238-0.764-0.645-0.764s-0.665,0.259-0.665,0.764v2.094H56.27v-3.754
			h1.065v0.532c0.245-0.315,0.56-0.603,1.1-0.603c0.805,0,1.274,0.531,1.274,1.394v2.431H58.644z"/>
		<path fill="#231F20" d="M62.83,234.809v-0.406c-0.259,0.287-0.616,0.479-1.134,0.479c-0.708,0-1.289-0.404-1.289-1.146v-0.017
			c0-0.817,0.624-1.196,1.513-1.196c0.378,0,0.651,0.062,0.917,0.153v-0.062c0-0.441-0.273-0.688-0.806-0.688
			c-0.406,0-0.693,0.077-1.037,0.203l-0.266-0.812c0.413-0.183,0.819-0.301,1.457-0.301c1.163,0,1.674,0.604,1.674,1.617v2.18H62.83
			V234.809z M62.851,233.296c-0.182-0.084-0.42-0.142-0.679-0.142c-0.455,0-0.735,0.184-0.735,0.52v0.014
			c0,0.289,0.238,0.457,0.581,0.457c0.498,0,0.833-0.272,0.833-0.658V233.296z"/>
		<path fill="#231F20" d="M69.439,234.809v-2.094c0-0.505-0.224-0.764-0.623-0.764s-0.645,0.259-0.645,0.764v2.094h-1.064v-2.094
			c0-0.505-0.224-0.764-0.624-0.764c-0.399,0-0.644,0.259-0.644,0.764v2.094h-1.065v-3.754h1.065v0.532
			c0.245-0.315,0.567-0.603,1.106-0.603c0.49,0,0.861,0.217,1.058,0.596c0.329-0.387,0.721-0.596,1.232-0.596
			c0.792,0,1.268,0.477,1.268,1.38v2.444H69.439L69.439,234.809z"/>
		<path fill="#231F20" d="M71.445,230.643v-0.944h1.121v0.944H71.445z M71.474,234.809v-3.754h1.064v3.754H71.474z"/>
		<path fill="#231F20" d="M77.027,233.303h-2.613c0.105,0.483,0.441,0.735,0.917,0.735c0.357,0,0.617-0.112,0.911-0.386l0.609,0.539
			c-0.35,0.436-0.854,0.701-1.534,0.701c-1.128,0-1.961-0.791-1.961-1.94v-0.015c0-1.07,0.764-1.953,1.856-1.953
			c1.253,0,1.828,0.974,1.828,2.037v0.016C77.041,233.143,77.034,233.205,77.027,233.303z M75.213,231.839
			c-0.441,0-0.729,0.315-0.812,0.8h1.604C75.941,232.161,75.661,231.839,75.213,231.839z"/>
		<path fill="#231F20" d="M80.204,234.809v-2.094c0-0.505-0.238-0.764-0.645-0.764c-0.407,0-0.665,0.259-0.665,0.764v2.094H77.83
			v-3.754h1.065v0.532c0.245-0.315,0.56-0.603,1.1-0.603c0.805,0,1.274,0.531,1.274,1.394v2.431H80.204z"/>
		<path fill="#231F20" d="M83.458,234.872c-0.651,0-1.093-0.261-1.093-1.128v-1.779h-0.448v-0.91h0.448v-0.96h1.064v0.96h0.883v0.91
			H83.43v1.604c0,0.246,0.105,0.365,0.343,0.365c0.196,0,0.371-0.051,0.525-0.135v0.854
			C84.075,234.787,83.815,234.872,83.458,234.872z"/>
		<path fill="#231F20" d="M86.832,234.893c-1.162,0-2.024-0.859-2.024-1.938v-0.015c0-1.078,0.869-1.955,2.038-1.955
			c1.164,0,2.025,0.861,2.025,1.94v0.015C88.871,234.018,88.002,234.893,86.832,234.893z M87.82,232.938
			c0-0.553-0.399-1.035-0.988-1.035c-0.609,0-0.973,0.47-0.973,1.021v0.014c0,0.556,0.399,1.037,0.987,1.037
			c0.609,0,0.975-0.47,0.975-1.021V232.938L87.82,232.938z"/>
		<path fill="#231F20" d="M92.424,231.461l-0.756-0.609c0.482-0.658,0.953-1.016,1.828-1.016c1.043,0,1.688,0.604,1.688,1.52
			c0,0.819-0.42,1.233-1.289,1.905l-0.797,0.616h2.135v0.932h-3.627v-0.854l1.631-1.338c0.609-0.504,0.85-0.771,0.85-1.178
			c0-0.412-0.271-0.638-0.656-0.638C93.048,230.803,92.789,231.014,92.424,231.461z"/>
		<path fill="#231F20" d="M96.395,229.906h3.013v0.945h-2.089l-0.057,0.848c0.196-0.051,0.371-0.084,0.646-0.084
			c0.967,0,1.716,0.462,1.716,1.574c0,1.045-0.733,1.703-1.86,1.703c-0.785,0-1.359-0.281-1.838-0.735l0.652-0.777
			c0.371,0.336,0.732,0.532,1.169,0.532c0.505,0,0.817-0.245,0.817-0.688c0-0.428-0.342-0.672-0.866-0.672
			c-0.31,0-0.591,0.084-0.819,0.182l-0.623-0.412L96.395,229.906z"/>
		<path fill="#231F20" d="M103.703,229.221l-3.104,6.484h-0.902l3.103-6.484H103.703z"/>
		<path fill="#231F20" d="M108.021,234.809v-3.201l-1.379,2.097h-0.027l-1.366-2.073v3.182h-1.058v-4.902h1.162l1.289,2.072
			l1.289-2.072h1.16v4.902h-1.07V234.809L108.021,234.809z"/>
		<path fill="#231F20" d="M112.6,234.809h-2.332v-4.9h2.275c1.002,0,1.618,0.496,1.618,1.268v0.016c0,0.554-0.294,0.859-0.646,1.058
			c0.566,0.217,0.918,0.546,0.918,1.205v0.014C114.434,234.359,113.706,234.809,112.6,234.809z M113.09,231.355
			c0-0.322-0.252-0.504-0.707-0.504h-1.064v1.034h0.994c0.479,0,0.777-0.151,0.777-0.518V231.355z M113.363,233.316
			c0-0.33-0.246-0.532-0.799-0.532h-1.248v1.079h1.283c0.477,0,0.764-0.168,0.764-0.532V233.316z"/>
	</g>
</g>
<g>
	<g>
		<path fill="#696C6D" d="M24.284,252.072c0,2.617-2.122,4.738-4.739,4.738c-2.617,0-4.739-2.121-4.739-4.738
			c0-2.619,2.122-4.74,4.739-4.74C22.162,247.332,24.284,249.453,24.284,252.072"/>
		<path fill="#FFFFFF" d="M18.698,254.125l-1.316-1.336c-0.049-0.051-0.047-0.129,0.001-0.178l0.693-0.687
			c0.048-0.047,0.128-0.047,0.178,0.007l0.451,0.459c0.049,0.049,0.129,0.049,0.178,0l1.958-1.957c0.048-0.052,0.128-0.052,0.176,0
			l0.688,0.688c0.048,0.049,0.048,0.127,0,0.176l-2.83,2.83C18.827,254.176,18.747,254.176,18.698,254.125"/>
	</g>
	<g enable-background="new    ">
		<path fill="#231F20" d="M32.275,253.318h-0.952l-1.982-4.938h1.191l1.282,3.452l1.281-3.452h1.163L32.275,253.318z"/>
		<path fill="#231F20" d="M37.897,251.777h-2.613c0.105,0.481,0.441,0.733,0.917,0.733c0.357,0,0.617-0.11,0.911-0.385l0.609,0.539
			c-0.35,0.437-0.854,0.7-1.534,0.7c-1.128,0-1.961-0.791-1.961-1.94v-0.014c0-1.071,0.764-1.954,1.856-1.954
			c1.253,0,1.828,0.975,1.828,2.038v0.015C37.911,251.616,37.904,251.68,37.897,251.777z M36.083,250.312
			c-0.441,0-0.729,0.314-0.812,0.799h1.604C36.812,250.636,36.532,250.312,36.083,250.312z"/>
		<path fill="#231F20" d="M40.906,250.572c-0.708,0-1.142,0.428-1.142,1.324v1.387H38.7v-3.754h1.065v0.756
			c0.217-0.518,0.567-0.854,1.197-0.826v1.113H40.906z"/>
		<path fill="#231F20" d="M41.647,249.116v-0.945h1.121v0.945H41.647z M41.675,253.283v-3.754h1.064v3.754H41.675z"/>
		<path fill="#231F20" d="M45.358,249.018c-0.245,0-0.385,0.127-0.385,0.406v0.146h0.861v0.869h-0.847v2.844h-1.065v-2.844h-0.441
			v-0.875h0.441v-0.238c0-0.826,0.414-1.205,1.163-1.205c0.336,0,0.561,0.042,0.756,0.105v0.883
			C45.687,249.053,45.54,249.018,45.358,249.018z"/>
		<path fill="#231F20" d="M46.435,249.116v-0.945h1.121v0.945H46.435z M46.463,253.283v-3.754h1.064v3.754H46.463z"/>
		<path fill="#231F20" d="M50.3,253.367c-1.127,0-1.954-0.868-1.954-1.94v-0.014c0-1.071,0.82-1.954,1.968-1.954
			c0.708,0,1.148,0.238,1.499,0.631l-0.651,0.7c-0.238-0.252-0.477-0.413-0.854-0.413c-0.532,0-0.911,0.469-0.911,1.021v0.015
			c0,0.573,0.371,1.037,0.953,1.037c0.357,0,0.602-0.154,0.861-0.399l0.624,0.631C51.47,253.08,51.049,253.367,50.3,253.367z"/>
		<path fill="#231F20" d="M54.724,253.283v-0.406c-0.259,0.287-0.616,0.477-1.134,0.477c-0.708,0-1.289-0.404-1.289-1.146v-0.016
			c0-0.818,0.624-1.196,1.513-1.196c0.378,0,0.651,0.062,0.917,0.153v-0.062c0-0.439-0.273-0.688-0.806-0.688
			c-0.406,0-0.693,0.076-1.037,0.203l-0.266-0.812c0.413-0.183,0.819-0.301,1.457-0.301c1.163,0,1.674,0.603,1.674,1.616v2.18
			L54.724,253.283L54.724,253.283z M54.745,251.771c-0.182-0.084-0.42-0.143-0.679-0.143c-0.455,0-0.735,0.184-0.735,0.52v0.015
			c0,0.288,0.238,0.456,0.581,0.456c0.498,0,0.833-0.273,0.833-0.658V251.771z"/>
		<path fill="#231F20" d="M58.44,253.367c-1.127,0-1.954-0.868-1.954-1.94v-0.014c0-1.071,0.82-1.954,1.968-1.954
			c0.708,0,1.148,0.238,1.499,0.631l-0.651,0.7c-0.238-0.252-0.477-0.413-0.854-0.413c-0.532,0-0.911,0.469-0.911,1.021v0.015
			c0,0.573,0.371,1.037,0.953,1.037c0.357,0,0.602-0.154,0.861-0.399l0.624,0.631C59.61,253.08,59.19,253.367,58.44,253.367z"/>
		<path fill="#231F20" d="M60.687,249.116v-0.945h1.121v0.945H60.687z M60.715,253.283v-3.754h1.064v3.754H60.715z"/>
		<path fill="#231F20" d="M64.622,253.367c-1.163,0-2.024-0.861-2.024-1.94v-0.014c0-1.078,0.869-1.954,2.038-1.954
			c1.163,0,2.024,0.861,2.024,1.939v0.015C66.66,252.492,65.791,253.367,64.622,253.367z M65.609,251.413
			c0-0.554-0.399-1.036-0.987-1.036c-0.609,0-0.974,0.469-0.974,1.021v0.015c0,0.554,0.399,1.037,0.987,1.037
			c0.609,0,0.974-0.47,0.974-1.023V251.413z M64.222,249.116l0.792-1.24l0.917,0.399l-0.896,0.841H64.222z"/>
		<path fill="#231F20" d="M69.802,253.283v-2.094c0-0.506-0.238-0.766-0.645-0.766c-0.407,0-0.665,0.26-0.665,0.766v2.094h-1.065
			v-3.754h1.065v0.531c0.245-0.314,0.56-0.604,1.1-0.604c0.805,0,1.274,0.532,1.274,1.395v2.432H69.802z"/>
		<path fill="#231F20" d="M76.123,253.354c-0.567,0-0.917-0.26-1.169-0.561v0.49h-1.065v-5.112h1.065v1.897
			c0.259-0.352,0.616-0.609,1.169-0.609c0.875,0,1.709,0.688,1.709,1.939v0.015C77.832,252.667,77.012,253.354,76.123,253.354z
			 M76.767,251.398c0-0.623-0.42-1.037-0.917-1.037c-0.498,0-0.911,0.414-0.911,1.037v0.015c0,0.623,0.413,1.037,0.911,1.037
			c0.497,0,0.917-0.406,0.917-1.037V251.398z"/>
		<path fill="#231F20" d="M78.634,249.116v-0.945h1.121v0.945H78.634z M78.663,253.283v-3.754h1.064v3.754H78.663z"/>
		<path fill="#231F20" d="M82.569,253.367c-1.163,0-2.024-0.861-2.024-1.94v-0.014c0-1.078,0.869-1.954,2.038-1.954
			c1.163,0,2.024,0.861,2.024,1.939v0.015C84.607,252.492,83.739,253.367,82.569,253.367z M83.557,251.413
			c0-0.554-0.399-1.036-0.987-1.036c-0.609,0-0.974,0.469-0.974,1.021v0.015c0,0.554,0.399,1.037,0.987,1.037
			c0.609,0,0.974-0.47,0.974-1.023V251.413z"/>
		<path fill="#231F20" d="M90.039,253.283v-2.094c0-0.506-0.225-0.766-0.623-0.766s-0.645,0.26-0.645,0.766v2.094h-1.064v-2.094
			c0-0.506-0.225-0.766-0.623-0.766s-0.644,0.26-0.644,0.766v2.094h-1.065v-3.754h1.065v0.531c0.246-0.314,0.567-0.604,1.107-0.604
			c0.49,0,0.861,0.217,1.057,0.598c0.33-0.388,0.724-0.598,1.232-0.598c0.792,0,1.27,0.479,1.27,1.38v2.444L90.039,253.283
			L90.039,253.283z"/>
		<path fill="#231F20" d="M95.514,251.777H92.9c0.104,0.481,0.439,0.733,0.918,0.733c0.355,0,0.615-0.11,0.91-0.385l0.607,0.539
			c-0.352,0.437-0.854,0.7-1.531,0.7c-1.131,0-1.964-0.791-1.964-1.94v-0.014c0-1.071,0.765-1.954,1.856-1.954
			c1.254,0,1.826,0.975,1.826,2.038v0.015C95.527,251.616,95.52,251.68,95.514,251.777z M93.699,250.312
			c-0.441,0-0.729,0.314-0.812,0.799h1.604C94.428,250.636,94.146,250.312,93.699,250.312z M93.271,249.116l0.791-1.24l0.918,0.399
			l-0.896,0.841H93.271z"/>
		<path fill="#231F20" d="M97.584,253.348c-0.65,0-1.093-0.261-1.093-1.129v-1.779h-0.448v-0.91h0.448v-0.959h1.063v0.959h0.883
			v0.91h-0.883v1.604c0,0.245,0.104,0.364,0.344,0.364c0.197,0,0.371-0.051,0.523-0.135v0.854
			C98.2,253.262,97.941,253.348,97.584,253.348z"/>
		<path fill="#231F20" d="M101.428,250.572c-0.707,0-1.143,0.428-1.143,1.324v1.387h-1.064v-3.754h1.064v0.756
			c0.217-0.518,0.566-0.854,1.197-0.826v1.113H101.428z"/>
		<path fill="#231F20" d="M102.168,249.116v-0.945h1.121v0.945H102.168z M102.195,253.283v-3.754h1.063v3.754H102.195z"/>
		<path fill="#231F20" d="M106.033,253.367c-1.129,0-1.955-0.868-1.955-1.94v-0.014c0-1.071,0.82-1.954,1.969-1.954
			c0.707,0,1.148,0.238,1.499,0.631l-0.651,0.7c-0.236-0.252-0.477-0.413-0.854-0.413c-0.532,0-0.911,0.469-0.911,1.021v0.015
			c0,0.573,0.371,1.037,0.953,1.037c0.356,0,0.603-0.154,0.86-0.399l0.623,0.631C107.203,253.08,106.782,253.367,106.033,253.367z"
			/>
		<path fill="#231F20" d="M110.457,253.283v-0.406c-0.259,0.287-0.616,0.477-1.135,0.477c-0.707,0-1.289-0.404-1.289-1.146v-0.016
			c0-0.818,0.624-1.196,1.514-1.196c0.378,0,0.651,0.062,0.918,0.153v-0.062c0-0.439-0.273-0.688-0.807-0.688
			c-0.406,0-0.693,0.076-1.036,0.203l-0.267-0.812c0.414-0.183,0.818-0.301,1.457-0.301c1.162,0,1.674,0.603,1.674,1.616v2.18
			L110.457,253.283L110.457,253.283z M110.479,251.771c-0.183-0.084-0.42-0.143-0.68-0.143c-0.455,0-0.734,0.184-0.734,0.52v0.015
			c0,0.288,0.237,0.456,0.58,0.456c0.498,0,0.834-0.273,0.834-0.658V251.771z"/>
	</g>
	<g enable-background="new    ">
		<path fill="#231F20" d="M32.359,261.684v-0.539c-0.259,0.352-0.616,0.609-1.169,0.609c-0.875,0-1.709-0.688-1.709-1.939V259.8
			c0-1.254,0.819-1.94,1.709-1.94c0.567,0,0.917,0.262,1.169,0.562v-1.849h1.065v5.11H32.359z M32.374,259.8
			c0-0.624-0.413-1.036-0.911-1.036c-0.497,0-0.917,0.405-0.917,1.036v0.015c0,0.623,0.42,1.037,0.917,1.037
			c0.498,0,0.911-0.414,0.911-1.037V259.8z"/>
		<path fill="#231F20" d="M37.862,260.178H35.25c0.105,0.483,0.441,0.735,0.917,0.735c0.357,0,0.617-0.112,0.911-0.386l0.609,0.539
			c-0.35,0.436-0.854,0.701-1.534,0.701c-1.128,0-1.961-0.791-1.961-1.94v-0.015c0-1.07,0.764-1.953,1.856-1.953
			c1.253,0,1.828,0.974,1.828,2.037v0.016C37.876,260.018,37.869,260.08,37.862,260.178z M36.048,258.714
			c-0.441,0-0.729,0.315-0.812,0.8h1.604C36.776,259.036,36.497,258.714,36.048,258.714z"/>
		<path fill="#231F20" d="M44.253,260.178H41.64c0.105,0.483,0.441,0.735,0.917,0.735c0.357,0,0.617-0.112,0.911-0.386l0.609,0.539
			c-0.35,0.436-0.854,0.701-1.534,0.701c-1.128,0-1.961-0.791-1.961-1.94v-0.015c0-1.07,0.764-1.953,1.856-1.953
			c1.253,0,1.828,0.974,1.828,2.037v0.016C44.267,260.018,44.26,260.08,44.253,260.178z M42.439,258.714
			c-0.441,0-0.729,0.315-0.812,0.8h1.604C43.167,259.036,42.887,258.714,42.439,258.714z"/>
		<path fill="#231F20" d="M44.944,261.684v-1.121h1.135v1.121H44.944z"/>
		<path fill="#231F20" d="M48.501,257.418c-0.245,0-0.385,0.126-0.385,0.406v0.146h0.861v0.867H48.13v2.846h-1.065v-2.846h-0.441
			v-0.875h0.441v-0.236c0-0.826,0.414-1.205,1.163-1.205c0.336,0,0.561,0.041,0.757,0.104v0.883
			C48.83,257.453,48.683,257.418,48.501,257.418z"/>
		<path fill="#231F20" d="M49.578,257.518v-0.944h1.121v0.944H49.578z M49.606,261.684v-3.754h1.064v3.754H49.606z"/>
		<path fill="#231F20" d="M53.877,258.973c-0.708,0-1.142,0.428-1.142,1.324v1.387H51.67v-3.754h1.065v0.756
			c0.217-0.518,0.567-0.854,1.197-0.826v1.113H53.877L53.877,258.973z"/>
		<path fill="#231F20" d="M59.261,261.684v-2.094c0-0.505-0.224-0.764-0.623-0.764c-0.399,0-0.645,0.259-0.645,0.764v2.094h-1.064
			v-2.094c0-0.505-0.224-0.764-0.624-0.764c-0.399,0-0.644,0.259-0.644,0.764v2.094h-1.065v-3.754h1.065v0.532
			c0.245-0.315,0.567-0.603,1.106-0.603c0.49,0,0.861,0.217,1.058,0.596c0.329-0.387,0.721-0.596,1.232-0.596
			c0.792,0,1.268,0.477,1.268,1.38v2.444H59.261L59.261,261.684z"/>
		<path fill="#231F20" d="M63.446,261.684v-0.406c-0.259,0.287-0.616,0.479-1.134,0.479c-0.708,0-1.289-0.404-1.289-1.146v-0.017
			c0-0.817,0.624-1.196,1.513-1.196c0.378,0,0.651,0.062,0.917,0.153v-0.062c0-0.441-0.273-0.688-0.806-0.688
			c-0.406,0-0.693,0.077-1.037,0.203l-0.266-0.812c0.413-0.183,0.819-0.301,1.457-0.301c1.163,0,1.674,0.604,1.674,1.617v2.18
			h-1.029V261.684L63.446,261.684z M63.467,260.171c-0.182-0.084-0.42-0.142-0.679-0.142c-0.455,0-0.735,0.184-0.735,0.52v0.014
			c0,0.289,0.238,0.457,0.581,0.457c0.498,0,0.833-0.272,0.833-0.658V260.171z"/>
		<path fill="#231F20" d="M69.689,261.684v-0.406c-0.259,0.287-0.616,0.479-1.134,0.479c-0.708,0-1.289-0.404-1.289-1.146v-0.017
			c0-0.817,0.624-1.196,1.513-1.196c0.378,0,0.651,0.062,0.917,0.153v-0.062c0-0.441-0.273-0.688-0.806-0.688
			c-0.406,0-0.693,0.077-1.037,0.203l-0.266-0.812c0.413-0.183,0.819-0.301,1.457-0.301c1.163,0,1.674,0.604,1.674,1.617v2.18
			h-1.029V261.684z M69.71,260.171c-0.182-0.084-0.42-0.142-0.679-0.142c-0.455,0-0.735,0.184-0.735,0.52v0.014
			c0,0.289,0.238,0.457,0.581,0.457c0.498,0,0.833-0.272,0.833-0.658V260.171z"/>
		<path fill="#231F20" d="M74.009,261.684v-2.094c0-0.505-0.238-0.764-0.645-0.764c-0.407,0-0.665,0.259-0.665,0.764v2.094h-1.065
			v-3.754h1.065v0.532c0.245-0.315,0.56-0.603,1.1-0.603c0.805,0,1.274,0.531,1.274,1.394v2.431H74.009L74.009,261.684z"/>
		<path fill="#231F20" d="M77.263,261.747c-0.651,0-1.093-0.261-1.093-1.128v-1.779h-0.448v-0.91h0.448v-0.959h1.064v0.959h0.883
			v0.91h-0.883v1.604c0,0.246,0.105,0.365,0.343,0.365c0.196,0,0.371-0.051,0.525-0.135v0.854
			C77.879,261.662,77.62,261.747,77.263,261.747z"/>
		<path fill="#231F20" d="M82.283,260.178H79.67c0.105,0.483,0.441,0.735,0.917,0.735c0.357,0,0.617-0.112,0.911-0.386l0.609,0.539
			c-0.35,0.436-0.854,0.701-1.534,0.701c-1.128,0-1.961-0.791-1.961-1.94v-0.015c0-1.07,0.764-1.953,1.856-1.953
			c1.253,0,1.828,0.974,1.828,2.037v0.016C82.297,260.018,82.29,260.08,82.283,260.178z M80.469,258.714
			c-0.441,0-0.729,0.315-0.812,0.8h1.604C81.197,259.036,80.917,258.714,80.469,258.714z"/>
		<path fill="#231F20" d="M88.674,260.178h-2.612c0.105,0.483,0.441,0.735,0.917,0.735c0.357,0,0.617-0.112,0.912-0.386l0.608,0.539
			c-0.351,0.436-0.854,0.701-1.534,0.701c-1.127,0-1.961-0.791-1.961-1.94v-0.015c0-1.07,0.764-1.953,1.855-1.953
			c1.254,0,1.828,0.974,1.828,2.037v0.016C88.688,260.018,88.682,260.08,88.674,260.178z M86.859,258.714
			c-0.44,0-0.729,0.315-0.812,0.8h1.604C87.588,259.036,87.309,258.714,86.859,258.714z"/>
		<path fill="#231F20" d="M89.525,261.684v-5.11h1.063v5.11H89.525z"/>
		<path fill="#231F20" d="M95.547,261.754c-0.742,0-1.492-0.26-2.08-0.785l0.639-0.763c0.439,0.364,0.902,0.595,1.463,0.595
			c0.441,0,0.707-0.175,0.707-0.462v-0.014c0-0.273-0.168-0.413-0.985-0.624c-0.987-0.252-1.625-0.525-1.625-1.498v-0.016
			c0-0.891,0.714-1.479,1.716-1.479c0.717,0,1.324,0.225,1.821,0.623l-0.562,0.812c-0.436-0.302-0.861-0.482-1.273-0.482
			c-0.414,0-0.633,0.189-0.633,0.428v0.014c0,0.322,0.211,0.43,1.06,0.646c0.995,0.259,1.558,0.616,1.558,1.473v0.014
			C97.348,261.207,96.604,261.754,95.547,261.754z"/>
		<path fill="#231F20" d="M101.827,261.684l-0.448-1.1h-2.072l-0.449,1.1h-1.1l2.102-4.938h0.994l2.104,4.938H101.827z
			 M100.342,258.042l-0.65,1.59h1.305L100.342,258.042z"/>
		<path fill="#231F20" d="M105.299,257.775v3.908h-1.078v-3.908h-1.492v-0.994h4.062v0.994H105.299z"/>
	</g>
</g>
<g>
	<g>
		<path fill="#696C6D" d="M24.282,270.559c0,2.617-2.122,4.738-4.739,4.738s-4.739-2.121-4.739-4.738c0-2.619,2.122-4.74,4.739-4.74
			S24.282,267.939,24.282,270.559"/>
		<path fill="#FFFFFF" d="M18.696,272.611l-1.316-1.336c-0.049-0.051-0.047-0.129,0.001-0.178l0.693-0.687
			c0.048-0.048,0.128-0.048,0.178,0.004l0.451,0.459c0.049,0.049,0.129,0.049,0.178,0l1.958-1.957c0.049-0.049,0.128-0.049,0.177,0
			l0.687,0.688c0.049,0.049,0.049,0.127,0,0.177l-2.829,2.829C18.825,272.662,18.746,272.662,18.696,272.611"/>
	</g>
	<g enable-background="new    ">
		<path fill="#231F20" d="M31.505,272.998c-0.742,0-1.492-0.26-2.08-0.785l0.638-0.763c0.441,0.364,0.903,0.595,1.464,0.595
			c0.441,0,0.707-0.175,0.707-0.462v-0.015c0-0.272-0.168-0.412-0.987-0.623c-0.988-0.252-1.625-0.525-1.625-1.498v-0.016
			c0-0.891,0.714-1.479,1.716-1.479c0.714,0,1.324,0.224,1.821,0.623l-0.561,0.812c-0.434-0.302-0.861-0.482-1.274-0.482
			c-0.414,0-0.63,0.188-0.63,0.428v0.014c0,0.322,0.21,0.428,1.057,0.646c0.995,0.259,1.555,0.615,1.555,1.471v0.016
			C33.305,272.451,32.562,272.998,31.505,272.998z"/>
		<path fill="#231F20" d="M35.971,273.012c-1.163,0-2.024-0.861-2.024-1.938v-0.015c0-1.078,0.869-1.955,2.038-1.955
			c1.163,0,2.024,0.861,2.024,1.94v0.015C38.009,272.137,37.141,273.012,35.971,273.012z M36.958,271.059
			c0-0.554-0.399-1.037-0.987-1.037c-0.609,0-0.974,0.471-0.974,1.022v0.015c0,0.553,0.399,1.037,0.987,1.037
			c0.609,0,0.974-0.471,0.974-1.022V271.059z"/>
		<path fill="#231F20" d="M41.011,272.998c-0.567,0-0.917-0.26-1.169-0.561v1.609h-1.065v-4.875h1.065v0.539
			c0.259-0.352,0.616-0.607,1.169-0.607c0.875,0,1.709,0.687,1.709,1.938v0.015C42.72,272.312,41.901,272.998,41.011,272.998z
			 M41.656,271.044c0-0.624-0.42-1.037-0.917-1.037c-0.498,0-0.911,0.413-0.911,1.037v0.015c0,0.623,0.413,1.037,0.911,1.037
			c0.497,0,0.917-0.406,0.917-1.037V271.044z"/>
		<path fill="#231F20" d="M45.344,273.012c-1.163,0-2.024-0.861-2.024-1.938v-0.015c0-1.078,0.869-1.955,2.038-1.955
			c1.163,0,2.024,0.861,2.024,1.94v0.015C47.382,272.137,46.514,273.012,45.344,273.012z M46.332,271.059
			c0-0.554-0.399-1.037-0.987-1.037c-0.609,0-0.974,0.471-0.974,1.022v0.015c0,0.553,0.399,1.037,0.987,1.037
			c0.609,0,0.974-0.471,0.974-1.022V271.059z"/>
		<path fill="#231F20" d="M50.356,270.217c-0.708,0-1.142,0.428-1.142,1.324v1.387h-1.065v-3.754h1.065v0.756
			c0.217-0.518,0.567-0.854,1.197-0.826v1.113H50.356L50.356,270.217z"/>
		<path fill="#231F20" d="M52.344,272.991c-0.651,0-1.093-0.261-1.093-1.128v-1.779h-0.448v-0.91h0.448v-0.96h1.064v0.96h0.883v0.91
			h-0.883v1.604c0,0.246,0.105,0.365,0.343,0.365c0.196,0,0.371-0.051,0.525-0.135v0.854
			C52.96,272.906,52.701,272.991,52.344,272.991z"/>
		<path fill="#231F20" d="M57.364,271.422h-2.613c0.105,0.482,0.441,0.735,0.917,0.735c0.357,0,0.617-0.112,0.911-0.386l0.609,0.539
			c-0.35,0.436-0.854,0.699-1.534,0.699c-1.128,0-1.961-0.789-1.961-1.939v-0.014c0-1.07,0.764-1.953,1.856-1.953
			c1.253,0,1.828,0.974,1.828,2.037v0.016C57.377,271.261,57.371,271.324,57.364,271.422z M55.55,269.958
			c-0.441,0-0.729,0.315-0.812,0.799h1.604C56.278,270.279,55.998,269.958,55.55,269.958z"/>
		<path fill="#231F20" d="M62.711,272.928h-2.332v-4.902h2.276c1.001,0,1.618,0.498,1.618,1.27v0.016
			c0,0.553-0.294,0.859-0.645,1.058c0.567,0.217,0.917,0.546,0.917,1.204v0.015C64.546,272.479,63.818,272.928,62.711,272.928z
			 M63.201,269.475c0-0.322-0.252-0.504-0.707-0.504h-1.065v1.036h0.995c0.477,0,0.777-0.153,0.777-0.518V269.475z M63.475,271.436
			c0-0.328-0.245-0.531-0.798-0.531H61.43v1.078h1.282c0.477,0,0.764-0.168,0.764-0.53L63.475,271.436L63.475,271.436z"/>
		<path fill="#231F20" d="M67.52,272.928v-0.406c-0.259,0.287-0.616,0.479-1.134,0.479c-0.708,0-1.289-0.406-1.289-1.146v-0.017
			c0-0.817,0.624-1.196,1.513-1.196c0.378,0,0.651,0.062,0.917,0.153v-0.062c0-0.441-0.273-0.688-0.806-0.688
			c-0.406,0-0.693,0.077-1.037,0.203l-0.266-0.812c0.413-0.183,0.819-0.302,1.457-0.302c1.163,0,1.674,0.604,1.674,1.618v2.18H67.52
			V272.928z M67.541,271.415c-0.182-0.084-0.42-0.142-0.679-0.142c-0.455,0-0.735,0.184-0.735,0.52v0.014
			c0,0.289,0.238,0.457,0.581,0.457c0.498,0,0.833-0.272,0.833-0.658V271.415z"/>
		<path fill="#231F20" d="M70.781,272.998c-0.525,0-1.114-0.176-1.611-0.566l0.455-0.701c0.406,0.295,0.833,0.449,1.184,0.449
			c0.308,0,0.448-0.113,0.448-0.281v-0.015c0-0.229-0.364-0.308-0.777-0.434c-0.525-0.154-1.121-0.399-1.121-1.128v-0.014
			c0-0.766,0.616-1.191,1.373-1.191c0.476,0,0.994,0.16,1.4,0.435l-0.406,0.735c-0.371-0.217-0.742-0.35-1.015-0.35
			c-0.259,0-0.393,0.109-0.393,0.258v0.015c0,0.21,0.357,0.31,0.764,0.448c0.525,0.176,1.134,0.428,1.134,1.113v0.015
			C72.217,272.619,71.594,272.998,70.781,272.998z"/>
		<path fill="#231F20" d="M73,268.761v-0.944h1.121v0.944H73z M73.028,272.928v-3.754h1.064v3.754H73.028z"/>
		<path fill="#231F20" d="M76.864,273.012c-1.127,0-1.954-0.867-1.954-1.938v-0.015c0-1.072,0.82-1.955,1.968-1.955
			c0.708,0,1.148,0.238,1.499,0.631l-0.651,0.701c-0.238-0.252-0.477-0.414-0.854-0.414c-0.532,0-0.911,0.471-0.911,1.022v0.015
			c0,0.573,0.371,1.037,0.953,1.037c0.357,0,0.602-0.154,0.861-0.4l0.624,0.632C78.034,272.725,77.614,273.012,76.864,273.012z"/>
		<path fill="#231F20" d="M80.827,273.012c-1.163,0-2.024-0.861-2.024-1.938v-0.015c0-1.078,0.869-1.955,2.038-1.955
			c1.163,0,2.024,0.861,2.024,1.94v0.015C82.865,272.137,81.996,273.012,80.827,273.012z M81.814,271.059
			c0-0.554-0.399-1.037-0.987-1.037c-0.609,0-0.974,0.471-0.974,1.022v0.015c0,0.553,0.399,1.037,0.987,1.037
			c0.609,0,0.974-0.471,0.974-1.022V271.059z"/>
	</g>
</g>
<line fill="none" stroke="#585B5C" stroke-miterlimit="10" x1="3.963" y1="70.766" x2="163.934" y2="70.766"/>
</svg>
