<svg xmlns="http://www.w3.org/2000/svg" xmlns:xlink="http://www.w3.org/1999/xlink" width="701.038" height="739.805" viewBox="0 0 701.038 739.805"><defs><style>.a{fill:#87aedd;opacity:0.25;}.b{isolation:isolate;}.c{fill:#adcdfc;}.d{fill:#e2edff;}.e{fill:#c7d8f2;}.f{fill:#7baeff;}.g{fill:#4da5dc;}.h{fill:#3aaeef;}.i{fill:#e1e8f2;}.j{fill:#e16b40;}.k{fill:#ff8654;}.l{fill:#0046a6;}.m{fill:#003783;}.n{fill:#ff9f75;}.o{fill:#cfdae4;}.p{fill:#00a5ff;}.q{fill:#382747;}.r{fill:#94a3c0;}.s{fill:#fff;}.t{fill:#ff5668;}.u{fill:#b391ff;}.v{fill:#d4d9df;}.w{fill:#f2f8fd;}.x{fill:url(#a);}.y{fill:url(#b);}.z{fill:#05ccff;}.aa{fill:#540cc7;}.ab{fill:#3f0995;}.ac{fill:#7974f5;}.ad{fill:#2689fd;}.ae{fill:#3548db;}.af{fill:#58affb;}.ag{fill:#ee2c6a;}.ah{fill:#ee428c;}.ai{fill:#ff3d9d;}.aj{fill:#7cccff;}.ak{fill:#3eabff;}.al{fill:#cc096a;}.am,.au{fill:none;}.an{fill:#3278cc;}.ao{fill:#e2a029;}.ap{fill:#ffbe3d;}.aq{fill:url(#c);}.ar{fill:url(#d);}.as{fill:#343996;}.at{fill:#1ae5ff;}.au{stroke:#16c5dc;stroke-miterlimit:10;}.av{fill:#f1f1f1;}.aw{fill:#fdb913;}.ax{opacity:0.53;}.ay{fill:#ff4272;}.az{fill:#212973;}.ba{fill:#1ce5ff;}.bb{fill:#00a935;}.bc{fill:#61e041;}.bd{fill:#00cc41;}.be{fill:#14347c;}.bf{fill:#18388f;}.bg{fill:#ce7c56;}.bh{fill:#ffaa83;}.bi{fill:#4d2c63;}</style><linearGradient id="a" x1="0.151" y1="-3.15" x2="0.277" y2="-0.46" gradientUnits="objectBoundingBox"><stop offset="0" stop-color="#c6e6ff"/><stop offset="1" stop-color="#8d9fff"/></linearGradient><linearGradient id="b" x1="-2.851" y1="1.526" x2="-3.26" y2="-0.056" gradientUnits="objectBoundingBox"><stop offset="0" stop-color="#1ae5ff"/><stop offset="1" stop-color="#eaeeee"/></linearGradient><linearGradient id="c" x1="3.333" y1="2.414" x2="3.125" y2="-0.334" gradientUnits="objectBoundingBox"><stop offset="0" stop-color="#1ae5ff"/><stop offset="0.259" stop-color="#63e8f8"/><stop offset="0.704" stop-color="#eaeeee"/></linearGradient><linearGradient id="d" x1="45.413" y1="0.5" x2="44.413" y2="0.5" gradientUnits="objectBoundingBox"><stop offset="0" stop-color="#5155d4"/><stop offset="1" stop-color="#45f7ff"/></linearGradient></defs><g transform="translate(-76.974 -52.183)"><path class="a" d="M112.222,518.62c28.949-15.171,69.562-20.4,106.482-15.706L87.687,433.81c-14.311-7.549-14.236-19.787.169-27.334L387.746,249.328c14.405-7.547,37.681-7.547,51.992,0l102.48,54.051c44.339-17.768,107.791-16.037,148.1,5.227s43.442,54.649,9.506,77.9l37.852,19.965c14.311,7.549,14.234,19.787-.169,27.334L437.618,590.96c-14.4,7.547-37.681,7.547-51.99,0l-84.156-44.388C310.3,566,300.24,587.35,271.29,602.521c-44.21,23.166-115.718,23.166-159.641,0S68.012,541.787,112.222,518.62Z" transform="translate(29.589 172.092)"/><g transform="translate(463.347 181.434)"><g transform="translate(79.467)"><g transform="translate(51.156 279.83)"><g transform="translate(0 21.298)"><g class="b"><path class="c" d="M105.507,298.01c1.182,11.926,13.55,20.026,24.706,24.391,12.152,4.752,25.512,6.668,38.7,6.516,13.456-.158,27.194-2.493,39.327-7.912,10.587-4.73,21.826-13.306,21.79-24.972.025,8.495-.63,15.514-7.374,22.147-8.684,8.539-21.757,13.135-34.053,15.44-23.993,4.5-56.659,2.324-74.884-14.44-7.332-6.744-8.334-13.855-8.362-22.825Q105.39,297.187,105.507,298.01Z" transform="translate(-105.353 -263.408)"/><g transform="translate(0.001)"><path class="d" d="M123.768,288.448c-24.422,12.8-24.579,33.55-.316,46.348s63.766,12.8,88.187,0,24.522-33.549.259-46.346S148.19,275.651,123.768,288.448Z" transform="translate(-105.353 -278.85)"/></g></g></g><g transform="translate(51.23)"><g class="b" transform="translate(0)"><g transform="translate(0 5.028)"><path class="e" d="M135.829,270.281l.154,49.457,9.533,5.028-.155-49.457Z" transform="translate(-135.829 -270.281)"/></g><g transform="translate(9.533 5.028)"><path class="f" d="M131.243,275.309l.155,49.457,9.6-5.028-.154-49.457Z" transform="translate(-131.243 -270.281)"/></g><g transform="translate(0)"><path class="g" d="M131.317,272.661l9.533,5.028,9.6-5.028-9.533-5.028Z" transform="translate(-131.317 -267.633)"/></g></g></g></g><path class="h" d="M267.2,194.012s19.539,4.73,24.748,15.37,3.908,91.03-23.445,124.135-78.154,37.83-89.878,33.1S99.171,331.151,93.96,315.783s20.84-27.192,35.17-33.1,23.445-14.187,31.26-35.468,11.723-57.928,20.84-63.841S212.493,168,267.2,194.012Z" transform="translate(-93.281 -69.511)"/><g transform="translate(28.591)"><path class="i" d="M162.288,186.259s32.053-24.082,38.57-24.642c7.82-.554,17.575,1.857,20.121,11.918a17.938,17.938,0,0,1-9.238,20.645c-5.878,2.928-57.458,25.143-66.577,25.1s-14.937-7.164-9.025-16S162.288,186.259,162.288,186.259Z" transform="translate(-133.746 -83.149)"/><g transform="translate(42.098 4.738)"><g transform="translate(25.103)"><path class="j" d="M123.256,164.666a2.707,2.707,0,0,1-.065.957c-.477,2.159-1.973,7.671-2.322,9.985-.333,2.218,2.243,6.2,8.876,6.376s18.014-1.838,22.146-8.839c-.234-1.287.96-14.54,2.253-21.116Z" transform="translate(-106.508 -96.437)"/><path class="k" d="M111.818,147.2c4.793-18.228,21.418-27.953,39.371-23.284,0,0,19.591,2.67,27.486,18.758s-5.669,28.711-14.349,36.664c-3.655,3.262-6.418,5.782-8.163,7.388-.634.606-1.257,1.223-1.914,1.772l-.186.173-.019-.017a42.733,42.733,0,0,1-17.332,8.521c-8.037,1.785-17.338.142-22.127-4.978S107.023,165.425,111.818,147.2Z" transform="translate(-109.323 -122.751)"/></g><path class="l" d="M174.4,159.818s31.555,22.675,34.407,29.873,2.477,26.869-4.975,39.657-7.6,61.061-10.544,70.374-31.093,11.032-48.249,7.217-44.408-16.851-38.932-34.528c8.09-26.106,6.167-52.4,5.517-60.71s1.671-28.993,6.65-42.708c1.05-2.894,12.29-6.936,12.29-6.936S142.222,157.135,174.4,159.818Z" transform="translate(-105.391 -90.157)"/><path class="m" d="M148.81,256.752c13.025-14.975-6.079-66.2,16.5-80.392,6.885-4.327,12.795-5.419,17.694-4.859,3.027,2.882,5.27,5.411,5.935,7.092,2.851,7.2,2.477,26.869-4.975,39.657s-7.6,61.061-10.544,70.374c-2.676,8.476-26.223,10.646-43.371,8.092L105.391,273.3S135.784,271.727,148.81,256.752Z" transform="translate(-85.525 -79.06)"/><path class="i" d="M159.951,161.775c-27.434-2.288-40.061,2-43.2,3.311a66.94,66.94,0,0,0,.4,17.685c2.146,11.768,7.311,44.1,7.311,44.1s16.926-26.559,28.07-37.492c7.843-7.692,15.564-14.941,19.46-18.57C165.419,165.711,159.951,161.775,159.951,161.775Z" transform="translate(-89.875 -88.273)"/><path class="k" d="M123.256,164.666a2.707,2.707,0,0,1-.065.957c-.477,2.159-1.973,7.671-2.322,9.985-.333,2.218,2.243,6.2,8.876,6.376s18.014-1.838,22.146-8.839c-.234-1.287.96-14.54,2.253-21.116Z" transform="translate(-81.405 -96.437)"/><g transform="translate(25.103)"><path class="n" d="M111.818,147.2c4.793-18.228,21.418-27.953,39.371-23.284,0,0,19.591,2.67,27.486,18.758s-5.669,28.711-14.349,36.664c-3.655,3.262-6.418,5.782-8.163,7.388-.634.606-1.257,1.223-1.914,1.772l-.186.173-.019-.017a42.733,42.733,0,0,1-17.332,8.521c-8.037,1.785-17.338.142-22.127-4.978S107.023,165.425,111.818,147.2Z" transform="translate(-109.323 -122.751)"/></g><path class="o" d="M128.533,180.636l12.228-9.83,9.782,15.537,9.864-5.653c-11.144,10.946-28.045,37.466-28.045,37.466s-4.307-26.968-6.69-40.606Z" transform="translate(-97.771 -79.563)"/><path class="p" d="M132.793,199.676l5.448-17.455-.824-5.979,6.763-5.436,4.747,7.538-5.445,4.511L142,208.771c-3.713,5.453-6.222,9.385-6.222,9.385S134.412,209.591,132.793,199.676Z" transform="translate(-101.19 -79.563)"/></g><path class="j" d="M175.3,143.085a24.96,24.96,0,0,1-1.954,26.6c-9.77,13.6-20.24,19.646-22.819,19.282s-3.883-.957-3.232-2.73,3.908-7.684,3.908-7.684,11.071-1.183,11.071-7.684-3.906-7.684-8.466-5.913-5.209,4.73-7.816,7.094-3.255,8.277-5.209,7.686-3.257-2.366-3.257-5.32,0-6.5,3.908-10.05-.651-9.458,3.257-14.187a36.479,36.479,0,0,1,6.512-6.5s-2.6,3.547-15.631,1.181-18.886-1.772-24.1-4.728-3.908-9.458-.651-11.823,11.071-3.547,20.19-6.5,14.328-1.183,25.4,1.183S177.9,135.991,175.3,143.085Z" transform="translate(-36.479 -120.255)"/></g></g><path class="q" d="M215.023,319.695s.433,5.913-6.514,10.247-8.249,7.092-13.893,9.063-10.855,8.67-8.251,13.4,14.763,5.518,22.579,3.547,9.119-8.276,16.5-10.64,9.985-5.123,12.156-7.094,1.3-9.852,1.3-9.852l-26.487-7.88" transform="translate(-151.809 58.986)"/><path class="q" d="M231.211,307.657s.433,5.913-6.512,10.247S216.448,325,210.8,326.967s-10.855,8.671-8.249,13.4,14.761,5.518,22.577,3.547,9.119-8.275,16.5-10.64,9.987-5.123,12.156-7.094,1.3-9.851,1.3-9.851l-26.484-7.882" transform="translate(-201.864 48.167)"/><path class="r" d="M290,237.791a39.481,39.481,0,0,0-1.3,8.867c0,4.137,3.255,15.961-3.257,30.148s-50.149,17.142-64.477,23.052-22.794,11.231-25.4,13-6.295,26.8-17.583,41.774-30.394,44.924-34.735,57.535c0,0-12.355,2.645-23.447-3.942-5.807-3.448-5.211-5.516-5.211-5.516s22.579-44.926,27.79-63.843,11.288-40.984,20.84-46.5,39.944-25.221,46.892-29.163,25.666-16.4,29.334-23.964S278.709,219.467,290,237.791Z" transform="translate(-53.978 -23.244)"/><path class="r" d="M307.118,227.517a39.481,39.481,0,0,0-1.3,8.867c0,4.139,3.255,15.961-3.257,30.148s-50.149,17.142-64.477,23.052-22.794,11.233-25.4,13.006-6.295,26.8-17.583,41.772-30.394,44.924-34.735,57.535c0,0-12.355,2.645-23.447-3.94-5.807-3.45-5.209-5.518-5.209-5.518S154.285,347.515,159.5,328.6s11.288-40.984,20.84-46.5,39.946-25.221,46.892-29.162,25.669-16.4,29.334-23.962S295.83,209.193,307.118,227.517Z" transform="translate(-106.92 -32.477)"/></g><g transform="translate(106.592 266.807)"><g transform="translate(381.118 246.913)"><g class="b" transform="translate(0)"><g transform="translate(0 12.222)"><path class="e" d="M204.487,301.7l.375,120.22,23.172,12.222-.375-120.22Z" transform="translate(-204.487 -301.697)"/></g><g transform="translate(23.172 12.222)"><path class="f" d="M193.338,313.919l.375,120.22,23.324-12.222-.376-120.22Z" transform="translate(-193.338 -301.697)"/></g><g transform="translate(0)"><path class="g" d="M193.517,307.482,216.69,319.7l23.324-12.222L216.841,295.26Z" transform="translate(-193.517 -295.26)"/></g></g></g><g transform="translate(0)"><path class="c" d="M235.56,258.79a9.92,9.92,0,0,0,.132,1.048c.059.287.153.57.236.856.1.332.184.665.314.993.107.273.249.545.379.815.167.349.333.7.536,1.039.149.251.326.5.494.742.266.391.548.78.864,1.164s.619.739.971,1.1c.082.085.157.173.241.256.475.469,1,.928,1.548,1.38.353.289.747.568,1.132.847.339.247.663.5,1.027.737.416.275.874.537,1.324.8s.9.553,1.4.815l297.941,157.15a43.866,43.866,0,0,0,8.056,3.215,57.812,57.812,0,0,0,6.96,1.574q2.313.376,4.688.592c1.351.122,2.713.2,4.077.247q1.88.057,3.766.015,1.817-.04,3.621-.177l.061,19.274q-1.8.137-3.621.177-1.883.043-3.766-.015-2.049-.063-4.077-.247c-1.581-.142-3.148-.34-4.688-.592a57.722,57.722,0,0,1-6.96-1.574,43.728,43.728,0,0,1-8.056-3.215L246.212,290.656c-.153-.08-.3-.159-.45-.241-.335-.182-.621-.38-.939-.568-.452-.268-.914-.532-1.333-.807-.362-.239-.686-.488-1.023-.735-.387-.281-.78-.56-1.134-.849-.071-.059-.157-.112-.226-.171-.473-.395-.908-.8-1.32-1.208-.088-.085-.161-.173-.245-.26-.245-.251-.494-.5-.715-.758-.1-.11-.161-.228-.253-.34-.316-.384-.6-.773-.864-1.164-.113-.165-.259-.323-.364-.49-.05-.082-.079-.169-.13-.253-.2-.342-.368-.689-.536-1.037-.1-.2-.228-.4-.314-.608-.027-.068-.038-.139-.065-.207-.13-.332-.22-.665-.316-1-.065-.224-.163-.446-.213-.672-.012-.059-.01-.12-.021-.178-.071-.351-.1-.7-.134-1.052-.021-.228-.077-.456-.086-.684,0-.1,0-.2,0-.294l-.061-19.274A9.687,9.687,0,0,0,235.56,258.79Z" transform="translate(-235.468 -82.005)"/><path class="c" d="M80.549,433.724c1.228-.158,2.446-.349,3.644-.575q1.952-.367,3.835-.853c1.533-.4,3.025-.853,4.464-1.367a41.915,41.915,0,0,0,5.3-2.309L397.686,271.473c7.249-3.8,10.868-8.784,10.853-13.762l.061,19.274c.015,4.978-3.6,9.964-10.853,13.764L97.856,447.895a41.912,41.912,0,0,1-5.3,2.309c-1.439.515-2.931.97-4.464,1.367q-1.88.487-3.835.854-1.8.336-3.646.575c-1.18.152-2.374.272-3.573.361l-.061-19.274Q78.775,433.953,80.549,433.724Z" transform="translate(262.82 -82.094)"/><path class="d" d="M87.857,328.025c-14.405,7.549-14.481,19.787-.169,27.334l297.941,157.15c14.309,7.547,37.587,7.547,51.99,0L737.509,355.361c14.4-7.547,14.481-19.785.169-27.332L439.738,170.879c-14.311-7.547-37.587-7.547-51.992,0Z" transform="translate(-77.003 -165.219)"/></g></g><g transform="translate(299.914 342.777)"><g transform="translate(0 113.495)"><path class="s" d="M378.51,295.266l-82.1,43.3-57.749-30.261,82.1-43.3Z" transform="translate(-238.664 -265.004)"/><g transform="translate(60.57 16.662)"><g transform="translate(9.501)"><path class="t" d="M258.025,276.6l12.916,6.813,16.357-4.373c-4.567-4.741-15.589-6.627-24.625-4.209A21.434,21.434,0,0,0,258.025,276.6Z" transform="translate(-258.025 -273.779)"/></g><g transform="translate(0 3.709)"><path class="u" d="M261.88,275.733c-8.68,4.549-8.724,11.924-.1,16.473s22.654,4.549,31.336,0c6.945-3.64,8.575-8.939,4.159-13.525L277.5,283.97Z" transform="translate(-255.341 -275.733)"/></g></g><g transform="translate(31.044 33.261)"><g transform="translate(8.182)"><path class="c" d="M307.258,302.009c.72.378.722.978.008,1.356a3.071,3.071,0,0,1-2.577,0l-36.649-19.2c-.72-.378-.724-.978-.008-1.356a3.072,3.072,0,0,1,2.577,0Z" transform="translate(-267.497 -282.522)"/></g><g transform="translate(3.953 2.231)"><path class="v" d="M298.274,292.128c.707.368.711.984.008,1.354a3.129,3.129,0,0,1-2.59.008l-15.552-8.149c-.72-.378-.709-.985,0-1.363a3.107,3.107,0,0,1,2.577,0Z" transform="translate(-279.605 -283.697)"/></g><g transform="translate(0 4.317)"><path class="v" d="M304.737,297.829c.72.378.736.985.021,1.361a3.108,3.108,0,0,1-2.59-.006l-24.334-12.752c-.72-.378-.724-.978-.008-1.356a3.086,3.086,0,0,1,2.577,0Z" transform="translate(-277.292 -284.796)"/></g></g></g><g transform="translate(41.682 183.213)"><g transform="translate(0)"><path class="w" d="M234.66,323.94c-2,1.046-2,2.74-.023,3.784l58.6,30.881a8.633,8.633,0,0,0,7.2,0l40.9-21.433c1.994-1.044,2.008-2.738.023-3.784l-58.6-30.881a8.647,8.647,0,0,0-7.2,0Z" transform="translate(-233.157 -301.723)"/></g><g transform="translate(0.001 3.332)"><path class="x" d="M233.163,314.564c0,.047.008.1.017.144s.023.08.033.118.027.093.044.139.033.074.052.112a1.372,1.372,0,0,0,.075.144c.019.034.044.068.067.1.038.055.075.108.119.161.027.032.054.063.084.093a2.33,2.33,0,0,0,.215.211c.027.025.054.051.084.076.05.04.1.078.157.116s.092.068.142.1.121.074.184.112.123.076.192.112l58.6,30.881a5.667,5.667,0,0,0,.711.308l.2.068c.155.049.316.091.479.133s.335.082.508.114c.2.038.408.074.617.1.05.006.1.015.153.019.282.028.567.042.854.044h.136c.282,0,.565-.015.845-.042l.126-.013c.278-.03.55-.072.818-.127.048-.01.1-.023.147-.032.243-.055.479-.122.7-.2l.126-.038a5.907,5.907,0,0,0,.776-.334l40.9-21.433a2.775,2.775,0,0,0,1.41-1.392,1.473,1.473,0,0,0,.094-.515l.015,2.13a1.521,1.521,0,0,1-.023.258,2.534,2.534,0,0,1-1.481,1.648l-40.9,21.433a5.69,5.69,0,0,1-.736.321l-.04.013-.125.038c-.149.049-.3.1-.454.139-.084.021-.169.038-.253.057-.048.01-.1.021-.144.032s-.088.021-.134.029c-.165.032-.335.059-.5.08-.059.008-.121.013-.18.019-.042.006-.084.009-.126.013l-.188.019c-.165.011-.333.019-.5.023-.052,0-.1,0-.157,0h-.136c-.075,0-.151,0-.228,0-.188-.006-.377-.017-.563-.032l-.065-.01-.151-.019c-.144-.017-.291-.032-.433-.055-.063-.009-.121-.03-.184-.042-.174-.032-.343-.072-.51-.114-.088-.023-.182-.036-.268-.061s-.138-.049-.209-.072l-.2-.068a5.7,5.7,0,0,1-.711-.308l-58.6-30.881-.063-.034c-.046-.025-.088-.053-.132-.08-.061-.036-.126-.072-.182-.11s-.1-.068-.142-.1-.109-.078-.157-.116l-.031-.025c-.021-.017-.033-.034-.054-.051-.077-.068-.148-.139-.216-.211-.012-.015-.033-.03-.046-.046s-.023-.032-.036-.048a2,2,0,0,1-.119-.161c-.015-.023-.036-.046-.05-.068l-.019-.034c-.027-.047-.05-.1-.073-.144-.015-.027-.031-.055-.044-.084l-.008-.028a1.157,1.157,0,0,1-.044-.139.687.687,0,0,1-.029-.093l0-.025c-.008-.047-.013-.1-.017-.144a.787.787,0,0,1-.012-.095l0-.042-.013-2.13C233.15,314.473,233.158,314.518,233.163,314.564Z" transform="translate(-233.15 -293.637)"/><g transform="translate(7.063)"><path class="y" d="M236.926,323.037c-.638.334-.642.881,0,1.217l55.621,29.337a2.788,2.788,0,0,0,2.314,0L331.7,334.285c.642-.336.646-.881.008-1.219L276.09,303.731a2.777,2.777,0,0,0-2.318,0Z" transform="translate(-236.445 -303.478)"/></g></g></g><g transform="translate(182.359)"><path class="s" d="M291.34,235.491l-82.1,43.3-57.749-30.262,82.1-43.3Z" transform="translate(-151.493 -205.23)"/><g transform="translate(60.569 16.662)"><g transform="translate(9.503)"><path class="u" d="M170.855,216.828l12.916,6.813,16.355-4.375c-4.565-4.739-15.589-6.625-24.623-4.209A21.49,21.49,0,0,0,170.855,216.828Z" transform="translate(-170.855 -214.005)"/></g><g transform="translate(0 3.71)"><path class="z" d="M174.711,215.959c-8.682,4.549-8.726,11.924-.1,16.473s22.652,4.549,31.334,0c6.945-3.64,8.577-8.939,4.159-13.527L190.33,224.2Z" transform="translate(-168.171 -215.959)"/></g></g><g transform="translate(31.045 33.262)"><g transform="translate(8.182)"><path class="c" d="M220.085,242.235c.72.378.724.978.008,1.356a3.081,3.081,0,0,1-2.575,0l-36.649-19.206c-.72-.376-.724-.976-.008-1.354a3.071,3.071,0,0,1,2.577,0Z" transform="translate(-180.327 -222.748)"/></g><g transform="translate(3.952 2.231)"><path class="v" d="M211.1,232.352c.707.37.709.985.008,1.356a3.129,3.129,0,0,1-2.59.008l-15.552-8.151c-.72-.376-.711-.984,0-1.361a3.107,3.107,0,0,1,2.577,0Z" transform="translate(-192.435 -223.923)"/></g><g transform="translate(0 4.316)"><path class="z" d="M217.566,238.056c.72.376.736.984.021,1.361a3.1,3.1,0,0,1-2.59-.008l-24.334-12.752c-.72-.376-.724-.976-.008-1.354a3.067,3.067,0,0,1,2.575,0Z" transform="translate(-190.121 -225.021)"/></g></g></g><g transform="translate(190.174 73.099)"><g transform="translate(0 39.952)"><g class="b" transform="translate(0)"><g transform="translate(0 50.682)"><path class="aa" d="M209.162,291.463l.014,4.476,11.375,6-.014-4.476Z" transform="translate(-209.162 -291.463)"/></g><g transform="translate(11.375 6)"><path class="ab" d="M162.929,318.612l.014,4.476,96.718-50.682-.014-4.476Z" transform="translate(-162.929 -267.93)"/></g><g transform="translate(0)"><path class="ac" d="M162.936,315.452l11.375,6,96.718-50.682-11.375-6Z" transform="translate(-162.936 -264.77)"/></g></g><g class="b" transform="translate(42.987 11.733)"><g transform="translate(0 39.812)"><path class="ad" d="M188.617,291.917l.014,4.476,11.368,6-.014-4.476Z" transform="translate(-188.617 -291.917)"/></g><g transform="translate(11.368 5.996)"><path class="ae" d="M152.3,313.919l.014,4.476,75.975-39.812-.014-4.476Z" transform="translate(-152.3 -274.107)"/></g><g transform="translate(0)"><path class="af" d="M152.307,310.761l11.368,6,75.974-39.812-11.367-6Z" transform="translate(-152.307 -270.949)"/></g></g><g class="b" transform="translate(106.44 23.465)"><g transform="translate(0 18.218)"><path class="ag" d="M158.286,286.723l.014,4.476,11.367,6-.014-4.476Z" transform="translate(-158.286 -286.723)"/></g><g transform="translate(11.367 5.996)"><path class="ah" d="M141.667,298.5l.014,4.476,34.766-18.218-.014-4.476Z" transform="translate(-141.667 -280.286)"/></g><g transform="translate(0)"><path class="ai" d="M141.674,295.346l11.367,6,34.766-18.218-11.368-6Z" transform="translate(-141.674 -277.129)"/></g></g></g><g transform="translate(107.604 26.193)"><g transform="translate(0)"><g transform="translate(12.897)"><path class="c" d="M189.309,288.239c1.134.594,1.14,1.542.013,2.136a4.847,4.847,0,0,1-4.061,0L127.5,260.1c-1.136-.594-1.14-1.54-.015-2.134a4.852,4.852,0,0,1,4.063,0Z" transform="translate(-126.64 -257.524)"/></g><g transform="translate(6.229 3.515)"><path class="c" d="M175.153,272.664c1.113.583,1.119,1.551.013,2.134a4.942,4.942,0,0,1-4.084.011l-24.514-12.845c-1.134-.594-1.119-1.553.008-2.147a4.894,4.894,0,0,1,4.063,0Z" transform="translate(-145.724 -259.376)"/></g><g transform="translate(0 6.803)"><path class="c" d="M185.338,281.651c1.134.594,1.161,1.553.033,2.147a4.895,4.895,0,0,1-4.081-.011l-38.358-20.1c-1.134-.594-1.138-1.54-.013-2.134a4.851,4.851,0,0,1,4.063,0Z" transform="translate(-142.078 -261.107)"/></g></g></g><g transform="translate(143.797)"><g class="b" transform="translate(0)"><g transform="translate(10.533)"><path class="aj" d="M117.679,248.776l9.18,4.842c8.332-4.128,21.426-4.058,29.532.218.167.089.324.18.485.272l9.242-4.844c-.163-.089-.324-.178-.492-.268C152.452,242.047,131.112,241.975,117.679,248.776Z" transform="translate(-117.679 -243.729)"/></g><g transform="translate(0 5.804)"><path class="aj" d="M146.234,246.786c-10.905,6.2-12.033,15.431-3.353,22.226l9.527-4.992c-3.822-3.972-2.814-8.9,3.019-12.387Z" transform="translate(-137.117 -246.786)"/></g><g transform="translate(6.952 23.992)"><path class="ak" d="M118.479,261.277a30.125,30.125,0,0,0,2.987,1.8c12.985,6.849,33.9,7.018,47.36.513l-9.19-4.846c-8.349,3.835-21.02,3.668-28.936-.507a16.6,16.6,0,0,1-2.847-1.872Z" transform="translate(-118.479 -256.365)"/></g></g><g transform="translate(49.566 6.321)"><path class="ak" d="M114.636,251.924c6.272,4.287,5.774,10.432-1.473,14.447l9.182,4.842c12.341-6.695,12.882-17.168,1.577-24.156Z" transform="translate(-113.163 -247.058)"/></g></g></g></g><g transform="translate(454.94 169.404)"><g transform="translate(0)"><path class="af" d="M207.226,141.682c-4.217,2.208-7.638,7.585-7.623,11.985l.084,67.008c.013,4.4,3.456,6.178,7.673,3.968l20.587-10.789,1,1.266,4.017,5.134,3.985-9.327.989-2.311,20.587-10.789c4.217-2.21,7.625-7.58,7.611-11.977l-.082-67.008c-.015-4.4-3.443-6.186-7.661-3.976Z" transform="translate(-199.603 -113.92)"/><g transform="translate(12.318 21.87)"><g transform="translate(30.999)"><path class="s" d="M204.494,132.049l.006,1.885a1.6,1.6,0,0,0,2.389,1.246l9.8-5.161a1.424,1.424,0,0,0,.791-1.253l0-1.885a1.6,1.6,0,0,0-2.391-1.246l-9.8,5.161A1.424,1.424,0,0,0,204.494,132.049Z" transform="translate(-204.494 -125.438)"/></g><g transform="translate(0 9.382)"><path class="c" d="M204.48,153.224l.006,1.889a1.6,1.6,0,0,0,2.387,1.247L247.7,134.966a1.427,1.427,0,0,0,.795-1.255l0-1.889a1.6,1.6,0,0,0-2.387-1.247l-40.829,21.395A1.422,1.422,0,0,0,204.48,153.224Z" transform="translate(-204.48 -130.379)"/></g></g></g><g transform="translate(15.403 48.322)"><g transform="translate(30.388)"><path class="s" d="M204.922,144.405l.007,2.161,5.528,17.134,2.368-1.241-5.505-17.1,7.219-3.783-.007-2.209Z" transform="translate(-204.922 -139.369)"/></g><g transform="translate(18.677 6.54)"><path class="s" d="M211.022,147.192l.008,2.208,6.238-3.27.364,6.638c-.688-.853-1.736-.921-3.171-.171-2.732,1.434-3.933,4.156-3.922,7.314l.013,4.323c.01,3.4,1.567,4.794,4.8,3.1a8.718,8.718,0,0,0,4.766-8.111l0-1.471-2.232,1.17.006,1.639a4.718,4.718,0,0,1-2.473,4.506c-1.686.883-2.487.089-2.494-1.9l-.013-4.3a4.741,4.741,0,0,1,2.473-4.508c1.3-.68,2.188-.385,2.4,1.122l0,.5,2.232-1.17-.632-11.992Z" transform="translate(-210.539 -142.814)"/></g><g transform="translate(0 27.101)"><path class="s" d="M224.147,154.1a5.506,5.506,0,0,0-3.019,5.127l.021,6.959c.008,2.161.946,3.1,3.042,2A5.593,5.593,0,0,0,227.23,163l-.021-6.959C227.2,153.93,226.218,153.017,224.147,154.1Zm-1.471,11.428-.023-7.2a2.918,2.918,0,0,1,1.5-2.784c1.069-.56,1.527-.015,1.531,1.2l.023,7.2a2.979,2.979,0,0,1-1.521,2.818c-1.046.551-1.5-.044-1.508-1.23" transform="translate(-221.128 -153.643)"/></g><g transform="translate(10.403 13.347)"><path class="s" d="M216.178,159.016c.006,2.136.99,3.049,3.063,1.963a5.567,5.567,0,0,0,3.017-5.151l-.021-7.006c-.006-2.113-.99-3.049-3.04-1.975a5.6,5.6,0,0,0-3.042,5.163Zm1.525-.682-.021-7.221A2.981,2.981,0,0,1,219.2,148.3c1.094-.573,1.506.044,1.508,1.232l.023,7.219a2.863,2.863,0,0,1-1.5,2.784c-1.071.56-1.529.015-1.533-1.2" transform="translate(-216.155 -146.399)"/></g><g transform="translate(3.402 18.437)"><path class="s" d="M219.117,149.08l-1.412.74,8.427,17.78,1.435-.752Z" transform="translate(-217.705 -149.08)"/></g></g></g><g transform="translate(350.825 313.293)"><g transform="translate(0 13.213)"><path class="c" d="M240,206.259c-24.422,12.8-24.579,33.55-.316,46.348s63.766,12.8,88.187,0,24.522-33.55.259-46.348S264.418,193.462,240,206.259Z" transform="translate(-221.581 -196.661)"/></g><g transform="translate(0.398)"><g transform="translate(17.443 9.102)"><path class="al" d="M265.217,194.5l.025,8.148,15.522,8.187-.026-8.148Z" transform="translate(-265.217 -194.495)"/></g><path class="al" d="M281.909,207.888c-.109-.038-.211-.08-.318-.118-.868-.3-1.759-.57-2.663-.828-.623-.179-1.266-.336-1.9-.494-.487-.12-.969-.249-1.462-.357-.674-.148-1.36-.271-2.044-.4-.5-.091-1-.2-1.5-.277-.207-.032-.416-.059-.623-.089q-1.277-.191-2.571-.33c-.251-.027-.5-.057-.751-.082-1-.1-2-.175-3.01-.228l-.559-.027c-.678-.03-1.356-.04-2.033-.051s-1.356-.015-2.033-.008c-.567.006-1.134.023-1.7.042q-.941.034-1.881.091-.857.057-1.711.131-.932.08-1.853.188c-.554.063-1.107.135-1.657.213-.661.093-1.314.2-1.966.309-.682.118-1.366.235-2.038.374-.161.034-.322.065-.483.1-.946.205-1.876.435-2.793.682-.264.07-.521.146-.782.22q-1.142.328-2.251.7c-.215.072-.435.139-.649.215-.669.235-1.318.5-1.964.758-.32.129-.649.245-.962.38-.935.4-1.845.83-2.72,1.289l-.025-9.5c.874-.459,1.784-.887,2.722-1.289.31-.135.636-.251.954-.378.554-.224,1.1-.456,1.674-.661.1-.036.2-.065.3-.1.211-.074.429-.141.644-.213q1.108-.373,2.253-.7c.261-.074.519-.15.782-.22.176-.047.345-.1.523-.148.747-.194,1.5-.366,2.27-.534.159-.034.322-.065.483-.1.37-.076.741-.158,1.115-.228.3-.057.617-.093.923-.146.653-.112,1.305-.216,1.966-.309.264-.038.521-.091.787-.125.289-.036.582-.055.87-.087.615-.072,1.232-.133,1.851-.188.3-.027.588-.068.885-.089.274-.021.552-.025.828-.042.626-.038,1.251-.068,1.881-.091.314-.011.628-.038.943-.046.251-.006.5.008.755,0,.678-.008,1.354,0,2.031.008.337.006.674-.006,1.01.006s.684.03,1.025.046c.186.01.372.015.559.027.845.046,1.69.1,2.529.177.161.013.32.036.481.051.251.025.5.055.751.082q1.293.14,2.567.33c.209.03.421.057.628.091.1.015.2.027.3.044.4.065.793.158,1.192.23.688.127,1.377.251,2.05.4.494.108.973.235,1.456.355.642.159,1.284.317,1.912.5.134.038.274.066.408.106.764.224,1.515.467,2.253.722.107.038.209.08.318.118.81.287,1.6.6,2.372.919.228.1.456.194.68.292.858.376,1.7.767,2.5,1.192.153.08.3.161.452.241s.27.158.406.234c.228.129.456.258.676.389.2.118.4.239.588.361.213.133.425.266.63.4.186.125.368.251.55.376s.391.273.582.412c.174.127.343.256.51.385s.36.283.536.425c.071.057.149.114.22.173s.119.112.184.167c.293.251.571.5.839.76.092.085.186.171.274.256.339.336.661.676.96,1.018l.042.044c.069.08.125.161.192.239.18.216.358.433.523.651.09.12.174.241.259.363.142.2.278.395.406.594.036.055.077.108.111.163.05.082.092.163.14.245.1.169.2.338.287.507.075.14.149.281.218.423.084.169.163.34.238.511.034.076.073.152.1.228s.048.137.075.205c.065.163.123.327.178.49.05.146.1.294.144.442.048.163.09.329.132.492.021.089.05.177.071.266.013.059.019.12.029.18.036.167.063.334.088.5.023.148.046.294.063.442.019.169.029.338.04.509.006.1.019.2.023.3s0,1.551,0,1.65l.025,8.149c0-.2-.015-.395-.027-.592-.01-.171-.021-.34-.04-.509-.017-.148-.04-.3-.063-.442-.025-.169-.052-.336-.086-.5-.031-.15-.067-.3-.1-.446-.042-.163-.084-.328-.132-.492-.044-.148-.094-.3-.144-.444s-.113-.325-.176-.486c-.059-.146-.119-.29-.182-.437-.075-.169-.155-.34-.236-.509-.071-.142-.142-.283-.22-.425-.09-.169-.186-.336-.287-.505-.082-.137-.163-.271-.251-.408-.128-.2-.266-.4-.406-.594-.086-.122-.169-.243-.259-.363-.165-.218-.341-.435-.523-.649-.077-.095-.151-.19-.234-.285-.3-.342-.621-.682-.96-1.018-.088-.085-.182-.171-.272-.256-.27-.256-.548-.509-.841-.76-.132-.114-.266-.228-.4-.34-.174-.142-.354-.283-.533-.423s-.339-.26-.515-.387-.383-.275-.579-.412c-.18-.125-.362-.251-.55-.376q-.308-.2-.628-.4c-.195-.122-.389-.245-.592-.365-.22-.129-.446-.258-.674-.387-.282-.159-.563-.319-.858-.475-.8-.425-1.644-.816-2.5-1.192-.224-.1-.452-.2-.678-.291C283.508,208.485,282.719,208.175,281.909,207.888Z" transform="translate(-202.037 -184.855)"/><g transform="translate(85.231 44.857)"><path class="al" d="M232.813,213.327l.026,8.148,15.522,8.187-.026-8.148Z" transform="translate(-232.813 -213.327)"/></g><path class="am" d="M241.946,214.134l-.025-8.147c.025,8-5.795,16.016-17.449,22.122l.025,8.149C236.151,230.15,241.971,222.136,241.946,214.134Z" transform="translate(-123.719 -175.066)"/><g transform="translate(100.752 30.921)"><path class="al" d="M224.472,228.109l.025,8.149c11.654-6.108,17.474-14.123,17.449-22.124l-.025-8.147c.025,8-5.795,16.016-17.449,22.122" transform="translate(-224.472 -205.987)"/></g><g transform="translate(17.444)"><path class="t" d="M224.485,198.8l15.52,8.187c14.527-7.612,38-7.612,52.437,0s14.355,19.956-.172,27.569l15.522,8.185c23.16-12.137,23.275-31.807.272-43.94S247.645,186.666,224.485,198.8Z" transform="translate(-224.485 -189.702)"/></g><path class="an" d="M276.156,200.121l.025,5.654c-7.305,3.828-10.954,8.854-10.939,13.874l-.025-8.147C265.2,206.482,268.851,203.949,276.156,200.121Z" transform="translate(-243.192 -180.338)"/><g transform="translate(17.638 47.583)"><path class="an" d="M265.075,222.949l.025,5.653,15.623-8.187-.026-5.653Z" transform="translate(-265.075 -214.762)"/></g><path class="an" d="M272.589,207.089c.015.27.033.541.063.811.027.235.063.469.1.7.042.27.084.537.138.805.048.237.1.473.163.708.065.262.134.524.211.784.069.237.146.473.228.708.088.258.182.518.282.777.092.232.188.463.289.693.119.271.245.543.379.813.111.226.226.452.347.678q.22.4.458.805c.13.216.262.435.4.649.2.319.423.636.649.953.136.19.268.384.41.573.264.349.548.695.837,1.039.125.15.241.3.372.45.477.549.99,1.088,1.531,1.623.14.139.291.273.435.41q.64.609,1.339,1.21c.211.182.425.363.644.543.278.228.563.452.854.676.268.207.535.412.814.615.3.222.613.441.927.659.289.2.579.4.879.6.324.216.661.427,1,.64.31.194.621.387.941.577.349.209.711.414,1.073.617.452.256.9.511,1.37.76.153.082.307.156.46.237l.025,8.147c-.153-.082-.308-.156-.46-.237-.243-.127-.483-.256-.722-.385-.222-.122-.427-.249-.644-.37-.364-.207-.726-.412-1.077-.621-.32-.19-.63-.384-.939-.575-.339-.213-.676-.425-1-.642-.3-.2-.588-.4-.877-.6-.314-.218-.626-.437-.927-.659-.276-.2-.546-.408-.814-.613-.289-.226-.575-.45-.854-.678-.113-.093-.238-.182-.349-.277s-.193-.178-.295-.266q-.7-.6-1.339-1.21c-.144-.137-.295-.272-.433-.408-.542-.535-1.056-1.077-1.533-1.625-.021-.023-.046-.046-.067-.068-.109-.125-.2-.254-.305-.382-.289-.344-.571-.689-.835-1.039-.144-.19-.276-.384-.412-.575-.226-.315-.444-.632-.649-.949-.057-.087-.123-.173-.178-.26-.08-.129-.144-.262-.222-.391-.159-.268-.312-.534-.456-.8-.121-.226-.238-.454-.349-.68q-.2-.4-.377-.813c-.054-.122-.119-.241-.169-.365-.046-.108-.077-.218-.121-.328-.1-.258-.192-.516-.282-.775-.079-.237-.159-.473-.228-.71-.077-.26-.146-.522-.209-.782-.036-.142-.084-.283-.115-.423-.021-.095-.029-.192-.048-.287-.054-.266-.1-.535-.14-.8-.036-.235-.071-.469-.1-.7-.029-.27-.046-.539-.063-.809-.01-.158-.033-.317-.038-.475s-.008-.313-.008-.471l-.025-8.147C272.543,206.458,272.57,206.773,272.589,207.089Z" transform="translate(-272.542 -174.924)"/><g transform="translate(0 11.596)"><path class="af" d="M282.531,195.809c-23.156,12.133-23.271,31.806-.266,43.938.153.082.305.156.46.235l15.623-8.187c-.153-.08-.308-.154-.46-.235-14.433-7.612-14.355-19.956.163-27.564Z" transform="translate(-265.087 -195.809)"/></g><path class="ao" d="M270.493,226.628c-.646-.224-1.282-.46-1.916-.7-.379-.144-.757-.287-1.13-.435-.672-.268-1.328-.549-1.981-.832-.312-.137-.628-.268-.935-.406-.948-.431-1.881-.877-2.789-1.344l-.025-1.817c.906.467,1.839.913,2.786,1.344.31.141.628.27.941.406.651.285,1.307.564,1.977.832.372.148.751.291,1.13.435.632.239,1.272.475,1.916.7q.593.208,1.195.406.992.328,2,.63c.425.127.845.258,1.274.382.322.091.649.178.975.268q.891.242,1.795.467c.335.084.669.167,1.006.247.636.15,1.278.292,1.92.431.3.065.592.131.891.192.939.194,1.91.376,2.862.541v1.817c-.954-.165-1.9-.347-2.839-.541-.3-.061-.59-.127-.885-.19q-.966-.208-1.925-.433c-.337-.08-.672-.163-1.006-.247-.6-.15-1.2-.306-1.793-.467-.326-.089-.653-.177-.977-.268-.167-.049-.339-.091-.5-.14-.259-.074-.51-.163-.77-.241q-1.01-.3-2-.63Q271.088,226.835,270.493,226.628Z" transform="translate(-244.079 -161.488)"/><g transform="translate(17.638 51.42)"><path class="ap" d="M258.276,224.97a79.445,79.445,0,0,0,22.648,7.28l7.224-10.954a50.177,50.177,0,0,1-14.248-4.513Z" transform="translate(-258.276 -216.783)"/></g><path class="ac" d="M235.361,228.048c.592.089,1.182.18,1.778.258.695.091,1.393.165,2.092.243.594.066,1.188.137,1.787.194q1.654.154,3.324.262c.1.008.2.017.3.023,1.23.076,2.466.125,3.7.159.314.009.63.011.943.017q1.368.026,2.738.021c.379,0,.755-.006,1.134-.011,1.008-.015,2.017-.042,3.025-.085.19-.008.383-.011.575-.021,1.188-.055,2.374-.133,3.554-.226.312-.025.623-.055.933-.082q1.374-.122,2.736-.275c.328-.038.659-.074.987-.114,1.178-.144,2.349-.3,3.512-.486l.023,0c1.155-.18,2.3-.389,3.433-.608.4-.08.805-.165,1.207-.249.78-.161,1.554-.328,2.32-.509q.631-.145,1.257-.3c.663-.165,1.32-.342,1.975-.52.6-.165,1.2-.33,1.793-.507s1.2-.368,1.8-.558,1.165-.378,1.738-.575c.872-.3,1.738-.613,2.586-.942.084-.032.172-.063.255-.095.992-.391,1.96-.805,2.914-1.232.23-.1.46-.207.688-.313.956-.441,1.9-.892,2.81-1.371l.025,3.395c-.912.477-1.854.93-2.81,1.369-.228.106-.456.211-.688.315-.954.425-1.923.839-2.914,1.23l-.253.095c-.625.243-1.257.484-1.9.712-.226.082-.46.15-.688.228-.575.2-1.159.391-1.745.579s-1.186.378-1.789.556-1.2.344-1.8.507c-.368.1-.726.213-1.094.309-.289.074-.586.137-.876.211q-.628.154-1.261.3c-.766.178-1.538.346-2.316.507-.4.084-.8.169-1.209.249-.178.034-.349.074-.527.108q-1.44.271-2.9.5l-.036.006q-1.44.228-2.9.414c-.2.027-.406.046-.607.07-.328.04-.657.076-.987.114q-1.362.154-2.734.275c-.312.027-.621.057-.935.082-.159.011-.318.03-.479.042q-1.531.114-3.073.184c-.195.009-.389.013-.586.021-.718.03-1.437.061-2.157.078-.287.006-.573,0-.858.008q-.568.009-1.136.011-1.368.006-2.736-.021c-.316-.006-.63-.008-.946-.017-.126,0-.253,0-.379-.006q-1.666-.051-3.324-.154c-.1-.006-.2-.015-.3-.023-.979-.061-1.956-.131-2.929-.22-.134-.011-.264-.028-.4-.042-.6-.057-1.192-.127-1.786-.194-.7-.078-1.4-.152-2.09-.243-.6-.078-1.188-.169-1.78-.256-.51-.076-1.025-.14-1.533-.222-.339-.057-.676-.114-1.015-.173l-.025-3.393C233.656,227.8,234.51,227.923,235.361,228.048Z" transform="translate(-192.527 -162.345)"/><g transform="translate(40.286 49.602)"><path class="u" d="M240.049,220.571l-7.224,10.954c20.52,3.579,44.07,1.08,60.466-7.511l-15.522-8.187C267.539,221.186,252.868,222.764,240.049,220.571Z" transform="translate(-232.825 -215.826)"/></g></g></g><g transform="translate(76.974 52.183)"><g transform="translate(0)"><path class="aq" d="M538.162,54.025l.471-.239c.2-.1.406-.194.607-.285s.4-.177.6-.256.4-.156.59-.228.4-.141.6-.2c.038-.013.075-.023.113-.034l.044-.013c.146-.044.291-.089.435-.129.205-.057.408-.106.611-.152s.406-.087.6-.123q.326-.057.646-.1c.149-.017.291-.027.435-.04l.065-.006c.052,0,.107-.011.159-.015.234-.013.465-.021.693-.021.259,0,.515.013.768.034a8.2,8.2,0,0,1,.849.112l.021,0,.027.008a8.3,8.3,0,0,1,.985.245,7.4,7.4,0,0,1,1.195.5l9.795,5.166a7.718,7.718,0,0,0-2.178-.748l-.029-.006a9.646,9.646,0,0,0-2.487-.116l-.067.006a13.059,13.059,0,0,0-2.73.541l-.044.013a18.03,18.03,0,0,0-2.979,1.246L274.329,202.577l-9.795-5.166Z" transform="translate(-249.806 -52.183)"/><path class="ar" d="M400.369,151.217c.008-.216.019-.433.033-.649s.034-.435.057-.653.05-.439.082-.659.067-.448.1-.672l0-.019,0-.015c.038-.215.079-.429.123-.646.048-.232.1-.465.157-.7s.117-.469.18-.7.134-.475.207-.712c.057-.184.115-.368.178-.553l.013-.044.038-.112q.116-.347.245-.695c.084-.228.172-.456.261-.684s.178-.437.272-.653.188-.435.289-.651c.075-.167.155-.332.234-.5l.015-.03.054-.112q.157-.328.326-.649c.121-.237.247-.471.374-.7.148-.27.3-.535.456-.8.169-.287.349-.568.527-.849.031-.051.059-.1.092-.15s.071-.12.109-.178c.349-.537.715-1.067,1.1-1.584.3-.41.613-.815.935-1.21.215-.264.433-.526.657-.782.186-.215.377-.429.569-.638s.379-.408.571-.606.381-.389.573-.579c.04-.038.079-.072.117-.11l.042-.04c.148-.142.3-.285.446-.423q.308-.285.621-.558c.215-.188.431-.37.651-.549s.435-.351.657-.52c.111-.085.222-.165.335-.247l.075-.057c.082-.061.165-.125.249-.184.213-.154.431-.3.649-.45s.427-.281.642-.414.418-.256.63-.378.416-.235.625-.347l.146-.078,9.795,5.166a22.938,22.938,0,0,0-2.941,1.853l-.073.053a27.284,27.284,0,0,0-2.709,2.3l-.042.04a31.691,31.691,0,0,0-4.63,5.687c-.031.049-.061.1-.092.15a31.087,31.087,0,0,0-1.734,3.116l-.019.038a27.825,27.825,0,0,0-1.337,3.291l-.015.044a23.55,23.55,0,0,0-.843,3.311l0,.013a18.767,18.767,0,0,0-.291,3.258l.531,169.689a13.709,13.709,0,0,0,.3,2.89l.019.082a9.978,9.978,0,0,0,.833,2.362l.021.046a7.907,7.907,0,0,0,1.109,1.557c.136.154.266.319.41.461a7.177,7.177,0,0,0,1.615,1.208l-9.795-5.166a7.137,7.137,0,0,1-1.615-1.21c-.146-.141-.274-.3-.41-.46a7.735,7.735,0,0,1-.533-.6,8.454,8.454,0,0,1-.556-.919l-.021-.042-.019-.042c-.111-.218-.218-.442-.316-.678s-.178-.463-.257-.706c-.071-.222-.138-.45-.2-.685-.023-.095-.044-.2-.065-.294l-.019-.082c-.021-.095-.044-.186-.063-.281-.04-.209-.073-.423-.1-.642s-.054-.425-.073-.646-.033-.42-.044-.634-.015-.429-.017-.647v-.04l-.529-169.689C400.358,151.622,400.363,151.421,400.369,151.217Z" transform="translate(-400.36 16.558)"/><g transform="translate(9.795 5.167)"><path class="as" d="M276.948,200.133c-8.163,4.278-14.753,14.637-14.727,23.151l.531,169.689c.025,8.516,6.659,11.947,14.824,7.667l273.63-143.386c8.163-4.278,14.753-14.637,14.725-23.151L565.4,64.412c-.027-8.514-6.659-11.945-14.824-7.667Z" transform="translate(-262.221 -54.904)"/></g><g transform="translate(99.185 35.169)"><path class="ad" d="M323.667,116.354a9.124,9.124,0,0,0-4.63,7.278l.165,53.337c.008,2.675,2.094,3.754,4.661,2.41l86.007-45.07a9.124,9.124,0,0,0,4.63-7.276l-.167-53.339c-.008-2.675-2.092-3.754-4.659-2.409Z" transform="translate(-319.037 -70.705)"/></g><g transform="translate(226.829 48.66)"><g transform="translate(39.806)"><path class="s" d="M276.654,86.3l.006,2.421a2.053,2.053,0,0,0,3.069,1.6l12.583-6.627a1.829,1.829,0,0,0,1.019-1.61l-.008-2.421a2.052,2.052,0,0,0-3.069-1.6L277.671,84.69A1.828,1.828,0,0,0,276.654,86.3Z" transform="translate(-276.654 -77.811)"/></g><g transform="translate(0 12.047)"><path class="at" d="M276.636,113.49l.008,2.427a2.05,2.05,0,0,0,3.065,1.6l52.425-27.473a1.828,1.828,0,0,0,1.023-1.61l-.008-2.427a2.051,2.051,0,0,0-3.065-1.6l-52.427,27.473A1.832,1.832,0,0,0,276.636,113.49Z" transform="translate(-276.636 -84.156)"/></g></g><path class="au" d="M524.472,145.938,503.6,136.277l-13.652,20.016-15.227,14.058-15.227-8.34-32.554-9.532-14.7,19.063-14.7,10.961-13.389,17.871-18.115-34.551-22.053,9.531-11.551-8.578L308.538,172.5,273.1,169.636" transform="translate(-233.716 23.394)"/><g transform="translate(147.544 57.814)"><g transform="translate(13.555)"><path class="av" d="M328.806,85.095c7.924-4.151,15.424-3.091,18.522,3.452,3.879,8.18-.531,21.959-9.866,31.49l-2.167-4.576c6.324-6.7,9.27-16.16,6.588-21.818-2.188-4.612-7.473-5.356-13.058-2.43a22.62,22.62,0,0,0-4.1,2.793l-2.165-4.576A32.519,32.519,0,0,1,328.806,85.095Z" transform="translate(-322.563 -82.632)"/></g><g transform="translate(0 6.798)"><path class="aw" d="M341.507,86.212l2.163,4.572c-.341.289-.682.59-1.019.908-7.188,6.721-10.7,17.047-7.847,23.071.107.215.216.422.335.627.04.072.086.142.132.215,2.079,3.321,6.063,4.132,10.479,2.525a16.987,16.987,0,0,0,2.1-.93c.188-.1.377-.2.567-.309.345-.2.609-.357.866-.516l.119-.076c.567-.365,1.13-.758,1.7-1.2.069-.055.14-.112.213-.169.209-.165.416-.336.626-.513.077-.065.155-.127.232-.2.272-.232.544-.475.812-.723.435-.408.851-.826,1.259-1.253l2.167,4.576c-.414.42-.831.837-1.261,1.24-.385.357-.77.7-1.161,1.035-.109.095-.218.19-.331.283-.295.249-.594.492-.893.729-.1.08-.2.161-.3.237-.8.619-1.613,1.19-2.416,1.7-.063.042-.126.08-.19.118-.366.235-.734.452-1.1.663l-.128.07c-.249.142-.5.277-.749.408q-.891.467-1.776.849c-.444.19-.862.353-1.28.505-6.736,2.425-12.767.894-15.464-4.8-4.048-8.542.937-23.2,11.127-32.73Q340.995,86.653,341.507,86.212Z" transform="translate(-327.952 -86.212)"/></g></g><g transform="translate(107.114 84.924)"><g transform="translate(23.008)"><path class="s" d="M345.275,101.815l0,1.4a1.186,1.186,0,0,0,1.774.925l7.272-3.83a1.053,1.053,0,0,0,.588-.93l0-1.4a1.185,1.185,0,0,0-1.774-.923l-7.272,3.828A1.057,1.057,0,0,0,345.275,101.815Z" transform="translate(-345.275 -96.91)"/></g><g transform="translate(0 6.962)"><path class="s" d="M345.264,117.531l0,1.4a1.185,1.185,0,0,0,1.772.925l30.3-15.877a1.06,1.06,0,0,0,.592-.932l0-1.4a1.187,1.187,0,0,0-1.772-.927l-30.3,15.879A1.055,1.055,0,0,0,345.264,117.531Z" transform="translate(-345.264 -100.577)"/></g><g class="ax" transform="translate(12.537 20.897)"><path class="s" d="M345.243,118.325l0,1.4a1.183,1.183,0,0,0,1.77.925l17.809-9.33a1.06,1.06,0,0,0,.592-.932l-.006-1.4a1.185,1.185,0,0,0-1.77-.927l-17.809,9.332A1.056,1.056,0,0,0,345.243,118.325Z" transform="translate(-345.243 -107.916)"/></g><g transform="translate(4.722 13.93)"><path class="af" d="M345.254,118.739l0,1.4a1.184,1.184,0,0,0,1.77.925l25.6-13.416a1.055,1.055,0,0,0,.59-.93l0-1.4a1.185,1.185,0,0,0-1.772-.925l-25.6,13.416A1.055,1.055,0,0,0,345.254,118.739Z" transform="translate(-345.254 -104.246)"/></g></g><g transform="translate(23.393 173.445)"><path class="ay" d="M401.532,145.519c8.826-4.625,16.029-.9,16.058,8.307s-7.127,20.415-15.953,25.04-15.991.919-16.02-8.286S392.7,150.146,401.532,145.519Z" transform="translate(-385.616 -143.531)"/><g transform="translate(8.759 10.226)"><path class="az" d="M397,149.815c3.989-2.09,7.247-.406,7.259,3.756s-3.222,9.23-7.213,11.32-7.23.416-7.242-3.746S393.008,151.907,397,149.815Z" transform="translate(-389.803 -148.917)"/></g></g></g><g transform="translate(224.359 79.792)"><g transform="translate(41.174)"><path class="ba" d="M276.923,102.92v2.5a2.115,2.115,0,0,0,3.159,1.659l13-6.8a1.887,1.887,0,0,0,1.056-1.658v-2.5a2.114,2.114,0,0,0-3.159-1.658l-13,6.8A1.889,1.889,0,0,0,276.923,102.92Z" transform="translate(-276.923 -94.207)"/></g><g transform="translate(0 12.425)"><path class="ba" d="M276.924,130.853v2.5a2.115,2.115,0,0,0,3.157,1.659l54.172-28.187a1.893,1.893,0,0,0,1.061-1.658v-2.5a2.115,2.115,0,0,0-3.157-1.659l-54.172,28.187A1.89,1.89,0,0,0,276.924,130.853Z" transform="translate(-276.924 -100.751)"/></g><g class="ax" transform="translate(22.328 37.294)"><path class="ba" d="M276.93,132.33l0,2.5a2.115,2.115,0,0,0,3.157,1.659l31.838-16.564a1.89,1.89,0,0,0,1.058-1.659v-2.5a2.112,2.112,0,0,0-3.155-1.659L277.989,130.67A1.888,1.888,0,0,0,276.93,132.33Z" transform="translate(-276.928 -113.849)"/></g><g transform="translate(8.397 24.86)"><path class="ba" d="M276.926,133.03v2.5a2.115,2.115,0,0,0,3.157,1.659l45.772-23.816a1.892,1.892,0,0,0,1.059-1.659v-2.5a2.114,2.114,0,0,0-3.155-1.659l-45.772,23.816A1.889,1.889,0,0,0,276.926,133.03Z" transform="translate(-276.926 -107.3)"/></g></g><g transform="translate(63.538 255.135)"><g class="b"><g transform="translate(7.694 41.039)"><path class="bb" d="M381.819,212.065l-7.386-3.9.142,45.513,7.387,3.9Z" transform="translate(-374.433 -208.169)"/></g><path class="bc" d="M366.129,230.275l0-.055,0-.055,0-.055.006-.055.01-.057.01-.059.013-.059,0-.013v0l.013-.044.017-.059.019-.063.023-.061.021-.057.025-.059.025-.059.029-.059.029-.061.033-.061v0l22.993-41.546.029-.049c.019-.034.04-.068.061-.1.038-.055.075-.108.113-.161l.075-.095.054-.065.05-.055.048-.053.027-.027,0,0,.021-.021.054-.049L390,187l.059-.049.059-.047.059-.044.056-.038.057-.038.056-.032.054-.03.013-.006.042-.023.052-.025.052-.023.054-.019.052-.019.052-.015.054-.013.054-.011.056-.008.021,0h0l.033,0c.021,0,.042,0,.063,0l.065,0c.025,0,.05.006.073.009a.609.609,0,0,1,.09.023.765.765,0,0,1,.109.044l7.387,3.9a.766.766,0,0,0-.433-.074h0a1.376,1.376,0,0,0-.492.158,2.255,2.255,0,0,0-.542.406l0,0a2.767,2.767,0,0,0-.458.608L373.8,233.176a2.481,2.481,0,0,0-.234.583v0a1.573,1.573,0,0,0-.048.509v0a.952.952,0,0,0,.117.395l0,.008a.656.656,0,0,0,.257.253l-7.387-3.9a.637.637,0,0,1-.222-.2c-.013-.017-.023-.038-.036-.057l0-.008-.013-.019c-.013-.025-.023-.047-.034-.074l-.023-.061-.019-.063-.013-.057-.008-.059-.006-.053,0-.01v0l0-.044Z" transform="translate(-366.129 -186.555)"/><g transform="translate(7.387 3.896)"><path class="bd" d="M379.151,188.769a2.575,2.575,0,0,0-1,1.018l-22.993,41.546c-.68,1.236-.073,2.233,1.01,1.665l6.4-3.351.142,45.512,33.589-17.6-.142-45.514,6.182-3.239c1.1-.575,1.7-2.2,1-2.717l-23.177-17.352A.951.951,0,0,0,379.151,188.769Z" transform="translate(-354.869 -188.607)"/></g></g></g></g><g transform="translate(83.992 367.651)"><g transform="translate(195.603 25.53)"><path class="s" d="M383.6,247.006l-66.449,61.562-64.537-15.23,66.449-61.562Z" transform="translate(-252.612 -231.776)"/><g transform="translate(54.389 13.079)"><g class="b" transform="translate(0)"><g transform="translate(5.251)"><path class="d" d="M272.057,244.585l6.362,2.185c4.789-3.4,13.071-4.61,18.69-2.681.115.04.224.082.337.123l5.28-3.942c-.113-.042-.226-.084-.343-.122C293.253,237.015,279.758,239.007,272.057,244.585Z" transform="translate(-272.057 -238.665)"/></g><g transform="translate(0 6.536)"><path class="d" d="M288.5,242.107c-6.173,4.958-5.816,10.9.458,14.366l5.441-4.063c-2.876-2.146-2.81-5.358.473-8.117Z" transform="translate(-284.057 -242.107)"/></g><g transform="translate(5.753 15.811)"><path class="ak" d="M271.14,252.521a20.048,20.048,0,0,0,2.1.853c9,3.087,22.236,1.2,29.988-4.2l-6.37-2.185c-4.83,3.22-12.857,4.325-18.342,2.442a11.068,11.068,0,0,1-2.017-.911Z" transform="translate(-271.14 -246.992)"/></g></g><g transform="translate(31.56 1.973)"><path class="ak" d="M268.468,243.667c4.46,2.111,4.858,6.04.745,9.27l6.362,2.185c7.025-5.409,6.152-12.08-1.8-15.418Z" transform="translate(-268.468 -239.704)"/></g></g></g><g transform="translate(69.031 210.128)"><g transform="translate(141.481 130.294)"><path class="r" d="M333.735,400.173s5.211,3.251.326,10.935-9.119,2.956-20.19,10.64-14.979,9.161-20.84,8.571-9.445-3.251-10.422-6.207,1.954-7.98,1.954-7.98Z" transform="translate(-282.41 -395.327)"/><path class="q" d="M286.7,402.761s-2.28,10.05-3.581,17.734c-.326,3.547,4.885,8.373,12.374,8.079s11.723-2.366,14.328-5.32,18.886-8.67,21.817-11.035,3.584-9.458,2.28-11.231a10.442,10.442,0,0,0-11.4-2.66c-5.211,2.07-9.443,5.911-19.865,6.5S286.7,402.761,286.7,402.761Z" transform="translate(-282.266 -397.621)"/></g><g transform="translate(89.813 1.309)"><g transform="translate(0 103.371)"><path class="r" d="M358.433,386.682s5.211,3.251.326,10.935-9.119,2.956-20.19,10.64-14.981,9.163-20.842,8.571-9.443-3.251-10.42-6.207,1.954-7.978,1.954-7.978Z" transform="translate(-307.108 -381.837)"/><path class="q" d="M311.4,389.27s-2.28,10.05-3.583,17.734c-.324,3.547,4.885,8.375,12.376,8.079s11.721-2.364,14.328-5.32,18.886-8.67,21.817-11.034,3.581-9.459,2.28-11.231a10.442,10.442,0,0,0-11.4-2.66c-5.209,2.068-9.443,5.911-19.863,6.5S311.4,389.27,311.4,389.27Z" transform="translate(-306.966 -384.13)"/></g><path class="be" d="M352.715,356.427c-2.607,18.915-13.027,68.571-14.763,85.91,0,0-4.343,6.306-17.368,4.728l-6.182-2.337a5.389,5.389,0,0,1-3.653-5.694c1.31-9.562,4.257-33.64,2.887-47.928-1.736-18.127,3.475-29.161,3.475-29.161-.435-5.911-1.3-26.4,11.721-31.921,0,0,31.913-5.32,23.882,26.4" transform="translate(-307.794 -329.688)"/></g><path class="bf" d="M394.659,339.313l3.475,6.306s53.4,2.364,67.732,16.551c0,0,9.552,1.576,6.947,20.493s-13.025,68.569-14.763,85.908c0,0-4.341,6.306-17.367,4.73l-6.182-2.337a5.389,5.389,0,0,1-3.653-5.694c1.31-9.562,4.257-33.64,2.889-47.928-1.738-18.127,3.473-29.163,3.473-29.163a294.5,294.5,0,0,0-48.63,13.4c-25.181,9.458-46.892-1.576-56.444-6.306s-13.025-7.882-13.025-7.882a42.282,42.282,0,0,1-23.447-8.67c-11.288-8.67-13.027-31.526-.868-44.924S394.659,339.313,394.659,339.313Z" transform="translate(-286.411 -328.999)"/></g><g transform="translate(68.958 68.724)"><path class="bg" d="M381.195,286.444s-8.629-2.9-8.062-13.365c2.619-10.3,5.786-11,5.786-11s-12.073-10.124-26.635-6.934c0,0-8.993,16.564-19.167,23.658C333.117,278.805,341.248,298.267,381.195,286.444Z" transform="translate(-291.978 -254.526)"/><g transform="translate(0 12.608)"><path class="ao" d="M387.821,286.242S355.908,262,349.394,261.414c-7.814-.591-17.583,1.773-20.19,11.823a17.922,17.922,0,0,0,9.119,20.688c5.862,2.956,57.312,25.418,66.431,25.418s14.979-7.094,9.119-15.961S387.821,286.242,387.821,286.242Z" transform="translate(-317.491 -261.019)"/><path class="ap" d="M383.454,267.982s33.867,10.245,43.419,24.433,7.816,29.95.868,52.019,6.947,41.772,3.473,53.593-27.788,22.857-63.391,17.341-38.208-18.129-40.814-25.223,6.947-40.984-1.736-68.569,8.684-46.5,15.631-51.231S361.743,259.312,383.454,267.982Z" transform="translate(-322.893 -258.917)"/><path class="ao" d="M341.666,270.345c6.947-4.728,20.84-11.033,42.551-2.364,0,0,33.867,10.245,43.419,24.433a37.965,37.965,0,0,1,5.029,10.661c-13.713-16.177-33.174-23.282-45.844,4.314C375,333.144,405.078,408.842,431.36,385.042c1.107,4.965,1.686,9.351.617,12.985-3.473,11.823-27.788,22.857-63.391,17.341s-38.208-18.129-40.814-25.223,6.947-40.984-1.736-68.569S334.719,275.075,341.666,270.345Z" transform="translate(-323.656 -258.917)"/><path class="s" d="M386.046,283.63s-9.117,5.32-31.913,2.364-24.1-17.734-22.144-18.915,5.862-5.913,5.862-5.913,24.1,10.05,32.564,13.006,13.027,4.728,13.027,4.728Z" transform="translate(-293.139 -261.166)"/></g></g><g transform="translate(115.41)"><path class="bh" d="M382.144,254s1.954,21.279-10.422,35.466-24.748,5.911-32.564,2.364-11.071-9.458-13.677-26.6-2.6-33.695,11.073-39.015,28.656-6.5,37.122,6.5S382.144,254,382.144,254Z" transform="translate(-320.708 -214.633)"/><path class="bi" d="M374.825,232.278s11.073,7.684,10.42,18.915,3.257,13,1.954,18.915-11.723,7.686-12.374,15.961S360.5,297.3,353.332,299.663s-18.886-5.318-22.144-9.458-2.6-14.778-6.512-24.235-1.954-21.281,1.3-29.556,9.769-10.05,9.769-10.05a15.546,15.546,0,0,1,11.071-7.684C354.635,217.5,378.732,218.681,374.825,232.278Z" transform="translate(-322.508 -218.331)"/></g><g transform="translate(0 133.935)"><g transform="translate(63.2 173.661)"><g transform="translate(0 21.299)"><g class="b"><path class="c" d="M319.075,410.709c1.182,11.928,13.55,20.028,24.706,24.391,12.15,4.753,25.512,6.67,38.7,6.516,13.456-.158,27.194-2.493,39.327-7.912,10.588-4.728,21.826-13.306,21.79-24.972.025,8.495-.63,15.514-7.374,22.147-8.684,8.539-21.757,13.137-34.053,15.44-23.993,4.5-56.659,2.324-74.884-14.44-7.332-6.744-8.334-13.853-8.362-22.825Q318.958,409.886,319.075,410.709Z" transform="translate(-318.921 -376.108)"/><g transform="translate(0.001)"><path class="d" d="M337.336,401.146c-24.422,12.8-24.579,33.55-.316,46.348s63.765,12.8,88.187,0,24.522-33.549.257-46.346S361.758,388.351,337.336,401.146Z" transform="translate(-318.921 -391.55)"/></g></g></g><g transform="translate(51.23)"><g class="b" transform="translate(0)"><g transform="translate(0 5.028)"><path class="e" d="M349.4,382.98l.155,49.457,9.533,5.028-.155-49.457Z" transform="translate(-349.397 -382.98)"/></g><g transform="translate(9.533 5.028)"><path class="f" d="M344.811,388.009l.155,49.457,9.6-5.028-.154-49.457Z" transform="translate(-344.811 -382.981)"/></g><path class="g" d="M344.885,385.36l9.533,5.028,9.6-5.028-9.533-5.028Z" transform="translate(-344.885 -380.332)"/></g></g></g><path class="an" d="M303.347,298.7c.276-6.856,7.77-11.516,14.9-9.245,31.152,9.919,102.547,33.4,107.134,41.73,4.37,7.935,18.5,52.259,25.449,74.462,2.008,6.416,10.155,9.355,16.485,5.966l43.153-23.1c8.209-4.394,18.334,1.914,16.767,10.447l-6.929,37.73a10.257,10.257,0,0,1-5.479,7.156l-46.172,24.074a96.771,96.771,0,0,1-83.932,2.2l-35.6-16.152C318,439.839,298.838,410.51,300.11,378.943Z" transform="translate(-300.051 -288.87)"/><path class="h" d="M317.113,312.022c4.37,7.935,18.5,52.259,25.449,74.462,2.008,6.416,10.155,9.355,16.485,5.966l43.153-23.1c8.207-4.394,18.334,1.914,16.767,10.447l-6.929,37.73a9.422,9.422,0,0,1-.879,2.506q-.825,1.179-1.667,2.351a10.89,10.89,0,0,1-2.933,2.3l-46.172,24.074a94.827,94.827,0,0,1-31.229,9.832c-37.453-26.375-32.731-136.475-19.15-145.719a19.414,19.414,0,0,1,5.349-2.683A6.876,6.876,0,0,1,317.113,312.022Z" transform="translate(-191.779 -269.711)"/></g><g transform="translate(149.506 72.928)"><path class="ap" d="M354.612,305.335S322.7,281.1,316.186,280.509c-7.816-.592-17.583,1.773-20.19,11.821a17.92,17.92,0,0,0,9.119,20.689c5.862,2.956,57.312,25.418,66.431,25.418s14.978-7.094,9.117-15.959S354.612,305.335,354.612,305.335Z" transform="translate(-295.361 -235.453)"/><path class="bh" d="M268.263,288.2a20.054,20.054,0,0,0,1.954-5.024c.324-2.07-.977-4.73.324-9.458s3.584-8.867,4.561-12.118c2.6-2.956,4.885,2.364,2.931,6.8s-1.3,7.094.651,7.388,10.094-4.137,12.374-6.5,15.3-13.891,16.608-12.414,1.3,2.956-3.257,7.39-6.186,6.5-6.512,7.684,0,2.364-1.628,5.911-.326,5.911-3.257,9.161-8.466,3.843-11.071,5.913L279.333,295Z" transform="translate(-164.072 -256.739)"/><path class="ap" d="M290.132,346.051s13.677,2.366,21.058-11.428,19.972-50.836,21.708-54.381a16.483,16.483,0,0,0-15.2-8.276s-12.156,21.674-19.1,31.526S266.9,342.112,290.132,346.051Z" transform="translate(-213.947 -243.067)"/></g></g><g transform="translate(469.247 283.475)"><g transform="translate(0 4.428)"><path class="n" d="M246.136,197.028s-4.245-2.451-6.755-1.751a119.978,119.978,0,0,1-13.891,2.1c-2.7.175-8.1-4.2-9.069-4.9s-1.544-2.277-2.7-3.327-1.736-.875-1.736-2.8-2.121-3.678-3.088-4.553-4.822-2.977-4.437-4.553,2.316-.7,3.473-.351,5.6,4.029,7.525,5.079,6.56,2.628,8.876,2.628a20.877,20.877,0,0,0,4.439-.526s.577,0-1.736-.7-3.667-.175-5.6-.526-2.9-1.4-2.7-2.277,2.7-.875,3.667-.875a83.818,83.818,0,0,0,9.069-.175c2.316-.349,6.173,3.152,6.945,3.853s4.824,1.751,6.947,1.927S246.136,197.028,246.136,197.028Z" transform="translate(-204.431 -176.33)"/><path class="i" d="M251.823,193.217s-4.038,12.093-20.924,11.628-58.883-7.527-63.151-7.775c0,0-6.447-7.513-1.027-16.057,0,0,26.8.281,39.635-.735S258.754,172.711,251.823,193.217Z" transform="translate(-127.079 -174.394)"/></g><g transform="translate(109.853)"><path class="i" d="M108.916,221.463s7.058-37.221,11.6-41.5c5.537-5.039,14.673-8.973,23.823-2.84s10.157,15.435,7.795,21.131-25.583,53.035-32.534,58.39-16.478,3.387-18.33-6.816S108.916,221.463,108.916,221.463Z" transform="translate(-4.643 -173.998)"/><path class="n" d="M188.87,209.855s-5.537.3-7.489.3-16.935-1.183-19.539-1.183a2.589,2.589,0,0,0-2.6,2.66s-2.607,3.841-2.607,5.32a13.378,13.378,0,0,1-.651,5.024c-.651,1.477.326,2.66.977,3.843s2.28,1.773,3.908,2.66a5.732,5.732,0,0,0,4.885.294c1.3-.591,1.3-.887-.326-1.773a17.146,17.146,0,0,1-2.931-2.068A9.282,9.282,0,0,0,167.378,227c2.931.3,7.489.3,10.1-.887l7.163-3.251,5.211-.59Z" transform="translate(-155.766 -142.569)"/><path class="i" d="M203.464,221.859s-4.038,12.093-20.924,11.628-58.883-7.527-63.151-7.777c0,0-6.447-7.513-1.027-16.057,0,0,26.8.281,39.635-.733S210.395,201.353,203.464,221.859Z" transform="translate(-87.406 -144.225)"/></g></g></g></svg>