<svg xmlns="http://www.w3.org/2000/svg" width="30" height="30" viewBox="0 0 30 30"><defs><style>.a{fill:#747f92;}</style></defs><path class="a" d="M15,0A15,15,0,1,0,30,15,15,15,0,0,0,15,0Zm9.071,11q.011.266.011.533A12.909,12.909,0,0,1,11.046,24.568a12.984,12.984,0,0,1-7.023-2.059.111.111,0,0,1-.045-.131.112.112,0,0,1,.118-.073,9.068,9.068,0,0,0,1.07.063A8.945,8.945,0,0,0,10.5,20.63a4.652,4.652,0,0,1-4.039-3.216.111.111,0,0,1,.126-.143,4.466,4.466,0,0,0,1.547.022,4.668,4.668,0,0,1-3.271-4.445v-.06a.111.111,0,0,1,.056-.094.11.11,0,0,1,.109,0,4.448,4.448,0,0,0,1.624.525,4.658,4.658,0,0,1-1.122-5.98.11.11,0,0,1,.087-.055.109.109,0,0,1,.095.041,12.832,12.832,0,0,0,9.137,4.7,4.709,4.709,0,0,1-.089-.916,4.656,4.656,0,0,1,8.007-3.229A8.971,8.971,0,0,0,25.555,6.7a.111.111,0,0,1,.162.13,4.646,4.646,0,0,1-1.636,2.3,8.946,8.946,0,0,0,2.1-.636.111.111,0,0,1,.137.164A9.275,9.275,0,0,1,24.071,11Z"/></svg>